<?xml version="1.0" encoding="utf-8"?>
<!-- Generator: Adobe Illustrator 23.0.6, SVG Export Plug-In . SVG Version: 6.00 Build 0)  -->
<svg version="1.1" id="Calque_1" xmlns="http://www.w3.org/2000/svg" xmlns:xlink="http://www.w3.org/1999/xlink" x="0px" y="0px"
	 viewBox="0 0 2848.6 2619.1" style="enable-background:new 0 0 2848.6 2619.1;" xml:space="preserve">
<style type="text/css">
	.st0{fill:#010101;}
	.st1{fill:#0A0B0D;}
	.st2{fill:#050708;}
	.st3{fill:#D4DCDC;}
	.st4{fill:#777A7A;}
	.st5{fill:#4A4E4E;}
	.st6{fill:#2C7CBD;}
	.st7{fill:#3BA7FF;}
	.st8{fill:#FFFFFF;}
	.st9{fill:#BDBDBD;}
	.st10{fill:#BCBDBD;}
	.st11{fill:#C1C0C0;}
	.st12{fill:#030405;}
	.st13{fill:#2C7BBC;}
	.st14{fill:#2B7AB9;}
	.st15{fill:#39A3F9;}
	.st16{fill:#D7DDDD;}
	.st17{fill:#ABADAE;}
	.st18{fill:#A0A3A4;}
	.st19{fill:#3598E9;}
	.st20{fill:#12334D;}
	.st21{fill:#2770A9;}
	.st22{fill:#D3D3D3;}
	.st23{fill:#9CA3A3;}
	.st24{fill:#010102;}
	.st25{fill:#CFCFCF;}
	.st26{fill:#D6D6D6;}
	.st27{fill:#BFC3C3;}
	.st28{fill:#EDEDED;}
	.st29{fill:#CAC3C3;}
	.st30{fill:#020507;}
	.st31{fill:#3BA7FE;}
	.st32{fill:#4EACFD;}
	.st33{fill:#293039;}
	.st34{fill:#369DEF;}
	.st35{fill:#FEFEFE;}
	.st36{fill:#BBBBBB;}
	.st37{fill:#D3D2D2;}
	.st38{fill:#CECFCF;}
	.st39{fill:#ACACAC;}
	.st40{fill:#504A4A;}
	.st41{fill:#DBDEDE;}
	.st42{fill:#D4DFDF;}
	.st43{fill:#ECF5F5;}
	.st44{opacity:0.23;enable-background:new    ;}
</style>
<g>
	<path d="M2763.4,1599.6c-6.4-37.4-11.2-75.1,22.3-105.4c12.2-11,14.2-28.1,12.8-44.7c-2.3-27.5-10.6-53.4-19.8-79.2
		c-28.5-79.8-67.3-155-103.1-231.6c-16.1-34.6-32.4-69.4-23.3-110.5c5.4-24.3-6.7-46.7-22.9-63.8c-92.4-97.5-180.8-199.9-302.5-264
		c-29.5-15.5-31.7-34.8-6.2-54.5c57.4-44.5,103.1-96.8,127.2-167.6c32.1-94.5,21-186.8-8.3-278.4c-12.4-38.9-31.2-41.2-57.5-9.7
		c-12.7,15.2-23,32.6-33.1,49.8c-37.3,63.7-89.2,110.3-158.3,137.4c-41.1,16.1-84,25.7-126.2,37.7c-20.6,5.8-35.9,7.1-46.1-17
		c-6.6-15.6-23.3-23.4-38.5-30.4c-19.4-8.9-39.1-16.8-58.7-25.2c-6-2.6-13-3.8-10.7-13.6c6.9-29-8.3-23.3-24.6-15.3
		c-4.6,2.2-8.9,8.1-14.3,4.5c-6.5-4.4-1.6-10.9-0.6-16.4c4.1-24.2,14.9-45.3,29.2-65c4.5-6.2,11-12.9,5.8-21.6
		c-5.7-9.5-15.4-9.6-24.9-8.1c-26.5,4-51.8,12.5-76,23.7c-13.1,6.1-21,4.5-29.2-7.8c-54.8-83.1-131.7-135.4-226.6-163.8
		c-64.5-19.3-129.7-30.7-197-25c-38,3.2-44.6,17.6-22.6,48.6c13.8,19.5,30,37.4,45,56.1c6.3,7.9,13.2,16.2,7.5,27
		c-5.3,10-15.9,8.7-25,8.5c-10.6-0.3-21.3-1.4-31.8-3.1c-57.2-9.1-114.2-19.8-171.6-27.4C1024,126.5,898.6,141.1,781,202
		c-20.4,10.5-47.2,22.6-43.5,49.1c3.9,28.1,33.2,32.8,57.4,38.5c27.2,6.4,54.9,11,80.2,23.7c10.7,5.4,13.1,8.5,0.5,16
		c-21.7,12.9-41.9,28.3-55.2,50.7c-0.4,2.5-1.8,4.1-4,5.1l0.2-0.3c-9.7,10-0.5,12.1,6.3,15.2c1.8,0.4,3.6,0.6,5.5,0.6
		c6.4-1.5,12,0.9,17.8,3c1.7,0.4,3.5,0.7,5.2,0.6c5.2-0.9,7.6-3.6,5.7-9c-0.8-1.4-1.7-2.7-2.9-3.8c-1.7-1.4-3.5-2.5-5.4-3.5
		c-1.1-0.6-2.1-1.4-3-2.2c-0.7-1-0.8-2.1-0.5-3.2c-0.1,0,1.1-1.5,1-1.5c1-0.9,2.1-1.8,3.1-2.7c20.2-15.4,34.9-38.8,63.5-42.1
		c7.9-0.9,9.1-8.7,7.9-15.9c-2.3-7.8-7.8-13.3-14-18.2c-27.6-20.3-59.7-28.5-92.7-34.4c-13.7-2.4-27.7-4.2-40.3-10.9
		c-9.6-5.1-10.6-11.2-2.5-18.5c3.5-3.1,7.1-6,11.2-8.3c1.6-1.1,3.3-2.2,4.8-3.4c1.7-1.2,3.5-2.2,5.3-3.1
		c85.8-47.1,179.7-60.5,275.4-61.6c53.7-0.6,107.2,8.5,160.4,17.2c9.3,0.2,18.3,1.8,27.5,3.2c37.4,5.7,74.5,15.5,112.7,13.7
		c31.4-1.5,46-24.4,35.2-54c-3.2-8.9-7.9-17.2-14.7-23.5c-12.8-11.8-22.2-26.4-34.4-38.6c-10.6-17.1-9.2-20.5,10.9-22.8
		c27.9-3.2,55.7-0.7,83.3,3.2c82.7,11.6,159.9,37.8,228,87.5c7.6,4.3,14,9.9,20.5,15.8c21.4,19.4,36.4,44,54.7,65.9
		c22.2,26.5,41.5,55.5,67,79c33.6,30.9,75.3,47,117.2,62.5c18.8,6.9,37.3,14.4,54.1,25.3c6.7,4.3,14.2,9.8,13.5,18.5
		c-0.8,9.5-11.1,7.3-17.3,10.3c-11.8,5.7-28.8,4.2-31.3,22.7c1.3,3,3.7,4.8,6.6,5.8c5.3,1.4,10.6,0.7,15.8-0.5
		c37-8.5,74.5-14.3,111.6-22.1c98-20.6,189.7-53.4,253.9-136.9c5.8-6.5,10-14.1,15-21.1c13.3-19.1,20.5-41.9,35.5-59.9
		c4.4-5.3,7.9-14.3,16.5-12c6.8,1.8,7.9,10.2,9.8,16.4c10,33.2,14.8,67.4,20.6,101.5c1,4.5,2.4,8.9,2.5,13.6
		c2.6,113.3-33.9,209-123.4,282.6c-30.9,25.4-65,45.7-97.7,68.3c-5,17.3,1,24.8,17.2,20.8c12.3-3.1,22.8-10.9,34.6-15.4
		c3.6-1.4,9.2-3.8,10.8,0.2c2.3,5.5-4.3,5.2-7.5,6c-25.8,6.6-50.2,17.7-76.5,22.4c-6.5,1.2-13,2.9-18.7,6.7
		c-3.4,2.3-6.5,5.1-6.3,9.5c0.3,5.6,4.7,7.6,9.4,8.9c8.5,2.2,17.2,1.4,25.7,0.1c18.5-2.7,36.5-7.8,53.8-14.7
		c33.3-13.2,63.7-9.3,91.7,13.2c6.2,5,13.1,9.1,19.4,14c12.4,9.8,26.8,17,37.5,29c2.1,2,4.3,3.9,6.7,5.6c1.7,1,3.4,2.1,5.1,3
		c29.1,28.3,56.5,58.4,86.9,85.4c33.4,29.7,65.1,61,93.7,95.5c16.3,19.7,24.2,41.2,20.1,66.5c-2.4,14.3,0.8,27.5,4.8,41.2
		c18.8,64.4,51.9,122.7,78.8,183.5c23.2,52.4,46.4,104.8,60.7,160.7c6.4,25,4.5,47.2-13.1,67.3c-9.9,11.4-13.4,25.3-14.8,40.5
		c-4.1,44.5,3.9,87.6,13,130.7c9.6,45.7,17.5,91.7,15.3,138.7c-3,65-20.9,125.3-81.6,157.2c-32.3,17-61.7,37-92.4,55.7
		c-51.1,31.3-109.7,43.9-168.8,41.6c-88-3.3-173-24.5-251.5-65.7c-68.8-36.2-128.4-138.4-87.3-233.4
		c46.6-107.7,123.5-186.9,228.5-238.8c14.9-7.4,31.5-11.1,46.3-18.7c9.2-4.7,20.2-8.6,19.5-22.3c-0.7-2-1.9-3.8-3.5-5.2
		c-6.6-5-13.8-3.7-21-2.1c-12.3,2.8-25.3,12.7-36.3,7.8c-13.2-5.8-7.7-23.7-12.2-35.8c-12.2-32.1-40-53.2-69.4-49.5
		c-31.2,3.9-62.4,2.4-93.6,1.2c-6.8-0.5-13.7-0.8-20.5,0.6c-45.3,0.1-90.7-3.9-136,1.2c-3.5-0.2-7-0.1-10.5,0.8
		c-15.8,5.5-31.8,1.3-47.6,1c-163.2-2.6-326.3,4.4-489.5,4.5c-121.2,0.1-242.4,5-363.6,4c-28.6-0.2-57.3,0.3-85.9,1.8
		c-47.9,2.5-95.9,1.9-143.8,1.7c-13.8-0.1-21.1-5.7-22.4-19.6c-0.6-6.6-2-13.2-3.1-19.7c-12.1-74.3-12.9-149.9-23.6-224.4
		c-6-42.2-8.6-84.9-27.7-124.1c-4.7-9.6-9.1-19.4-17.4-26.5c-4.2-3.6-9-6-14.6-2.9c-5.4,2.9-6.9,7.8-6.4,13.5c0.6,7.4,3,14.4,6.3,21
		c21.5,43.5,24.8,90.8,28.8,138c0.7,8.7-0.1,17.1-5.4,24.8c-43.3,63.2-69.9,134.5-98.5,204.9c-4.4,10.7-9.4,20.6-18.3,28.1
		c-21.4,18.2-29.1,41.9-29.6,69.3c-0.8,52.5,0.7,105.1,0,157.6c-1.5,109.8,0.2,219.7-0.5,329.5c-0.1,22.2-4.9,27.3-26,21
		c-35.8-10.8-70.4-24.2-95.3-55.1c-9.3-11.6-17.6-25.4-33.5-30.2c-5.3,0.3-7.9,3.5-8.9,8.3c-0.6,8.6,3.9,15.3,8.1,22.1
		c31.3,50.8,79.4,75.6,136.1,85.3c16.3,2.8,21.5,8.6,20.9,24.1c-2.3,56.6-0.9,113.2,0.4,169.7c0.6,26.8-11,42.3-33.5,53.2
		c-41,19.9-83,15.9-125.1,5.9c-90.4-21.6-161.1-74.7-221.8-142.4c-23.5-26.1-49.2-48-81.6-62.8c-31.8-14.5-59-36.1-80.5-64.2
		c-32.6-42.7-35.6-91.8-31.3-142.8c5.6-67,25.8-131,34.1-197.2c12.8-102.2,45.3-198.5,86.2-292.4c13.1-29.9,24.2-60.6,34.1-91.8
		c11.3-35.6,14.9-70.2-2.7-104.7c-2.7-5.3-3.6-11.4-4.5-17.4c-3-20.4,1.5-36.8,18.4-51.4c27.2-23.5,50-51.7,74-78.4
		c53.8-60,103.7-123.4,165.5-176c11.4-9.7,24.4-19.1,28.8-34.9c-7.6-16.5-11.7,1.9-17.7,1.7c-32.9,26.2-63.1,55.1-92,85.7
		c-58.1,61.5-109,129.7-172,186.7c-26.6,24.1-33.7,53.2-21.3,83c19.4,46.6,14.8,90.5-6.2,133C87.8,1484,57.1,1663.8,27.2,1843.8
		c-19.9,119.9,15,199.6,108.5,246.5c36.2,18.2,65.5,42.1,92,71.6c65,72.6,141.2,127.5,238.2,149c52,11.5,102,10.1,147.6-21.2
		c13-8.9,10.6,0.9,10.8,8c1.4,47.6,9.4,59.3,52.5,76c30.7,2.6,61.5,5.5,92.2-0.5c25.3,0.1,50.5,0.1,75.8,0.2
		c10.3,10.4,23.7,7.3,36,7.3c165.2,0.1,330.3,0.2,495.5,0.2c7.3,0,14.7,0.3,22,0.2c12.8-0.1,16.5,6.8,14.2,18
		c-3.1,15-8.2,29.8-9.2,45c-3.2,52-21.4,58.3-64.6,69.3c-5.8,1.5-11.6,3.4-17.6,3.7c-61.2,2.9-122.5,2.9-183.6-0.7
		c-55.8-3.3-111.3-10.6-167.3-10.1c-30.7,0.3-61.1-3.7-91.7-5.4c-20.1-1.1-38.6-9.5-56.1-19.5c-12.4-7.1-14.3-16.1-8.3-28.4
		c6.2-12.6,16.1-22.9,22.2-35.6c5.3-11,13.6-22.2,4.3-35.2c-4.2-1.8-9.9-5.4-12.5-0.2c-14,27.7-38.7,49.7-44.5,81.7
		c-2.9,16.3,5.1,28.6,18.8,36.7c22.6,13.3,46.3,23.9,72.9,25.4c125.7,7.4,251.3,15.6,377.1,21.4c41.1,1.9,82.7-0.3,122.4-14.3
		c29.3-10.3,48.6-28.7,53.3-61c4.1-27.6,11.6-54.8,14.6-82.5c2.9-26.8,21.8-15.1,34.1-15.6c16.8-0.7,18.2,12,15.8,25.3
		c-3.6,21-8.2,41.9-10.6,63c-6.3,54.4,15.6,82.4,70.4,86.7c113.5,9,227.1,18.9,340.9,0.7c73-11.7,147.5-12,219.9-27.5
		c38.6-8.3,47.1-24.5,35.9-61.8c-7.1-23.5-13.3-47.3-19.8-71c-5.8-10.2-4.8-15.7,9-15.4c35.3,0.7,70.6-0.2,105.8,1.2
		c58.2,2.3,85.6-22.8,84.9-80.8c-0.7-61.9-2.6-123.8-3.3-185.7c-0.4-39.2-0.1-38,38.2-32.7c107.5,15,208.5,3.7,291.8-75.7
		c3.1-3,7.9-5.4,12.1-5.8c21.7-1.7,39.4-12.2,55.6-25.2c67.1-53.9,81.8-127.1,71.1-206.9C2787.1,1707.7,2772.7,1654,2763.4,1599.6z
		 M795.6,1417.5c-16.6-0.8-33.3-0.2-49.9-0.2c0-0.1,0-0.1,0-0.2c-10.7,0-21.5-1.4-31.9,0.3c-32.3,5.1-30.2-9-20.2-31.8
		c24.7-56,47.4-112.9,79.2-165.5c2.2-3.7,5.5-6.8,8.3-10.2c1.2,4.2,3.2,8.4,3.6,12.7c5.3,60.4,11.6,120.7,23.8,180.1
		C810.7,1414.4,807.3,1418.1,795.6,1417.5z"/>
	<path class="st0" d="M664.9,697.4c-134-78.8-243.4-177.5-274.3-339.6c-9.4-49.2-12.1-98.1,12.3-144.4c7.5-14.2,15.9-29.1,35-28.8
		c17.6,0.3,23.9,15.4,30.9,28c13.6,24.4,26.1,49.4,39.2,74.1c46.8,88.9,128.4,111.4,219.9,114.8c5.3,0.2,10.6-0.4,15.9-0.6
		c10.8-3.4,22.1-1.4,33.1-2.2c10.3-0.8,10.1,5.7,4.5,12.5c-17.1,13.1-37.4,13.6-57.2,12.7c-66.6-2.9-131.1-13.1-185.4-56.8
		c-6.2-5-12.2-10.3-18-15.7c-8.9-9.5-16.1-20.2-22.9-31.2c-3.6-7.5-7.1-15.1-13.1-21.2c-14.5-22.5-24.1-47.4-37-70.7
		c-3.4-6.2-5.2-15.7-13.5-15.7c-9.1,0.1-11.6,9.8-15.2,16.7c-2.5,4.7-3.9,9.9-5.7,14.9c-15.9,63.1-0.6,122.8,21.4,181.2
		c25.6,67.9,71.9,120.8,126.5,166.8c43.8,36.9,91.6,68.5,141.1,97.5c9.3,5.5,21.5,8.7,24.2,21.9c-11.9,14.5-19.9,15.4-42.3,4.9
		C675.6,712.3,671.8,703.3,664.9,697.4z"/>
	<path class="st1" d="M664.9,697.4c6.7,4,13.3,7.9,20,11.9c-19.2,16.7-40.6,29.8-65,36.8c-43.3,12.3-83.3,29.4-114.4,63.8
		c-7,7.8-15.2,17.1-28.2,16.4c-6.7-6.1-10,5.4-16,3.2c44.4-44.3,88.9-87.8,154.6-100c15.2-2.8,29.2-12.3,43.6-19.1
		C664.5,707.9,671.3,705.2,664.9,697.4z"/>
	<path class="st2" d="M776.9,409.1c1.4-3.1,9.2-7.6-1.9-7.7c-10.4-0.1-20.9-0.3-31.3-0.4c24.3-5.4,48.6-10.8,72.8-16.1
		c-4.4,9,5.8,8.1,8.4,12.4c-3.5,5.9-9.9,7.2-15.5,9.9C798.7,409.6,788.3,418.3,776.9,409.1z"/>
	<path class="st3" d="M676.8,2373.6c30.7-0.2,61.5-0.3,92.2-0.5c-15.6,6.1-32,7.5-48.6,8.1C707,2372.5,690.2,2383,676.8,2373.6z"/>
	<path class="st4" d="M3107.9,2798.5c-0.7,0.9-1.3,2.4-1.9,2.4c-1,0.1-2.1-0.8-3.2-1.3c0.6-0.8,1.2-2.1,1.9-2.2
		C3105.7,2797.3,3106.8,2798.1,3107.9,2798.5z"/>
	<path class="st2" d="M820.3,379.9c-1.3,1.7-2.7,3.4-4,5.1C817.7,383.4,819,381.7,820.3,379.9z"/>
	<path class="st5" d="M-223.5,2778.6c-0.5,0.9-0.9,1.6-1.4,2.4c-0.4-0.4-1.2-0.9-1.1-1.2c0.2-0.8,0.7-1.6,1.2-2.4
		C-224.4,2777.8-224,2778.2-223.5,2778.6z"/>
	<path class="st6" d="M844.8,2373.3c165-0.1,330-0.2,494.9-0.4c23.3,0,46.6,0.2,69.9-0.3c12.5-0.3,15.8,3.5,12.9,16.5
		c-6.1,27.2-10.5,54.8-15.1,82.4c-3.9,23.4-19.4,34.8-40.2,42.3c-37.8,13.7-77.4,14.9-116.4,13.4c-123.7-4.8-247.3-11.7-370.9-18.2
		c-19.5-1-37.2-8.9-55.1-16.7c-26.4-11.5-29.2-28.1-13.9-50.4c12.7-18.5,29-35.3,29.8-59.7C842,2379.3,843.4,2376.3,844.8,2373.3z"
		/>
	<path class="st7" d="M916.9,321.4c-4.2-4.9-8.4-9.9-12.7-14.8c-32.3-27.1-68.8-47.4-106.5-66c-7.1-3.5-17.6-4.2-17.7-15.8l0.1-0.1
		c2.3-0.1,3.3-2,4.7-3.5c90.8-53.9,191.1-66.2,293.9-65.5c50.5,0.3,100.7,7.2,150.3,17.7c14.4,4.8,28.7,8.8,40.1,20.5
		c23.9,24.6,27,43.7,7.2,72.9c-18,26.6-39.7,50.2-66.3,68.6c-20.8,14.4-41.9,28.5-63.6,41.5c-8,4.8-15.9,9.8-23.1,15.8
		c-22.3,18.7-18.4,41.4,9,51.9c11.4,4.4,23,5.5,35.3,3.6c31.1-4.7,62.1-11.6,90.4-24.8c121.6-56.7,252.8-73,383.1-93.1
		c63.7-9.8,127.1-11.5,190.8,1.1c38.1,7.5,66.9,32.1,98.6,51.1c12.3,7.4,13.5,22.4,12.4,36.1c-1,11.9-2.9,23.8-1.2,35.8
		c-8.4,30.3,1.6,56.5,18.7,80.7c38.4,54.4,85.6,98.3,149,122.4c6.8,2.6,13.7,5.3,19.5,9.9c8.9,7.2,5.4,15.5,1.6,23.4
		c-7.7,16-10.5,32.1,1.5,47c12.7,15.8,30.5,18.1,49.1,14.8c19-3.4,38.1-7.4,56.5-13c50-15.2,97.3-7.9,143.6,13.5
		c13.8,6.9,26,15.9,36.2,27.5c0.9,2,2,3.6,4.2,4.2l-0.1-0.1c26.1,41.6,61.1,75.4,95.6,109.7c30.6,30.4,50.3,68.6,71.8,105.4
		c4.5,7.8,6,16.6,1.8,25c-13.3,26.4-6.3,51.6,7.3,74.3c29.4,49.2,51.1,102.7,85.7,148.8c10.1,13.5,15.4,29.3,20.2,45.4
		c10.9,37.1,19.3,74.8,27.1,112.7c2.3,11.4,1.2,20.7-9,28.2c-44.2,32.8-52.6,79.2-43.1,128.8c9.5,49.4,14.1,98.7,12.9,148.9
		c-0.5,23.4-2.8,46.6-6,69.6c-4.2,30.1-15.4,57.8-35.3,81.5c-12.4,14.8-24.6,29.8-36.2,45.3c-36.2,48.3-87.5,62.8-143.4,57.6
		c-67.6-6.3-135.2-13.3-202.6-21.9c-22.8-2.9-41.1-10.5-57.1-28.3c-58.4-65.2-67.9-119.6-30.9-198.9c23.3-49.9,54.9-94.9,91.4-135.5
		c26.1-29.1,62.2-47.7,93-72.1c10.1-8,22.9-15.4,16.7-32.2l-0.1-0.2c-9.7-13.4-25.6-15.8-39.3-21.8c-22.4-9.9-25.3-13.4-23.7-37.3
		c2.2-33.5-9.6-61.9-30.3-87.2c4.9-8.7,13.6-6.9,21.2-7.4c14.6-1,29-3.3,43.3-6.8c5.7-1.4,8.5-4.3,2.5-9.2
		c-28.7-17.1-57.5-33.8-89.2-44.8c-15.6-5.4-22.8-16.3-23.7-33.2c-3-60.6-26.9-109.3-82.2-139.3c-13.4-7.3-16.4-17.8-10.6-32
		c8.5-21,16.8-42.2,22.1-64.2c5.8-24.5-3.1-33.2-28.1-31.6c-51.7,3.3-77.7,40.5-101.2,78.6c-27.9,45.2-38.2,96.4-41.7,148.8
		c-3.1,46.5-7.5,92.9-1.4,139.6c2.7,20.9-6.3,29.2-27.2,30.9c-2.7,0.2-5.3,0.3-8,0.3c-107.2,0.3-214.4,3.7-321.7,5
		c-98.6,1.2-197.2,5.5-295.7,2.4c-89.9-2.9-179.8-3.7-269.7-2.9c-54.6,0.5-109.1,4.6-163.7,3.7c-39.1-0.7-41.3-2-48.9-39.5
		c-8.7-42.5-17.9-84.9-33.1-125.5c-20.6-55.1-25.9-111.2-15.5-169c1.5-8.5,2.1-17.2,3.3-25.8c1.6-12.1-0.3-22.3-10.9-30
		c-5.4-3.9-10.9-9-12.1-15.5c-3.5-18.8-15.7-18.3-30-15.3c-11.8,2.4-23.7,3.9-34.8,8.8c-18.3,8.2-25.1,23.9-12,38.4
		c26.5,29.3,18.5,62,14.3,94.6c-6.3,48.5-22.5,94.4-39.1,140.2c-28.4,78.3-58.8,155.9-79.5,236.8c-4.2,16.4-14,23.9-30.9,25.9
		c-68.4,8.1-76.5,15.7-87.1,83.4C470,1747,442.3,1918,416.2,2089.3c-5.6,36.9-12.3,73.6-19.1,110.3c-4.2,22.4-13.5,26.6-31.3,12.9
		c-47.6-36.8-93.3-75.5-123.3-129.3c-9.4-16.9-19.3-33.5-30.9-49.1c-18.8-25.2-43.5-39.3-75.5-36.5c-18.8,1.7-28.9-6.7-34.1-23.4
		c-7.9-25.7-10.4-52.1-11.8-78.8c-5.7-108,12.5-213.6,28.8-319.8c11-71.8,27.7-140.9,57.9-207c16.9-37,30.1-75.5,39.1-115.3
		c5.1-22.6,6.2-44.8-3.6-66.5c-6.5-14.4-3.1-27.7,6.2-39.3c43.5-54.1,82.1-111.6,120.3-169.5c8.1-12.4,19.6-21.9,32-29.9
		c44.6-28.6,82.1-65.8,120.8-101.3c16.3-14.9,33.3-28.6,51.1-41.5c37.8-27.4,78.9-38.1,124.6-25.5c21.4,5.9,36-4.7,49.3-18.7
		c21.9-23.1,37.8-49.8,46.4-80.6c0.3-2.1,0.8-4.2,1.3-6.2c0.8-3,2.5-5.6,3.5-8.5c31.8-44.2,59.9-90.6,84.5-139.1
		c7.5-14.7,11.3-31.3,21.9-44.5c11-13.1,27.8-17.6,40.9-27.8c27.8-21.6,33.2-36.6,15.5-66.1C917.6,366.6,920.2,343.8,916.9,321.4z"
		/>
	<path class="st8" d="M1036.1,2350c-113.1,1.3-226.2,2.7-339.3,3.9c-36.9,0.4-52-15.8-52.1-52.2c-0.1-230.9-0.5-461.7-0.7-692.6
		c0-36.6,0.2-73.2,0.7-109.7c0.7-47.9,15.3-62.4,62.8-62c30,0.2,59.9,1.4,89.9,1.4c8.4,0,14.5,0.8,15.6,10.5c4.2,4.3,8,3.6,11.2-1.2
		c4.5-14,16.6-8.9,25.4-9c91.2-1.2,182.4-1.2,273.5-2.5c285.3-4.2,570.6-8.8,855.9-13.2c89.1-1.4,178.2-2.4,267.4-3.5
		c6.7-0.1,13.4,0,18.3,5.8c3.5,4.1,5.1,8.7,3.8,14.1c-8.7,15.7-23.7,25.1-37,35.7c-143.6,113.6-284.9,230-427.7,344.6
		c-59.2,47.5-115.9,98.4-178,141.9c-60.8,42.5-127.7,62.8-203.9,43.6c-55.1-13.9-98.4-45.4-141.6-79.2
		c-151.5-118.6-302.6-237.8-454.4-356.1c-42-32.7-84.6-64.7-125.8-98.5c-3.1-2.5-6.2-5-9.9-6.7c-1.3-0.6-2.8-1-3.7-0.2
		c-1.9,1.8-0.6,3.6,0.6,5c3.9,4.6,8.9,8,13.6,11.7c34,26.7,68.2,53.3,101.5,81c6.2,5.1,12.5,10.1,15,18.2c0.7,2.5,1.5,5.2,0.8,7.6
		c-1.8,6.2-2,11.1,6.7,10.6c6.2,8.6,7.1,17.2-0.2,25.4c-3.9,4.3-9.4,5.3-14.7,3.2c-10.2-4.1-12.7-12.3-12.4-22.6
		c0.5-19.5-16.3-28.1-28-38.3c-29.5-25.8-66.5-41.8-94.9-69.4c-9-8.7-15.6-4.8-17.8,7c-1.2,6.6-0.9,13.3-0.9,19.9
		c0,131.2,0,262.4,0,393.6c0,12.7,5.6,25.4,5.6,36.8c0,31.6-1.8,62.6,12.3,92.2c1.8,3.7-1.3,9.1-3.3,13.3
		c-7.4,15.3-8.4,30.5-0.6,46.1c4.1,8.3,3.1,16.2-0.8,24.8c-15.5,34.3-12.2,69.8-2.9,104.7c3.3,12.5,5.3,23.1-2.8,33.8
		c-5.1,6.7-7.3,14-6.7,22.4c0.5,7.7,2.7,15.4,9.4,18.9c9.1,4.8,9.9-6.1,14.2-10c20.5-19,40.5-38.2,64.2-53.6
		c17.7-11.4,32.4-27.5,45.4-44.3c17.8-22.9,42-38.8,61.5-59.7c5.6-6,13.7-8.1,22.2-5.4c13.1,12.5,0.1,20.2-6.4,27.1
		c-16.1,17.1-33.8,32.8-48.6,51.2c-32.3,33.7-71.3,59.6-106.2,90.3c-6.3,5.6-15,8.8-17.3,18.2c10.1,1.4,14.5-7.2,20.9-12.1
		c82.3-64.3,162.7-130.8,244.3-196c69-55.2,137.2-111.5,206-166.9c7.2-5.8,13.7-13,24.2-12.1c9,1.3,15.6,6.9,22.3,12.3
		c46.7,38.5,97.6,70.6,151.4,98.2c6.1,3.1,16.6,4.3,12.5,16c-12.6,10.7-25.8,5.3-37.5-0.4c-39.6-19.3-76.4-43.3-111.4-70.2
		c-1.6-1.2-3.1-2.5-4.7-3.7c-33.1-25.4-50.2-24.2-76.7,8.8c-11.9,14.8-25.7,24.7-43,31c-11.1,4-20.2,10-24.2,21.9
		c-1.5,4.4-3.7,9.4-7.9,11.2c-18.9,8-30.5,24.9-45.8,36.6c-31.6,24-61.7,49.8-94,73c-36.1,26-69.9,55.5-103.7,84.6
		c-21.7,18.7-44.8,35.6-64.8,56.3c-8.5,8.8-21.8,10.2-30.5,18.7c-1.8,1.8-4.9,4.1-3,6.4c1.8,2.2,4.6-0.5,6.8-1.7
		c24-12.8,48.2-13.4,72.8-1.3c8,4,16.9,3.4,25.5,3.4c56.6,0.1,113.3,0,169.9,0.1c11.4,0,22.6-0.7,33-6.1c10.7-5.6,22.2-2.6,33.4-3
		c131.1-4.5,262.3-2.5,393.4-2.7c43.2-0.1,86.5,0.1,129.6,2c36.3,1.6,72.4,1.5,108.6,0.4c9.6-0.3,17.3,3.1,20.3,12.7
		c2.2,6.9-1.9,9.8-8.7,9.4c-218.6,0-437.2,0-655.8-0.1C1050.7,2351.3,1043.3,2352.6,1036.1,2350z"/>
	<path class="st8" d="M1720.9,2348.8c-4.6-14.4-12.1-19.4-26.8-10.8c-14.4,8.5-30.7,0-45.6,0.2c-48.5,0.6-97.3-0.9-145.9-2.6
		c-81.2-2.8-162.2-1.4-243.3-1.8c-62.4-0.3-125.3-1.7-187.3,4.5c-81,8.2-161.9,5.4-242.9,7.8c-22.1,0.7-38.2-19.6-60.7-12.7
		c-8.8,2.7-20.1,1.9-26.3,7.2c-9.2,7.9-21.9,14-27.3,6.6c-4.1-5.6,7.6-20.2,16.4-25.1c42.6-23.4,73.9-60.8,112.4-88.6
		c17.9-13,27.6-34.4,53.8-41.4c15.7-4.2,30.8-26.6,48.4-38.7c22.7-15.7,41.9-37.1,65.9-50c17.9-9.6,17.5-34.2,39.3-38.3
		c12.1-2.3,20.7-7.7,24.2-23.7c3.5-16.2,24.7-16.2,38.4-23c24.4-12.2,37-38.4,61.4-52.2c11.7-6.7,16.5-5.8,24.9,0
		c42.9,29.7,84.1,61.9,130.3,86.6c14.6,7.8,29.5,15.6,47,8.7c6.1-5.3,12.9-3,18.8-0.4c74.5,32,144.9,14.2,214.1-17.3
		c48.3-22,89.9-54.4,131.8-86.4c10-7.7,19.5-16.2,32.2-19.5c7.9-1.3,14.1,2.3,20,7c114.2,89.7,228.6,179,342.3,269.3
		c40.1,31.9,81.8,61.8,121.9,93.7c3.7,2.9,8.8,9.5,12.6,5c2.3-2.8-5.1-8.4-9.2-11.5c-40.7-31.2-80.2-63.9-120.6-95.5
		c-17.8-13.9-36.7-26.6-51.8-43.7c-3.2-5.7-7.8-10.2-12.6-14.6c-51.9-51.3-100.8-105.6-154.8-154.7c-28.1-25.5-51.6-55.3-78.1-82.3
		c-5.6-5.7-11.2-11.6-9.4-20.8c2.5-7.2,7.8-12.5,13.4-17.1c45.5-37.1,85.9-79.8,126.8-121.3c76.5-77.7,153.1-155.3,225.5-236.9
		c18.3-20.6,40.2-37.1,62.4-53.1c1.8-0.8,3.6-1.3,5.6-1.5c1,0.1,1.9,0.2,2.9,0.3c13.8,8.9,11.4,25.4,17.7,37.8
		c-26.3,18.8-52.6,37.6-79,56.4c-38.6,25.8-68.1,61.2-97.7,96c-19.3,22.7-38.4,45.9-54.1,71.6c-41.1,67.1-59.6,139.3-47.8,217.7
		c14.7,97.3,76.5,153.6,166,182.6c32.8,10.6,67.6,14.4,101.5,21.8c10.2,2.2,21.7,2.3,27.1,13.9c1.5,50.4,3.2,100.9,4.4,151.3
		c0.5,22.2-11.6,40.7-31.8,42.5c-54.6,4.8-109.6,5.9-164.3-1.8c-6.3-3.3-13.1-2.2-19.6-2c-67.2,1.7-134.4-3.6-201.5-0.1
		c-50.5,2.6-101,4.7-151.6,3.9C1733.7,2351.2,1726.8,2353.6,1720.9,2348.8z"/>
	<path class="st6" d="M768.4,673c-4.8,50.3-34,85.2-72.5,113.7c-4.9,3.6-14.9,3.9-21.1,1.8c-68.1-23.1-119,9.4-166,51.6
		c-46,41.3-89.4,85.5-142.1,119c-14.8,9.4-23.7,24.5-33.4,39.1c-33.1,49.8-65.5,100.3-104.3,146.1c-7.3,8.6-20.5,19.1-14,31
		c24.5,44.9,6.2,86.9-6.5,129c-19.4,64.3-56.8,122.5-68.2,189.4c-23.4,137.4-52.8,274.4-43.1,415.3c1,13.9,2.7,27.8,5.1,41.5
		c4.4,24.8,8.2,45.8,45.1,40.3c29.4-4.3,55.6,14.3,70.6,41c38.3,68.2,85.7,128,149.3,174.4c14.2,10.3,19.4,15.2,23.1-8.3
		c32.2-207.9,66-415.6,98.6-623.4c11-70.1,26.7-86.1,97.5-88.7c14.1-0.5,18.4-7.3,21.2-18.6c24.3-99.2,64.1-193.2,97.4-289.3
		c16.2-46.9,22.4-95.5,27.3-144.4c1.1-11-7.8-17.7-14.2-25.4c-24.1-28.6-16.5-52.9,19.4-62c12.9-3.2,26.1-7.2,39.1-7
		c9.6,0.1,33.3-10.5,22.3,17.9c-0.6,1.6,1.4,5.7,3.2,6.7c42.1,22.7,21.2,59.6,17.5,89.8c-5.8,46.9-1.6,91.5,14,135.4
		c17.6,49.7,30.4,100.6,39.3,152.4c2.7,15.7,9.6,20.4,25.3,20c84.5-1.9,169.1-3.8,253.6-3.7c115.9,0.2,231.8,3.1,347.6,3.1
		c111.1,0,222.2-0.8,333.2-4.5c44.6-1.5,89.2-3.7,133.7-2.7c23.5,0.6,28.6-8.5,26.3-29.4c-7.9-71.3-3.2-142.2,13-211.8
		c13-55.6,39.9-103.7,85.9-140.3c19.4-15.5,41.8-17.3,63.8-18c22.3-0.7,30.4,15.6,24.5,35.8c-7.2,24.8-16.4,49.2-26.1,73.2
		c-4.1,10.2-3.3,15.3,6.9,20.3c61.1,30.1,86.2,82.4,87.8,147.6c0.4,15.3,7.2,21.6,19.5,25.5c33.9,10.8,64.7,27.6,93,48.9
		c-4.6,6-11.5,6-18,6.8c-38.3,4.4-76.8,7.9-112.3,25.3c-13.3,6.5-21.9,0.9-24.8-13.1c-5.2-24.7-12.5-48.9-16-74.1
		c-4.9-35-12.8-69.3-26.3-102.2c-2.5-6.2-4.7-12.6-8.7-17.9c-6.6-8.8-11.5-21.3-25-20.3c-14.4,1.1-21.1,12.9-26,24.8
		c-11.8,28.8-15.4,59-13.3,89.9c2.8,41.8,9.9,83.2,9.8,125.2c0,10.6-2.1,22.7,8.3,30.9c8.7,4.5,20.2,6.2,19.8,19.8
		c-46.8,0.5-93.6,1.1-140.3,1.6c-0.6-1.9-2-3.2-3.9-3.6c-2.5-0.5-5,0.9-7.6,0.5c1.8,1,4.7,0.1,5.5,3c-72.5,1.2-145,2.6-217.5,3.5
		c-233,3.1-466.1,6.1-699.1,9c-75.2,0.9-150.4,1.2-225.6,2.6c-13.5,0.2-17.3-5.5-18.6-17.2c-10.5-96-21.6-191.9-31.6-287.9
		c-3.8-37.1-14.2-71.7-32.5-104.1c-3.3-5.8-6-16.7-14.7-13c-9.5,4.1-2,13,0.3,19.1c9.5,24.9,21.4,49,25.6,75.5
		c8,50.7,14,98.1-22.3,145.8c-28.7,37.7-42.6,86.9-61.9,131.5c-11.8,27.2-20.9,55-44.9,75.6c-16.1,13.9-15.5,36.6-15.5,56.3
		c-0.5,164.3-0.5,328.6,0.2,492.8c0.1,16.4-3.5,21.9-20,18.9c-43-8-81.4-24.2-111.1-57.7c-10.6-12-21.3-23.9-31.9-35.8
		c-8.9-1.1-6.4,3.5-4.1,8.1c33.1,62.2,85,95.3,155,99.9c10,0.7,12.2,4.4,12.2,13.3c-0.3,69.2-0.4,138.4-0.4,207.6
		c0,19-15.1,25.8-27.6,33.5c-42.4,26-87.9,22.1-133.7,11.7c-89.3-20.3-159.9-71.1-220.9-136.8c-28.3-30.5-58.7-56.2-97-75.1
		C62.3,2038.3,24.9,1968,39,1874c26.4-175.7,49.7-352.6,129.2-515.3c16.4-33.6,25.4-70,33.8-106.5c4.4-19.3-0.4-36.9-7.6-54.4
		c-14.5-35.4-13.5-63.5,18.6-94.2c56.2-53.8,104.9-115.2,158.2-172.2c34.1-36.4,70.7-70.5,106.2-105.6c43.5-45.8,95-78.1,157.1-91.9
		c19.1-4.2,29.6-25,50.5-25.1c13.2,9.1,26.4,13.1,39.9,0.6c8.9-16,23.4-27.4,34.1-41.9C763.2,667.5,766.3,669.4,768.4,673z"/>
	<path class="st6" d="M2381.2,1477.2c15,13.4,6.3,23.5-5.1,32.3c-14.7,11.4-29.9,22.2-45.1,32.9c-83.2,58.6-138.5,137.6-163.2,235.5
		c-10.9,43.1,5.7,82.4,33.8,120c34.7,46.5,83.4,39.9,128.9,46.8c45.9,7,92.2,11.9,138.5,15.3c62.5,4.6,109.7-19.4,152.2-68.2
		c82.1-94.4,69.4-201.5,53.2-310c-7.9-52.8-11.8-104.6,32.1-142.2c19.3-16.6,18.8-29.4,14.6-49.5c-13.6-65.4-31.8-127.5-71.1-184.3
		c-27.9-40.4-52.2-85-69.5-132.1c-6.2-16.8-7.2-34.2,4-49.7c8.7-12-0.5-20.2-5.2-28.9c-30.1-56.5-71-104.2-117.8-147.5
		c-18.4-17.1-34.4-37-40-62.8c70.8,63.5,142.5,126.1,201,201.8c6.9,8.9,12.7,19.9,10.8,31.5c-9.2,58.7,18.6,107.7,41.5,157.5
		c34.6,75,70.9,149.2,96,228.2c11.3,35.7,13.2,66.9-13.1,100.7c-22.8,29.4-11.8,69.7-6.4,104.7c10,64.4,28.3,127.5,25.5,193.6
		c-2.8,66.5-22.9,124.1-81.4,162.8c-10.7,7.1-21,13.8-34.7,12.9c-8.3-0.5-15.8,3.5-21.2,9.7c-43.7,51.2-104.7,65.2-166.3,72
		c-109.4,12.1-214.2-14-307.3-68.3c-85.4-49.8-128.4-156-72.5-261.2c56.9-107.1,138-188.6,254.6-230.6
		C2360.7,1495.6,2375.5,1492.6,2381.2,1477.2z"/>
	<path class="st8" d="M2340.8,289.2c21.3-30.5,34-66.2,58.7-94.5c9.6-11,15.3-9.8,20.4,3.5c14.8,38.1,20.4,78.2,25.7,118.4
		c11.4,87.6-27.1,154.1-89,211c-53.3,49-111.3,90.6-177.7,120.1c-10.3,4.6-18.3,13.3-29.2,17.2c-9.7,2.7-18.4-1.1-27.1-4.1
		c-73.3-25.2-125.9-75.2-167.3-138.9c-6.6-10.1-11-21.3-12-33.5c-0.7-13.1,6.6-18.3,18.4-21.7c31.6-9,64.2-10.4,96.3-15.3
		c84-12.7,158.4-47.3,224.9-99.8C2305.6,333.7,2326.5,314.6,2340.8,289.2z"/>
	<path class="st6" d="M1806,2373.5c92.6,0,185.1,0.4,277.7-0.3c15.7-0.1,21.8,5.2,25.2,20.1c5.6,24.6,12.6,49.1,21.1,72.8
		c7.9,22.1,0.9,32.1-21.3,36.3c-72.7,13.7-146.8,16.8-219.8,27.9c-112.5,17.1-224.5,9.8-336.7-0.7c-42.7-4-54.9-20.9-51.7-62.7
		c2.3-29.2,12.5-57.2,11.3-87c-0.5-12.1,10.7-6.6,16.5-6.7c92.6-0.3,185.1-0.2,277.7-0.2C1806,2373.3,1806,2373.4,1806,2373.5z"/>
	<path class="st6" d="M1937,457.6c-1.3-5.2-3.8-10.4-3.6-15.5c0.7-18.1,13-40.8-4.7-52.7c-26.6-18-52.2-39.6-84.2-48
		c-76.3-19.9-152.8-13.7-229.2-0.2c-91.4,16.2-184.7,23.2-272.5,56.4c-58.4,22.1-115.1,49.1-177.8,58c-19,2.7-36-2-51-12.4
		c-20.5-14.2-16.8-41,7-57.9c41.2-29.1,88.1-50.1,122.5-88.6c9.3-10.4,18.8-20.7,27-32c21.4-29.6,13.7-57.1-21.3-79
		c-6.7-4.2-13.5-8.3-20.2-12.4c42.7,5.4,85.3,11.3,128.1,15.8c15.4,1.6,33.3,3.9,41.5-14.9c7.9-18,1-33.4-11-47.5
		c-12.9-15.1-25.5-30.4-38.2-45.6c2.9-2.2,6.4-2.8,9.4-1.2c41.1,22.4,77.4,57,60.8,115.9c-4.2,14.7-10.9,28.6-15.3,43.2
		c-10.2,33.5-0.8,52.6,33.1,58.6c71.7,12.7,142,3.8,209.7-21.6c25.1-9.4,45.5-26.9,57.5-52.6c8-17.1,7.1-31.1-5.9-45.6
		c-8.3-9.2-20.9-17.5-17.3-33.3c37.3,24,61.8,60.4,86.1,95.4c45.4,65.4,106.4,105.9,181.1,129.3c23.3,7.3,46.9,16,61.5,37.9
		c6.5,9.7,9.1,17-7.5,19.9c-16.1,2.8-32.3,7.6-45.8,18C1951.6,451.4,1948,460.2,1937,457.6z"/>
	<path class="st7" d="M1681.3,144.6c5.3,7.6,10.2,15.5,16,22.6c27,32.9,23.2,63-9.5,91c-47.2,40.5-105.7,44.1-162.9,50.4
		c-29.5,3.2-59.8,2.8-89.5-3.4c-37.1-7.8-50.2-29.5-38.6-65.7c2-6.3,4.2-12.6,6.7-18.8c27.2-66.7,12.1-105.7-54.2-139.5
		c-7.7-5.8-16.2-14-13.9-22.6c2.4-8.9,15.1-7,23.1-7.4C1476.8,45.3,1585.4,73.3,1681.3,144.6z"/>
	<path class="st9" d="M2304.6,2157.5c-35.6-7.9-70.9-16.7-106.7-23.5c-136.6-25.9-219.8-148.3-195.4-284.8
		c15.4-86.1,58.4-156.2,118.4-217.2c27.6-28.1,51.8-60.4,88.7-78.1c-51,44.5-93.7,95.7-127.9,154.4c-46.7,80.2-48.4,158.2,3.4,237
		c19,28.9,43.2,50.5,73.3,65.8c41.1,20.9,84.1,37.2,128.6,49c13.3,3.5,16.8,9.2,16.7,21.6
		C2303.4,2106.9,2304.2,2132.2,2304.6,2157.5z"/>
	<path class="st9" d="M2148.8,662c19.5-20.3,46.8-27.5,69.9-41.6c82.9-50.3,162.2-104.1,207.1-195.6c17.2-35.1,20.2-71,19.8-108.4
		c11,95.7-11.4,182.6-74,256.2c-40.7,47.9-91.1,85.3-147.4,114.1c-15.9,7.4-30.7,1.3-45.5-3.9c-5.4-2.5-9.5-7.3-15.6-8.4
		C2157.7,671,2149.1,671.3,2148.8,662z"/>
	<path class="st6" d="M2177.6,677.4c15.5,3.1,31.1,6.3,46.6,9.4c-3.6,13.4,3,16.1,13.7,11.7c11.6-4.8,22.5-11.2,33.8-16.8
		c5.4-2.6,10.3-10.2,17-2c4.1,5,8.1,10,12.1,15.1c-6.1,1.7-12.2,3.5-18.3,5.2c-30.6,8.6-61.3,17.2-91.8,26.1
		c-4.5,1.3-12,1.2-10.6,8.6c0.4,1.8,7.8,3.4,12,3.2c21.5-0.6,42.9-4.6,61.8-13.7c50.9-24.5,90.7-6.8,127.2,29
		c-13-2.5-26.5-3.4-38.8-7.7c-49.2-17.3-95.5-0.6-142.4,10.3c-16.8,3.9-33.3,8.5-50.8,2.5c-30.3-10.3-42.3-41.1-25.8-68.8
		c3.8-6.4,11.8-12.3,1.3-19.5c8-8.8,16.5-2.1,24.8-0.7C2158.4,673.8,2169.1,671.9,2177.6,677.4z"/>
	<path class="st6" d="M2149.1,1400.8c1.1-1.2,2.2-2.5,3.3-3.7c5.5-5.1,12.9-2.7,19.2-4.7c6.5-2.3,13-3.5,19.5-0.4
		c8.6,3.4,17.7,3.9,26.9,3.5c1.3-0.1,2.6,0.5,3.8,0.4c0.9,0,0.5-1.6,0-1.3c-1.1,0.6-2.2,0.9-3.6,0.9c-9-0.4-18.4,1.5-26-5.5
		c-2-9.4,4.7-14.7,9.9-20.5c17.8-19.7,39.1-33.9,64.8-41.2c7.5-2.1,15.3-5.9,22.2,1.6c34.6,22.2,37.2,57.2,34.7,92.6
		c-1,14.5,3.1,19.2,15,24.9c15.5,7.5,38.9,5,42.4,29.7c-19.8-8.4-35.9,5.5-53,10.3c-15.4,4.3-18.7,2.1-20.1-13.5
		c-4.4-49.9-30.1-77.4-65.4-75.1C2211.6,1400.8,2180.3,1400.2,2149.1,1400.8z"/>
	<path class="st6" d="M916.9,321.4c10.3,31.6,25.2,62.6,29.5,95c3.8,28.5-24.9,40.9-45.7,54.8c-7.7,5.1-15.8,9.5-23.7,14.2
		c-6-5.6-3.6-12.9-1.7-18.5c10.1-30.2-2.2-53.3-21.8-74.5l0.2,0.3c-2.9-1.3-6.5-0.8-8.6-3.8l0.3,0.2c-1.8-3.2-10.9,1.1-7.6-7.4
		l-0.5,0.4c0.7-1.9,2.4-3.2,3.7-4.6c12.5-10.9,25-21.8,37.6-32.7c8.8-7.7,16.1-17.1,31-11.8C919.6,336.6,916,326.4,916.9,321.4z"/>
	<path class="st10" d="M2340.8,289.2c-17,45.2-55.7,71.2-92.7,95.3c-66.9,43.4-140,73.1-221.6,77.3c-23,1.2-45.6,8.2-68.6,11.5
		c-11.7,1.7-7.3,10.6-9.4,16.7c-11.4-3.6-9.8-12.9-8.2-21.1c2.2-11.5,9.6-18.3,21.9-18.9c76.9-20.1,156.7-27,231.8-55.5
		C2252.6,372.1,2300.5,336.3,2340.8,289.2z"/>
	<path class="st11" d="M1720.9,2348.8c68.6,1.6,136.6-6.1,204.9-9.6c58.9-3,118.3,1.2,177.4,2.2c5.5,0.1,8.6,2.9,9.6,8.1
		c-44.1,9.1-88.7,3.5-133.1,3.7c-244.9,0.7-489.8,0.1-734.7-0.1c-65.2,0-130.4-0.1-195.6-0.3c-4.5,0-8.9-1.8-13.4-2.8
		c125.8-0.2,251.5-0.5,377.3-0.7C1515.9,2349.1,1618.4,2348.9,1720.9,2348.8z"/>
	<path class="st12" d="M1962.1,450c-15.5,9.6-22.8,22-13.7,40c39.8,88.7,106.6,146.1,200.3,172c5.4,2.5,10.8,5,16.1,7.5
		c-2.9,10.5-10.2,5-16.2,4.4c-8-1.3-16.1-2.6-24.1-3.9c-71.2-23.2-126.1-68.1-167.9-129.1c-16.9-24.6-33.5-50.8-19.7-83.3
		c6.6-4.2,13.1-8.4,19.7-12.6C1958.5,446.6,1960.3,448.3,1962.1,450z"/>
	<path class="st2" d="M853.4,392.4c32.3,17.8,37,36.4,23.6,93c-29.1,64.3-61.3,126.9-105,182.8c-0.2,2.4-1.7,3.8-3.6,4.8v-0.1
		c-3.3-0.2-6.6-0.5-9.9-0.7c-3.8-8.1,1.7-13.8,5-20.1c25.9-38.8,50.5-78.3,71.9-119.9c12.3-23.9,22.4-48.3,28.7-74.3
		c4.9-12.6,3.1-24.7-2.4-36.6c-2.3-7.8-12.8-9.7-13.4-18.7C854.6,401.5,854.9,397.4,853.4,392.4z"/>
	<path class="st13" d="M780,224.7c38.9,20.8,80.5,37.3,113,68.7c4.1,4,7.5,8.7,11.3,13.1c-28-19-59.8-27.4-92.5-33.2
		c-9.1-1.6-18.4-2.8-27.2-5.4c-11.3-3.4-27.1-6.3-28.6-18.2C754.1,236.7,768.7,230.2,780,224.7z"/>
	<path class="st14" d="M1860.2,277.2c-3.2,9,0.3,23.7-8.7,26c-5.7,1.4-15-10.9-22.5-17.3c-3-2.6-5.3-5.9-7.9-8.9
		c-23.3-26.6-23.3-26.6,11.9-39.1C1840.3,252.1,1850.2,264.7,1860.2,277.2z"/>
	<path class="st15" d="M1860.2,277.2c-17.2-7.5-28.9-18.8-27.2-39.4c18-6.4,35.6-14.4,55.2-14.7c-7.8,14.3-15.6,28.6-23.3,43
		C1863,269.7,1861.7,273.5,1860.2,277.2z"/>
	<path class="st16" d="M848.4,402.6c5.7,4.7,14.5,5.2,17.5,13.4c1.6,5.1-1.7,8.5-5.5,7.8c-18.7-3.3-37.7-6.3-51.2-21.8
		c5.3-1.6,10.5-3.1,15.8-4.7c1.3,0.2,2.6,0.3,3.8,0.5C835.7,397.7,842.8,396.9,848.4,402.6L848.4,402.6z"/>
	<path class="st17" d="M2288.6,1497.5c-11.2-9.3-11.8-24.2-18.7-35.7c-4.2-6.5,1-8.4,5.2-10.7c4.2-0.7,7.6,0.8,10.1,4.2
		c1.6,2.4,2.6,5.1,3.2,7.9C2288.5,1474.6,2288.5,1486.1,2288.6,1497.5z"/>
	<path class="st18" d="M2284.9,1457.4c-2.8-1.4-5.6-2.8-8.4-4.1c-4.8-3.2-10-5.9-11.7-12.1c-0.1-5.1-0.1-10.3-0.2-15.4
		c3.9,2.6,7.7,5.2,11.6,7.8c3,1.5,2,5.7,4.8,7.3l0.2,0.4C2283.1,1446.6,2289.7,1450.7,2284.9,1457.4z"/>
	<path class="st19" d="M1982,1402.1c-2.6-0.4-5.2-0.6-7.8-1.1c-3.9-0.7-7.9-1.4-11.8-2.1c6.9-1.5,13.8-3.2,20.7-4.3
		c6.4-1,12.1-0.6,4.9,7.5C1986,1402.2,1984,1402.2,1982,1402.1z"/>
	<path class="st20" d="M457,1925.3c-4.5-4.7-10.8-11.2-6.2-16.3c3.3-3.7,7.8,3.8,10.3,8.1C459.7,1919.9,458.3,1922.6,457,1925.3z"/>
	<path class="st2" d="M848.3,402.5c-6.5-1.6-13-3.2-19.5-4.8C837.6,389.9,843.1,395.4,848.3,402.5z"/>
	<path class="st21" d="M1901.3,325.7c-3.4,1.8-5.3,3.4-7.4,3.6c-1.1,0.1-2.5-2.1-3.8-3.3c1.8-1.4,3.5-3.3,5.6-4
		C1896.6,321.7,1898.4,323.7,1901.3,325.7z"/>
	<path d="M2284.9,1457.4c-1.2-5.4-2.4-10.7-3.6-16.1c9.1,5.1,7.7,13.6,7.1,21.9C2287.3,1461.2,2286.1,1459.3,2284.9,1457.4z"/>
	<path class="st22" d="M824.2,1448.1c-2.3,6-6.8,9.2-13,10.1c0.6-3,1.2-5.9,1.7-8.9C816.7,1448.9,820.5,1448.5,824.2,1448.1z"/>
	<path class="st2" d="M837.8,381.6c2.5,2.5,5.1,4.9,7.6,7.4c-3.5-1-6.9-2-10.4-2.9C835.9,384.6,836.8,383.1,837.8,381.6z"/>
	<path d="M2281.1,1441c-1.6-2.4-3.2-4.9-4.8-7.3C2277.9,1436.1,2279.5,1438.5,2281.1,1441z"/>
	<path class="st2" d="M845.1,388.8c2.9,1.3,5.7,2.6,8.6,3.9C850.8,391.4,847.9,390.1,845.1,388.8z"/>
	<path class="st6" d="M2421.6,784.8c-1.4-1.4-2.8-2.8-4.2-4.2C2418.7,782.1,2420.2,783.5,2421.6,784.8z"/>
	<path class="st2" d="M840.9,377.4c-1.2,1.5-2.4,3.1-3.7,4.6C838.5,380.5,839.7,379,840.9,377.4z"/>
	<path class="st13" d="M784.8,221.2c-1.6,1.2-3.1,2.3-4.7,3.5C781.7,223.5,783.2,222.3,784.8,221.2z"/>
	<path class="st8" d="M869.4,458.1c-10,55.8-41.9,101.5-69.3,149.1c-9.2,16.1-20.8,30.8-31.2,46.2c-5.9,4.6-11.3,1.4-16.7-1
		c-87.4-38.4-166.8-89.7-232.3-158.8c-55.8-58.8-97.1-127.9-113.5-209.3c-3-14.7,0.6-28.8,2.5-43.1c0.1-0.7,0-1.4,0.2-2
		c5.5-14.8,9.1-35.9,25.2-37.2c14.8-1.1,17.1,20.7,23.8,32.9c11.1,20.3,20.9,41.3,31.2,62.1c4.5,6.4,6.3,14.4,12.2,20
		c6.6,9.3,13.2,18.6,19.9,27.9c53.9,63.6,121.6,99.4,205.7,101.4c40.5,1,80.9,1.1,121-7.8C868.4,434.1,871.2,437.7,869.4,458.1z"/>
	<path class="st9" d="M408.8,241.2c-1.2,88.2,43,158.6,94.5,223.3c57.4,72.1,132.7,124.1,215.4,164.8c16.6,8.2,33.4,16.1,50.2,24.1
		c-3.4,6.3-6.9,12.5-10.3,18.8c-5.3,17.9-19,28.3-33.8,37.7c-75.5-42.7-149.2-88.5-209.6-151.6C434,473.5,390.5,374,404.4,254.1
		C404.9,249.7,407.3,245.5,408.8,241.2z"/>
	<path class="st9" d="M869.4,458.1c0.2-12.1-2.5-16.5-17.2-13.8c-85.4,16-170.4,18.1-250.4-22.9c-33.7-17.3-61.2-43-80.6-76.4
		c74.7,63.2,159.8,85.2,255.7,64.1c10.7-2.4,21.5-4.8,32.2-7.1c20.3-0.8,34.9,21.3,56.8,14C874.9,429.4,876.1,443.4,869.4,458.1z"/>
	<path class="st23" d="M501.3,317.1c-8.6-3.9-11.7-11.2-12.2-20C495.7,302.2,500,308.8,501.3,317.1z"/>
	<path class="st7" d="M1140.8,2477.2c-77.2,6.2-151.7-10.2-226.1-28.3c-5.7-1.4-13.7-2.7-12.4-10.3c1.3-7.9,9.7-5.1,15.2-5.2
		c116.4-2.9,232.7-5.5,349.1-8.4c23.2-0.6,46.4-3.1,69.6-2.8c10,0.1,25.4-2.9,27.7,12.1c2.5,16-8,27.1-23.2,30.2
		c-25.3,5.3-50.8,10.9-76.5,12.1C1223.3,2478.7,1182,2477.2,1140.8,2477.2z"/>
	<path class="st24" d="M1159.1,1009.4c-1.1,40.4-5.4,80-29.1,114.4c-26.8,39-67.2,41.6-99.3,6.7c-52.9-57.5-63.3-189.2-20.2-254.4
		c27.5-41.5,70.7-44.8,103.3-6.5C1147.8,909.7,1157.6,958.3,1159.1,1009.4z"/>
	<path class="st24" d="M1721.4,994.9c-1,44.8-9.2,87.5-38.4,123.4c-38.2,46.9-89.8,43.4-121.6-7.6c-37.8-60.5-31.4-167.6,13.3-223.3
		c39.9-49.7,96.2-44.1,125,13.1C1714.6,930,1722.7,961.4,1721.4,994.9z"/>
	<path class="st24" d="M2289.1,1329.8c-40.5,6.3-72.6,26.2-96.8,59.2c-0.5,2-1.8,3.2-3.8,3.8c-5,3.4-10,6.3-15.1,0
		c-1.2-0.5-1.7-1.2-1.6-2c0.2-0.9,0.4-1.4,0.7-1.4c1.7-3.6,2.4-8.4,5.2-10.7c31.6-26.2,19.2-58.7,11.9-89.3
		c-11.8-49.7-16.6-101.5-39.8-148.1c-4.6-9.3-8.1-23.7-19.4-22.9c-12.3,0.8-18.1,14-22,25.8c-14,42.4-7.4,85.9-6.2,129
		c1.1,37.2,4.6,74.4,7.1,111.6c-7.9,8.4-12.4,3.8-12.5-4.7c-0.8-74.9-23.7-149.2-7.5-224.5c5-23.4,11.8-51.6,40-53.5
		c27.4-1.8,33.4,26.8,41.8,47c23.3,55.8,25,117,41,174.6c1.5,5.5-2.7,17.7,11.2,10.2c43-23.3,90.2-26.5,137.6-28.6
		c4.9,2.3,13.6-1.5,14.1,6.6c0.2,2.6-7.6,6.2-12.2,8.4C2339.3,1331.9,2313.4,1325,2289.1,1329.8z"/>
	<path class="st6" d="M768.4,673c1.2-1.6,2.4-3.2,3.6-4.8C770.8,669.8,769.6,671.4,768.4,673z"/>
	<path class="st8" d="M877.3,2141.5c-27.2-5.1-34.5,21.8-50.1,33.7c-26.2,19.9-43.4,51.7-68.6,71.6c-22.7,18-47.2,34.3-68.9,54.1
		c-2.4,2.2-5.1,4.6-8,5.8c-9,3.7,4.4,27.7-15,19.1c-17.2-7.7-24.8-44.4-13-55.7c12.5-12,15.2-20.9,2.4-35
		c-10.2-11.3-2.7-94.3,7.7-106.6c6-7.1,4.8-13.2,0.1-19.8c-11.3-15.9-9.9-32.1-0.7-48.3c6.9-12.2,9.8-23.9-3.6-33.4
		c-7.4-5.3-6.3-12.5-6.6-19.7c-5.6-122.7-3.6-245.5-4-368.3c-0.1-44,0.4-88-0.3-132c-0.2-11.3,3.5-20.8,12.1-25.6
		c9.9-5.5,15.5,6.6,20.1,11.7c25.7,28.6,64.2,40.1,90,67.4c13.3,14,46.5,17.7,31.3,50.8c-2.6,5.7,4.8,12.6,12.2,13
		c8.8,0.5,11-6.2,10.1-13.6c-0.6-4.6-2.3-9-3.5-13.5c-3.3-4.4-1.6-7.3,2.7-9.5c3.1-0.5,5.8,0.4,8.3,2.3
		c36,40.3,78.8,73.3,118.7,109.3c62.8,56.7,120.3,118.7,180.1,178.4c1.9,1.9,3.1,4.3,4,6.8c0.4,1.9,0.4,3.8,0,5.7
		c-19.2,25.6-43.8,46-66.7,68.1c-56.9,54.9-109.2,114.2-166.5,168.7C894.7,2133.5,889.5,2143.6,877.3,2141.5z"/>
	<path d="M829.2,1592.9c-1.4-1.2-2.8-2.4-4.1-3.6c-4.7-1.8-9.5-3.5-11.6-8.8c-40.5-32.3-81.2-64.3-121.1-97.3
		c-8.3-6.9-26.5-15.1-17-26.6c9.2-11.2,20.9,4.7,29.5,11.4c147.9,115.3,295.7,230.8,443.3,346.5c55.5,43.5,110.6,87.5,165.9,131.2
		c108.1,85.3,229,78.9,342-13.3c202-164.8,405.8-327.6,608.8-491.2c7.6,0.4,12.4,3.6,11.7,12.1c-2.2,2.9-4.4,5.7-6.6,8.6l-0.5,0.5
		c-1.8,0.6-3.1,1.7-4.1,3.3c-20.3,16.9-40.7,33.8-61,50.7c-56.8,57.4-122.7,104.1-184.8,155.2c-72.4,59.7-146,118-218.9,177.2
		c-13.6,9.5-25.1,21.6-38.8,31c-8.3,5.7-6.5,8.7,0.4,14.1c13,10.2,25.5,21.1,38.6,31.2c92.2,72.2,186.3,142.2,275.5,218.3
		c5,5.3,11.1,9.6,16.1,15c57.1,45.6,114.4,91.1,171.3,137.1c9.1,7.3,27.8,16.2,18.5,27.4c-9.4,11.4-21.8-5.7-30.9-12.8
		c-156.8-122.4-313.2-245.2-469.8-367.9c-1-0.8-2.5-0.9-3.7-1.4c-14.8-2-25-12.3-35.7-21c-10.8-8.9-19.5-8.2-30,0.5
		c-21,17.4-42.8,34-63.9,51.3c-45.4,37.2-99,57.2-155.7,62.2c-62.1,5.5-119.4-16.7-171.3-50.7c-26.2-17.2-50.4-37.2-74.8-56.9
		c-11.8-9.5-21.8-11-32.9,0.7c-6.9,7.2-15.3,13-26,13.7c-117,94.3-233.9,188.7-350.9,283c-44,35.5-87.9,71-132.1,106.1
		c-5.7,4.5-13.1,13.6-20.6,5.6c-9-9.6,2.5-15.9,8.1-20.7c40-33.9,80.6-67.2,121-100.7c101-91,209.5-172.9,314.4-259.1
		c12.3-10.1,23.4-21.9,37.4-30c45.7-40.5,44.5-26.4,1.5-62.9c-2.5-2.1-5.4-3.8-8.1-5.7c-95.7-74.6-191.5-149.2-286.1-225.2
		C857.3,1619.1,843.7,1605.5,829.2,1592.9z"/>
	<path class="st25" d="M1187.6,1940.5c0.3-0.6,0.4-1.4,0.9-1.8c43.3-33.7,43.5-33.9,86.7,2.6c50.2,42.5,105.2,74.8,171.5,83.7
		c77.5,10.4,143.7-17.1,203.9-62.8c19.6-14.9,38.8-30.4,57-47.1c13.3-12.2,24.1-16.1,38.1-1c9.4,10.1,21.3,17.8,32.1,26.6
		c-38.6,27.1-76.6,55.1-115.8,81.2c-56.5,37.5-118.5,59.9-186.7,63c-34.8,1.6-66.2-12.6-98.2-23.6
		C1308.2,2030.1,1247.8,1985.5,1187.6,1940.5z"/>
	<path class="st26" d="M1168.7,1928.7c-116.7,94.4-233.4,188.9-350.1,283.2c-1.4,1.1-3.6,1.3-5.5,2c17.9-27.2,47.5-44,64.1-72.4
		c40.8-38.9,80.1-79.2,119-119.9c43.8-45.7,90.9-88.3,136.6-132.2C1154.4,1893.4,1171.4,1912.1,1168.7,1928.7z"/>
	<path class="st27" d="M813.5,1580.5c4.8,1.7,9.8,3.1,11.6,8.8c-1.4,2.6-2.8,5.3-4.2,7.9C802.8,1598.6,817.4,1585.5,813.5,1580.5z"
		/>
	<path class="st28" d="M910.5,1542.5c0.5-1.1,0.8-2.6,1.5-2.9s1.9,0.7,3,1.2c-0.5,1-0.7,2.6-1.4,2.9
		C912.8,1543.9,911.6,1543,910.5,1542.5z"/>
	<path class="st25" d="M1796.7,1845c112.9-91.6,225.8-183.3,338.9-274.8c22.6-18.3,45.8-36,68.7-53.9c-15,17.5-29.2,35.9-45.2,52.5
		c-91.6,94.6-181.8,190.5-277.2,281.3c-14.4,13.7-29.9,26.4-44.8,39.5c-1.6,1.3-3.4,1.8-5.5,1.4c-13.1-6.6-21.6-18.3-31.4-28.5
		C1795.8,1857.7,1792,1852,1796.7,1845z"/>
	<path class="st26" d="M1833.1,1889.4c1.3,0,2.7,0,4,0c14.3,25.8,36.6,45.1,56.6,65.8c61.6,64.2,125,126.7,187.6,189.8
		c-1.7,2.2-3.7,2.5-5.9,0.9c-92.7-72.6-185.4-145.2-278.1-217.8c-5-5.3-1.9-10.3,1.7-13.7
		C1809.2,1904.8,1818.6,1893.6,1833.1,1889.4z"/>
	<path class="st29" d="M2075.4,2146.1c2-0.3,3.9-0.6,5.9-0.9c4.7,3.6,10.4,6.3,11.2,13.1C2086.8,2154.2,2081.1,2150.1,2075.4,2146.1
		z"/>
	<path class="st17" d="M2265.3,1465.6c1.4-1.1,2.7-2.2,4.1-3.3C2268,1463.4,2266.6,1464.5,2265.3,1465.6z"/>
	<path class="st30" d="M536.8,1522.1c7.8,4.8,16.8,10.2,25.7,15.8c28.4,17.9,44.4,44.8,54.1,75.9c1.1,3.5-0.1,7.7-0.2,11.5
		c-2.7-1.1-6.8-1.4-7.8-3.3c-17.8-35.7-48.2-61-73.8-90.3C528.6,1524.6,529.7,1522.8,536.8,1522.1z"/>
	<path class="st31" d="M1770.2,2478.5c-61.8-5.4-123.1-1.7-183.7-12.3c-11.2-2-14.3-6.3-13.7-16.9c0.7-11.8,8-12.3,16.5-11.7
		c90,6.2,180,12.8,270.1,18.4c46.4,2.9,93,3.8,139.4,5.7c2.9,0.1,5.7,1.2,8.5,1.9c-2.5,0.6-4.9,1.5-7.4,1.9
		C1923.5,2476.7,1846.2,2471.9,1770.2,2478.5z"/>
	<path class="st32" d="M2172.6,1389.4c0.8,1,1.1,2.1,0.8,3.4c-6,6.6-13.8,4.1-21.1,4.2C2155,1383.8,2165.6,1391.4,2172.6,1389.4z"/>
	<path class="st33" d="M2148.8,674c5.3-1.7,12,1.6,16.2-4.4c5.8,0.1,9.9,2.9,12.7,7.8C2167.9,677.1,2157.8,679.8,2148.8,674z"/>
	<path class="st34" d="M2188.5,1392.8c1.3-1.3,2.5-2.5,3.8-3.8c1.9,0.5,3.8,1,5.8,1.4c10,1.8,20.1,3.6,30.1,5.3
		C2214.8,1396.8,2201.2,1401.1,2188.5,1392.8z"/>
	<path class="st35" d="M1004.6,953.4c-0.1-0.7-0.3-1.3-0.2-2c2.5-46.4,30.6-88.5,59.5-89.3c29.6-0.8,61.8,43,69.5,94.5
		c3.3,5.2-0.3,11.7,3.1,16.8c0.3,2.4,0.5,4.9,0.8,7.3c1.7,9.9,4.5,19.9-1.9,29.3c-7.1-1.4-7.1-7.4-8.5-12.6c0.1-6-0.2-11.9-3-17.4
		c-2-4.2-2.3-11.7-5.2-12.2c-4.2-0.7-4,6.4-6.3,9.8c-13.8,19.8-36.7,21.7-53.8,1.5c-11.3-13.4-16-13.8-20.9,2.9
		c-0.5,1.8-2.5,3-4.1,4.2C1013.8,984.2,1010.1,968,1004.6,953.4z"/>
	<path class="st36" d="M1004.6,953.4c9.4,10.7,18.7,21.3,28.1,32c9.4,8.3,6.5,19.6,6.5,29.8c-0.1,20.8,2,41,10.9,60
		c15.5,33,40.2,35.1,61.3,5.4c3.4-4.8,5.5-10.8,12.3-12.1c4.9,1.6,5.1,6,6,10c-3.4,8.6-5.9,17.6-10.4,25.6
		c-22,39-57.9,42.7-83.9,6.5C1001.6,1063.4,994.5,1009.7,1004.6,953.4z"/>
	<path class="st22" d="M1129.6,1078.4c-1.7-3.2-3.3-6.4-5-9.6c-1.3-1.6-2-3.5-2.2-5.5c-0.3-3.1-0.1-6.1,0.1-9.2
		c3.9-14.8-0.6-31.7,10.6-44.7c6.8-8.7,0.6-19.4,4.1-28.6c6.6,24.3,4.4,48.5-0.7,72.7c-3,4-0.8,9.3-3.2,13.4c0.6,1,0.5,1.8-0.5,2.5
		c-2.4,2.4-2,5.9-3.4,8.7L1129.6,1078.4z"/>
	<path class="st22" d="M1136.5,973.4c-4.9-4.9-4.7-10.7-3.1-16.8C1134.4,962.2,1135.5,967.8,1136.5,973.4z"/>
	<path class="st37" d="M1133.4,1066.9c1.1-4.5,2.1-9,3.2-13.4C1135.5,1057.9,1134.4,1062.4,1133.4,1066.9z"/>
	<path class="st37" d="M1129.5,1078.1c1.1-2.9,2.2-5.8,3.4-8.7C1131.7,1072.3,1130.6,1075.2,1129.5,1078.1z"/>
	<path class="st35" d="M1564.2,948.5c5.7-22.4,16.4-42.1,32.8-58.3c27.4-27.1,60-25.2,81.1,7.2c34.9,53.4,31.8,110.5,10.9,168.1
		c-9.5,10.3-12.8,2-16.5-5.5c-1.8-10.8,1.3-21.1,3.5-31.3c5.1-23.4-1.1-46.1-3.1-69c0-1.2-0.1-2.4,0-3.6c0.1-1.5,0.1-1.3-0.2,1
		c-0.7,9.9-5.4,17.9-11.6,24.8c-16,18.1-38.8,15.3-53.2-5.9c-4-5.8-4.3-17.2-10.6-17c-5.2,0.2-5.3,12.3-10.1,17.9
		c-10.1,10.5-16.6,3.9-21-5.3C1562.9,964.5,1561.6,956.4,1564.2,948.5z"/>
	<path class="st36" d="M1676.5,1060.8c2.6,5.7,6.5,8,12.5,4.6c-0.1,1.3,0.1,2.7-0.4,3.9c-19.5,44.6-44.4,65.4-73.9,61.9
		c-26.2-3.1-50.2-35.8-57.6-78.7c-6.1-35.2-5.3-70,7.1-104c5.8,9-1.6,28.7,20.2,24.7c7.6,6.4,4,14.7,3.7,22.3
		c-1.1,26.5-2.4,53,10.3,77.8c16.3,31.7,42.9,33.3,62.6,3.9C1665.1,1070.9,1666.5,1061.7,1676.5,1060.8z"/>
	<path class="st38" d="M829.2,1592.9c72.8,56.4,145.8,112.7,218.4,169.3c38.2,29.8,75.9,60.2,113.8,90.3
		c1.1,18.2-8.6,29.4-28.6,32.9c-44.9-44.4-89-89.6-134.8-133c-51.1-48.3-103.8-94.9-155.6-142.5
		C837.1,1605.2,833.5,1598.6,829.2,1592.9z"/>
	<path class="st39" d="M1132.8,1885.4c11.2-9.5,24.4-17.3,28.6-32.9c2.8,1.7,5.7,3.2,8.3,5.2c44.4,35,44.4,35-1,71
		c-5.7-18.8-22.9-27-35.8-39.3C1132.9,1888.1,1132.8,1886.8,1132.8,1885.4z"/>
	<path class="st39" d="M1833.1,1889.4c-7.7,16.9-30.5,19.8-35.9,38.9c-13.5-10.5-26.6-21.6-40.7-31.3c-11.1-7.6-12.3-13-0.5-21.1
		c14-9.6,27.1-20.5,40.7-30.9C1802.6,1865,1823.2,1872.8,1833.1,1889.4z"/>
	<path class="st0" d="M1125.7,1065.3c-1.1,1-1.4,2.2-1.1,3.6c-1.9,4.2-3.6,8.4-5.9,12.4c-8.3,14.8-17.8,28.6-37.1,28.6
		c-19.6,0-28.8-14.6-36.3-29.5c-15.2-30.1-13.8-62.7-12.6-95.1c1-3.2,2.1-6.3,2.9-9.5c2.4-8.8,2.6-18.4,9.3-25.7
		c4.4,6.8,8.5,13.7,13.2,20.2c7.7,10.7,17.2,19.4,31.4,17.4c12.5-1.7,19.1-11.2,22.7-22.6c1.7-5.3,3-10.7,4.4-16
		c6.6,3.8,5.9,11.2,8.3,17c1.5,3.7,2.7,7.5,4,11.2c3.8,5.2,0.3,11.8,3.2,17.1c0.3,4.9,0.6,9.9,0.9,14.8c-1.6,16.5-3.2,33-4.9,49.4
		C1128.7,1061.4,1126.9,1063.2,1125.7,1065.3z"/>
	<path class="st22" d="M1132.3,994.5c-1.1-5.7-2.1-11.4-3.2-17.1C1134.3,982.3,1134.2,988.3,1132.3,994.5z"/>
	<path class="st37" d="M1125.7,1065.3c0.9-2.2,1.7-4.3,2.6-6.5C1127.4,1060.9,1126.6,1063.1,1125.7,1065.3z"/>
	<path class="st0" d="M1676.5,1060.8c-3.2,6.5-5.9,13.2-9.7,19.3c-9,14.5-19.3,26.9-39,25.8c-19.5-1.1-29.1-14-36.3-29.6
		c-15.3-33.4-13.1-68.2-7.2-103.1c4.5-11.6,5.8-24.6,15.1-34.1c3.5,9.9,6.1,20.2,10.6,29.7c5.6,11.8,13.9,22.3,28.8,20.3
		c19.9-2.8,24.7-19.8,30.3-35.5c2.5-2.5,4.9-2.5,7.3,0.1C1689.3,989.4,1685.7,1025.1,1676.5,1060.8z"/>
	<path class="st40" d="M1676.4,953.6c-2.4,0-4.8-0.1-7.3-0.1c-0.3-3.3-2.1-8.3,2.8-8.5C1675.6,944.9,1677.2,949.5,1676.4,953.6z"/>
	<path class="st41" d="M1062,1057c3.9,1.7,4,5.1,2.3,7.9c-1.9,3.1-4.9,3.9-7.3-0.1c-2.6-2.5-2.2-5-0.2-7.5l0,0
		C1058.5,1056.1,1060.2,1055.9,1062,1057z"/>
	<path class="st42" d="M1056.8,1057.3c0.1,2.5,0.1,5,0.2,7.5C1054,1062.4,1052.3,1059.9,1056.8,1057.3z"/>
	<path class="st42" d="M1062,1057c-1.7,0.1-3.5,0.2-5.2,0.3C1058.3,1053.4,1060.1,1054.2,1062,1057z"/>
	<path class="st43" d="M1608.7,1055.6c-2.5,1.5-4.9,3.3-5.1,3.1c-1.5-1.6-2.9-3.5-3.5-5.5c-0.2-0.7,2.9-3.1,3.2-2.9
		C1605.1,1051.5,1606.6,1053.3,1608.7,1055.6z"/>
</g>
<path class="st44" d="M282.3,2619.1h2291.2c4.9-3,9.7-6.1,14.5-9.3c45.1-31.1,44.4-80.3-0.1-111.8c-23.2-16.4-48.8-27.2-75.4-36.1
	c-124.4-41.7-254-56.2-383.2-72.6c-7.1,7.8-3.2,16.4-1.4,24.7c3.7,18.3,11.4,35.5,15.6,53.7c5.9,25.3-0.9,37.5-25.6,45.6
	c-14.6,4.8-29.8,7.1-45,9c-58.8,7.4-117.9,12.2-176.7,19.6c-52.8,6.7-105.9,14.4-159.1,11.6c-60.5-3.2-121-5.5-181.3-11.6
	c-42.9-4.3-75.9-25.7-66.3-83.2c3.2-19,7.7-37.9,9.6-57.1c2.1-21-4.4-30.6-21.9-34c-23.5-4.6-36,1.9-41.2,22.8
	c-6.1,24.6-12.3,49.2-14.6,74.5c-3,32.4-21.7,51.3-51.4,62c-39.2,14.1-80.3,14-120.5,13.7c-113.8-0.8-226.9-16.6-340.8-18.7
	c-32.1-0.6-63.7-6.2-92.3-22.4c-20.4-11.6-28.9-23.8-22.6-41.5c10-28.1,25.1-54,47.9-74.3c3.4-3.5,6.2-7.1,3.1-12.3
	c-24.7-10.6-50.1-3.7-75.3-3.2c-16,5.6-34.4,2.1-48.9,13.1c-24.4,2.8-48.9,5-73.2,8.4c-99.5,14-198.5,30.2-293.7,64.1
	c-28.1,10-52.7,25.1-75.1,44.4C237,2534.2,239.7,2585.7,282.3,2619.1z"/>
</svg>
