<?xml version="1.0" encoding="utf-8"?>
<!-- Generator: Adobe Illustrator 23.0.6, SVG Export Plug-In . SVG Version: 6.00 Build 0)  -->
<svg version="1.1" id="Calque_1" xmlns="http://www.w3.org/2000/svg" xmlns:xlink="http://www.w3.org/1999/xlink" x="0px" y="0px"
	 viewBox="0 0 872.5 300.7" style="enable-background:new 0 0 872.5 300.7;" xml:space="preserve">
<style type="text/css">
	.st0{fill:#3BA7FF;}
	.st1{fill:#2C7CBE;}
	.st2{fill:#BEBEBE;}
	.st3{fill:#FFFFFF;}
	.st4{fill:#2C7CBD;}
	.st5{fill:#2B79BA;}
	.st6{fill:#FAFAFA;}
	.st7{fill:#B8B8B8;}
	.st8{fill:#B3B4B4;}
	.st9{fill:#B6B8B8;}
	.st10{fill:#2F85CC;}
	.st11{fill:#45494B;}
	.st12{fill:#8E9DAE;}
	.st13{fill:#2469A1;}
	.st14{fill:#17466B;}
	.st15{fill:#5D87AB;}
	.st16{fill:#10314B;}
	.st17{fill:#848E8F;}
	.st18{fill:#282F34;}
	.st19{fill:#595757;}
	.st20{fill:#154062;}
	.st21{fill:#C0C5C5;}
	.st22{fill:#153855;}
	.st23{fill:#1B3B55;}
	.st24{fill:#5486AF;}
	.st25{fill:#1C4F79;}
	.st26{fill:#1F5C8C;}
	.st27{fill:#646565;}
	.st28{fill:#1F5D8F;}
	.st29{fill:#091B29;}
	.st30{fill:#010101;}
	.st31{fill:#08090C;}
	.st32{fill:#101E2B;}
	.st33{fill:#18476E;}
	.st34{fill:#1A1F27;}
	.st35{fill:#3C526A;}
	.st36{fill:#FEFEFE;}
	.st37{fill:#BCBCBC;}
	.st38{fill:#585757;}
	.st39{fill:#818080;}
	.st40{fill:#676868;}
	.st41{fill:#ADB0B2;}
	.st42{fill:#7D7E7E;}
	.st43{fill:#9EA0A0;}
	.st44{fill:#DEE0E1;}
	.st45{fill:#E3E4E4;}
	.st46{fill:#0D0D0D;}
</style>
<g>
	<path d="M872.5,160c-10.1,1.7-419.1,63-429.2,64.7c-36.2,5.8-72.3,11.6-108.5,17.3c-30.8,4.9-61.5,9.8-92.3,14.7
		c-1.3,0.2-1.7,0.3-0.9,1.7c2.5,4.1,1.7,7.5-2.3,10.1c-5.7,3.7-12.1,4.1-18.7,3.8c-7.9-0.3-14.7-3.5-21.4-7.1
		c-0.7-0.4-1.2-0.5-2-0.3c-6.5,1.8-13.1,2.2-19.7,2.5c-2.4,0.1-4.8,0.4-7.2,1c-0.5,0.1-1.2,0.2-1.7,0
		c-33.3-12.7-66.6-25.4-99.9-38.2c-22.2-8.5-44.5-16.9-66.7-25.4c-0.6-0.2-1.3-0.7-2-0.5c0-0.7,0-1.4,0-2.1
		c11.1,4.2,22.3,8.4,33.4,12.6c43.4,16.5,86.9,33.1,130.3,49.6c0.5,0.2,1.1,0.3,1.7,0.4c0-0.7-0.7-1-1-1.5c-0.5-0.7-0.9-1.4-1-2.2
		c-2.6-12.4-6.9-24.1-11.9-35.7c-2-4.7-3.4-9.6-4.3-14.6c-0.4-0.8,0.1-1.8-0.3-2.6c-1.1-13.9,2.6-27.2,5.4-40.6
		c1.4-6.3,2.3-12.6,2.8-19c0.1-1.2-0.3-1.8-1.3-2.3c-4.4-2.1-8.8-2.3-13.2,0c-1.5,0.8-2.2,1.9-1.9,3.8c0.8,6.1,1.6,12.1,2.2,18.2
		c0.4,3.9,0.5,7.8-1,11.6c-2,4.9-5.4,7.8-10.8,8.3c-5,0.5-9.3-0.6-12-5.3c-0.8-1.4-0.8,0.2-0.9,0.4c-1.8,3.6-4,7-6.9,9.8
		c-2.3,2.2-4.8,3.9-7.9,4.6c-3.2,0.8-6.1,0.2-8.5-2.2c-2.4-2.4-4.3-5.2-5.7-8.3c-6.1-13.7-8.8-28.1-6.7-43.1
		c1.9-13.5,8.6-24.6,18.3-34c2.1-2,4-4.2,5.3-6.8c2.7-5.5,7.9-7.5,13.3-8.9c5-1.3,10-1.5,15.2-1.7c4.5-0.2,8.9-0.9,13.4,0.5
		c1.5,0.5,3.3,1.5,4.5,1c1-0.4,1.1-2.7,1.8-4.1c3.2-6.1,4.9-12.6,5.8-19.4c1.2-8.3,5.2-15.4,10.2-22.1c1.9-2.5,4.6-2.1,6.5,0.9
		c0.6,1,0.9,1.3,1.9,0.3c4.6-4.3,10.3-5.1,16.2-4.9c4.9,0.1,9.4,1.6,14.1,2.9c4.5,1.3,7.1-0.4,8.2-5c0.4-1.7-0.3-2.8-1.4-4
		c-1.8-2-1.3-3.6,1.3-4.1c3.7-0.8,7.2-0.1,10.5,1.6c4.8,2.6,8.5,6.4,10.1,11.5c2.6,8.2,7.4,14.4,14.8,18.5c1.5,0.8,2.9,1.3,4.5-0.4
		c4.7-4.8,8-10.4,10.9-16.4c0.9-1.7,1.6-4.2,4.1-3.8c2.4,0.4,2.7,2.9,2.9,4.8c1.3,12.5-1.1,24.1-8.8,34.3c-0.6,0.9-0.8,1.4-0.1,2.2
		c1.9,2.2,3.9,3.9,7,4.4c7.9,1.2,15.5,3.5,22.9,6.5c7.4,3.1,13.9,7.5,19.3,13.4c2.8,3,4.8,6.5,5.7,10.5c1.8,8.2,5.3,15.9,7.9,23.8
		c1.6,4.7,2.3,9.5,1.4,14.4c-2.2,11.7-10.3,14.6-20.8,10.2c-1-0.4-1.7-0.7-2.8-0.3c-1.7,0.7-3.3,0.2-4.8-0.7
		c-4.3-2.4-7.6-6-9.8-10.3c-3.6-7-8.9-11.9-15.8-15.3c-3-1.4-6-1.8-9.1-0.5c-1.6,0.6-2.4,1.7-2.3,3.6c0.7,10.2,1,20.5,1.9,30.8
		c1.5,17-4.8,31.3-15.1,44.1c-0.6,0.8-0.9,1.4-0.7,2.5c0.4,3-0.8,5.7-2.2,8.3c-2.8,5.1-6.7,9.4-11.2,13c-1.2,1-1.4,2-0.9,3.4
		c0.8,2.4,2.6,4.1,4.3,5.8c0.6,0.6,1.2,0.3,1.8,0.2c50.4-8,100.8-16.1,151.2-24.1c26.9-4.3,53.8-8.6,80.7-12.8
		c0.3,0,399.5-59.9,399.8-60V160z"/>
	<path class="st0" d="M139.3,131.3c-3.2,6-2.6,12.4-2.4,18.8c-0.3,4.2,0.6,8.4-0.2,12.5c-0.9,4.3-1.8,8.5-4.6,12
		c-1.6,2-3.5,3.2-6.1,2.7c-2.3-0.5-3.6-1.9-4-4.2c-0.4-3.2-1.4-6.2-1.9-9.4c-0.1-0.3,0-0.8-0.5-0.8c-0.5,0-0.3,0.5-0.5,0.8
		c-0.3,1.3-0.5,2.6-0.8,3.9c-0.4,3.4-2.2,6-3.9,8.8c-2,3.3-4.5,6.1-7.9,8c-2.8,1.6-5.7,2.9-9.1,2.6c-2-0.2-3.7-0.8-5.1-2.1
		c-4.7-4.5-6.8-10-6.4-16.5c0.3-3.8,0.6-7.7,0.5-11.6c-0.3-8.3,1.7-16.1,5-23.7c4.1-9.5,10.6-17.2,18.4-23.9c1.9-1.7,4.2-3,6.5-4
		c8.8-3.7,17.8-6.4,27.5-4.1c0.8,0.2,1.5,0.2,2.3,0.2c5.2,0,10.3-0.3,15.4-0.9c2.7-0.3,5.4-0.3,8,0.3c7.3,1.8,13.3-0.9,18.8-5.1
		c1.9-1.5,3.7-3.2,5-5.3c0.6-1.1,1.6-1.9,2.3-3c0.4-0.6,0.8-1.1,1.1-1.8c0.1-0.2,0.2-0.4,0.2-0.6c0-0.3,0.1-0.6,0.2-0.9
		c0.1-0.4,0.4-0.7,0.7-1c1.5-2.1,0.4-4.1-0.4-6c-0.2-0.2-0.1-0.6-0.4-0.7l0,0c-1.1-2.5-1.4-5.1-2.1-7.7c-1.7-6.8-6.2-11.4-12.5-14.4
		c-1.2-0.6-2.5-1-3.8-1.6c-0.5-0.3-1.3-0.4-1.2-1.3l0,0c0.1-0.1,0.2-0.3,0.3-0.4c1.5-1.7,3.5-2.6,5.7-3.2c1.4-0.4,2.7-0.3,4,0.3
		c4.7,1.8,9.8,2.3,14.6,4c2.2,0.8,4.5,1.6,6.7,2.4c2.3,0.8,4.6,1.5,7.1,1.3c3.2-0.2,5.1-2.5,4.5-5.7c-0.6-3-2-5.7-2.4-8.7
		c0-0.4-0.2-0.7-0.2-1c-0.1-0.6-0.3-1.4,0.3-1.8c0.7-0.5,1.4-0.1,2,0.2c6,3,10.5,7.7,13.8,13.5c3,5.2,5.6,10.8,9.5,15.4
		c3.8,4.6,4.8,10.2,6.4,15.7c2.7,9.3,3.9,19,4.7,28.6c0.7,8.5,0.7,16.9,0.2,25.4c-0.4,6.7-0.8,13.4-1.8,20c-1.2,8-3.8,15.7-7,23.1
		c-0.8,1.7-1.6,3.4-2.3,5.2c-1.2,3.4-2.9,6.6-5,9.6c-2.2,3.1-4.6,6.1-6.7,9.2c-0.6,0.8-1.3,1.5-2.4,1c-1.1-0.5-0.9-1.5-0.7-2.3
		c0.4-2.1,1-4.2,1.4-6.3c0.2-1,0.5-2,0.6-3c0.1-0.5,0.3-1.2-0.3-1.5c-0.4-0.2-0.9,0.3-1.2,0.5c-4.3,2.8-6.9,7-8.8,11.6
		c-1.3,3.3-2.3,6.7-3,10.3c-0.4,1.8-0.4,3.6,0.3,5.4c0.2,0.5,0.4,1.1,0.1,1.7c-0.4,0.2-0.9,0.4-1.3,0.7c0.5,0.2,0.9,0.6,1.4,0.7
		c1.5,0.4,3,0.5,4.5,0.4c1.1-0.2,2.2-0.1,3.3,0.1c1.9,0.5,3.8-0.3,5.8-0.1c3.1,0.2,4.3,2.1,2.9,4.9c-1.7,3.2-4,5.7-6.8,7.9
		c-3.7,3-7.3,6.1-11.4,8.5c-6.5,3.9-13.6,6.2-20.9,7.9c-0.9,0.2-1.8,0.3-2.7,0.1c-3-0.8-6.2-1.2-9.1-2.3c-3.9-1.4-6.4-4.6-9-7.6
		c-2.3-2.6-3.5-5.9-5-9c-3-6.2-5.9-12.4-8-19c-1.4-4.7-2.7-9.5-2.3-14.5c0.3-5,0.9-10,2.5-14.7c2.4-7.1,3.9-14.5,5.8-21.7
		c0.7-2.5,1.7-4.8,2.4-7.3c0.9-2.9,0.9-5.9,0.1-8.8c-0.6-2.1-1.9-3.7-3.9-4.3c-4.5-1.4-8.8-3.3-13.4-4.3c-1.9-0.4-3.9-0.7-5.8-1
		c-2-0.3-2.2-0.7-1.9-2.6c0.3-1.8,1-3.4,2-4.9c1.1-1.7,2.2-3.4,3.4-5c0.2-0.3,0.7-0.6,0.5-0.9c-0.3-0.3-0.7,0.1-1.1,0.2
		c-2.9,1.1-5.3,3.1-7.9,4.9C141.3,131,140.5,131.6,139.3,131.3z"/>
	<path class="st1" d="M139.3,131.3c0-1.6,1.2-0.2,1.9-0.7c3-2.4,6.2-4.8,10-6.1c0.5-0.2,1.1-0.6,1.4,0c0.3,0.5-0.4,0.8-0.7,1.1
		c-2.4,3.5-5.4,6.6-6.2,11c-0.2,1-0.2,1.5,1.1,1.5c7,0.5,13.4,3.2,20,5.4c3,1,4.3,3.8,4.5,6.9c0.2,2.7-0.1,5.3-0.9,7.9
		c-3.7,11.1-6.3,22.4-9.2,33.7c-2.6,10.1-0.6,19.7,3.3,29.1c2.6,6.3,5.5,12.5,8.6,18.5c0.8,1.6,2,2.9,3,4.4c4.2,6,10.7,7.7,17.3,8.6
		c3.7,0.5,7.4-1.2,10.8-2.4c4.6-1.7,9.3-3.2,13.3-6.2c6.2-4.6,13-8.6,16.9-15.7c0.5-0.9,0.8-1.8,0.2-2.6c-0.6-0.8-1.4-1.2-2.6-1.1
		c-3.1,0.2-6.2,0.4-9.3-0.6c4.6-0.8,8.7-3.5,13.4-4c3.9-0.4,7.9-0.7,10.4,3c2.3,3.4,0,6.7-1.7,9.6c-3.9,6.9-9.8,11.9-16.2,16.3
		c-7.3,5-15.2,9.2-23.7,11.8c-6.7,2.1-13.9,2.5-20.8,3.6c-4,0.7-8,1.7-12.2,1.4c-3.5-0.2-6.2-2.1-6.9-5.6
		c-2.6-12.2-6.7-23.9-11.8-35.2c-5.9-13.2-5.5-26.7-2.7-40.5c2.2-10.7,5.1-21.2,6.1-32.1c0.1-1.1,0.3-2.3,0.4-3.4
		c0.8,0.9,1.6,1.7,2.3,2.6c0.7,0.9,1.4,1.8,2.1,2.6c0.8,0.1,0.4-0.4,0.4-0.7c-2.3-8.7-13.4-13.4-21.5-9c-2,1.1-1.9,0.3-1.9-1.2
		c0-2.8,0.7-5.5,1-8.3C139.6,133.7,140.1,132.4,139.3,131.3z"/>
	<path class="st1" d="M218,222.1c-2.4-3.9-1-7.8,0-11.7c2-7.4,5-14.1,11.8-18.4c0.5-0.3,0.9-1,1.5-0.6c0.3,0.2,0.3,1,0.2,1.5
		c-0.7,3.7-1.5,7.3-2.2,11c-0.1,0.6-0.4,1.2,0.5,1.4c0.7,0.2,1-0.2,1.5-0.7c10.1-12.3,15.9-26.7,20-41.8c1.5-5.7,1.8-11.6,2.4-17.4
		c0.7-7.9,0.9-15.9,0.7-23.8c-0.4-16.1-2.8-31.9-7.8-47.3c-0.9-2.8-2.7-5.1-4.5-7.4c-3.2-4.1-5.6-8.7-8-13.2
		c-3.5-6.4-8.1-11.4-14.5-14.6c-0.4-0.2-0.9-0.6-1.3-0.2c-0.2,0.2,0,0.8,0.1,1.1c0.7,2.7,1,5.4,2.2,8c1,2.3,1.2,4.7-0.7,6.8
		c-2,2.1-4.6,2-7,1.3c-5.3-1.5-10.5-3.4-15.8-4.9c-3.9-1.1-7.9-1.7-11.6-3.3c-0.6-0.2-1.3-0.1-1.9-0.2c5.9-2.1,11.8-1.3,17.7,0.2
		c2.1,0.5,4.2,1.2,6.3,1.7c3.5,0.8,6.3-0.3,8-3.2c1.7-3,2.5-6.5-0.4-8.9c-0.9-0.8-0.5-1.1,0.5-1.3c4.7-0.8,8.8,0.8,12.4,3.7
		c3.4,2.8,5.6,6.3,6.9,10.4c2.2,7,6.4,12.2,12.7,15.8c3.2,1.9,4.9,5,6,8.4c3.6,10.3,5.1,21.1,5.6,32c0.1,2.2-1.9,4.6-2.1,7.1
		c-0.6,6.7-1.3,13.4-0.5,20.1c0.2,1.7-0.1,4.8,3.4,2.8c0.6-0.3,0.4,0.3,0.5,0.6c0.9,16.3,2.8,32.5,2.5,48.9
		c-0.3,13.3-6.7,24.2-14.5,34.3c-0.3,0.4-0.7,0.8-1.3,0.3c-5-4.3-10.7-3.3-16.2-1.5c-2.5,0.8-2.5,0-2.3-1.9c0.1-1.3,0.1-2.7,0-4.1
		c0-0.2-0.2-0.5-0.3-0.7c-0.2,0.2-0.4,0.4-0.5,0.6c-0.9,1.9-1.3,4-1,6.1c0.2,1.3-0.4,1.7-1.5,2.1C223,222.1,220.5,222.2,218,222.1z"
		/>
	<path class="st1" d="M273.3,94.6c-0.6-0.6-0.6-0.9,0.4-0.7c14.5,3.1,28.3,7.7,38.7,19.3c2.2,2.4,3.9,5.2,4.6,8.3
		c1.9,8.6,5.4,16.7,8.3,25c1.4,4,2,8.1,1.5,12.3c-1.4,11.5-9.4,14.7-19.1,9.6c-5.2-2.7-9-7.3-13.3-11.2c-4.8-4.6-9.7-9.1-15.4-12.7
		c-3.1-2-6.3-3.8-10.2-3.6c-1.6,0.1-3.2,0.3-4.6,1.1c-1.4,0.8-1.4,0.2-1.5-1c-0.3-3.8-0.2-7.4,1-11.2c1.8-5.4,1.5-11.1,0.2-16.7
		c-0.1-0.3-0.1-0.6-0.3-0.8c-3.8-4.3-2.4-9.7-3.3-14.7c-0.4-2.2-0.6-4.4-0.9-6.5c-0.2-0.9,0.1-1.3,0.7-2c1.5-1.5,2.3-1.5,3.8,0.3
		c2,2.6,5,4.1,8.1,5.2c0.2,0.2,0.5,0.1,0.8,0.3c0.1,0.1,0.2,0.1,0.3,0.1c0.1,0,0.2,0,0.3,0.1c0.1,0,0.2,0,0.2-0.2
		C273.4,94.8,273.4,94.7,273.3,94.6z"/>
	<path class="st1" d="M193.9,90.4c-3.9,7-15.3,13.2-22.5,11.4c-6.1-1.6-12.3-0.3-18.4,0.1c-4.6,0.3-9.1-0.1-13.6-0.6
		c-4.4-0.5-8.8-0.1-13.1,1.3c-4.8,1.5-9.8,2.7-13.9,5.7c-9.2,6.8-16.2,15.4-20.8,26c-3.4,7.8-5,15.9-4.6,24.4
		c0.2,4.7-0.9,9.3-0.4,14c0.6,5.2,2.9,9.5,6.9,12.6c3.1,2.4,6.7,1.6,10.2,0.1c7.9-3.4,11.5-10.3,14.6-17.7
		c-0.4,9.4-4,17.4-10.5,24.2c-0.6,0.6-1.3,1.2-2,1.7c-5.5,4.1-9.8,3.5-13.9-2c-4.9-6.6-7-14.3-8.6-22.2c-2.2-10.3-2.6-20.7,0.1-31
		c0.4-0.7,0.5-1.5,0.7-2.2c0.4-0.4,0.1-1,0.4-1.5c2.6-7.5,6.7-14.1,12.1-19.9c3.6-3.8,7.1-7.7,10-12.3c3-4.7,8.2-6.1,13.2-7.2
		c5.8-1.3,11.6-1.3,17.5-0.3c1.2,0.2,1.2,0.1,1.6-1.1c0.2-0.6,0.7-0.2,1.1-0.2c4.5,0.3,8.7,2,12.9,3.4c2.3,0.8,4.6,1.1,7,0.8
		c3.5-0.4,6.7,1.3,10,2.2c1.3,0.4,2.8,1.7,3.8,0.4c0.3-0.4-2-1.1-3.1-1.7c-0.2-0.1-0.3-0.2-0.5-0.3c0.6-0.9,1.6-0.5,2.4-0.9
		c2-0.3,3.9-0.8,5.6-1.9c0.8-0.5,1.9-0.6,2.9-0.7c0.5,0,1.1,0,1.6-0.2c0.5-0.1,1-0.2,1.5-0.4c3.1-1,6.3-1.8,8.9-4
		C193.1,90.3,193.4,90,193.9,90.4z"/>
	<path class="st2" d="M180.9,95.6c-3,0.3-5.2,2.8-8.4,2.6c-0.6,0.2-1.2,0.1-1.8,0c-0.4-0.1-0.6-0.4-0.7-0.7
		c-1.8-1.1-3.8-2.1-5.4-3.4c-5.5-4.6-6.7-10.8-5.9-17.6c1.1-9.8,4.6-18.6,10.7-26.4c0.7-0.9,1.5-1.8,2.7-0.7c0.5,2.6,0.5,5.2,0,7.8
		c-1.4,6.4-0.7,12.6,1.8,18.6c1.4,3.5,2.6,7,5.1,9.9c2.2,2.5,3.8,2.8,6.6,1c2-1.3,3.4-3.1,4.3-5.3c0.3-0.8,0.6-1.7,0.9-2.5
		c0.5-1.9,1.7-2.9,3.8-2.8c2.2,1.8,2.3,4.5,2.6,7c0.1,0.1,0.2,0.3,0.2,0.4c0,0.2,0,0.3-0.1,0.5c-0.2,0.4-0.2,0.8-0.2,1.2
		c-0.3,0.8-0.7,1.5-1.2,2.2c-2.3,3.5-5.8,5.2-9.5,6.5c-0.9,0.3-1.9,0.6-2.8,1c-0.4,0.2-0.8,0.1-1.2,0.4
		C181.8,95.3,181.3,95.5,180.9,95.6z"/>
	<path class="st3" d="M194.5,76.1c-4.5,1.2-3.5,6.1-5.9,8.8c-4.3,4.7-8,5-11.2-0.4c-4.9-8.3-8.2-17.1-6-27.1
		c0.6-2.7-0.2-5.4,0.7-8.1l0,0c0.1,0.1,0.3,0.2,0.4,0.3c1.7,1.9,2.2,4.4,3.3,6.6c0.7,1.6,1.4,3.2,2.1,4.9c2.3,5.1,5.7,9,11.2,10.8
		C191.3,72.7,193,74.3,194.5,76.1z"/>
	<path class="st1" d="M119,163.7c-0.1-0.6-0.3-1.5,0.6-1.6c0.7-0.1,0.7,0.8,0.8,1.3c0.8,3.3,1.8,6.6,2.1,10c0.1,1.5,1.2,2.5,2.6,3
		c2,0.7,3.9,0.4,5.4-1.1c3.6-3.7,4.5-8.4,5.5-13.2c0.8-4-0.6-8.1,0.7-12.1c0.9,8.7,3.2,17.3,2,26.1c-0.6,4.5-2.8,8.2-7.4,9.5
		c-4.5,1.3-9,1.2-12.4-2.8c-1.2-1.4-1.8-2.8-1-4.8c1.8-4.5,2.1-9.2,1.6-14C119.7,163.6,119.8,162.8,119,163.7z"/>
	<path class="st1" d="M224.2,270.7c-8,0-15.4-2.1-22.2-6.2c-0.2-0.1-0.5-0.3-0.7-0.5c0.3-0.2,0.7-0.5,1.1-0.6c5.6-1.6,11.3-2,17-3
		c5.5-1,11.1-1.7,16.7-2.7c2.2-0.4,3.6,0,4.5,2.1c1,2.3,1.2,4.4-0.8,6.2c-2.9,2.7-6.5,3.6-10.2,4.2
		C227.7,270.4,225.9,270.5,224.2,270.7z"/>
	<path class="st3" d="M262.6,59.6c1.8-3.3,3.5-6.7,5.3-10c0.5-0.8,0.7-2.2,1.9-2c1.1,0.2,1.2,1.5,1.4,2.4c0.3,1.5,0.3,2.9-0.1,4.4
		c-1.6,7.5-4.6,14.5-8.1,21.3c-1,1.9-2.6,3.5-4.1,5.1c-0.6,0.6-1.2,1.1-1.7-0.2c-1-2.8-1.9-5.7-2.9-8.5c-0.5-1.1,0.1-1.7,0.8-2.4
		c0.6-0.6,1.4-1,2.1-1.5c0.8-0.6,1.6-1.2,2.5-1.8c0.3-0.7-0.4-0.4-0.6-0.6c-0.5-0.6-0.1-1.1,0.3-1.4c0.9-1,1.5-2.2,2.3-3.3
		C262.1,60.7,262.3,60.1,262.6,59.6z"/>
	<path class="st1" d="M177.5,51.5c3.8,1.9,7.9,3.2,11.1,6.1c4.2,3.8,7,8.3,7.3,14c0.1,1.7,2,3,1.1,4.8c-2.7-3.8-6.7-5.8-10.7-7.8
		c-1-0.5-1.8-1.2-2.8-1.9c-0.4-0.8-0.7-1.6-1.5-2c-0.6-1.1-2-2.6-1.4-3.1c0.9-0.8,2.3,0.4,3.5,1c1.1,0.5,2.6,2,3.1,1
		c0.6-1-1.2-2-2.4-2.6c-0.9-0.5-1.8-0.8-2.8-1.1c-3-0.9-5.3-3.6-5.6-6.6C176.3,52.4,176.9,52,177.5,51.5z"/>
	<path class="st2" d="M257.3,80.7c0.7,0.9,1,0.1,1.4-0.4c4-4,6-9.2,8.1-14.3c2.1-5.2,3.9-10.4,4.4-16c1.5,6.8,0.5,13.4-1.2,20
		c-1.7,6.5-4.7,12.3-9.7,16.9c-0.4,0.4-0.9,0.6-1.4,1c-0.2-0.5-0.4-1.1-0.5-1.6C258,84.4,257.6,82.5,257.3,80.7z"/>
	<path class="st4" d="M215.2,258.5c5.7-2.9,11.3-5.9,16.5-9.8c0.7-0.5,0.9-0.3,1.1,0.4c0.6,2.2,1.8,4,3.4,5.6c0.5,0.5,1.1,1-0.2,1.2
		c-6.4,1-12.9,2-19.3,3C216.2,259,215.5,259.5,215.2,258.5z"/>
	<path class="st4" d="M157.1,84.6c1,4.9,3.5,8.8,7.5,11.8c0.1,0.3,0,0.5-0.4,0.4c-3.5-0.9-7.2,0.3-10.7-1.1c-1.2-0.5-1.5-0.9-1-2.2
		c1.4-2.9,2.7-5.9,4-8.9C156.7,84.4,156.9,84.4,157.1,84.6z"/>
	<path class="st5" d="M292.8,158.4c3.4,3.1,6.9,6.2,10.3,9.2c0.3,0.2,0.9,0.4,0.5,0.9c-0.2,0.2-0.8,0.2-1.2,0.1
		c-2.2-0.6-3.9-2-5.5-3.4c-2-1.7-3.5-3.8-4.8-6.1c-0.2-0.2-0.1-0.5-0.4-0.7l0,0c-0.1-0.2-0.2-0.3-0.3-0.4l0,0
		c-0.3-0.4-0.3-0.6,0.3-0.6l0,0c0.2,0.1,0.3,0.2,0.3,0.3l0,0c0.1,0.1,0.3,0.2,0.3,0.3l0,0C292.7,158.1,292.8,158.2,292.8,158.4z"/>
	<path class="st6" d="M258.3,121.6c0.1-3.6,0.4-7.1,1.2-10.6c0.4-0.9,0.9-0.4,1.3,0c1.1,1.8,1.9,3.5,0.4,5.6c-1,1.4-1,3.3-1.4,5
		c-0.1,0.1-0.2,0.3-0.3,0.4c-0.2,0.5-0.5,1.2-1,1C257.8,122.8,258.2,122.1,258.3,121.6z"/>
	<path class="st7" d="M258.3,121.6c0.4,2.6,1-0.4,1.5,0.1c-0.1,1.5-0.2,3.1-0.2,4.6c0,1.7-0.3,3.6,1.3,4.9c0.5,0.5-1.2,3.7-1.9,3.8
		c-0.7,0.1-0.5-0.5-0.6-0.9C257.8,129.9,257.9,125.8,258.3,121.6z"/>
	<path class="st8" d="M257.3,68.2c-0.7,1.5-2.8,2-2.9,3.9c0,0-0.1-0.1-0.1-0.1c-0.2-1.2-2.2-2.4-1.1-3.3
		C254,68.1,255.9,68.6,257.3,68.2z"/>
	<path class="st9" d="M261.9,61.1c-0.4,1.8-2.2,2.8-2.5,4.6c0.1,0.1,0.1,0.2,0.1,0.2c0,0-0.1,0.1-0.1,0.1c-0.6,0.1-1.1,0.3-1.7,0.4
		c-0.4,0.1-0.5-0.1-0.4-0.4c1.5-1.8,3.1-3.6,4.6-5.5C262,60.7,262.1,60.9,261.9,61.1z"/>
	<path class="st10" d="M182,64.8c1.1,0.2,1.7,0.8,1.5,2c-0.4-0.4-0.8-0.9-1.1-1.3c0-0.2-0.2-0.3-0.3-0.5C182,65,182,64.9,182,64.8z"
		/>
	<path class="st11" d="M170,97.4c0.2,0.1,0.5,0.2,0.7,0.4c-0.1,1-1,0.2-1.4,0.7c-0.5-0.1-1-0.3-1.4-0.4c-0.1-0.1-0.2-0.1-0.1-0.2
		c0-0.1,0.1-0.1,0.1-0.1C168.5,97.6,169.3,98.2,170,97.4z"/>
	<path class="st12" d="M169.3,98.5c0.5-0.2,0.9-0.4,1.4-0.7c0.6,0.1,1.2,0.2,1.9,0.4c-0.8,0.6-1.7,0.2-2.5,0.4
		C169.7,98.5,169.5,98.5,169.3,98.5z"/>
	<path class="st13" d="M215.2,258.5c0.4,0.5,1,0.3,1.5,0.4c-0.6,0.1-1.2,0.2-1.8,0.4c-0.4,0.1-0.8,0.3-0.8-0.4
		C214.5,258.7,214.9,258.6,215.2,258.5z"/>
	<path class="st14" d="M214.1,258.8c0.3,0.1,0.5,0.3,0.8,0.4c-0.6,0.3-1.3,0.6-1.7,0.2C213,259.2,213.7,258.9,214.1,258.8z"/>
	<path class="st15" d="M84.1,136.3c-0.1,0.8-0.2,1.6-0.8,2.1c0.3-0.9,0.5-1.7,0.8-2.6C84.2,135.9,84.3,136.1,84.1,136.3z"/>
	<path class="st16" d="M291,157.4c-0.4-0.4-1-0.9-0.6-1.2c0.4-0.4,0.8,0.4,1.1,0.8C291.4,157.2,291.3,157.3,291,157.4z"/>
	<path class="st17" d="M260.7,111c-0.4-0.1-0.8-0.4-1.3,0c0.1-0.3,0.2-0.8,0.4-0.9C260.4,110.1,260.6,110.6,260.7,111z"/>
	<path class="st18" d="M167.8,97.8c0,0.1,0,0.2,0,0.3c-0.5-0.2-1-0.4-1.5-0.6c-0.2-0.1-0.2-0.2,0-0.4
		C166.9,97.3,167.3,97.6,167.8,97.8z"/>
	<path class="st19" d="M259.4,66c0-0.1,0-0.2,0.1-0.3c0.4,0,0.8-0.1,1.2-0.1c-0.3,0.2-0.6,0.5-0.9,0.7
		C259.6,66.3,259.5,66.2,259.4,66z"/>
	<path class="st20" d="M161.8,153.3c0.3,0.4,0.4,0.8,0.2,1.2c-0.2-0.2-0.3-0.3-0.5-0.5C161.6,153.8,161.7,153.6,161.8,153.3z"/>
	<path class="st21" d="M261.9,61.1c0-0.2-0.1-0.4-0.1-0.5c0.2-0.3,0.5-0.7,0.7-1C262.7,60.2,262.3,60.7,261.9,61.1z"/>
	<path class="st22" d="M166.4,97.1c0,0.1,0,0.2,0,0.4c-0.4-0.1-0.7-0.2-1.1-0.3c-0.2-0.1-0.2-0.3,0-0.4
		C165.7,96.8,166,97,166.4,97.1z"/>
	<path class="st23" d="M197,83.6c0-0.1,0-0.3,0-0.4c0.2,0,0.4,0,0.7,0c-0.1,0.4-0.2,0.8-0.3,1.2C197.1,84.2,197.3,83.8,197,83.6z"/>
	<path class="st24" d="M84.1,136.3c0-0.2,0-0.3-0.1-0.5c0.1-0.4,0.3-0.7,0.4-1.1C84.4,135.3,84.6,135.8,84.1,136.3z"/>
	<path class="st25" d="M165.3,96.7c0,0.1,0,0.3,0,0.4c-0.4-0.1-0.7-0.2-1.1-0.4c0.1-0.1,0.3-0.3,0.4-0.4
		C164.8,96.5,165.1,96.6,165.3,96.7z"/>
	<path class="st26" d="M291,157.4c0.2-0.1,0.3-0.3,0.5-0.4c0.1,0.1,0.2,0.3,0.3,0.4c-0.1,0.2-0.2,0.4-0.3,0.6
		C291.3,157.8,291.2,157.6,291,157.4z"/>
	<path class="st27" d="M257.2,66.1c0.1,0.1,0.3,0.3,0.4,0.4c-0.3,0.2-0.5,0.4-0.9,0.2C256.9,66.5,257.1,66.3,257.2,66.1z"/>
	<path class="st28" d="M157.1,84.6c-0.2,0-0.4,0-0.6,0c0.1-0.2,0.2-0.4,0.4-0.5C156.9,84.3,157,84.4,157.1,84.6z"/>
	<path class="st29" d="M273.3,95.3c-0.1-0.1-0.3-0.2-0.4-0.3c0.1-0.1,0.3-0.2,0.4-0.4c0.1,0.1,0.3,0.2,0.4,0.3
		C273.8,95.3,273.7,95.4,273.3,95.3z"/>
	<path class="st1" d="M197,76.4c0.1,0.2,0.3,0.5,0.4,0.7C197.2,76.9,197.1,76.7,197,76.4z"/>
	<path class="st29" d="M272.6,94.9c-0.3-0.1-0.5-0.2-0.8-0.3C272.1,94.7,272.3,94.8,272.6,94.9z"/>
	<path class="st26" d="M291.8,158.4c0.1,0.2,0.3,0.4,0.4,0.7C292,158.8,291.9,158.6,291.8,158.4z"/>
	<path class="st1" d="M182.1,65c0.1,0.2,0.2,0.3,0.3,0.5C182.3,65.3,182.2,65.2,182.1,65z"/>
	<path class="st26" d="M292.8,158.4c-0.1-0.1-0.2-0.2-0.3-0.3C292.6,158.2,292.7,158.3,292.8,158.4z"/>
	<path class="st26" d="M291.5,158c0.1,0.1,0.2,0.3,0.3,0.4C291.7,158.3,291.6,158.1,291.5,158z"/>
	<path class="st26" d="M292.5,158c-0.1-0.1-0.2-0.2-0.3-0.3C292.3,157.8,292.4,157.9,292.5,158z"/>
	<path class="st1" d="M177.8,51.1c-0.1,0.1-0.2,0.3-0.3,0.4C177.6,51.4,177.7,51.2,177.8,51.1z"/>
	<path class="st2" d="M172.4,49.7c-0.1-0.1-0.2-0.2-0.4-0.3C172.2,49.5,172.3,49.6,172.4,49.7z"/>
	<path class="st26" d="M292.1,157.7c-0.1-0.1-0.2-0.2-0.3-0.3C291.9,157.5,292,157.6,292.1,157.7z"/>
	<path class="st30" d="M239.6,124.5c-0.1,5.1-0.5,8.9-2.4,12.5c-0.9,1.7-2.1,3.3-4.3,3.3c-2.2,0-3.7-1.4-4.5-3.2
		c-3.4-7.9-3.8-16-0.1-23.9c2.1-4.5,6.1-4.4,8.5-0.2C239,116.9,239.5,121.2,239.6,124.5z"/>
	<path class="st31" d="M183.1,94.6c3.1-1.4,6.5-2.2,9.2-4.4c1.1-0.9,2.1-2,3.2-3.1c0.4,0,0.6,0.1,0.5,0.5c-0.7,0.9-1.5,1.9-2.2,2.8
		c-2.9,2.5-6.3,3.8-10,4.6C183.5,95.2,183.1,95.2,183.1,94.6z"/>
	<path class="st32" d="M196.1,87.6c-0.2-0.2-0.3-0.3-0.5-0.5c0.4-0.7,0.7-1.4,1.1-2.1c0.4-0.3,0.1-0.8,0.3-1.2c0-0.1,0-0.1,0-0.2
		c0.1,0.3,0.3,0.5,0.4,0.8c-0.1,0.3-0.1,0.6-0.2,1c-0.1,0.2-0.2,0.3-0.2,0.5C196.8,86.4,196.4,87,196.1,87.6z"/>
	<path class="st23" d="M197.1,85.8c0.1-0.2,0.1-0.3,0.2-0.5C197.2,85.5,197.2,85.6,197.1,85.8z"/>
	<path class="st0" d="M268.6,128.4c1-9.9-1.4-19.8-4.5-29.5c-0.1-0.4-0.1-0.8-0.1-1.1c0.3,0.1,0.6,0.1,0.8,0.3
		c9.1,5.3,19.2,8.1,29,11.6c12.5,4.5,19.9,13.6,23.3,26.2c2,7.4,2.8,15,4.2,22.5c0.3,1.7-0.4,3.1-2.6,3.8c-8.1,2.3-14-1.6-20-6.4
		c-5.7-4.5-10.1-10.2-15.2-15.1c-3.9-3.8-8.4-6.3-13.9-6.7c-1-0.1-1.2-0.3-1-1.3C268.7,131.3,268.6,130,268.6,128.4z"/>
	<path class="st33" d="M273.3,95.3c0.1-0.1,0.3-0.3,0.4-0.4c0.1,0.2,0.3,0.4,0.4,0.6C273.8,95.8,273.5,95.6,273.3,95.3z"/>
	<path class="st34" d="M183.1,94.6c0.2,0.1,0.5,0.3,0.7,0.4c-0.5,0.1-1,0.3-1.5,0.4c-0.3,0-0.4-0.1-0.4-0.4
		C182.4,94.8,182.8,94.7,183.1,94.6z"/>
	<path class="st35" d="M182,95c0.1,0.1,0.3,0.3,0.4,0.4c-0.5,0.1-1,0.1-1.6,0.2C181.2,95.4,181.6,95.2,182,95z"/>
	<path class="st23" d="M197,83.8c0.1,0.5,0.1,0.9-0.3,1.2C196.8,84.6,196.9,84.2,197,83.8z"/>
	<path class="st0" d="M222.9,268.1c-1,0-1.2,0-1.3,0c-2-0.2-4.1-0.2-5.9-1.5c1.5-1.1,3.3-1.2,5-1.8c4-1.3,7.5-3.6,11.1-5.6
		c1.9-1.1,3.2-0.6,4.4,1c1.2,1.6-0.1,2.5-1,3.4C231.5,267.4,226.8,267.7,222.9,268.1z"/>
	<path class="st36" d="M228.4,131.3c-1.4-5.8-1.2-11.5,1.3-17c0.5-1.2,1.3-2.6,2.9-2.6c1.6,0,2.3,1.4,2.9,2.6
		c0.8,1.4,1.3,2.9,1.5,4.5c0.2,0.5,0.3,0.9-0.2,1.2c-0.7-0.1-1.1-0.7-1.5-1.1c-1.2-1.1-2.1-1-3.1,0.2c-1,1.2-1.2,2.8-1.5,4.3
		c-0.3,1.5-0.1,3-0.2,4.6C230.3,130.7,230.1,130.9,228.4,131.3z"/>
	<path class="st37" d="M228.4,131.3c1.7-0.7,1.4-2.3,1.5-3.6c0.9,0.1,0.8,0.9,0.9,1.5c0.2,1.2,0.6,2.3,1.3,3.2c1,1.2,1.7,1.3,3,0.4
		c0.4-0.3,0.8-0.8,1.4-0.6c0.4,0.4,0.4,0.8,0.2,1.2c-0.4,1.6-0.8,3.1-2.2,4.2c-0.1,0-0.1,0-0.2,0c0,0-0.1,0.1-0.1,0.1
		c0,0.1,0,0.1-0.1,0.2c-1.3,1.2-2.3,0.4-3.2-0.6C229.4,135.7,228.6,133.6,228.4,131.3z"/>
	<path class="st38" d="M237.7,123.8c0.5,1.2,0.4,2.4,0,3.6c-0.2,0.1-0.4,0.1-0.6-0.1c-0.6-1.1-0.6-2.3,0-3.4
		C237.3,123.7,237.5,123.7,237.7,123.8z"/>
	<path class="st39" d="M237.7,123.8c-0.1,0-0.2,0-0.3,0c-0.8-0.6-0.9-1.5-0.7-2.4c0.1-0.4,0.4-0.7,0.8-0.9
		C237.9,121.6,237.7,122.7,237.7,123.8z"/>
	<path class="st40" d="M237.4,127.4c0.1,0,0.2,0,0.3,0c0,1.1,0.1,2.2-0.3,3.3c-0.4-0.1-0.6-0.5-0.7-0.9
		C236.6,128.9,236.6,128,237.4,127.4z"/>
	<path class="st41" d="M237.4,120.5c-0.1,0.3-0.3,0.5-0.4,0.8c-0.5-0.4-0.8-0.8-0.4-1.4c0.1-0.4,0.3-0.7,0.4-1.1
		C237.1,119.4,237.3,119.9,237.4,120.5z"/>
	<path class="st42" d="M237,129.9c0.1,0.3,0.3,0.5,0.4,0.8c-0.1,0.5-0.2,1-0.3,1.4c-0.4-0.1-0.6-0.4-0.7-0.8
		C236.2,130.7,236.4,130.2,237,129.9z"/>
	<path class="st43" d="M236.6,131.3c0.1,0.3,0.3,0.5,0.4,0.8c-0.1,0.5-0.3,0.9-0.4,1.4c-0.1-0.4-0.3-0.7-0.4-1.1
		C235.9,131.8,236.1,131.5,236.6,131.3z"/>
	<path class="st44" d="M234.1,138c0-0.1,0-0.2,0-0.3c0,0,0.1,0,0.2-0.1c0,0,0,0,0,0c0.1,0.1,0.2,0.1,0.2,0
		C234.3,137.8,234.2,137.9,234.1,138z"/>
	<path d="M236.6,131.3c-0.1,0.4-0.3,0.7-0.4,1.1c-2.1,2.7-4.1,2.4-5.4-0.8c-0.5-1.2-0.7-2.6-1-3.9c-0.1-2.4-0.1-4.8,0.8-7.2
		c0.5-1.4,1.1-3,2.9-3.2c1.7-0.1,2.3,1.3,3,2.5c0.1,0.5,0.3,0.9,0.4,1.4c0.1,0.8,0.3,1.7,0.4,2.5c0,1.2,0,2.4,0,3.6
		c-0.1,0.8-0.2,1.7-0.4,2.5C236.9,130.3,236.7,130.8,236.6,131.3z"/>
	<path class="st45" d="M234.2,137.7C234.2,137.7,234.2,137.7,234.2,137.7C234.2,137.7,234.2,137.7,234.2,137.7z"/>
	<path class="st46" d="M231.6,123.4c0-0.7,0-1.3,0.5-1.6c0.1,0.2,0.2,0.4,0.2,0.5c-0.1,0.6-0.3,1.2-0.5,1.8
		C231.7,123.8,231.6,123.5,231.6,123.4z"/>
	<path class="st46" d="M236,126.4c-0.1,0.5-0.1,0.8-0.2,1.2c-0.1-0.5-0.2-1-0.2-1.4c0-0.4,0.1-0.8,0.1-1.2
		C235.8,125.5,235.9,125.9,236,126.4z"/>
</g>
<ellipse class="st3" cx="232" cy="118.9" rx="2.4" ry="4.9"/>
<ellipse class="st3" cx="261.1" cy="117" rx="1.5" ry="3"/>
<circle class="st3" cx="235.2" cy="129" r="0.7"/>
<ellipse class="st3" cx="262.3" cy="126.6" rx="0.3" ry="0.8"/>
</svg>
