<?xml version="1.0" encoding="UTF-8"?>
<svg width="2202px" height="1078px" viewBox="0 0 2202 1078" version="1.1" xmlns="http://www.w3.org/2000/svg" xmlns:xlink="http://www.w3.org/1999/xlink">
    <!-- Generator: Sketch 63.1 (92452) - https://sketch.com -->
    <title>Group 12 Copy</title>
    <desc>Created with Sketch.</desc>
    <defs>
        <linearGradient x1="52.869694%" y1="48.9878663%" x2="41.3891009%" y2="58.8482825%" id="linearGradient-1">
            <stop stop-color="#CACBDF" offset="15%"></stop>
            <stop stop-color="#A7A8C9" offset="100%"></stop>
        </linearGradient>
        <linearGradient x1="0%" y1="50%" x2="100%" y2="50%" id="linearGradient-2">
            <stop stop-color="#A5AED5" offset="0%"></stop>
            <stop stop-color="#6978B9" offset="100%"></stop>
        </linearGradient>
        <linearGradient x1="0%" y1="50%" x2="100%" y2="50%" id="linearGradient-3">
            <stop stop-color="#F6E0D9" offset="0%"></stop>
            <stop stop-color="#E9B2A0" offset="100%"></stop>
        </linearGradient>
        <linearGradient x1="0%" y1="50%" x2="100.006483%" y2="50%" id="linearGradient-4">
            <stop stop-color="#CACBDF" offset="15%"></stop>
            <stop stop-color="#A7A8C9" offset="100%"></stop>
        </linearGradient>
        <linearGradient x1="0%" y1="50%" x2="100%" y2="50%" id="linearGradient-5">
            <stop stop-color="#163253" offset="0%"></stop>
            <stop stop-color="#738498" offset="100%"></stop>
        </linearGradient>
        <radialGradient cx="36.6085193%" cy="-8.05134189%" fx="36.6085193%" fy="-8.05134189%" r="108.518086%" gradientTransform="translate(0.366085,-0.080513),scale(0.417201,1.000000),translate(-0.366085,0.080513)" id="radialGradient-6">
            <stop stop-color="#000000" offset="0%"></stop>
            <stop stop-color="#000000" stop-opacity="0" offset="100%"></stop>
        </radialGradient>
        <linearGradient x1="0%" y1="50%" x2="99.9883721%" y2="50%" id="linearGradient-7">
            <stop stop-color="#A5AED5" offset="0%"></stop>
            <stop stop-color="#6978B9" offset="100%"></stop>
        </linearGradient>
        <linearGradient x1="0%" y1="50%" x2="100%" y2="50%" id="linearGradient-8">
            <stop stop-color="#163253" offset="0%"></stop>
            <stop stop-color="#738498" offset="100%"></stop>
        </linearGradient>
        <linearGradient x1="0%" y1="50%" x2="100%" y2="50%" id="linearGradient-9">
            <stop stop-color="#163253" offset="0%"></stop>
            <stop stop-color="#738498" offset="100%"></stop>
        </linearGradient>
        <linearGradient x1="0%" y1="50%" x2="100%" y2="50%" id="linearGradient-10">
            <stop stop-color="#CACBDF" offset="15%"></stop>
            <stop stop-color="#A7A8C9" offset="100%"></stop>
        </linearGradient>
        <linearGradient x1="0%" y1="50.0194477%" x2="100%" y2="50.0194477%" id="linearGradient-11">
            <stop stop-color="#A5AED5" offset="0%"></stop>
            <stop stop-color="#6978B9" offset="100%"></stop>
        </linearGradient>
        <linearGradient x1="0%" y1="50.0194477%" x2="100.005095%" y2="50.0194477%" id="linearGradient-12">
            <stop stop-color="#F6E0D9" offset="0%"></stop>
            <stop stop-color="#E9B2A0" offset="100%"></stop>
        </linearGradient>
        <linearGradient x1="0%" y1="50.0194477%" x2="100.010654%" y2="50.0194477%" id="linearGradient-13">
            <stop stop-color="#A5AED5" offset="0%"></stop>
            <stop stop-color="#6978B9" offset="100%"></stop>
        </linearGradient>
        <linearGradient x1="0%" y1="50%" x2="100%" y2="50%" id="linearGradient-14">
            <stop stop-color="#A5AED5" offset="0%"></stop>
            <stop stop-color="#6978B9" offset="100%"></stop>
        </linearGradient>
        <linearGradient x1="0%" y1="50%" x2="100%" y2="50%" id="linearGradient-15">
            <stop stop-color="#F6E0D9" offset="0%"></stop>
            <stop stop-color="#E9B2A0" offset="100%"></stop>
        </linearGradient>
        <linearGradient x1="0%" y1="50%" x2="100%" y2="50%" id="linearGradient-16">
            <stop stop-color="#CACBDF" offset="15%"></stop>
            <stop stop-color="#A7A8C9" offset="100%"></stop>
        </linearGradient>
        <linearGradient x1="0%" y1="50%" x2="100%" y2="50%" id="linearGradient-17">
            <stop stop-color="#F6E0D9" offset="0%"></stop>
            <stop stop-color="#E9B2A0" offset="100%"></stop>
        </linearGradient>
        <linearGradient x1="0%" y1="50%" x2="100%" y2="50%" id="linearGradient-18">
            <stop stop-color="#A5AED5" offset="0%"></stop>
            <stop stop-color="#6978B9" offset="100%"></stop>
        </linearGradient>
        <linearGradient x1="0%" y1="50%" x2="100%" y2="50%" id="linearGradient-19">
            <stop stop-color="#A5AED5" offset="0%"></stop>
            <stop stop-color="#6978B9" offset="100%"></stop>
        </linearGradient>
        <linearGradient x1="0%" y1="50%" x2="100.006555%" y2="50%" id="linearGradient-20">
            <stop stop-color="#163253" offset="0%"></stop>
            <stop stop-color="#738498" offset="100%"></stop>
        </linearGradient>
        <radialGradient cx="-17.4963277%" cy="-394.913295%" fx="-17.4963277%" fy="-394.913295%" r="466.566474%" gradientTransform="translate(-0.174963,-3.949133),scale(0.352946,1.000000),translate(0.174963,3.949133)" id="radialGradient-21">
            <stop stop-color="#000000" offset="0%"></stop>
            <stop stop-color="#000000" stop-opacity="0" offset="100%"></stop>
        </radialGradient>
        <linearGradient x1="0.50955414%" y1="2.50856943%" x2="55.2376286%" y2="45.0974042%" id="linearGradient-22">
            <stop stop-color="#000000" offset="0%"></stop>
            <stop stop-color="#000000" stop-opacity="0" offset="100%"></stop>
        </linearGradient>
        <linearGradient x1="0.499803998%" y1="2.49926058%" x2="55.2430419%" y2="45.0964433%" id="linearGradient-23">
            <stop stop-color="#000000" offset="0%"></stop>
            <stop stop-color="#000000" stop-opacity="0" offset="100%"></stop>
        </linearGradient>
        <linearGradient x1="0.50955414%" y1="2.50856943%" x2="55.2474277%" y2="45.0974042%" id="linearGradient-24">
            <stop stop-color="#000000" offset="0%"></stop>
            <stop stop-color="#000000" stop-opacity="0" offset="100%"></stop>
        </linearGradient>
        <linearGradient x1="0.509604077%" y1="2.50816699%" x2="55.2430419%" y2="45.0955006%" id="linearGradient-25">
            <stop stop-color="#000000" offset="0%"></stop>
            <stop stop-color="#000000" stop-opacity="0" offset="100%"></stop>
        </linearGradient>
        <linearGradient x1="50%" y1="-131.155193%" x2="50%" y2="41.7736289%" id="linearGradient-26">
            <stop stop-color="#000000" offset="0%"></stop>
            <stop stop-color="#000000" stop-opacity="0" offset="100%"></stop>
        </linearGradient>
        <linearGradient x1="50%" y1="-131.155193%" x2="50%" y2="41.7930766%" id="linearGradient-27">
            <stop stop-color="#000000" offset="0%"></stop>
            <stop stop-color="#000000" stop-opacity="0" offset="100%"></stop>
        </linearGradient>
        <linearGradient x1="50%" y1="-173.317775%" x2="50%" y2="30.5523143%" id="linearGradient-28">
            <stop stop-color="#000000" offset="0%"></stop>
            <stop stop-color="#000000" stop-opacity="0" offset="100%"></stop>
        </linearGradient>
        <linearGradient x1="49.9954975%" y1="-131.155193%" x2="49.9954975%" y2="41.7930766%" id="linearGradient-29">
            <stop stop-color="#000000" offset="0%"></stop>
            <stop stop-color="#000000" stop-opacity="0" offset="100%"></stop>
        </linearGradient>
        <linearGradient x1="49.9883721%" y1="-131.155193%" x2="49.9883721%" y2="41.7930766%" id="linearGradient-30">
            <stop stop-color="#000000" offset="0%"></stop>
            <stop stop-color="#000000" stop-opacity="0" offset="100%"></stop>
        </linearGradient>
        <linearGradient x1="50%" y1="-131.155193%" x2="50%" y2="41.7930766%" id="linearGradient-31">
            <stop stop-color="#000000" offset="0%"></stop>
            <stop stop-color="#000000" stop-opacity="0" offset="100%"></stop>
        </linearGradient>
        <linearGradient x1="50.0036114%" y1="-131.155193%" x2="50.0036114%" y2="41.7736289%" id="linearGradient-32">
            <stop stop-color="#000000" offset="0%"></stop>
            <stop stop-color="#000000" stop-opacity="0" offset="100%"></stop>
        </linearGradient>
        <linearGradient x1="49.9936314%" y1="-131.155193%" x2="49.9936314%" y2="41.7736289%" id="linearGradient-33">
            <stop stop-color="#000000" offset="0%"></stop>
            <stop stop-color="#000000" stop-opacity="0" offset="100%"></stop>
        </linearGradient>
        <linearGradient x1="50%" y1="-131.155193%" x2="50%" y2="41.7736289%" id="linearGradient-34">
            <stop stop-color="#000000" offset="0%"></stop>
            <stop stop-color="#000000" stop-opacity="0" offset="100%"></stop>
        </linearGradient>
        <linearGradient x1="50.0084048%" y1="-131.155193%" x2="50.0084048%" y2="41.7736289%" id="linearGradient-35">
            <stop stop-color="#000000" offset="0%"></stop>
            <stop stop-color="#000000" stop-opacity="0" offset="100%"></stop>
        </linearGradient>
        <linearGradient x1="50%" y1="-131.155193%" x2="50%" y2="41.7930766%" id="linearGradient-36">
            <stop stop-color="#000000" offset="0%"></stop>
            <stop stop-color="#000000" stop-opacity="0" offset="100%"></stop>
        </linearGradient>
        <linearGradient x1="50.0032776%" y1="-131.155193%" x2="50.0032776%" y2="41.7736289%" id="linearGradient-37">
            <stop stop-color="#000000" offset="0%"></stop>
            <stop stop-color="#000000" stop-opacity="0" offset="100%"></stop>
        </linearGradient>
        <linearGradient x1="49.9997288%" y1="26.5874335%" x2="49.9997288%" y2="55.9909685%" id="linearGradient-38">
            <stop stop-color="#CACBDF" offset="15%"></stop>
            <stop stop-color="#A7A8C9" offset="100%"></stop>
        </linearGradient>
        <linearGradient x1="34.2944622%" y1="49.7794314%" x2="111.892971%" y2="46.1821574%" id="linearGradient-39">
            <stop stop-color="#F6E0D9" offset="0%"></stop>
            <stop stop-color="#E9B2A0" offset="100%"></stop>
        </linearGradient>
        <linearGradient x1="51.7274797%" y1="49.9980827%" x2="88.4789615%" y2="49.9980827%" id="linearGradient-40">
            <stop stop-color="#F6E0D9" offset="0%"></stop>
            <stop stop-color="#E9B2A0" offset="100%"></stop>
        </linearGradient>
        <linearGradient x1="48.1770523%" y1="39.3720958%" x2="58.5011319%" y2="99.5770285%" id="linearGradient-41">
            <stop stop-color="#F6E0D9" offset="0%"></stop>
            <stop stop-color="#E9B2A0" offset="100%"></stop>
        </linearGradient>
        <linearGradient x1="0%" y1="49.9926429%" x2="100%" y2="49.9926429%" id="linearGradient-42">
            <stop stop-color="#CACBDF" offset="15%"></stop>
            <stop stop-color="#A7A8C9" offset="100%"></stop>
        </linearGradient>
        <linearGradient x1="0%" y1="49.9489121%" x2="100%" y2="49.9489121%" id="linearGradient-43">
            <stop stop-color="#A5AED5" offset="0%"></stop>
            <stop stop-color="#6978B9" offset="100%"></stop>
        </linearGradient>
        <linearGradient x1="0%" y1="50.0139297%" x2="100%" y2="50.0139297%" id="linearGradient-44">
            <stop stop-color="#CACBDF" offset="15%"></stop>
            <stop stop-color="#A7A8C9" offset="100%"></stop>
        </linearGradient>
        <linearGradient x1="0%" y1="50.0139297%" x2="100%" y2="50.0139297%" id="linearGradient-45">
            <stop stop-color="#CACBDF" offset="15%"></stop>
            <stop stop-color="#A7A8C9" offset="100%"></stop>
        </linearGradient>
        <linearGradient x1="3.96314406%" y1="50.0066819%" x2="100.018578%" y2="50.0066819%" id="linearGradient-46">
            <stop stop-color="#CACBDF" offset="15%"></stop>
            <stop stop-color="#A7A8C9" offset="100%"></stop>
        </linearGradient>
    </defs>
    <g id="Page-1" stroke="none" stroke-width="1" fill="none" fill-rule="evenodd">
        <g id="Group-12-Copy">
            <g id="Group-12">
                <g id="dateam-illustration-5" fill-rule="nonzero">
                    <g id="Calque_3" transform="translate(0.000000, 72.000000)">
                        <polygon id="Path" fill="url(#linearGradient-1)" opacity="0.3" points="1.8189894e-12 610.81 399.23 424.01 509.12 456.98 688.59 369.07 927.09 422.74 1194.41 438.66 1351.42 438.66 1672.25 541.22 2201.28 951.44 1532.31 936.79 477.66 903.83"></polygon>
                        <rect id="Rectangle" fill="url(#linearGradient-2)" x="997.37" y="190.14" width="154.26" height="51.42"></rect>
                        <rect id="Rectangle" fill="url(#linearGradient-3)" x="1128.08" y="241.56" width="126.83" height="51.42"></rect>
                        <rect id="Rectangle" fill="url(#linearGradient-4)" x="963.21" y="241.56" width="154.26" height="51.42"></rect>
                        <rect id="Rectangle" fill="url(#linearGradient-5)" x="1053.32" y="138.72" width="123.25" height="51.42"></rect>
                        <rect id="Rectangle" fill="url(#radialGradient-6)" style="mix-blend-mode: multiply;" x="1053.32" y="138.72" width="123.25" height="51.42"></rect>
                        <rect id="Rectangle" fill="url(#linearGradient-7)" x="1020.71" y="395.82" width="86" height="51.42"></rect>
                        <rect id="Rectangle" fill="url(#linearGradient-8)" x="897.42" y="395.82" width="111.05" height="51.42"></rect>
                        <rect id="Rectangle" fill="url(#linearGradient-2)" x="730.92" y="395.82" width="154.26" height="51.42"></rect>
                        <rect id="Rectangle" fill="url(#linearGradient-9)" x="1036.35" y="292.98" width="170.04" height="51.42"></rect>
                        <rect id="Rectangle" fill="url(#linearGradient-10)" x="871.33" y="292.98" width="154.26" height="51.42"></rect>
                        <rect id="Rectangle" fill="url(#linearGradient-11)" x="796.95" y="447.24" width="154.26" height="51.42"></rect>
                        <rect id="Rectangle" fill="url(#linearGradient-12)" x="589.36" y="447.24" width="196.28" height="51.42"></rect>
                        <rect id="Rectangle" fill="url(#linearGradient-13)" x="962.51" y="447.24" width="93.86" height="51.42"></rect>
                        <rect id="Rectangle" fill="url(#linearGradient-14)" x="970.06" y="344.4" width="186.5" height="51.42"></rect>
                        <rect id="Rectangle" fill="url(#linearGradient-15)" x="803.65" y="344.4" width="154.26" height="51.42"></rect>
                        <rect id="Rectangle" fill="url(#linearGradient-16)" x="897.42" y="550.26" width="59.49" height="51.42"></rect>
                        <rect id="Rectangle" fill="url(#linearGradient-17)" x="806.67" y="550.26" width="78.51" height="51.42"></rect>
                        <rect id="Rectangle" fill="url(#linearGradient-18)" x="848.52" y="601.68" width="77.32" height="51.42"></rect>
                        <rect id="Rectangle" fill="url(#linearGradient-19)" x="867.45" y="498.84" width="138.45" height="51.42"></rect>
                        <rect id="Rectangle" fill="url(#linearGradient-20)" x="702.75" y="498.84" width="152.55" height="51.42"></rect>
                        <polygon id="Path" fill="url(#radialGradient-21)" style="mix-blend-mode: multiply;" points="1250.62 284.81 1128.08 284.81 1128.08 241.56 1219.83 241.56"></polygon>
                        <polygon id="Path" fill="url(#linearGradient-22)" opacity="0.7" style="mix-blend-mode: multiply;" points="1091.32 233.39 1155.37 233.39 1155.37 190.14 1053.32 190.14"></polygon>
                        <polygon id="Path" fill="url(#linearGradient-23)" opacity="0.7" style="mix-blend-mode: multiply;" points="1035.36 284.81 1099.41 284.81 1099.41 241.56 997.37 241.56"></polygon>
                        <polygon id="Path" fill="url(#linearGradient-24)" opacity="0.7" style="mix-blend-mode: multiply;" points="1001.21 336.23 1065.26 336.23 1065.26 292.98 963.21 292.98"></polygon>
                        <polygon id="Path" fill="url(#linearGradient-22)" opacity="0.7" style="mix-blend-mode: multiply;" points="909.33 387.65 973.38 387.65 973.38 344.4 871.33 344.4"></polygon>
                        <polygon id="Path" fill="url(#linearGradient-22)" opacity="0.7" style="mix-blend-mode: multiply;" points="841.64 439.07 905.7 439.07 905.7 395.82 803.65 395.82"></polygon>
                        <polygon id="Path" fill="url(#linearGradient-25)" opacity="0.7" style="mix-blend-mode: multiply;" points="768.91 490.49 832.96 490.49 832.96 447.25 730.92 447.25"></polygon>
                        <rect id="Rectangle" fill="url(#linearGradient-26)" style="mix-blend-mode: multiply;" x="1036.35" y="292.98" width="170.04" height="51.42"></rect>
                        <rect id="Rectangle" fill="url(#linearGradient-27)" style="mix-blend-mode: multiply;" x="970.06" y="344.4" width="186.5" height="51.42"></rect>
                        <rect id="Rectangle" fill="url(#linearGradient-28)" style="mix-blend-mode: multiply;" x="970.06" y="344.65" width="186.5" height="51.42"></rect>
                        <rect id="Rectangle" fill="url(#linearGradient-29)" style="mix-blend-mode: multiply;" x="897.42" y="395.82" width="111.05" height="51.42"></rect>
                        <rect id="Rectangle" fill="url(#linearGradient-30)" style="mix-blend-mode: multiply;" x="1020.71" y="395.82" width="86" height="51.42"></rect>
                        <rect id="Rectangle" fill="url(#linearGradient-31)" style="mix-blend-mode: multiply;" x="796.95" y="447.24" width="154.26" height="51.42"></rect>
                        <rect id="Rectangle" fill="url(#linearGradient-32)" style="mix-blend-mode: multiply;" x="867.45" y="498.84" width="138.45" height="51.42"></rect>
                        <rect id="Rectangle" fill="url(#linearGradient-33)" style="mix-blend-mode: multiply;" x="806.67" y="550.26" width="78.51" height="51.42"></rect>
                        <rect id="Rectangle" fill="url(#linearGradient-34)" style="mix-blend-mode: multiply;" x="848.52" y="601.68" width="77.32" height="51.42"></rect>
                        <rect id="Rectangle" fill="url(#linearGradient-35)" style="mix-blend-mode: multiply;" x="897.42" y="550.26" width="59.49" height="51.42"></rect>
                        <rect id="Rectangle" fill="url(#linearGradient-36)" style="mix-blend-mode: multiply;" x="962.51" y="447.24" width="93.86" height="51.42"></rect>
                        <rect id="Rectangle" fill="url(#linearGradient-37)" style="mix-blend-mode: multiply;" x="702.75" y="498.84" width="152.55" height="51.42"></rect>
                        <polygon id="Path" fill="url(#linearGradient-38)" points="105.99 812.93 599.16 498.53 907.14 651.47 1264.33 283.63 1571.73 541.91 1862.17 1005.55 18.34 1005.55"></polygon>
                        <polygon id="Path" fill="url(#linearGradient-39)" points="752.9 574.88 599.16 498.53 377.3 639.97 600.65 543.77"></polygon>
                        <polygon id="Path" fill="url(#linearGradient-40)" points="1264.33 283.63 1011.09 544.42 1270.28 381.65 1454.8 443.67"></polygon>
                        <g id="Group-19" transform="translate(1435.620000, 14.000000)" fill="#000000">
                            <polygon id="Path" points="260.46 479.75 310.7 375 360.94 479.75"></polygon>
                            <polygon id="Path" points="234.13 584.45 310.7 424.81 387.27 584.45"></polygon>
                            <polygon id="Path" points="212.07 703.72 310.7 498.09 409.33 703.72"></polygon>
                            <polygon id="Path" points="175.23 857.96 310.7 575.52 446.17 857.96"></polygon>
                            <polygon id="Path" points="464.9 586.6 496.09 521.58 527.27 586.6"></polygon>
                            <polygon id="Path" points="448.56 651.59 496.09 552.5 543.61 651.59"></polygon>
                            <polygon id="Path" points="434.87 725.62 496.09 597.98 557.31 725.62"></polygon>
                            <polygon id="Path" points="411.99 821.37 496.09 646.04 580.18 821.37"></polygon>
                            <path d="M397.78,488.34 C402.90399,488.758904 407.948817,489.862039 412.78,491.62 C415.264081,492.50191 417.634144,493.67687 419.84,495.12 C420.993677,495.868557 422.05443,496.751398 423,497.75 C424.011915,498.805286 424.812936,500.044153 425.36,501.4 L422.5,501.65 C422.802231,500.208678 423.220253,498.794089 423.75,497.42 C424,496.73 424.29,496.08 424.56,495.42 L425.47,493.42 C426.789139,490.850233 428.414276,488.449463 430.31,486.27 C431.254191,485.193579 432.25564,484.168763 433.31,483.2 C434.413099,482.283867 435.56837,481.432439 436.77,480.65 C439.159514,479.122059 441.765359,477.962408 444.5,477.21 C442.074691,478.532193 439.789675,480.09686 437.68,481.88 C436.62239,482.746063 435.620405,483.67791 434.68,484.67 C433.81,485.67 432.88,486.67 432.11,487.79 C430.505368,489.943756 429.124873,492.25575 427.99,494.69 C426.850809,497.087605 425.965979,499.597978 425.35,502.18 L425.35,502.27 C425.162027,503.065148 424.365251,503.557538 423.57,503.37 C423.090588,503.224576 422.715424,502.849412 422.57,502.37 C421.88,500.37 420.13,498.75 418.24,497.37 C417.268864,496.636357 416.249943,495.968212 415.19,495.37 C414.12,494.78 413.03,494.19 411.9,493.66 C407.309363,491.592779 402.593411,489.815948 397.78,488.34 L397.78,488.34 Z" id="Path"></path>
                            <path d="M130.38,106.83 C135.50399,107.248904 140.548817,108.352039 145.38,110.11 C147.864081,110.99191 150.234144,112.16687 152.44,113.61 C153.593677,114.358557 154.65443,115.241398 155.6,116.24 C156.611915,117.295286 157.412936,118.534153 157.96,119.89 L155.1,120.14 C155.402231,118.698678 155.820253,117.284089 156.35,115.91 C156.6,115.22 156.89,114.57 157.16,113.91 L158.07,111.91 C159.389139,109.340233 161.014276,106.939463 162.91,104.76 C163.854191,103.683579 164.85564,102.658763 165.91,101.69 C167.013099,100.773867 168.16837,99.9224394 169.37,99.14 C171.759514,97.6120594 174.365359,96.4524081 177.1,95.7 C174.674691,97.0221932 172.389675,98.5868597 170.28,100.37 C169.22239,101.236063 168.220405,102.16791 167.28,103.16 C166.41,104.16 165.48,105.16 164.71,106.28 C163.105368,108.433756 161.724873,110.74575 160.59,113.18 C159.450809,115.577605 158.565979,118.087978 157.95,120.67 L157.95,120.76 C157.762027,121.555148 156.965251,122.047538 156.17,121.86 C155.690588,121.714576 155.315424,121.339412 155.17,120.86 C154.48,118.86 152.73,117.24 150.84,115.86 C149.868864,115.126357 148.849943,114.458212 147.79,113.86 C146.72,113.27 145.63,112.68 144.5,112.15 C139.909363,110.082779 135.193411,108.305948 130.38,106.83 L130.38,106.83 Z" id="Path-Copy-3"></path>
                            <path d="M0.38,538.77 C6.10332776,539.388157 11.7814838,540.370144 17.38,541.71 C23.0030751,543.026668 28.532024,544.717089 33.93,546.77 C36.6540707,547.789548 39.3242239,548.947727 41.93,550.24 C44.5846662,551.528047 47.1414966,553.008669 49.58,554.67 C52.1011758,556.347741 54.4287078,558.299648 56.52,560.49 C58.740467,562.788675 60.4779809,565.508854 61.63,568.49 L56.86,568.89 C57.21,567.17 57.6,565.67 58.08,564.1 C58.56,562.53 59.08,561.02 59.61,559.51 C60.7184772,556.488502 62.0006139,553.533578 63.45,550.66 C66.3358123,544.917899 69.9050242,539.545613 74.08,534.66 C76.1807109,532.237892 78.4211982,529.940641 80.79,527.78 C83.1968067,525.675182 85.7316587,523.721442 88.38,521.93 C93.6697261,518.436553 99.4449913,515.74098 105.52,513.93 C99.9553222,516.701295 94.7135764,520.078415 89.89,524 C85.1607242,527.898105 80.8989802,532.33099 77.19,537.21 C71.7063839,544.516632 67.3542599,552.607335 64.28,561.21 C63.76,562.64 63.28,564.08 62.86,565.53 C62.44,566.98 62.02,568.53 61.75,569.82 L61.75,569.88 C61.5271511,570.96717 60.6091634,571.773944 59.5023768,571.855325 C58.3955903,571.936706 57.3694703,571.272881 56.99,570.23 C56.0521222,567.865146 54.6782927,565.697549 52.94,563.84 C51.1181586,561.878356 49.1085655,560.099866 46.94,558.53 C44.7029574,556.909421 42.3648831,555.433094 39.94,554.11 C37.52,552.75 35.03,551.47 32.47,550.31 C22.0648997,545.696304 11.3403718,541.839618 0.38,538.77 L0.38,538.77 Z" id="Path"></path>
                            <path d="M403.43,388.93 C407.366934,389.191237 411.207329,390.263687 414.71,392.08 C416.539597,393.014182 418.204749,394.240246 419.64,395.71 C421.124489,397.278241 422.21451,399.177207 422.82,401.25 C422.970052,401.76089 422.836149,402.313023 422.468731,402.698417 C422.101313,403.08381 421.5562,403.243913 421.038731,403.118417 C420.521261,402.99292 420.110051,402.60089 419.96,402.09 L419.96,402.03 L419.96,402.03 C419.464666,399.93155 419.272713,397.772927 419.39,395.62 C419.505872,393.470238 419.989549,391.356267 420.82,389.37 C421.05,388.88 421.27,388.37 421.53,387.91 C421.79,387.45 422.11,387 422.41,386.55 C422.738873,386.12271 423.092829,385.715326 423.47,385.33 L424.01,384.74 L424.63,384.24 C426.241318,382.920646 428.132781,381.986886 430.16,381.51 C428.471802,382.523121 426.958873,383.803033 425.68,385.3 C424.469436,386.73239 423.570359,388.401132 423.04,390.2 C422.514631,391.989222 422.251889,393.845258 422.26,395.71 C422.251767,396.651923 422.298513,397.593524 422.4,398.53 C422.492986,399.445183 422.643281,400.353633 422.85,401.25 L419.96,402.01 C419.493448,400.388783 418.681527,398.887753 417.58,397.61 C416.406031,396.261324 415.061386,395.071313 413.58,394.07 C412.03824,393.018083 410.420454,392.082174 408.74,391.27 C406.99,390.44 405.24,389.68 403.43,388.93 Z" id="Path"></path>
                            <path d="M136.03,7.42 C139.966934,7.68123664 143.807329,8.75368719 147.31,10.57 C149.139597,11.5041815 150.804749,12.7302465 152.24,14.2 C153.724489,15.7682409 154.81451,17.6672072 155.42,19.74 C155.570052,20.2508898 155.436149,20.8030232 155.068731,21.1884166 C154.701313,21.5738101 154.1562,21.7339132 153.638731,21.6084167 C153.121261,21.4829202 152.710051,21.0908899 152.56,20.58 L152.56,20.52 L152.56,20.52 C152.064666,18.4215496 151.872713,16.2629268 151.99,14.11 C152.105872,11.9602375 152.589549,9.84626684 153.42,7.86 C153.65,7.37 153.87,6.86 154.13,6.4 C154.39,5.94 154.71,5.49 155.01,5.04 C155.338873,4.61270985 155.692829,4.20532616 156.07,3.82 L156.61,3.23 L157.23,2.73 C158.841318,1.41064624 160.732781,0.476886036 162.76,1.72306613e-13 C161.071802,1.0131214 159.558873,2.2930326 158.28,3.79 C157.069436,5.22239001 156.170359,6.8911324 155.64,8.69 C155.114631,10.479222 154.851889,12.3352581 154.86,14.2 C154.851767,15.1419231 154.898513,16.083524 155,17.02 C155.092986,17.935183 155.243281,18.843633 155.45,19.74 L152.56,20.5 C152.093448,18.8787829 151.281527,17.3777532 150.18,16.1 C149.006031,14.7513239 147.661386,13.5613128 146.18,12.56 C144.63824,11.5080834 143.020454,10.5721738 141.34,9.76 C139.59,8.93 137.84,8.17 136.03,7.42 Z" id="Path-Copy-4"></path>
                            <path d="M486.04,422.57 C488.083648,423.568538 490.034636,424.746493 491.87,426.09 C493.731282,427.435058 495.465218,428.948068 497.05,430.61 C498.700181,432.310885 500.091688,434.244843 501.18,436.35 C502.372236,438.617817 502.823397,441.202377 502.47,443.74 L500.28,442.19 C501.399073,441.632879 502.571732,441.190619 503.78,440.87 C504.927306,440.540288 506.092545,440.276523 507.27,440.08 C509.582241,439.68516 511.924307,439.491103 514.27,439.5 L516.02,439.5 L517.77,439.61 C518.93,439.67 520.09,439.82 521.24,439.97 C522.39,440.12 523.53,440.34 524.66,440.55 C525.79,440.76 526.91,441.09 528.03,441.38 C526.87,441.38 525.72,441.38 524.58,441.32 C523.44,441.26 522.29,441.32 521.15,441.32 C518.88,441.37 516.62,441.47 514.38,441.7 C512.163767,441.915601 509.960629,442.24941 507.78,442.7 C506.7,442.96 505.64,443.25 504.6,443.58 C503.605053,443.887776 502.635479,444.272262 501.7,444.73 L501.7,444.73 C500.965003,445.093691 500.074172,444.799717 499.7,444.07 C499.553766,443.79419 499.501122,443.478328 499.55,443.17 C499.769545,441.226373 499.422258,439.260729 498.55,437.51 C497.648316,435.592325 496.520289,433.789497 495.19,432.14 C494.54,431.27 493.83,430.44 493.09,429.62 C492.35,428.8 491.62,427.98 490.84,427.19 C489.31,425.66 487.69,424.12 486.04,422.57 Z" id="Path"></path>
                            <path d="M218.64,41.06 C220.683648,42.0585378 222.634636,43.2364928 224.47,44.58 C226.331282,45.925058 228.065218,47.4380676 229.65,49.1 C231.300181,50.8008853 232.691688,52.7348434 233.78,54.84 C234.972236,57.1078167 235.423397,59.6923772 235.07,62.23 L232.88,60.68 C233.999073,60.122879 235.171732,59.6806188 236.38,59.36 C237.527306,59.0302878 238.692545,58.766523 239.87,58.57 C242.182241,58.1751601 244.524307,57.9811032 246.87,57.99 L248.62,57.99 L250.37,58.1 C251.53,58.16 252.69,58.31 253.84,58.46 C254.99,58.61 256.13,58.83 257.26,59.04 C258.39,59.25 259.51,59.58 260.63,59.87 C259.47,59.87 258.32,59.87 257.18,59.81 C256.04,59.75 254.89,59.81 253.75,59.81 C251.48,59.86 249.22,59.96 246.98,60.19 C244.763767,60.4056013 242.560629,60.73941 240.38,61.19 C239.3,61.45 238.24,61.74 237.2,62.07 C236.205053,62.3777756 235.235479,62.7622621 234.3,63.22 L234.3,63.22 C233.565003,63.583691 232.674172,63.2897169 232.3,62.56 C232.153766,62.2841902 232.101122,61.9683284 232.15,61.66 C232.369545,59.716373 232.022258,57.7507288 231.15,56 C230.248316,54.0823254 229.120289,52.279497 227.79,50.63 C227.14,49.76 226.43,48.93 225.69,48.11 C224.95,47.29 224.22,46.47 223.44,45.68 C221.91,44.15 220.29,42.61 218.64,41.06 Z" id="Path-Copy-5"></path>
                        </g>
                        <g id="Group-18" transform="translate(719.000000, 0.000000)">
                            <circle id="Oval" fill="url(#linearGradient-41)" cx="102.612998" cy="58.750999" r="58.750999"></circle>
                            <path d="M-6.16751084e-13,50.1619991 L69.7689988,50.1619991 C69.7689988,50.1619991 46.5639992,35.0699994 44.1349992,37.1839994 C42.5654266,38.6887931 41.4415141,40.5975066 40.8869993,42.6999993 C40.8869993,42.6999993 16.0649997,28.0979995 9.24699984,33.4529994 C2.42899996,38.8079993 -6.16751084e-13,50.1619991 -6.16751084e-13,50.1619991 Z" id="Path" fill="url(#linearGradient-42)"></path>
                            <path d="M123.024998,97.2369983 L217.118996,97.2369983 C217.118996,97.2369983 185.828997,76.8809987 182.545997,79.7369986 C179.262997,82.5929986 178.170997,87.1919985 178.170997,87.1919985 C178.170997,87.1919985 144.689998,67.4939989 135.470998,74.7179987 C126.251998,81.9419986 123.024998,97.2369983 123.024998,97.2369983 Z" id="Path" fill="url(#linearGradient-43)"></path>
                            <circle id="Oval" fill="#A7A8C9" cx="189.006997" cy="117.851998" r="1.49799997"></circle>
                            <circle id="Oval" fill="#A7A8C9" cx="186.402997" cy="151.850997" r="1.49799997"></circle>
                            <circle id="Oval" fill="#A7A8C9" cx="160.943997" cy="125.852998" r="1.49799997"></circle>
                            <circle id="Oval" fill="#A7A8C9" cx="199.814997" cy="129.520998" r="1.49799997"></circle>
                            <circle id="Oval" fill="#A7A8C9" cx="149.540997" cy="111.971998" r="1.49799997"></circle>
                            <circle id="Oval" fill="#A7A8C9" cx="145.774998" cy="141.021998" r="1.49799997"></circle>
                        </g>
                        <path d="M1261,176 L1436,176 C1436,176 1377.80476,138.050645 1371.69993,143.356658 C1365.5951,148.66267 1363.55494,157.229099 1363.55494,157.229099 C1363.55494,157.229099 1301.28721,120.502399 1284.19211,133.967288 C1267.09702,147.432177 1261,176 1261,176 Z" id="Path" fill="url(#linearGradient-44)" opacity="0.3"></path>
                        <path d="M1811,280.242857 L1949,280.242857 C1949,280.242857 1903.1089,250.31708 1898.2948,254.50125 C1893.4807,258.68542 1891.8719,265.440661 1891.8719,265.440661 C1891.8719,265.440661 1842.76934,236.479035 1829.28864,247.097062 C1815.80793,257.715088 1811,280.242857 1811,280.242857 Z" id="Path-Copy" fill="url(#linearGradient-45)" opacity="0.3"></path>
                    </g>
                    <g id="Calque_2-2" transform="translate(1037.000000, 67.000000)">
                        <path d="M89.72,53.32 C89.84,50.97 89.96,48.75 90.06,46.69 C90.3017725,42.8833796 90.1375131,39.0618354 89.57,35.29 C98.04,32.42 98.49,23.75 98.02,18.92 C97.9878587,18.5194611 97.6884809,18.1915664 97.2925106,18.1232144 C96.8965403,18.0548624 96.5045614,18.2634157 96.34,18.63 C94.5376935,22.55089 90.9426523,25.3515912 86.7,26.14 L86.6,25.96 C86.48,25.7 86.36,25.45 86.22,25.2 C83.7489445,20.5983251 83.6669065,15.0831362 86,10.41 C86.0552284,10.3409644 86.0440355,10.2402285 85.9749999,10.1850001 C85.9059644,10.1297716 85.8052285,10.1409645 85.75,10.21 C84.47,11.37 81.84,13.44 79.99,12.74 C75.22,10.94 82.56,4.5 82.56,4.5 C73.62,4.5 67.48,11.63 67.48,11.63 C71.33,7.06 69.57,0.63 69.57,0.63 C59.28,11.97 47.23,13.8 47.23,13.8 C48.4908939,12.4051107 48.9944697,10.4840623 48.58,8.65 C38.24,15.43 34.25,22.07 32.7,26.09 C28.4991996,25.2809639 24.9488652,22.4906171 23.17,18.6 C22.9992233,18.2387914 22.6086636,18.0356582 22.2148741,18.1032315 C21.8210845,18.1708049 21.5205878,18.4925217 21.48,18.89 C21.02,23.72 21.48,32.39 29.93,35.26 C29.3677463,39.0289831 29.2035094,42.8466548 29.44,46.65 C29.5466667,48.65 29.6566667,50.7566667 29.77,52.97 C22.87,57.97 7.29,71.63 1.23,97.03 L1.59,96.73 C1.91205618,96.531915 2.31829485,96.5324091 2.63986825,96.7312769 C2.96144165,96.9301446 3.14335561,97.2933765 3.11,97.67 C1.65611723,103.823841 0.92782481,110.126759 0.939849848,116.45 L1.62,115.77 C1.91303953,115.543316 2.30739172,115.497221 2.64481051,115.650212 C2.98222931,115.803204 3.20741314,116.130206 3.23,116.5 C3.03,119.5 2.96,124.42 4.23,127.76 L6.3,126.28 C6.3,126.28 11.3,139.03 19.5,138.77 C27.7,138.51 26.95,130.1 26.95,130.1 C26.95,130.1 29.39,129.49 28.95,125.23 C28.7605723,123.469023 28.3506973,121.738813 27.73,120.08 L30.17,120.35 C30.17,120.35 24.73,108.89 32.05,98.6 C33.05,118.1 33.85,135.72 34.13,141.6 C34.1834692,142.753712 35.1350507,143.661238 36.29,143.66 L55.07,143.72 C56.2700863,143.720013 57.244495,142.750074 57.25,141.55 L57.25,131 C57.1950136,130.1914 57.5952143,129.41955 58.2877488,128.998536 C58.9802834,128.577522 59.8497166,128.577522 60.5422512,128.998536 C61.2347857,129.41955 61.6349864,130.1914 61.58,131 L61.58,141.62 C61.58,142.19552 61.8086243,142.747468 62.2155783,143.154422 C62.6225322,143.561376 63.1744802,143.79 63.75,143.79 L83.22,143.73 C84.3729161,143.726169 85.3215633,142.821441 85.38,141.67 C85.66,135.81 86.51,118.18 87.46,98.67 C93.46,106.92 89.46,120.57 89.46,120.57 L91.9,120.03 C89.06,128.56 92.71,130.32 92.71,130.32 C92.71,130.32 92.17,139.26 100.19,139.65 C108.21,140.04 113,126.31 113,126.31 L115.08,127.79 C117.08,121.12 117.21,110.16 117.17,105.79 C117.16438,105.486472 117.344713,105.2103 117.624876,105.093382 C117.905039,104.976464 118.228191,105.042519 118.44,105.26 L119.44,106.26 C117.9,77.47 98,59.58 89.72,53.32 Z" id="Path" fill="#000000"></path>
                        <ellipse id="Oval" fill="#FFFFFF" cx="48.92" cy="41.99" rx="3.66" ry="5.82"></ellipse>
                        <ellipse id="Oval" fill="#FFFFFF" cx="70.59" cy="41.99" rx="3.66" ry="5.82"></ellipse>
                    </g>
                    <g id="Drapeau" transform="translate(1145.000000, 0.000000)">
                        <path d="M23.17,42.3099999 L176.31,42.3099999 C177.781813,42.3099999 179.147974,43.0744761 179.917184,44.3292874 C180.686393,45.5840987 180.748057,47.1485373 180.08,48.46 L175.89,56.67 C168.658945,70.8474449 168.562521,87.6103069 175.63,101.87 L180.18,111.03 C180.829804,112.339713 180.757199,113.892129 179.987993,115.135477 C179.218786,116.378824 177.862047,117.136801 176.4,117.14 L24.53,117.14" id="Path" fill="url(#linearGradient-46)" opacity="0.3"></path>
                        <path d="M24,31.0696988 L24,31.0696988 C24.7054759,31.0696988 25.3820573,31.3502492 25.880904,31.849096 C26.3797508,32.3479427 26.66,33.0245241 26.66,33.73 L26.66,210.87 L21.3,210.87 L21.3,33.73 C21.2999194,33.0175387 21.5856528,32.3348241 22.0931845,31.8348114 C22.6007162,31.3347987 23.2876192,31.0592863 24,31.0696988 L24,31.0696988 Z" id="Path" fill="#A7A8C9"></path>
                        <rect id="Rectangle" fill="#6978B9" x="35.28" y="82.96" width="62.74" height="25.44"></rect>
                        <rect id="Rectangle" fill="#6978B9" x="35.25" y="51.05" width="53.06" height="25.44"></rect>
                        <path d="M39.53,63.69 C39.53,57.76 42.84,54.26 47.62,54.26 C52.4,54.26 55.71,57.77 55.71,63.69 C55.71,69.61 52.4,73.28 47.62,73.28 C42.84,73.28 39.53,69.63 39.53,63.69 Z M52.36,63.69 C52.36,59.58 50.5,57.08 47.62,57.08 C44.74,57.08 42.87,59.58 42.87,63.69 C42.87,67.8 44.73,70.45 47.62,70.45 C50.51,70.45 52.36,67.81 52.36,63.69 Z" id="Shape" fill="#FFFFFF"></path>
                        <path d="M59,67.8 L59,59.16 L62.23,59.16 L62.23,67.39 C62.23,69.65 62.88,70.5 64.38,70.5 C65.59,70.5 66.38,69.94 67.38,68.6 L67.38,59.16 L70.61,59.16 L70.61,72.94 L68,72.94 L67.75,70.94 L67.66,70.94 C66.6415355,72.3864703 64.998492,73.26548 63.23,73.31 C60.25,73.28 59,71.28 59,67.8 Z" id="Path" fill="#FFFFFF"></path>
                        <path d="M74.72,59.16 L77.36,59.16 L77.61,61.62 L77.7,61.62 C78.392657,60.0370738 79.8979919,58.9618346 81.62,58.82 C82.1544789,58.7942304 82.6878454,58.8899629 83.18,59.1 L82.62,61.91 C82.1611521,61.7625713 81.6819479,61.6883284 81.2,61.69 C80.1,61.69 78.78,62.44 77.95,64.53 L77.95,72.94 L74.72,72.94 L74.72,59.16 Z" id="Path" fill="#FFFFFF"></path>
                        <path d="M95.75,68.27 L95.75,61.71 L93.75,61.71 L93.75,59.29 L95.88,59.14 L96.26,55.38 L99,55.38 L99,59.14 L102.52,59.14 L102.52,61.71 L99,61.71 L99,68.27 C99,69.89 99.63,70.69 101,70.69 C101.491708,70.6677476 101.975705,70.5594406 102.43,70.37 L102.98,72.75 C102.077259,73.0715239 101.128153,73.2437816 100.17,73.26 C96.93,73.26 95.75,71.25 95.75,68.27 Z" id="Path" fill="#163253"></path>
                        <path d="M104,66 C104,61.52 107.11,58.76 110.35,58.76 C114.08,58.76 116.040025,61.46 116.040025,65.3 C116.041265,65.8298191 115.994406,66.3586581 115.9,66.88 L107.15,66.88 C107.173404,67.9286662 107.616109,68.9242085 108.37911,69.6439851 C109.142111,70.3637616 110.161751,70.7477228 111.21,70.71 C112.350559,70.6908462 113.461481,70.3436831 114.41,69.71 L115.51,71.71 C114.120173,72.6668883 112.47725,73.1890034 110.79,73.21 C107,73.26 104,70.59 104,66 Z M113.25,64.68 C113.25,62.56 112.25,61.27 110.42,61.27 C108.81,61.27 107.42,62.47 107.12,64.68 L113.25,64.68 Z" id="Shape" fill="#163253"></path>
                        <path d="M118.09,69.22 C118.09,66.22 120.54,64.73 126.19,64.12 C126.19,62.64 125.56,61.41 123.69,61.41 C122.300607,61.4965851 120.961788,61.9636151 119.82,62.76 L118.63,60.61 C120.310302,59.4892851 122.271202,58.8622129 124.29,58.8 C127.73,58.8 129.43,60.92 129.43,64.8 L129.43,72.96 L126.78,72.96 L126.53,71.43 L126.44,71.43 C125.289431,72.5488839 123.772552,73.2131842 122.17,73.3 C121.069343,73.3647427 119.993535,72.9557202 119.213907,72.1760927 C118.43428,71.3964653 118.025257,70.3206572 118.09,69.22 L118.09,69.22 Z M126.19,69.22 L126.19,66.12 C122.46,66.59 121.19,67.57 121.19,68.96 C121.19,70.18 122.02,70.71 123.19,70.71 C124.34759,70.6373621 125.427941,70.1043891 126.19,69.23 L126.19,69.22 Z" id="Shape" fill="#163253"></path>
                        <path d="M133.31,59.14 L136,59.14 L136.25,61.02 L136.33,61.02 C137.374245,59.7239447 138.909929,58.9198836 140.57,58.8 C142.250809,58.6640509 143.811875,59.6787434 144.37,61.27 C145.69,59.87 147.05,58.8 148.8,58.8 C151.71,58.8 153.05,60.8 153.05,64.28 L153.05,72.92 L149.82,72.92 L149.82,64.69 C149.82,62.43 149.15,61.57 147.7,61.57 C146.545561,61.7264494 145.505168,62.3477948 144.82,63.29 L144.82,72.92 L141.59,72.92 L141.59,64.69 C141.59,62.43 140.91,61.57 139.47,61.57 C138.314267,61.7305229 137.272236,62.3506941 136.58,63.29 L136.58,72.92 L133.35,72.92 L133.31,59.14 Z" id="Path" fill="#163253"></path>
                        <path d="M44.45,97.87 L38.93,86.34 L42.41,86.34 L44.41,91.03 C44.95,92.4 45.47,93.67 46.05,95.03 L46.16,95.03 C46.74,93.63 47.32,92.36 47.85,91.03 L49.85,86.34 L53.23,86.34 L47.7,97.87 L47.7,104.69 L44.45,104.69 L44.45,97.87 Z" id="Path" fill="#FFFFFF"></path>
                        <path d="M52.9,97.81 C52.9,93.22 56.02,90.57 59.46,90.57 C62.9,90.57 66,93.22 66,97.81 C66,102.4 62.89,105 59.46,105 C56.03,105 52.9,102.38 52.9,97.81 Z M62.69,97.81 C62.69,95.05 61.48,93.21 59.46,93.21 C57.44,93.21 56.23,95.05 56.23,97.81 C56.23,100.57 57.44,102.39 59.46,102.39 C61.48,102.39 62.69,100.57 62.69,97.81 Z" id="Shape" fill="#FFFFFF"></path>
                        <path d="M69.06,99.55 L69.06,90.91 L72.29,90.91 L72.29,99.14 C72.29,101.4 72.94,102.26 74.43,102.26 C75.64,102.26 76.43,101.69 77.43,100.35 L77.43,90.91 L80.67,90.91 L80.67,104.69 L78.07,104.69 L77.82,102.69 L77.73,102.69 C76.6976748,104.112545 75.0573554,104.967881 73.3,105 C70.35,105 69.06,103 69.06,99.55 Z" id="Path" fill="#FFFFFF"></path>
                        <path d="M84.81,90.91 L87.46,90.91 L87.71,93.37 L87.8,93.37 C88.4909777,91.7900459 89.9916943,90.7153639 91.71,90.57 C92.2446148,90.5421004 92.7784587,90.6379186 93.27,90.85 L92.71,93.66 C92.2547739,93.5117999 91.7787358,93.4375245 91.3,93.44 C90.2,93.44 88.87,94.19 88.04,96.29 L88.04,104.69 L84.81,104.69 L84.81,90.91 Z" id="Path" fill="#FFFFFF"></path>
                        <path d="M105.47,100 L105.47,93.48 L103.47,93.48 L103.47,91.06 L105.6,90.91 L105.99,87.15 L108.67,87.15 L108.67,90.91 L112.18,90.91 L112.18,93.48 L108.7,93.48 L108.7,100 C108.7,101.62 109.33,102.42 110.7,102.42 C111.194796,102.39668 111.681896,102.288435 112.14,102.1 L112.69,104.48 C111.784041,104.80242 110.831499,104.974689 109.87,104.990037 C106.64,105 105.47,103 105.47,100 Z" id="Path" fill="#163253"></path>
                        <path d="M113.75,97.81 C113.75,93.33 116.86,90.57 120.11,90.57 C123.83,90.57 125.79,93.27 125.79,97.12 C125.795923,97.6466971 125.749022,98.172661 125.65,98.69 L116.91,98.69 C116.933404,99.7386662 117.376109,100.734208 118.13911,101.453985 C118.902111,102.173762 119.921751,102.557723 120.97,102.52 C122.110559,102.500846 123.221481,102.153683 124.17,101.52 L125.27,103.52 C123.875752,104.475503 122.230089,104.997383 120.54,105.02 C116.74,105 113.75,102.36 113.75,97.81 Z M123,96.49 C123,94.37 122.06,93.08 120.17,93.08 C118.57,93.08 117.17,94.28 116.87,96.49 L123,96.49 Z" id="Shape" fill="#163253"></path>
                        <path d="M127.81,101 C127.81,98.05 130.25,96.51 135.91,95.9 C135.91,94.42 135.27,93.19 133.41,93.19 C132.020607,93.2765851 130.681788,93.7436151 129.54,94.54 L128.35,92.39 C130.024957,91.2645949 131.983086,90.6338345 134,90.57 C137.45,90.57 139.14,92.69 139.14,96.57 L139.14,104.73 L136.49,104.73 L136.25,103.2 L136.16,103.2 C135.005851,104.319562 133.485629,104.983771 131.88,105.07 C130.782867,105.131505 129.711525,104.722491 128.934517,103.945483 C128.157509,103.168475 127.748495,102.097133 127.81,101 L127.81,101 Z M135.91,101 L135.91,97.9 C132.17,98.37 130.91,99.35 130.91,100.74 C130.91,101.96 131.74,102.49 132.91,102.49 C134.068801,102.413697 135.148981,101.877207 135.91,101 Z" id="Shape" fill="#163253"></path>
                        <path d="M143,90.91 L145.65,90.91 L145.9,92.79 L146,92.79 C147.036385,91.489667 148.57111,90.6842088 150.23,90.57 C151.889469,90.442673 153.430656,91.4360637 154,93 C155.32,91.6 156.69,90.53 158.44,90.53 C161.34,90.53 162.69,92.53 162.69,96.01 L162.69,104.65 L159.5,104.65 L159.5,96.46 C159.5,94.2 158.82,93.35 157.38,93.35 C156.223559,93.501392 155.179372,94.1192328 154.49,95.06 L154.49,104.69 L151.26,104.69 L151.26,96.46 C151.26,94.2 150.59,93.35 149.14,93.35 C147.987953,93.5062132 146.948637,94.1233072 146.26,95.06 L146.26,104.69 L143,104.69 L143,90.91 Z" id="Path" fill="#163253"></path>
                        <path d="M-4.68958856e-13,5.21 L10.15,9 C10.32,8.76 10.49,8.52 10.68,8.28 L10.68,8.28 C16.16,0.84 29.2,0 29.2,0 C28.3522288,1.76823526 26.8439818,3.13283966 25,3.8 C27.9309765,4.14966235 30.8784686,4.34326886 33.83,4.38 C32.7400345,5.94251991 31.1599659,7.09677937 29.34,7.66 C30.7742115,9.27532744 31.754212,11.2422299 32.18,13.36 L32.18,13.28 L42.64,13.21 C42.64,13.21 38.43,19 31.76,19.66 C30.3378212,23.8025992 26.7960783,26.8591194 22.49,27.66 L22.84,30.18 L25.09,30.06 C25.2223581,30.0489115 25.3533942,30.0931627 25.4519312,30.182225 C25.5504682,30.2712873 25.6076965,30.3971982 25.61,30.53 C25.6181997,30.662667 25.5732369,30.7931389 25.4850461,30.8925881 C25.3968553,30.9920373 25.2726956,31.0522779 25.14,31.06 L22.43,31.2 L22.43,31.2 C22.1806157,31.1981963 21.9691136,31.0163045 21.93,30.77 L21.52,27.77 C20.4840467,27.8729447 19.4392906,27.8460699 18.41,27.69 C17.1207065,27.4892784 15.8716823,27.0841895 14.71,26.49 L13.1,29.14 C13.0060325,29.2870998 12.8445298,29.3772409 12.67,29.38 C12.5926033,29.3801637 12.5165972,29.3594347 12.45,29.32 L10,28.19 C9.75783682,28.0576277 9.66126514,27.7591334 9.78,27.51 C9.90478782,27.2648435 10.2041732,27.1665378 10.45,27.29 L12.45,28.29 L13.81,26.06 C10.1494683,23.7720597 7.97629257,19.7149577 8.1,15.4 C-0.32,10.41 -4.68958856e-13,5.21 -4.68958856e-13,5.21 Z" id="Path" fill="#000000"></path>
                        <ellipse id="Oval" fill="#FFFFFF" transform="translate(25.624455, 13.307966) rotate(-82.150000) translate(-25.624455, -13.307966) " cx="25.6244548" cy="13.3079656" rx="2.74" ry="1.69"></ellipse>
                        <ellipse id="Oval" fill="#FFFFFF" transform="translate(16.725251, 11.716129) rotate(-82.150000) translate(-16.725251, -11.716129) " cx="16.7252512" cy="11.7161294" rx="2.74" ry="1.69"></ellipse>
                    </g>
                </g>
                <g id="Group-20" transform="translate(839.000000, 834.000000)" fill="#A7A8C9">
                    <g id="Group-14">
                        <circle id="Oval-Copy" cx="42" cy="9" r="2"></circle>
                        <circle id="Oval-Copy-2" cx="172" cy="9" r="2"></circle>
                        <circle id="Oval-Copy-3" cx="253" cy="9" r="2"></circle>
                        <text id="CGU" font-family="SourceSans3-Semibold, Source Sans 3" font-size="13" font-weight="500">
                            <tspan x="0" y="13">CGU</tspan>
                        </text>
                        <text id="Cookies" font-family="SourceSans3-Semibold, Source Sans 3" font-size="13" font-weight="500">
                            <tspan x="190" y="13">Cookies</tspan>
                        </text>
                        <text id="Plan-du-site" font-family="SourceSans3-Semibold, Source Sans 3" font-size="13" font-weight="500">
                            <tspan x="271" y="13">Plan du site</tspan>
                        </text>
                        <text id="Mentions-légales" font-family="SourceSans3-Semibold, Source Sans 3" font-size="13" font-weight="500">
                            <tspan x="60" y="13">Mentions légales</tspan>
                        </text>
                    </g>
                </g>
            </g>
        </g>
    </g>
</svg>