<?xml version="1.0" encoding="UTF-8"?>
<svg width="2202px" height="1161px" viewBox="0 0 2202 1161" version="1.1" xmlns="http://www.w3.org/2000/svg" xmlns:xlink="http://www.w3.org/1999/xlink">
    <title>Group 8</title>
    <defs>
        <linearGradient x1="52.869694%" y1="48.9878663%" x2="41.3891009%" y2="58.8482825%" id="linearGradient-1">
            <stop stop-color="#CACBDF" offset="15%"></stop>
            <stop stop-color="#A7A8C9" offset="100%"></stop>
        </linearGradient>
        <linearGradient x1="0%" y1="50%" x2="100%" y2="50%" id="linearGradient-2">
            <stop stop-color="#A5AED5" offset="0%"></stop>
            <stop stop-color="#6978B9" offset="100%"></stop>
        </linearGradient>
        <linearGradient x1="0%" y1="50%" x2="100%" y2="50%" id="linearGradient-3">
            <stop stop-color="#F6E0D9" offset="0%"></stop>
            <stop stop-color="#E9B2A0" offset="100%"></stop>
        </linearGradient>
        <linearGradient x1="0%" y1="50%" x2="100.006483%" y2="50%" id="linearGradient-4">
            <stop stop-color="#CACBDF" offset="15%"></stop>
            <stop stop-color="#A7A8C9" offset="100%"></stop>
        </linearGradient>
        <linearGradient x1="0%" y1="50%" x2="100%" y2="50%" id="linearGradient-5">
            <stop stop-color="#163253" offset="0%"></stop>
            <stop stop-color="#738498" offset="100%"></stop>
        </linearGradient>
        <radialGradient cx="36.6085193%" cy="-8.05134189%" fx="36.6085193%" fy="-8.05134189%" r="108.518086%" gradientTransform="translate(0.366085,-0.080513),scale(0.417201,1.000000),translate(-0.366085,0.080513)" id="radialGradient-6">
            <stop stop-color="#000000" offset="0%"></stop>
            <stop stop-color="#000000" stop-opacity="0" offset="100%"></stop>
        </radialGradient>
        <linearGradient x1="0%" y1="50%" x2="99.9883721%" y2="50%" id="linearGradient-7">
            <stop stop-color="#A5AED5" offset="0%"></stop>
            <stop stop-color="#6978B9" offset="100%"></stop>
        </linearGradient>
        <linearGradient x1="0%" y1="50%" x2="100%" y2="50%" id="linearGradient-8">
            <stop stop-color="#163253" offset="0%"></stop>
            <stop stop-color="#738498" offset="100%"></stop>
        </linearGradient>
        <linearGradient x1="0%" y1="50%" x2="100%" y2="50%" id="linearGradient-9">
            <stop stop-color="#163253" offset="0%"></stop>
            <stop stop-color="#738498" offset="100%"></stop>
        </linearGradient>
        <linearGradient x1="0%" y1="50%" x2="100%" y2="50%" id="linearGradient-10">
            <stop stop-color="#CACBDF" offset="15%"></stop>
            <stop stop-color="#A7A8C9" offset="100%"></stop>
        </linearGradient>
        <linearGradient x1="0%" y1="50.0194477%" x2="100%" y2="50.0194477%" id="linearGradient-11">
            <stop stop-color="#A5AED5" offset="0%"></stop>
            <stop stop-color="#6978B9" offset="100%"></stop>
        </linearGradient>
        <linearGradient x1="0%" y1="50.0194477%" x2="100.005095%" y2="50.0194477%" id="linearGradient-12">
            <stop stop-color="#F6E0D9" offset="0%"></stop>
            <stop stop-color="#E9B2A0" offset="100%"></stop>
        </linearGradient>
        <linearGradient x1="0%" y1="50.0194477%" x2="100.010654%" y2="50.0194477%" id="linearGradient-13">
            <stop stop-color="#A5AED5" offset="0%"></stop>
            <stop stop-color="#6978B9" offset="100%"></stop>
        </linearGradient>
        <linearGradient x1="0%" y1="50%" x2="100%" y2="50%" id="linearGradient-14">
            <stop stop-color="#A5AED5" offset="0%"></stop>
            <stop stop-color="#6978B9" offset="100%"></stop>
        </linearGradient>
        <linearGradient x1="0%" y1="50%" x2="100%" y2="50%" id="linearGradient-15">
            <stop stop-color="#F6E0D9" offset="0%"></stop>
            <stop stop-color="#E9B2A0" offset="100%"></stop>
        </linearGradient>
        <linearGradient x1="0%" y1="50%" x2="100%" y2="50%" id="linearGradient-16">
            <stop stop-color="#CACBDF" offset="15%"></stop>
            <stop stop-color="#A7A8C9" offset="100%"></stop>
        </linearGradient>
        <linearGradient x1="0%" y1="50%" x2="100%" y2="50%" id="linearGradient-17">
            <stop stop-color="#F6E0D9" offset="0%"></stop>
            <stop stop-color="#E9B2A0" offset="100%"></stop>
        </linearGradient>
        <linearGradient x1="0%" y1="50%" x2="100%" y2="50%" id="linearGradient-18">
            <stop stop-color="#A5AED5" offset="0%"></stop>
            <stop stop-color="#6978B9" offset="100%"></stop>
        </linearGradient>
        <linearGradient x1="0%" y1="50%" x2="100%" y2="50%" id="linearGradient-19">
            <stop stop-color="#A5AED5" offset="0%"></stop>
            <stop stop-color="#6978B9" offset="100%"></stop>
        </linearGradient>
        <linearGradient x1="0%" y1="50%" x2="100.006555%" y2="50%" id="linearGradient-20">
            <stop stop-color="#163253" offset="0%"></stop>
            <stop stop-color="#738498" offset="100%"></stop>
        </linearGradient>
        <radialGradient cx="-17.4963277%" cy="-394.913295%" fx="-17.4963277%" fy="-394.913295%" r="466.566474%" gradientTransform="translate(-0.174963,-3.949133),scale(0.352946,1.000000),translate(0.174963,3.949133)" id="radialGradient-21">
            <stop stop-color="#000000" offset="0%"></stop>
            <stop stop-color="#000000" stop-opacity="0" offset="100%"></stop>
        </radialGradient>
        <linearGradient x1="0.50955414%" y1="2.50856943%" x2="55.2376286%" y2="45.0974042%" id="linearGradient-22">
            <stop stop-color="#000000" offset="0%"></stop>
            <stop stop-color="#000000" stop-opacity="0" offset="100%"></stop>
        </linearGradient>
        <linearGradient x1="0.499803998%" y1="2.49926058%" x2="55.2430419%" y2="45.0964433%" id="linearGradient-23">
            <stop stop-color="#000000" offset="0%"></stop>
            <stop stop-color="#000000" stop-opacity="0" offset="100%"></stop>
        </linearGradient>
        <linearGradient x1="0.50955414%" y1="2.50856943%" x2="55.2474277%" y2="45.0974042%" id="linearGradient-24">
            <stop stop-color="#000000" offset="0%"></stop>
            <stop stop-color="#000000" stop-opacity="0" offset="100%"></stop>
        </linearGradient>
        <linearGradient x1="0.509604077%" y1="2.50816699%" x2="55.2430419%" y2="45.0955006%" id="linearGradient-25">
            <stop stop-color="#000000" offset="0%"></stop>
            <stop stop-color="#000000" stop-opacity="0" offset="100%"></stop>
        </linearGradient>
        <linearGradient x1="50%" y1="-131.155193%" x2="50%" y2="41.7736289%" id="linearGradient-26">
            <stop stop-color="#000000" offset="0%"></stop>
            <stop stop-color="#000000" stop-opacity="0" offset="100%"></stop>
        </linearGradient>
        <linearGradient x1="50%" y1="-131.155193%" x2="50%" y2="41.7930766%" id="linearGradient-27">
            <stop stop-color="#000000" offset="0%"></stop>
            <stop stop-color="#000000" stop-opacity="0" offset="100%"></stop>
        </linearGradient>
        <linearGradient x1="50%" y1="-173.317775%" x2="50%" y2="30.5523143%" id="linearGradient-28">
            <stop stop-color="#000000" offset="0%"></stop>
            <stop stop-color="#000000" stop-opacity="0" offset="100%"></stop>
        </linearGradient>
        <linearGradient x1="49.9954975%" y1="-131.155193%" x2="49.9954975%" y2="41.7930766%" id="linearGradient-29">
            <stop stop-color="#000000" offset="0%"></stop>
            <stop stop-color="#000000" stop-opacity="0" offset="100%"></stop>
        </linearGradient>
        <linearGradient x1="49.9883721%" y1="-131.155193%" x2="49.9883721%" y2="41.7930766%" id="linearGradient-30">
            <stop stop-color="#000000" offset="0%"></stop>
            <stop stop-color="#000000" stop-opacity="0" offset="100%"></stop>
        </linearGradient>
        <linearGradient x1="50%" y1="-131.155193%" x2="50%" y2="41.7930766%" id="linearGradient-31">
            <stop stop-color="#000000" offset="0%"></stop>
            <stop stop-color="#000000" stop-opacity="0" offset="100%"></stop>
        </linearGradient>
        <linearGradient x1="50.0036114%" y1="-131.155193%" x2="50.0036114%" y2="41.7736289%" id="linearGradient-32">
            <stop stop-color="#000000" offset="0%"></stop>
            <stop stop-color="#000000" stop-opacity="0" offset="100%"></stop>
        </linearGradient>
        <linearGradient x1="49.9936314%" y1="-131.155193%" x2="49.9936314%" y2="41.7736289%" id="linearGradient-33">
            <stop stop-color="#000000" offset="0%"></stop>
            <stop stop-color="#000000" stop-opacity="0" offset="100%"></stop>
        </linearGradient>
        <linearGradient x1="50%" y1="-131.155193%" x2="50%" y2="41.7736289%" id="linearGradient-34">
            <stop stop-color="#000000" offset="0%"></stop>
            <stop stop-color="#000000" stop-opacity="0" offset="100%"></stop>
        </linearGradient>
        <linearGradient x1="50.0084048%" y1="-131.155193%" x2="50.0084048%" y2="41.7736289%" id="linearGradient-35">
            <stop stop-color="#000000" offset="0%"></stop>
            <stop stop-color="#000000" stop-opacity="0" offset="100%"></stop>
        </linearGradient>
        <linearGradient x1="50%" y1="-131.155193%" x2="50%" y2="41.7930766%" id="linearGradient-36">
            <stop stop-color="#000000" offset="0%"></stop>
            <stop stop-color="#000000" stop-opacity="0" offset="100%"></stop>
        </linearGradient>
        <linearGradient x1="50.0032776%" y1="-131.155193%" x2="50.0032776%" y2="41.7736289%" id="linearGradient-37">
            <stop stop-color="#000000" offset="0%"></stop>
            <stop stop-color="#000000" stop-opacity="0" offset="100%"></stop>
        </linearGradient>
        <linearGradient x1="49.9997288%" y1="26.5874335%" x2="49.9997288%" y2="55.9909685%" id="linearGradient-38">
            <stop stop-color="#CACBDF" offset="15%"></stop>
            <stop stop-color="#A7A8C9" offset="100%"></stop>
        </linearGradient>
        <linearGradient x1="34.2944622%" y1="49.7794314%" x2="111.892971%" y2="46.1821574%" id="linearGradient-39">
            <stop stop-color="#F6E0D9" offset="0%"></stop>
            <stop stop-color="#E9B2A0" offset="100%"></stop>
        </linearGradient>
        <linearGradient x1="51.7274797%" y1="49.9980827%" x2="88.4789615%" y2="49.9980827%" id="linearGradient-40">
            <stop stop-color="#F6E0D9" offset="0%"></stop>
            <stop stop-color="#E9B2A0" offset="100%"></stop>
        </linearGradient>
        <linearGradient x1="48.1770523%" y1="39.3720958%" x2="58.5011319%" y2="99.5770285%" id="linearGradient-41">
            <stop stop-color="#F6E0D9" offset="0%"></stop>
            <stop stop-color="#E9B2A0" offset="100%"></stop>
        </linearGradient>
        <linearGradient x1="0%" y1="49.9926429%" x2="100%" y2="49.9926429%" id="linearGradient-42">
            <stop stop-color="#CACBDF" offset="15%"></stop>
            <stop stop-color="#A7A8C9" offset="100%"></stop>
        </linearGradient>
        <linearGradient x1="0%" y1="49.9489121%" x2="100%" y2="49.9489121%" id="linearGradient-43">
            <stop stop-color="#A5AED5" offset="0%"></stop>
            <stop stop-color="#6978B9" offset="100%"></stop>
        </linearGradient>
        <linearGradient x1="0%" y1="50.0139297%" x2="100%" y2="50.0139297%" id="linearGradient-44">
            <stop stop-color="#CACBDF" offset="15%"></stop>
            <stop stop-color="#A7A8C9" offset="100%"></stop>
        </linearGradient>
        <linearGradient x1="3.96314406%" y1="50.0066819%" x2="100.018578%" y2="50.0066819%" id="linearGradient-45">
            <stop stop-color="#CACBDF" offset="15%"></stop>
            <stop stop-color="#A7A8C9" offset="100%"></stop>
        </linearGradient>
        <linearGradient x1="0%" y1="50%" x2="153.557213%" y2="50.1692368%" id="linearGradient-46">
            <stop stop-color="#163253" offset="0%"></stop>
            <stop stop-color="#738498" offset="100%"></stop>
        </linearGradient>
    </defs>
    <g id="Page-1" stroke="none" stroke-width="1" fill="none" fill-rule="evenodd">
        <g id="Dateam---Expertise" transform="translate(689.000000, -3537.000000)" fill-rule="nonzero">
            <g id="Group-12" transform="translate(0.000000, 3482.000000)">
                <g transform="translate(-689.000000, 7.000000)" id="Group-8">
                    <g transform="translate(0.000000, 48.000000)">
                        <g id="dateam-illustration-5">
                            <g id="Calque_3">
                                <polygon id="Path" fill="url(#linearGradient-1)" opacity="0.3" points="4.54747351e-13 764.81 399.23 578.01 509.12 610.98 688.59 523.07 927.09 576.74 1194.41 592.66 1351.42 592.66 1672.25 695.22 2201.28 1105.44 1532.31 1090.79 477.66 1057.83"></polygon>
                                <rect id="Rectangle" fill="url(#linearGradient-2)" x="997.37" y="344.14" width="154.26" height="51.42"></rect>
                                <rect id="Rectangle" fill="url(#linearGradient-3)" x="1128.08" y="395.56" width="126.83" height="51.42"></rect>
                                <rect id="Rectangle" fill="url(#linearGradient-4)" x="963.21" y="395.56" width="154.26" height="51.42"></rect>
                                <rect id="Rectangle" fill="url(#linearGradient-5)" x="1053.32" y="292.72" width="123.25" height="51.42"></rect>
                                <rect id="Rectangle" fill="url(#radialGradient-6)" style="mix-blend-mode: multiply;" x="1053.32" y="292.72" width="123.25" height="51.42"></rect>
                                <rect id="Rectangle" fill="url(#linearGradient-7)" x="1020.71" y="549.82" width="86" height="51.42"></rect>
                                <rect id="Rectangle" fill="url(#linearGradient-8)" x="897.42" y="549.82" width="111.05" height="51.42"></rect>
                                <rect id="Rectangle" fill="url(#linearGradient-2)" x="730.92" y="549.82" width="154.26" height="51.42"></rect>
                                <rect id="Rectangle" fill="url(#linearGradient-9)" x="1036.35" y="446.98" width="170.04" height="51.42"></rect>
                                <rect id="Rectangle" fill="url(#linearGradient-10)" x="871.33" y="446.98" width="154.26" height="51.42"></rect>
                                <rect id="Rectangle" fill="url(#linearGradient-11)" x="796.95" y="601.24" width="154.26" height="51.42"></rect>
                                <rect id="Rectangle" fill="url(#linearGradient-12)" x="589.36" y="601.24" width="196.28" height="51.42"></rect>
                                <rect id="Rectangle" fill="url(#linearGradient-13)" x="962.51" y="601.24" width="93.86" height="51.42"></rect>
                                <rect id="Rectangle" fill="url(#linearGradient-14)" x="970.06" y="498.4" width="186.5" height="51.42"></rect>
                                <rect id="Rectangle" fill="url(#linearGradient-15)" x="803.65" y="498.4" width="154.26" height="51.42"></rect>
                                <rect id="Rectangle" fill="url(#linearGradient-16)" x="897.42" y="704.26" width="59.49" height="51.42"></rect>
                                <rect id="Rectangle" fill="url(#linearGradient-17)" x="806.67" y="704.26" width="78.51" height="51.42"></rect>
                                <rect id="Rectangle" fill="url(#linearGradient-18)" x="848.52" y="755.68" width="77.32" height="51.42"></rect>
                                <rect id="Rectangle" fill="url(#linearGradient-19)" x="867.45" y="652.84" width="138.45" height="51.42"></rect>
                                <rect id="Rectangle" fill="url(#linearGradient-20)" x="702.75" y="652.84" width="152.55" height="51.42"></rect>
                                <polygon id="Path" fill="url(#radialGradient-21)" style="mix-blend-mode: multiply;" points="1250.62 438.81 1128.08 438.81 1128.08 395.56 1219.83 395.56"></polygon>
                                <polygon id="Path" fill="url(#linearGradient-22)" opacity="0.7" style="mix-blend-mode: multiply;" points="1091.32 387.39 1155.37 387.39 1155.37 344.14 1053.32 344.14"></polygon>
                                <polygon id="Path" fill="url(#linearGradient-23)" opacity="0.7" style="mix-blend-mode: multiply;" points="1035.36 438.81 1099.41 438.81 1099.41 395.56 997.37 395.56"></polygon>
                                <polygon id="Path" fill="url(#linearGradient-24)" opacity="0.7" style="mix-blend-mode: multiply;" points="1001.21 490.23 1065.26 490.23 1065.26 446.98 963.21 446.98"></polygon>
                                <polygon id="Path" fill="url(#linearGradient-22)" opacity="0.7" style="mix-blend-mode: multiply;" points="909.33 541.65 973.38 541.65 973.38 498.4 871.33 498.4"></polygon>
                                <polygon id="Path" fill="url(#linearGradient-22)" opacity="0.7" style="mix-blend-mode: multiply;" points="841.64 593.07 905.7 593.07 905.7 549.82 803.65 549.82"></polygon>
                                <polygon id="Path" fill="url(#linearGradient-25)" opacity="0.7" style="mix-blend-mode: multiply;" points="768.91 644.49 832.96 644.49 832.96 601.25 730.92 601.25"></polygon>
                                <rect id="Rectangle" fill="url(#linearGradient-26)" style="mix-blend-mode: multiply;" x="1036.35" y="446.98" width="170.04" height="51.42"></rect>
                                <rect id="Rectangle" fill="url(#linearGradient-27)" style="mix-blend-mode: multiply;" x="970.06" y="498.4" width="186.5" height="51.42"></rect>
                                <rect id="Rectangle" fill="url(#linearGradient-28)" style="mix-blend-mode: multiply;" x="970.06" y="498.65" width="186.5" height="51.42"></rect>
                                <rect id="Rectangle" fill="url(#linearGradient-29)" style="mix-blend-mode: multiply;" x="897.42" y="549.82" width="111.05" height="51.42"></rect>
                                <rect id="Rectangle" fill="url(#linearGradient-30)" style="mix-blend-mode: multiply;" x="1020.71" y="549.82" width="86" height="51.42"></rect>
                                <rect id="Rectangle" fill="url(#linearGradient-31)" style="mix-blend-mode: multiply;" x="796.95" y="601.24" width="154.26" height="51.42"></rect>
                                <rect id="Rectangle" fill="url(#linearGradient-32)" style="mix-blend-mode: multiply;" x="867.45" y="652.84" width="138.45" height="51.42"></rect>
                                <rect id="Rectangle" fill="url(#linearGradient-33)" style="mix-blend-mode: multiply;" x="806.67" y="704.26" width="78.51" height="51.42"></rect>
                                <rect id="Rectangle" fill="url(#linearGradient-34)" style="mix-blend-mode: multiply;" x="848.52" y="755.68" width="77.32" height="51.42"></rect>
                                <rect id="Rectangle" fill="url(#linearGradient-35)" style="mix-blend-mode: multiply;" x="897.42" y="704.26" width="59.49" height="51.42"></rect>
                                <rect id="Rectangle" fill="url(#linearGradient-36)" style="mix-blend-mode: multiply;" x="962.51" y="601.24" width="93.86" height="51.42"></rect>
                                <rect id="Rectangle" fill="url(#linearGradient-37)" style="mix-blend-mode: multiply;" x="702.75" y="652.84" width="152.55" height="51.42"></rect>
                                <polygon id="Path" fill="url(#linearGradient-38)" points="105.99 966.93 599.16 652.53 907.14 805.47 1264.33 437.63 1571.73 695.91 1862.17 1159.55 18.34 1159.55"></polygon>
                                <polygon id="Path" fill="url(#linearGradient-39)" points="752.9 728.88 599.16 652.53 377.3 793.97 600.65 697.77"></polygon>
                                <polygon id="Path" fill="url(#linearGradient-40)" points="1264.33 437.63 1011.09 698.42 1270.28 535.65 1454.8 597.67"></polygon>
                                <g id="Group-19" transform="translate(1476.620000, 654.070000)" fill="#000000">
                                    <polygon id="Path" points="219.46 104.75 269.7 0 319.94 104.75"></polygon>
                                    <polygon id="Path" points="193.13 209.45 269.7 49.81 346.27 209.45"></polygon>
                                    <polygon id="Path" points="171.07 328.72 269.7 123.09 368.33 328.72"></polygon>
                                    <polygon id="Path" points="134.23 482.96 269.7 200.52 405.17 482.96"></polygon>
                                    <polygon id="Path" points="423.9 211.6 455.09 146.58 486.27 211.6"></polygon>
                                    <polygon id="Path" points="407.56 276.59 455.09 177.5 502.61 276.59"></polygon>
                                    <polygon id="Path" points="393.87 350.62 455.09 222.98 516.31 350.62"></polygon>
                                    <polygon id="Path" points="370.99 446.37 455.09 271.04 539.18 446.37"></polygon>
                                    <path d="M356.78,113.34 C361.90399,113.758904 366.948817,114.862039 371.78,116.62 C374.264081,117.50191 376.634144,118.67687 378.84,120.12 C379.993677,120.868557 381.05443,121.751398 382,122.75 C383.011915,123.805286 383.812936,125.044153 384.36,126.4 L381.5,126.65 C381.802231,125.208678 382.220253,123.794089 382.75,122.42 C383,121.73 383.29,121.08 383.56,120.42 L384.47,118.42 C385.789139,115.850233 387.414276,113.449463 389.31,111.27 C390.254191,110.193579 391.25564,109.168763 392.31,108.2 C393.413099,107.283867 394.56837,106.432439 395.77,105.65 C398.159514,104.122059 400.765359,102.962408 403.5,102.21 C401.074691,103.532193 398.789675,105.09686 396.68,106.88 C395.62239,107.746063 394.620405,108.67791 393.68,109.67 C392.81,110.67 391.88,111.67 391.11,112.79 C389.505368,114.943756 388.124873,117.25575 386.99,119.69 C385.850809,122.087605 384.965979,124.597978 384.35,127.18 L384.35,127.27 C384.162027,128.065148 383.365251,128.557538 382.57,128.37 C382.090588,128.224576 381.715424,127.849412 381.57,127.37 C380.88,125.37 379.13,123.75 377.24,122.37 C376.268864,121.636357 375.249943,120.968212 374.19,120.37 C373.12,119.78 372.03,119.19 370.9,118.66 C366.309363,116.592779 361.593411,114.815948 356.78,113.34 L356.78,113.34 Z" id="Path"></path>
                                    <path d="M1.13686838e-13,162.38 C5.72332776,162.998157 11.4014838,163.980144 17,165.32 C22.6230751,166.636668 28.152024,168.327089 33.55,170.38 C36.2740707,171.399548 38.9442239,172.557727 41.55,173.85 C44.2046662,175.138047 46.7614966,176.618669 49.2,178.28 C51.7211758,179.957741 54.0487078,181.909648 56.14,184.1 C58.360467,186.398675 60.0979809,189.118854 61.25,192.1 L56.48,192.5 C56.83,190.78 57.22,189.28 57.7,187.71 C58.18,186.14 58.7,184.63 59.23,183.12 C60.3384772,180.098502 61.6206139,177.143578 63.07,174.27 C65.9558123,168.527899 69.5250242,163.155613 73.7,158.27 C75.8007109,155.847892 78.0411982,153.550641 80.41,151.39 C82.8168067,149.285182 85.3516587,147.331442 88,145.54 C93.2897261,142.046553 99.0649913,139.35098 105.14,137.54 C99.5753222,140.311295 94.3335764,143.688415 89.51,147.61 C84.7807242,151.508105 80.5189802,155.94099 76.81,160.82 C71.3263839,168.126632 66.9742599,176.217335 63.9,184.82 C63.38,186.25 62.9,187.69 62.48,189.14 C62.06,190.59 61.64,192.14 61.37,193.43 L61.37,193.49 C61.1471511,194.57717 60.2291634,195.383944 59.1223768,195.465325 C58.0155903,195.546706 56.9894703,194.882881 56.61,193.84 C55.6721222,191.475146 54.2982927,189.307549 52.56,187.45 C50.7381586,185.488356 48.7285655,183.709866 46.56,182.14 C44.3229574,180.519421 41.9848831,179.043094 39.56,177.72 C37.14,176.36 34.65,175.08 32.09,173.92 C21.6848997,169.306304 10.9603718,165.449618 1.13686838e-13,162.38 L1.13686838e-13,162.38 Z" id="Path"></path>
                                    <path d="M362.43,13.93 C366.366934,14.1912366 370.207329,15.2636872 373.71,17.08 C375.539597,18.0141815 377.204749,19.2402465 378.64,20.71 C380.124489,22.2782409 381.21451,24.1772072 381.82,26.25 C381.970052,26.7608898 381.836149,27.3130232 381.468731,27.6984166 C381.101313,28.0838101 380.5562,28.2439132 380.038731,28.1184167 C379.521261,27.9929202 379.110051,27.6008899 378.96,27.09 L378.96,27.03 L378.96,27.03 C378.464666,24.9315496 378.272713,22.7729268 378.39,20.62 C378.505872,18.4702375 378.989549,16.3562668 379.82,14.37 C380.05,13.88 380.27,13.37 380.53,12.91 C380.79,12.45 381.11,12 381.41,11.55 C381.738873,11.1227098 382.092829,10.7153262 382.47,10.33 L383.01,9.74 L383.63,9.24 C385.241318,7.92064624 387.132781,6.98688604 389.16,6.51 C387.471802,7.5231214 385.958873,8.8030326 384.68,10.3 C383.469436,11.73239 382.570359,13.4011324 382.04,15.2 C381.514631,16.989222 381.251889,18.8452581 381.26,20.71 C381.251767,21.6519231 381.298513,22.593524 381.4,23.53 C381.492986,24.445183 381.643281,25.353633 381.85,26.25 L378.96,27.01 C378.493448,25.3887829 377.681527,23.8877532 376.58,22.61 C375.406031,21.2613239 374.061386,20.0713128 372.58,19.07 C371.03824,18.0180834 369.420454,17.0821738 367.74,16.27 C365.99,15.44 364.24,14.68 362.43,13.93 Z" id="Path"></path>
                                    <path d="M445.04,47.57 C447.083648,48.5685378 449.034636,49.7464928 450.87,51.09 C452.731282,52.435058 454.465218,53.9480676 456.05,55.61 C457.700181,57.3108853 459.091688,59.2448434 460.18,61.35 C461.372236,63.6178167 461.823397,66.2023772 461.47,68.74 L459.28,67.19 C460.399073,66.632879 461.571732,66.1906188 462.78,65.87 C463.927306,65.5402878 465.092545,65.276523 466.27,65.08 C468.582241,64.6851601 470.924307,64.4911032 473.27,64.5 L475.02,64.5 L476.77,64.61 C477.93,64.67 479.09,64.82 480.24,64.97 C481.39,65.12 482.53,65.34 483.66,65.55 C484.79,65.76 485.91,66.09 487.03,66.38 C485.87,66.38 484.72,66.38 483.58,66.32 C482.44,66.26 481.29,66.32 480.15,66.32 C477.88,66.37 475.62,66.47 473.38,66.7 C471.163767,66.9156013 468.960629,67.24941 466.78,67.7 C465.7,67.96 464.64,68.25 463.6,68.58 C462.605053,68.8877756 461.635479,69.2722621 460.7,69.73 L460.7,69.73 C459.965003,70.093691 459.074172,69.7997169 458.7,69.07 C458.553766,68.7941902 458.501122,68.4783284 458.55,68.17 C458.769545,66.226373 458.422258,64.2607288 457.55,62.51 C456.648316,60.5923254 455.520289,58.789497 454.19,57.14 C453.54,56.27 452.83,55.44 452.09,54.62 C451.35,53.8 450.62,52.98 449.84,52.19 C448.31,50.66 446.69,49.12 445.04,47.57 Z" id="Path"></path>
                                </g>
                                <g id="Group-18" transform="translate(642.000000, 0.000000)">
                                    <circle id="Oval" fill="url(#linearGradient-41)" cx="146.59" cy="83.93" r="83.93"></circle>
                                    <path d="M2.84217094e-14,71.66 L99.67,71.66 C99.67,71.66 66.52,50.1 63.05,53.12 C60.8077534,55.2697053 59.202164,57.9964389 58.41,61 C58.41,61 22.95,40.14 13.21,47.79 C3.47,55.44 2.84217094e-14,71.66 2.84217094e-14,71.66 Z" id="Path" fill="url(#linearGradient-42)"></path>
                                    <path d="M175.75,138.91 L310.17,138.91 C310.17,138.91 265.47,109.83 260.78,113.91 C256.09,117.99 254.53,124.56 254.53,124.56 C254.53,124.56 206.7,96.42 193.53,106.74 C180.36,117.06 175.75,138.91 175.75,138.91 Z" id="Path" fill="url(#linearGradient-43)"></path>
                                    <circle id="Oval" fill="#A7A8C9" cx="270.01" cy="168.36" r="2.14"></circle>
                                    <circle id="Oval" fill="#A7A8C9" cx="266.29" cy="216.93" r="2.14"></circle>
                                    <circle id="Oval" fill="#A7A8C9" cx="229.92" cy="179.79" r="2.14"></circle>
                                    <circle id="Oval" fill="#A7A8C9" cx="285.45" cy="185.03" r="2.14"></circle>
                                    <circle id="Oval" fill="#A7A8C9" cx="213.63" cy="159.96" r="2.14"></circle>
                                    <circle id="Oval" fill="#A7A8C9" cx="208.25" cy="201.46" r="2.14"></circle>
                                </g>
                                <path d="M1243,348.415996 L1466.88,348.415996 C1466.88,348.415996 1392.43,299.995996 1384.62,306.765996 C1376.81,313.535996 1374.2,324.465996 1374.2,324.465996 C1374.2,324.465996 1294.54,277.605996 1272.67,294.785996 C1250.8,311.965996 1243,348.415996 1243,348.415996 Z" id="Path" fill="url(#linearGradient-44)" opacity="0.3"></path>
                                <path d="M584,395.415996 L807.88,395.415996 C807.88,395.415996 733.43,346.995996 725.62,353.765996 C717.81,360.535996 715.2,371.465996 715.2,371.465996 C715.2,371.465996 635.54,324.605996 613.67,341.785996 C591.8,358.965996 584,395.415996 584,395.415996 Z" id="Path-Copy-3" fill="url(#linearGradient-44)" opacity="0.3"></path>
                            </g>
                            <g id="Calque_2-2" transform="translate(1037.000000, 149.000000)">
                                <path d="M89.72,53.32 C89.84,50.97 89.96,48.75 90.06,46.69 C90.3017725,42.8833796 90.1375131,39.0618354 89.57,35.29 C98.04,32.42 98.49,23.75 98.02,18.92 C97.9878587,18.5194611 97.6884809,18.1915664 97.2925106,18.1232144 C96.8965403,18.0548624 96.5045614,18.2634157 96.34,18.63 C94.5376935,22.55089 90.9426523,25.3515912 86.7,26.14 L86.6,25.96 C86.48,25.7 86.36,25.45 86.22,25.2 C83.7489445,20.5983251 83.6669065,15.0831362 86,10.41 C86.0552284,10.3409644 86.0440355,10.2402285 85.9749999,10.1850001 C85.9059644,10.1297716 85.8052285,10.1409645 85.75,10.21 C84.47,11.37 81.84,13.44 79.99,12.74 C75.22,10.94 82.56,4.5 82.56,4.5 C73.62,4.5 67.48,11.63 67.48,11.63 C71.33,7.06 69.57,0.63 69.57,0.63 C59.28,11.97 47.23,13.8 47.23,13.8 C48.4908939,12.4051107 48.9944697,10.4840623 48.58,8.65 C38.24,15.43 34.25,22.07 32.7,26.09 C28.4991996,25.2809639 24.9488652,22.4906171 23.17,18.6 C22.9992233,18.2387914 22.6086636,18.0356582 22.2148741,18.1032315 C21.8210845,18.1708049 21.5205878,18.4925217 21.48,18.89 C21.02,23.72 21.48,32.39 29.93,35.26 C29.3677463,39.0289831 29.2035094,42.8466548 29.44,46.65 C29.5466667,48.65 29.6566667,50.7566667 29.77,52.97 C22.87,57.97 7.29,71.63 1.23,97.03 L1.59,96.73 C1.91205618,96.531915 2.31829485,96.5324091 2.63986825,96.7312769 C2.96144165,96.9301446 3.14335561,97.2933765 3.11,97.67 C1.65611723,103.823841 0.92782481,110.126759 0.939849848,116.45 L1.62,115.77 C1.91303953,115.543316 2.30739172,115.497221 2.64481051,115.650212 C2.98222931,115.803204 3.20741314,116.130206 3.23,116.5 C3.03,119.5 2.96,124.42 4.23,127.76 L6.3,126.28 C6.3,126.28 11.3,139.03 19.5,138.77 C27.7,138.51 26.95,130.1 26.95,130.1 C26.95,130.1 29.39,129.49 28.95,125.23 C28.7605723,123.469023 28.3506973,121.738813 27.73,120.08 L30.17,120.35 C30.17,120.35 24.73,108.89 32.05,98.6 C33.05,118.1 33.85,135.72 34.13,141.6 C34.1834692,142.753712 35.1350507,143.661238 36.29,143.66 L55.07,143.72 C56.2700863,143.720013 57.244495,142.750074 57.25,141.55 L57.25,131 C57.1950136,130.1914 57.5952143,129.41955 58.2877488,128.998536 C58.9802834,128.577522 59.8497166,128.577522 60.5422512,128.998536 C61.2347857,129.41955 61.6349864,130.1914 61.58,131 L61.58,141.62 C61.58,142.19552 61.8086243,142.747468 62.2155783,143.154422 C62.6225322,143.561376 63.1744802,143.79 63.75,143.79 L83.22,143.73 C84.3729161,143.726169 85.3215633,142.821441 85.38,141.67 C85.66,135.81 86.51,118.18 87.46,98.67 C93.46,106.92 89.46,120.57 89.46,120.57 L91.9,120.03 C89.06,128.56 92.71,130.32 92.71,130.32 C92.71,130.32 92.17,139.26 100.19,139.65 C108.21,140.04 113,126.31 113,126.31 L115.08,127.79 C117.08,121.12 117.21,110.16 117.17,105.79 C117.16438,105.486472 117.344713,105.2103 117.624876,105.093382 C117.905039,104.976464 118.228191,105.042519 118.44,105.26 L119.44,106.26 C117.9,77.47 98,59.58 89.72,53.32 Z" id="Path" fill="#000000"></path>
                                <ellipse id="Oval" fill="#FFFFFF" cx="48.92" cy="41.99" rx="3.66" ry="5.82"></ellipse>
                                <ellipse id="Oval" fill="#FFFFFF" cx="70.59" cy="41.99" rx="3.66" ry="5.82"></ellipse>
                            </g>
                            <g id="Drapeau" transform="translate(1145.000000, 82.000000)">
                                <path d="M23.17,42.3099999 L176.31,42.3099999 C177.781813,42.3099999 179.147974,43.0744761 179.917184,44.3292874 C180.686393,45.5840987 180.748057,47.1485373 180.08,48.46 L175.89,56.67 C168.658945,70.8474449 168.562521,87.6103069 175.63,101.87 L180.18,111.03 C180.829804,112.339713 180.757199,113.892129 179.987993,115.135477 C179.218786,116.378824 177.862047,117.136801 176.4,117.14 L24.53,117.14" id="Path" fill="url(#linearGradient-45)" opacity="0.3"></path>
                                <path d="M24,31.0696988 L24,31.0696988 C24.7054759,31.0696988 25.3820573,31.3502492 25.880904,31.849096 C26.3797508,32.3479427 26.66,33.0245241 26.66,33.73 L26.66,210.87 L21.3,210.87 L21.3,33.73 C21.2999194,33.0175387 21.5856528,32.3348241 22.0931845,31.8348114 C22.6007162,31.3347987 23.2876192,31.0592863 24,31.0696988 L24,31.0696988 Z" id="Path" fill="#A7A8C9"></path>
                                <rect id="Rectangle" fill="#6978B9" x="35.28" y="82.96" width="62.74" height="25.44"></rect>
                                <rect id="Rectangle" fill="#6978B9" x="35.25" y="51.05" width="53.06" height="25.44"></rect>
                                <path d="M39.53,63.69 C39.53,57.76 42.84,54.26 47.62,54.26 C52.4,54.26 55.71,57.77 55.71,63.69 C55.71,69.61 52.4,73.28 47.62,73.28 C42.84,73.28 39.53,69.63 39.53,63.69 Z M52.36,63.69 C52.36,59.58 50.5,57.08 47.62,57.08 C44.74,57.08 42.87,59.58 42.87,63.69 C42.87,67.8 44.73,70.45 47.62,70.45 C50.51,70.45 52.36,67.81 52.36,63.69 Z" id="Shape" fill="#FFFFFF"></path>
                                <path d="M59,67.8 L59,59.16 L62.23,59.16 L62.23,67.39 C62.23,69.65 62.88,70.5 64.38,70.5 C65.59,70.5 66.38,69.94 67.38,68.6 L67.38,59.16 L70.61,59.16 L70.61,72.94 L68,72.94 L67.75,70.94 L67.66,70.94 C66.6415355,72.3864703 64.998492,73.26548 63.23,73.31 C60.25,73.28 59,71.28 59,67.8 Z" id="Path" fill="#FFFFFF"></path>
                                <path d="M74.72,59.16 L77.36,59.16 L77.61,61.62 L77.7,61.62 C78.392657,60.0370738 79.8979919,58.9618346 81.62,58.82 C82.1544789,58.7942304 82.6878454,58.8899629 83.18,59.1 L82.62,61.91 C82.1611521,61.7625713 81.6819479,61.6883284 81.2,61.69 C80.1,61.69 78.78,62.44 77.95,64.53 L77.95,72.94 L74.72,72.94 L74.72,59.16 Z" id="Path" fill="#FFFFFF"></path>
                                <path d="M95.75,68.27 L95.75,61.71 L93.75,61.71 L93.75,59.29 L95.88,59.14 L96.26,55.38 L99,55.38 L99,59.14 L102.52,59.14 L102.52,61.71 L99,61.71 L99,68.27 C99,69.89 99.63,70.69 101,70.69 C101.491708,70.6677476 101.975705,70.5594406 102.43,70.37 L102.98,72.75 C102.077259,73.0715239 101.128153,73.2437816 100.17,73.26 C96.93,73.26 95.75,71.25 95.75,68.27 Z" id="Path" fill="#163253"></path>
                                <path d="M104,66 C104,61.52 107.11,58.76 110.35,58.76 C114.08,58.76 116.040025,61.46 116.040025,65.3 C116.041265,65.8298191 115.994406,66.3586581 115.9,66.88 L107.15,66.88 C107.173404,67.9286662 107.616109,68.9242085 108.37911,69.6439851 C109.142111,70.3637616 110.161751,70.7477228 111.21,70.71 C112.350559,70.6908462 113.461481,70.3436831 114.41,69.71 L115.51,71.71 C114.120173,72.6668883 112.47725,73.1890034 110.79,73.21 C107,73.26 104,70.59 104,66 Z M113.25,64.68 C113.25,62.56 112.25,61.27 110.42,61.27 C108.81,61.27 107.42,62.47 107.12,64.68 L113.25,64.68 Z" id="Shape" fill="#163253"></path>
                                <path d="M118.09,69.22 C118.09,66.22 120.54,64.73 126.19,64.12 C126.19,62.64 125.56,61.41 123.69,61.41 C122.300607,61.4965851 120.961788,61.9636151 119.82,62.76 L118.63,60.61 C120.310302,59.4892851 122.271202,58.8622129 124.29,58.8 C127.73,58.8 129.43,60.92 129.43,64.8 L129.43,72.96 L126.78,72.96 L126.53,71.43 L126.44,71.43 C125.289431,72.5488839 123.772552,73.2131842 122.17,73.3 C121.069343,73.3647427 119.993535,72.9557202 119.213907,72.1760927 C118.43428,71.3964653 118.025257,70.3206572 118.09,69.22 L118.09,69.22 Z M126.19,69.22 L126.19,66.12 C122.46,66.59 121.19,67.57 121.19,68.96 C121.19,70.18 122.02,70.71 123.19,70.71 C124.34759,70.6373621 125.427941,70.1043891 126.19,69.23 L126.19,69.22 Z" id="Shape" fill="#163253"></path>
                                <path d="M133.31,59.14 L136,59.14 L136.25,61.02 L136.33,61.02 C137.374245,59.7239447 138.909929,58.9198836 140.57,58.8 C142.250809,58.6640509 143.811875,59.6787434 144.37,61.27 C145.69,59.87 147.05,58.8 148.8,58.8 C151.71,58.8 153.05,60.8 153.05,64.28 L153.05,72.92 L149.82,72.92 L149.82,64.69 C149.82,62.43 149.15,61.57 147.7,61.57 C146.545561,61.7264494 145.505168,62.3477948 144.82,63.29 L144.82,72.92 L141.59,72.92 L141.59,64.69 C141.59,62.43 140.91,61.57 139.47,61.57 C138.314267,61.7305229 137.272236,62.3506941 136.58,63.29 L136.58,72.92 L133.35,72.92 L133.31,59.14 Z" id="Path" fill="#163253"></path>
                                <path d="M44.45,97.87 L38.93,86.34 L42.41,86.34 L44.41,91.03 C44.95,92.4 45.47,93.67 46.05,95.03 L46.16,95.03 C46.74,93.63 47.32,92.36 47.85,91.03 L49.85,86.34 L53.23,86.34 L47.7,97.87 L47.7,104.69 L44.45,104.69 L44.45,97.87 Z" id="Path" fill="#FFFFFF"></path>
                                <path d="M52.9,97.81 C52.9,93.22 56.02,90.57 59.46,90.57 C62.9,90.57 66,93.22 66,97.81 C66,102.4 62.89,105 59.46,105 C56.03,105 52.9,102.38 52.9,97.81 Z M62.69,97.81 C62.69,95.05 61.48,93.21 59.46,93.21 C57.44,93.21 56.23,95.05 56.23,97.81 C56.23,100.57 57.44,102.39 59.46,102.39 C61.48,102.39 62.69,100.57 62.69,97.81 Z" id="Shape" fill="#FFFFFF"></path>
                                <path d="M69.06,99.55 L69.06,90.91 L72.29,90.91 L72.29,99.14 C72.29,101.4 72.94,102.26 74.43,102.26 C75.64,102.26 76.43,101.69 77.43,100.35 L77.43,90.91 L80.67,90.91 L80.67,104.69 L78.07,104.69 L77.82,102.69 L77.73,102.69 C76.6976748,104.112545 75.0573554,104.967881 73.3,105 C70.35,105 69.06,103 69.06,99.55 Z" id="Path" fill="#FFFFFF"></path>
                                <path d="M84.81,90.91 L87.46,90.91 L87.71,93.37 L87.8,93.37 C88.4909777,91.7900459 89.9916943,90.7153639 91.71,90.57 C92.2446148,90.5421004 92.7784587,90.6379186 93.27,90.85 L92.71,93.66 C92.2547739,93.5117999 91.7787358,93.4375245 91.3,93.44 C90.2,93.44 88.87,94.19 88.04,96.29 L88.04,104.69 L84.81,104.69 L84.81,90.91 Z" id="Path" fill="#FFFFFF"></path>
                                <path d="M105.47,100 L105.47,93.48 L103.47,93.48 L103.47,91.06 L105.6,90.91 L105.99,87.15 L108.67,87.15 L108.67,90.91 L112.18,90.91 L112.18,93.48 L108.7,93.48 L108.7,100 C108.7,101.62 109.33,102.42 110.7,102.42 C111.194796,102.39668 111.681896,102.288435 112.14,102.1 L112.69,104.48 C111.784041,104.80242 110.831499,104.974689 109.87,104.990037 C106.64,105 105.47,103 105.47,100 Z" id="Path" fill="#163253"></path>
                                <path d="M113.75,97.81 C113.75,93.33 116.86,90.57 120.11,90.57 C123.83,90.57 125.79,93.27 125.79,97.12 C125.795923,97.6466971 125.749022,98.172661 125.65,98.69 L116.91,98.69 C116.933404,99.7386662 117.376109,100.734208 118.13911,101.453985 C118.902111,102.173762 119.921751,102.557723 120.97,102.52 C122.110559,102.500846 123.221481,102.153683 124.17,101.52 L125.27,103.52 C123.875752,104.475503 122.230089,104.997383 120.54,105.02 C116.74,105 113.75,102.36 113.75,97.81 Z M123,96.49 C123,94.37 122.06,93.08 120.17,93.08 C118.57,93.08 117.17,94.28 116.87,96.49 L123,96.49 Z" id="Shape" fill="#163253"></path>
                                <path d="M127.81,101 C127.81,98.05 130.25,96.51 135.91,95.9 C135.91,94.42 135.27,93.19 133.41,93.19 C132.020607,93.2765851 130.681788,93.7436151 129.54,94.54 L128.35,92.39 C130.024957,91.2645949 131.983086,90.6338345 134,90.57 C137.45,90.57 139.14,92.69 139.14,96.57 L139.14,104.73 L136.49,104.73 L136.25,103.2 L136.16,103.2 C135.005851,104.319562 133.485629,104.983771 131.88,105.07 C130.782867,105.131505 129.711525,104.722491 128.934517,103.945483 C128.157509,103.168475 127.748495,102.097133 127.81,101 L127.81,101 Z M135.91,101 L135.91,97.9 C132.17,98.37 130.91,99.35 130.91,100.74 C130.91,101.96 131.74,102.49 132.91,102.49 C134.068801,102.413697 135.148981,101.877207 135.91,101 Z" id="Shape" fill="#163253"></path>
                                <path d="M143,90.91 L145.65,90.91 L145.9,92.79 L146,92.79 C147.036385,91.489667 148.57111,90.6842088 150.23,90.57 C151.889469,90.442673 153.430656,91.4360637 154,93 C155.32,91.6 156.69,90.53 158.44,90.53 C161.34,90.53 162.69,92.53 162.69,96.01 L162.69,104.65 L159.5,104.65 L159.5,96.46 C159.5,94.2 158.82,93.35 157.38,93.35 C156.223559,93.501392 155.179372,94.1192328 154.49,95.06 L154.49,104.69 L151.26,104.69 L151.26,96.46 C151.26,94.2 150.59,93.35 149.14,93.35 C147.987953,93.5062132 146.948637,94.1233072 146.26,95.06 L146.26,104.69 L143,104.69 L143,90.91 Z" id="Path" fill="#163253"></path>
                                <path d="M-6.50521303e-19,5.21 L10.15,9 C10.32,8.76 10.49,8.52 10.68,8.28 L10.68,8.28 C16.16,0.84 29.2,0 29.2,0 C28.3522288,1.76823526 26.8439818,3.13283966 25,3.8 C27.9309765,4.14966235 30.8784686,4.34326886 33.83,4.38 C32.7400345,5.94251991 31.1599659,7.09677937 29.34,7.66 C30.7742115,9.27532744 31.754212,11.2422299 32.18,13.36 L32.18,13.28 L42.64,13.21 C42.64,13.21 38.43,19 31.76,19.66 C30.3378212,23.8025992 26.7960783,26.8591194 22.49,27.66 L22.84,30.18 L25.09,30.06 C25.2223581,30.0489115 25.3533942,30.0931627 25.4519312,30.182225 C25.5504682,30.2712873 25.6076965,30.3971982 25.61,30.53 C25.6181997,30.662667 25.5732369,30.7931389 25.4850461,30.8925881 C25.3968553,30.9920373 25.2726956,31.0522779 25.14,31.06 L22.43,31.2 L22.43,31.2 C22.1806157,31.1981963 21.9691136,31.0163045 21.93,30.77 L21.52,27.77 C20.4840467,27.8729447 19.4392906,27.8460699 18.41,27.69 C17.1207065,27.4892784 15.8716823,27.0841895 14.71,26.49 L13.1,29.14 C13.0060325,29.2870998 12.8445298,29.3772409 12.67,29.38 C12.5926033,29.3801637 12.5165972,29.3594347 12.45,29.32 L10,28.19 C9.75783682,28.0576277 9.66126514,27.7591334 9.78,27.51 C9.90478782,27.2648435 10.2041732,27.1665378 10.45,27.29 L12.45,28.29 L13.81,26.06 C10.1494683,23.7720597 7.97629257,19.7149577 8.1,15.4 C-0.32,10.41 -6.50521303e-19,5.21 -6.50521303e-19,5.21 Z" id="Path" fill="#000000"></path>
                                <ellipse id="Oval" fill="#FFFFFF" transform="translate(25.624455, 13.307966) rotate(-82.150000) translate(-25.624455, -13.307966) " cx="25.6244548" cy="13.3079656" rx="2.74" ry="1.69"></ellipse>
                                <ellipse id="Oval" fill="#FFFFFF" transform="translate(16.725251, 11.716129) rotate(-82.150000) translate(-16.725251, -11.716129) " cx="16.7252512" cy="11.7161294" rx="2.74" ry="1.69"></ellipse>
                            </g>
                        </g>
                        <path d="M1314.4831,898 C1315.00528,898 1315.43519,898.39207 1315.49019,898.895746 L1315.49614,899.005282 L1315.49675,907.757798 C1316.6974,907.354237 1317.70624,906.221717 1318.52681,904.501075 C1318.91564,903.685745 1319.22851,902.803583 1319.46977,901.920368 L1319.58531,901.474155 L1319.67868,901.068166 C1319.71088,900.918388 1319.73069,900.815 1319.7391,900.765951 C1319.82616,900.257697 1320.28346,899.903839 1320.78997,899.930377 L1320.90758,899.943357 C1321.45916,900.0364 1321.83029,900.555542 1321.73653,901.102892 L1321.69055,901.347127 C1321.6344,901.624767 1321.54729,901.999768 1321.42529,902.446396 C1321.15479,903.436622 1320.80322,904.4279 1320.35818,905.361115 C1319.19691,907.796161 1317.60382,909.443226 1315.49636,909.840251 L1315.49716,916.628997 C1317.93795,916.343253 1320.00172,915.023526 1321.72204,912.955478 C1322.4203,912.116079 1323.00924,911.21249 1323.48941,910.309411 C1323.61504,910.073131 1323.72603,909.850162 1323.82251,909.643937 L1324.02817,909.177131 C1324.03374,909.163262 1324.03833,909.151559 1324.04195,909.142088 C1324.2401,908.622873 1324.82489,908.361367 1325.34811,908.557999 C1325.87134,908.754632 1326.13486,909.334942 1325.93671,909.854157 L1325.84662,910.077241 C1325.72326,910.369192 1325.53575,910.769224 1325.28136,911.247662 C1324.74032,912.265204 1324.07745,913.282236 1323.28454,914.235416 C1321.19994,916.741365 1318.60909,918.362461 1315.49643,918.651553 L1315.49696,925.379329 C1319.12031,925.154383 1322.25068,923.725388 1324.90328,921.460085 C1325.92266,920.589544 1326.79613,919.655925 1327.52161,918.724183 C1327.7739,918.400168 1327.98898,918.100729 1328.1667,917.834091 L1328.31192,917.610296 C1328.3352,917.573122 1328.35249,917.544583 1328.36377,917.525209 C1328.64375,917.044525 1329.2634,916.880084 1329.7478,917.157919 C1330.23219,917.435754 1330.3979,918.050655 1330.11792,918.531339 L1329.97858,918.759224 C1329.78897,919.057393 1329.50467,919.465698 1329.12487,919.953478 C1328.31969,920.987571 1327.35399,922.019786 1326.22489,922.984025 C1323.22507,925.545846 1319.64556,927.16611 1315.49704,927.393514 L1315.49637,934.123799 C1322.11909,933.866266 1328.35914,930.902331 1332.7182,925.908616 C1333.08451,925.488963 1333.7243,925.443452 1334.14719,925.806964 C1334.57008,926.170475 1334.61595,926.805356 1334.24963,927.225009 C1329.50561,932.659731 1322.70694,935.877265 1315.49629,936.135883 L1315.49676,942.851262 C1321.39666,942.68998 1326.64087,941.12456 1331.18424,938.606025 C1332.86223,937.675865 1334.32087,936.680501 1335.55165,935.687725 C1335.89381,935.411733 1336.19759,935.152404 1336.46246,934.914109 L1336.6538,934.739399 C1336.83291,934.573328 1336.94902,934.45883 1337.00108,934.404466 C1337.38649,934.002002 1338.0277,933.985783 1338.43327,934.368239 C1338.83884,934.750694 1338.85519,935.386997 1338.46978,935.789461 L1338.28533,935.97533 C1337.97045,936.283354 1337.48396,936.72008 1336.82962,937.247886 C1335.51117,938.311374 1333.95649,939.372273 1332.17233,940.361292 C1327.34141,943.03922 1321.76337,944.70043 1315.49693,944.86256 L1315.49683,951.586277 C1322.52313,951.443891 1328.81808,949.825234 1334.3067,947.20834 C1336.31551,946.250566 1338.06842,945.225766 1339.55342,944.203434 C1339.96653,943.919037 1340.33397,943.651702 1340.65498,943.405899 L1340.88702,943.225655 C1341.10519,943.053646 1341.24759,942.934442 1341.31274,942.876793 C1341.73033,942.507294 1342.37071,942.543686 1342.74306,942.958078 C1343.11541,943.372469 1343.07874,944.007937 1342.66115,944.377436 L1342.3704,944.621524 C1342.30466,944.674926 1342.23031,944.734472 1342.14741,944.799836 C1341.74147,945.119895 1341.26132,945.474677 1340.70832,945.855386 C1339.13794,946.936497 1337.29293,948.015141 1335.18414,949.02058 C1329.43409,951.762123 1322.84355,953.454338 1315.4969,953.59725 L1315.49614,975.994718 C1315.49614,976.54992 1315.04258,977 1314.4831,977 C1313.96091,977 1313.531,976.60793 1313.476,976.104254 L1313.47005,975.994718 L1313.46982,953.597223 C1306.13725,953.454123 1299.556,951.761876 1293.81131,949.020428 C1291.70442,948.01499 1289.86066,946.936359 1288.29099,945.85527 C1287.84879,945.550715 1287.45317,945.262754 1287.10483,944.995892 L1286.62952,944.62148 C1286.49808,944.514689 1286.40105,944.432474 1286.33885,944.377436 C1285.92126,944.007937 1285.88459,943.372469 1286.25694,942.958078 C1286.62929,942.543686 1287.26967,942.507294 1287.68726,942.876793 L1287.92015,943.071616 C1287.97598,943.1169 1288.04028,943.168376 1288.11299,943.225719 L1288.59439,943.594305 C1288.85246,943.786533 1289.13651,943.990243 1289.44622,944.20355 C1290.93061,945.225904 1292.68238,946.250717 1294.6894,947.208493 C1300.17256,949.825136 1306.45806,951.44368 1313.46997,951.586249 L1313.46985,944.862574 C1307.20354,944.700516 1301.63122,943.039141 1296.80996,940.360845 C1295.02934,939.371675 1293.47849,938.3106 1292.1639,937.246919 C1291.36644,936.601662 1290.81921,936.092456 1290.52882,935.787992 C1290.14423,935.38476 1290.16186,934.748491 1290.56821,934.366846 C1290.97455,933.985201 1291.61573,934.002702 1292.00033,934.405934 L1292.24658,934.647288 L1292.34607,934.740626 C1292.65159,935.024919 1293.018,935.343787 1293.44426,935.688692 C1294.67098,936.681274 1296.12553,937.676463 1297.79966,938.606472 C1302.33281,941.124722 1307.57051,942.689996 1313.46953,942.851263 L1313.47039,936.136087 C1306.26816,935.87947 1299.47848,932.66018 1294.74925,927.223714 C1294.38365,926.803443 1294.4306,926.168641 1294.85411,925.805844 C1295.27763,925.443047 1295.91733,925.489639 1296.28293,925.90991 C1300.62714,930.903768 1306.8571,933.868429 1313.47015,934.124105 L1313.47014,927.393561 C1309.32169,927.166292 1305.7489,925.545467 1302.7608,922.982625 C1301.63615,922.018035 1300.6753,920.98545 1299.87504,919.950978 L1299.57474,919.552884 C1299.25151,919.112817 1299.02313,918.760991 1298.88863,918.528067 C1298.61047,918.046343 1298.77851,917.432063 1299.26395,917.156035 C1299.71472,916.899724 1300.28067,917.025195 1300.58193,917.430122 L1300.78497,917.750195 L1300.84188,917.837017 C1301.01816,918.103515 1301.23163,918.402812 1301.48218,918.726683 C1302.20267,919.658046 1303.07109,920.591295 1304.08567,921.461486 C1306.72601,923.726057 1309.8482,925.154568 1313.46992,925.379362 L1313.47048,918.668268 C1310.35791,918.378483 1307.78029,916.752028 1305.71934,914.238268 C1304.93566,913.282409 1304.28286,912.26263 1303.75199,911.242375 C1303.43108,910.625623 1303.21943,910.138799 1303.11059,909.845074 C1302.91749,909.323986 1303.18664,908.746225 1303.71175,908.554609 C1304.19936,908.376681 1304.7362,908.594269 1304.96501,909.043473 L1305.13672,909.45274 L1305.3253,909.865507 C1305.39454,910.010381 1305.47018,910.162198 1305.55226,910.319941 C1306.02279,911.224239 1306.60197,912.129012 1307.29098,912.969401 C1308.988,915.039267 1311.03502,916.359756 1313.47035,916.645714 L1313.47036,909.837074 C1311.3714,909.434245 1309.7904,907.787615 1308.6442,905.357208 C1308.20393,904.423662 1307.85751,903.432117 1307.59218,902.441644 L1307.48387,902.019759 C1307.38677,901.623658 1307.32283,901.307773 1307.28797,901.097832 C1307.19703,900.550014 1307.57082,900.032759 1308.12287,899.94251 C1308.67492,899.85226 1309.19617,900.223193 1309.28711,900.771011 L1309.34591,901.073108 L1309.43712,901.479005 C1309.47114,901.621342 1309.50882,901.770381 1309.55027,901.92512 C1309.7868,902.808089 1310.09491,903.689983 1310.47927,904.504982 C1311.28591,906.215397 1312.28115,907.343534 1313.47006,907.751822 L1313.47005,899.005282 C1313.47005,898.45008 1313.92361,898 1314.4831,898 Z" id="Combined-Shape" fill="#163253"></path>
                        <path d="M739.487334,874 C740.008975,874 740.438433,874.395595 740.493376,874.903799 L740.499314,875.014321 L740.499504,881.259295 C741.192617,880.902265 741.797206,880.15311 742.309669,879.066282 C742.592423,878.46662 742.820809,877.815453 742.997046,877.163224 L743.07722,876.852555 C743.135679,876.614263 743.173515,876.429827 743.192656,876.316937 C743.279606,875.80411 743.736413,875.447049 744.242389,875.473803 L744.35988,875.486895 C744.910881,875.58075 745.281646,876.104543 745.188006,876.656819 C745.15095,876.875374 745.074216,877.236153 744.950625,877.693542 C744.745259,878.453572 744.478319,879.214664 744.139556,879.93311 C743.271963,881.773095 742.080334,883.04986 740.499928,883.417815 L740.499961,887.981828 C742.12187,887.708284 743.508042,886.775028 744.68155,885.349483 C745.189789,884.732087 745.619218,884.066316 745.969289,883.401057 L746.128828,883.087271 C746.246477,882.847044 746.325969,882.662358 746.367983,882.551129 C746.565876,882.027226 747.150026,881.763313 747.67272,881.961663 C748.195414,882.160013 748.458718,882.745515 748.260825,883.269418 C748.173996,883.499291 748.008443,883.874384 747.759501,884.347461 C747.348673,885.12818 746.845432,885.908387 746.242699,886.640571 C744.701166,888.513185 742.789614,889.750853 740.49992,890.032741 L740.499697,894.59893 C743.02288,894.382398 745.213004,893.344206 747.082756,891.726719 C747.827384,891.082556 748.465862,890.391437 748.995948,889.702192 C749.308841,889.295353 749.511934,888.986956 749.604152,888.826757 C749.883466,888.341536 750.502336,888.175139 750.986438,888.455099 C751.470539,888.735059 751.636551,889.355361 751.357237,889.840582 L751.233849,890.043779 C751.08847,890.273219 750.877044,890.579094 750.598923,890.940722 C749.989474,891.733158 749.259126,892.523721 748.405172,893.26246 C746.187388,895.181024 743.548815,896.413194 740.50019,896.634064 L740.499267,901.181852 C745.267427,900.919347 749.744477,898.73149 752.890678,895.092766 C753.256714,894.669429 753.895835,894.623663 754.318195,894.990546 C754.740555,895.357428 754.786215,895.998028 754.420179,896.421365 C750.889549,900.504699 745.855109,902.948603 740.499869,903.21325 L740.499075,907.771527 C746.303813,907.629234 751.874592,905.387111 756.171881,901.441023 C756.583982,901.062601 757.22412,901.090676 757.601668,901.503731 C757.979217,901.916785 757.951206,902.558403 757.539105,902.936825 C752.86831,907.225895 746.809707,909.65804 740.499114,909.800728 L740.50027,914.354278 C745.577405,914.212495 750.141477,913.008852 754.137279,911.08335 C755.62431,910.366777 756.92265,909.600379 758.022735,908.836433 C758.328101,908.624373 758.599538,908.42524 758.836434,908.242402 L759.281538,907.883997 C759.295223,907.872243 759.306609,907.862295 759.315687,907.854207 C759.733415,907.482035 760.373059,907.519748 760.744373,907.938442 C761.115686,908.357136 761.07806,908.99826 760.660332,909.370432 L760.472517,909.531645 C760.185347,909.77069 759.751536,910.10385 759.175392,910.50395 C757.990471,911.32681 756.60063,912.14722 755.014249,912.911667 C750.757422,914.962953 745.898038,916.24112 740.500064,916.383683 L740.499314,932.985679 C740.499314,933.545873 740.046235,934 739.487334,934 C738.965693,934 738.536235,933.604405 738.481293,933.096201 L738.475355,932.985679 L738.474761,916.383735 C733.066816,916.241421 728.209131,914.963064 723.962621,912.911202 C722.380063,912.146529 720.994967,911.325839 719.815228,910.502655 L719.411611,910.215378 C718.909118,909.850205 718.549616,909.558749 718.337157,909.368189 C717.920665,908.994628 717.885165,908.353382 718.257864,907.935927 C718.630564,907.518472 719.27033,907.482889 719.686821,907.85645 L719.904136,908.038995 L719.99247,908.110149 C720.265174,908.328085 720.59193,908.572804 720.971603,908.837727 C722.065986,909.601351 723.358978,910.367468 724.841521,911.083815 C728.82653,913.009324 733.388317,914.212922 738.47514,914.354352 L738.475708,909.800479 C732.183571,909.65286 726.144573,907.220358 721.493483,902.935735 C721.081982,902.556658 721.054989,901.914995 721.433192,901.502543 C721.811395,901.09009 722.451576,901.063035 722.863077,901.442113 C727.140413,905.38243 732.690664,907.624082 738.475903,907.771238 L738.475315,903.214546 C733.124288,902.956613 728.093945,900.50958 724.577895,896.419133 C724.213089,895.99473 724.260608,895.354267 724.684031,894.988617 C725.107454,894.622967 725.746439,894.670595 726.111245,895.094998 C729.242627,898.737937 733.713499,900.927172 738.475188,901.183278 L738.474927,896.633009 C735.42672,896.409289 732.791657,895.177893 730.579612,893.262081 C729.726391,892.523121 728.997286,891.732304 728.389393,890.939595 C728.019475,890.457213 727.768026,890.073945 727.633303,889.838814 C727.354963,889.353031 727.52222,888.733065 728.006882,888.454081 C728.491543,888.175098 729.110079,888.342742 729.388419,888.828524 L729.477878,888.975523 C729.588031,889.148753 729.760229,889.398348 729.994097,889.703318 C730.522441,890.392291 731.159392,891.083155 731.902905,891.727098 C733.766688,893.341287 735.952823,894.378527 738.475346,894.597708 L738.474948,890.032736 C736.185482,889.750741 734.277751,888.5123 732.743057,886.63865 C732.143053,885.906127 731.642808,885.125597 731.235022,884.344565 C730.987923,883.871297 730.823834,883.496032 730.737888,883.265997 C730.541881,882.741382 730.807289,882.156836 731.330692,881.960375 C731.854096,881.763915 732.437294,882.029936 732.633301,882.55455 L732.701007,882.721996 C732.772376,882.889004 732.881214,883.122296 733.02827,883.403953 C733.375446,884.068899 733.801935,884.734347 734.307362,885.351404 C735.474194,886.775946 736.85534,887.708453 738.475196,887.981845 L738.474816,883.407691 C736.915562,883.02664 735.741329,881.754868 734.888509,879.929943 C734.552641,879.21123 734.288825,878.449921 734.086601,877.689693 L733.993498,877.322289 C733.925107,877.037611 733.879344,876.808882 733.853523,876.652719 C733.762143,876.100064 734.135046,875.577798 734.686426,875.486207 C735.237806,875.394615 735.758866,875.768381 735.850247,876.321036 L735.904126,876.597589 C735.937285,876.751445 735.982983,876.944292 736.042244,877.167074 C736.215687,877.819104 736.44126,878.470054 736.721368,879.069448 C737.217841,880.131836 737.803357,880.870863 738.47522,881.236113 L738.475355,875.014321 C738.475355,874.454127 738.928433,874 739.487334,874 Z" id="Combined-Shape" fill="#163253"></path>
                        <g id="Group-20" transform="translate(432.000000, 928.000000)" fill="url(#linearGradient-46)">
                            <path d="M39.9344312,41.9290431 C202.234933,-36.9561525 864.89572,5.88980435 1022,84.775 C1126.73619,137.36513 1159.06952,182.44013 1119,220 L374.951007,232.601618 C43.4062886,158.076698 -68.2659032,94.5191736 39.9344312,41.9290431 Z" id="Rectangle"></path>
                        </g>
                        <path d="M1403.15734,1010.07712 C1401.95412,1010.31182 1401.16832,1011.48091 1401.4022,1012.68834 C1401.51633,1013.27756 1401.8522,1013.76703 1402.30604,1014.08651 L1402.09226,1015.10045 C1402.04112,1015.34815 1401.98929,1015.60313 1401.93689,1015.86519 L1401.85788,1016.26355 C1401.25329,1019.33647 1400.70318,1022.68912 1400.26576,1026.21139 C1399.40408,1033.14981 1399.0865,1039.87031 1399.49504,1046.03596 C1400.12799,1055.58849 1402.42938,1063.09358 1406.64933,1068.02004 C1400.7715,1064.05928 1396.80882,1057.88195 1394.50208,1049.88403 C1392.5131,1042.98784 1391.92026,1035.27323 1392.31673,1027.48464 C1392.41353,1025.58295 1392.56475,1023.80841 1392.75023,1022.19688 L1392.81329,1021.66579 L1392.92475,1020.80218 L1392.92475,1020.80218 L1393.00597,1020.23374 C1393.73005,1019.75084 1394.13282,1018.86275 1393.95658,1017.9529 C1393.72269,1016.74546 1392.55769,1015.95691 1391.35447,1016.19161 C1390.15125,1016.42631 1389.36545,1017.59539 1389.59933,1018.80282 C1389.77989,1019.73496 1390.51537,1020.41745 1391.39496,1020.57223 L1391.31659,1021.16937 C1391.30385,1021.26979 1391.29108,1021.37218 1391.2783,1021.47652 C1391.05972,1023.26163 1390.88172,1025.25415 1390.77221,1027.40547 C1390.36769,1035.35222 1390.97312,1043.23062 1393.01652,1050.3155 C1396.24637,1061.51403 1402.67108,1069.36282 1412.83907,1072.74978 C1415.95697,1074.20081 1419.65127,1074.85471 1423.9601,1074.63014 L1424.03575,1074.63448 L1423.86271,1074.57033 C1424.80102,1074.93072 1425.72255,1075.06108 1426.62386,1074.97389 C1427.67296,1074.98071 1428.69189,1074.81045 1429.68159,1074.47375 C1430.19004,1074.41629 1430.69434,1074.34697 1431.19494,1074.2662 C1442.14597,1072.91938 1452.15963,1067.81816 1461.03022,1060.26076 C1463.78448,1057.91424 1466.21099,1055.50247 1468.28909,1053.15755 C1468.73824,1052.65073 1469.15123,1052.16916 1469.52746,1051.71669 C1469.87658,1051.83268 1470.25908,1051.86286 1470.64553,1051.78748 C1471.84875,1051.55278 1472.63455,1050.38369 1472.40067,1049.17626 C1472.16679,1047.96883 1471.00178,1047.18027 1469.79856,1047.41497 C1468.59534,1047.64967 1467.80954,1048.81876 1468.04342,1050.02619 C1468.09426,1050.28866 1468.18911,1050.53134 1468.31877,1050.74802 C1467.95874,1051.18037 1467.56334,1051.64112 1467.13344,1052.12622 C1465.10127,1054.41931 1462.72565,1056.78049 1460.02931,1059.07768 C1455.20596,1063.18698 1450.04389,1066.54822 1444.57978,1068.94541 C1449.2225,1065.8849 1453.43706,1061.69793 1457.22859,1056.62064 C1459.61923,1053.4193 1461.65439,1050.0938 1463.34018,1046.8358 C1463.85689,1045.8372 1464.3081,1044.90691 1464.69425,1044.06097 L1464.85575,1043.70364 C1465.00332,1043.37385 1465.12986,1043.08137 1465.23547,1042.82922 L1465.36557,1042.51179 C1465.52243,1042.11319 1465.32759,1041.66245 1464.93037,1041.50504 C1464.53316,1041.34764 1464.08399,1041.54317 1463.92714,1041.94177 L1463.80975,1042.22789 L1463.6058,1042.70412 L1463.44491,1043.06796 L1463.44491,1043.06796 C1463.03654,1043.98067 1462.54425,1045.00626 1461.96764,1046.12062 C1460.31878,1049.30726 1458.32731,1052.56137 1455.99099,1055.68997 C1450.16713,1063.48878 1443.35323,1069.09207 1435.53044,1071.6241 C1442.20462,1068.22568 1447.28825,1062.13911 1450.97578,1054.12491 C1452.68175,1050.41728 1453.95614,1046.55718 1454.86305,1042.76879 C1455.13523,1041.63179 1455.35712,1040.57038 1455.5336,1039.60227 C1456.51749,1039.22165 1457.11841,1038.17642 1456.91005,1037.10075 C1456.67617,1035.89331 1455.51117,1035.10476 1454.30795,1035.33946 C1453.10473,1035.57416 1452.31892,1036.74324 1452.5528,1037.95068 C1452.70584,1038.74073 1453.25753,1039.35145 1453.95773,1039.61351 C1453.79644,1040.4744 1453.59777,1041.41009 1453.3593,1042.40628 C1452.47467,1046.10158 1451.23162,1049.86678 1449.5717,1053.47432 C1446.27599,1060.63697 1441.85858,1066.16314 1436.16104,1069.50492 C1438.49903,1066.61186 1440.63036,1062.6588 1442.56733,1057.85648 C1443.90116,1054.54951 1445.04085,1051.06692 1445.9887,1047.62216 L1446.22857,1046.7354 L1446.45061,1045.88505 C1446.52166,1045.60795 1446.58973,1045.33734 1446.65485,1045.07364 L1446.88969,1044.09846 L1447.12738,1043.04193 C1447.2148,1042.62244 1446.94681,1042.21126 1446.52879,1042.12353 C1446.11077,1042.0358 1445.70102,1042.30473 1445.6136,1042.72421 L1445.4704,1043.37096 C1445.43009,1043.54742 1445.38556,1043.73875 1445.33681,1043.94424 L1445.15354,1044.70108 C1444.96145,1045.47898 1444.74293,1046.31879 1444.49796,1047.20909 C1443.56485,1050.60026 1442.44316,1054.02782 1441.13377,1057.27421 L1440.83942,1057.99349 C1438.35445,1063.97775 1435.57914,1068.44763 1432.54142,1070.99232 C1435.75785,1066.79249 1438.55911,1059.49676 1440.99639,1049.97273 C1442.28467,1044.93857 1443.38682,1039.60286 1444.30413,1034.30368 L1444.60981,1032.49643 L1444.79657,1031.34691 L1444.79657,1031.34691 L1444.97968,1030.18036 C1445.1076,1030.1689 1445.23617,1030.15074 1445.36501,1030.12561 C1447.39019,1029.73058 1448.71281,1027.76285 1448.31916,1025.73057 C1447.9255,1023.69829 1445.96464,1022.37104 1443.93945,1022.76608 C1441.91426,1023.16111 1440.59165,1025.12884 1440.9853,1027.16112 C1441.24965,1028.52581 1442.22067,1029.57258 1443.44332,1029.99342 L1443.2711,1031.09092 C1443.12184,1032.02588 1442.95824,1033.01078 1442.78041,1034.03807 C1441.86961,1039.29967 1440.77548,1044.59656 1439.49846,1049.58671 L1439.22884,1050.6252 L1438.95625,1051.64498 C1436.58101,1060.40105 1433.87312,1067.01375 1430.87832,1070.59216 C1430.27397,1071.31429 1429.66932,1071.90007 1429.0619,1072.34852 C1428.69281,1072.43566 1428.31964,1072.51616 1427.94237,1072.58929 C1429.32738,1070.75801 1430.55739,1067.74214 1431.69812,1063.67541 L1431.95479,1062.73626 C1433.31353,1057.63554 1434.50994,1051.07147 1435.55532,1043.39008 C1436.43299,1036.94099 1437.1552,1030.0766 1437.73221,1023.24092 L1437.90519,1021.1365 L1438.01084,1019.79028 C1438.07871,1018.90868 1438.14148,1018.05941 1438.19921,1017.24604 L1438.34718,1015.06989 L1438.40502,1014.14156 C1438.42991,1013.71373 1438.10446,1013.34666 1437.67813,1013.32169 C1437.25179,1013.29672 1436.886,1013.6233 1436.86111,1014.05113 L1436.76547,1015.55512 L1436.69878,1016.5349 C1436.6025,1017.9213 1436.49091,1019.42024 1436.36359,1021.01262 L1436.19119,1023.10993 C1435.61625,1029.92114 1434.89671,1036.76018 1434.02301,1043.18008 L1433.82682,1044.59571 C1432.80419,1051.84128 1431.64202,1058.01812 1430.33625,1062.79683 L1430.20944,1063.25491 C1428.58816,1069.03481 1426.80298,1072.3757 1425.10172,1072.99217 L1424.80079,1073.01858 L1424.80079,1073.01858 L1424.30071,1073.05559 L1424.23509,1072.90466 L1424.23509,1072.90466 C1424.11604,1072.6266 1424.02216,1072.18191 1423.96509,1071.5895 C1423.86182,1070.51745 1423.8821,1069.01768 1424.02016,1067.1313 L1424.07744,1066.40587 C1424.40334,1062.54687 1425.16055,1057.34927 1426.26226,1051.13472 L1426.36995,1050.53015 C1426.60258,1049.23025 1426.8484,1047.8957 1427.10625,1046.53076 C1427.85407,1042.57205 1428.67403,1038.50553 1429.5193,1034.50089 L1429.94382,1032.50451 L1430.48063,1030.02194 C1430.52358,1029.82526 1430.56604,1029.63124 1430.608,1029.43996 L1430.95239,1027.8947 C1431.91455,1027.50172 1432.49767,1026.46939 1432.29196,1025.4074 C1432.05808,1024.19997 1430.89308,1023.41141 1429.68986,1023.64611 C1428.48663,1023.88081 1427.70083,1025.04989 1427.93471,1026.25733 C1428.08912,1027.05447 1428.64937,1027.66904 1429.35852,1027.92713 L1428.99146,1029.59124 C1428.81275,1030.40914 1428.62567,1031.27343 1428.43183,1032.17835 C1427.4349,1036.83237 1426.4618,1041.6096 1425.58678,1046.24171 L1425.20782,1048.27306 L1425.02537,1049.27071 L1425.02537,1049.27071 L1424.60042,1051.64984 L1424.24889,1053.67888 C1422.75606,1062.43546 1422.06208,1068.47482 1422.44039,1071.74387 C1419.04543,1068.04258 1418.35433,1058.51193 1419.95976,1044.8583 C1420.40673,1041.05695 1421.02111,1037.03117 1421.77368,1032.85322 C1422.65057,1027.98513 1423.66715,1023.16461 1424.73493,1018.60865 L1424.9809,1017.56785 C1425.07082,1017.19059 1425.15934,1016.82268 1425.2463,1016.46453 C1425.63711,1016.5184 1426.04305,1016.5088 1426.45161,1016.42911 C1428.47679,1016.03407 1429.79941,1014.06635 1429.40576,1012.03407 C1429.0121,1010.00179 1427.05124,1008.67454 1425.02605,1009.06957 C1423.00086,1009.46461 1421.67825,1011.43234 1422.0719,1013.46461 C1422.27941,1014.53587 1422.92236,1015.41122 1423.78066,1015.94169 L1423.34272,1017.77196 L1423.34272,1017.77196 L1423.22947,1018.25335 C1422.1559,1022.83404 1421.13385,1027.68044 1420.25181,1032.57716 C1419.55707,1036.43406 1418.97897,1040.16421 1418.5401,1043.7131 L1418.42388,1044.67644 L1418.30022,1045.75934 C1416.95175,1057.93572 1417.41224,1066.82487 1420.27145,1071.44423 C1416.34271,1069.21361 1414.50631,1065.6025 1414.04579,1059.92339 C1413.79362,1056.81362 1413.9357,1053.07322 1414.45135,1047.88047 L1414.60984,1046.35591 L1414.94153,1043.48265 C1415.54531,1038.38003 1416.562,1030.183 1416.70618,1028.95176 C1416.75602,1028.52613 1416.45259,1028.14055 1416.02845,1028.09053 C1415.6043,1028.04051 1415.22006,1028.345 1415.17022,1028.77063 L1413.34832,1043.78682 C1413.20215,1045.0289 1413.08501,1046.05266 1413.01775,1046.69487 L1412.91168,1047.73422 L1412.81201,1048.77006 C1412.37053,1053.51583 1412.26065,1057.04402 1412.50435,1060.04926 C1412.90661,1065.00993 1414.34509,1068.60627 1417.15949,1071.12074 C1411.39117,1067.7302 1408.77687,1060.13726 1408.75305,1049.24972 C1408.74221,1044.29872 1409.28254,1038.90375 1410.24216,1033.30427 C1410.81353,1029.97026 1411.49798,1026.76959 1412.23037,1023.81776 L1412.42004,1023.06336 C1412.57595,1022.45152 1412.72621,1021.88218 1412.86883,1021.35887 L1413.11457,1020.47616 L1413.23503,1020.0612 C1413.35814,1019.65084 1413.12643,1019.21802 1412.7175,1019.09448 C1412.30856,1018.97094 1411.87726,1019.20345 1411.75415,1019.61382 L1411.67621,1019.88016 C1411.61406,1020.09546 1411.54271,1020.3479 1411.46318,1020.63571 L1411.28941,1021.27336 C1411.11205,1021.93306 1410.92432,1022.65821 1410.72966,1023.4428 C1409.98854,1026.42979 1409.29622,1029.66726 1408.718,1033.04123 C1407.74439,1038.72236 1407.19546,1044.20315 1407.20652,1049.25313 C1407.23023,1060.08751 1409.79314,1067.98611 1415.45044,1071.90021 C1414.81721,1071.7378 1414.19865,1071.55875 1413.59401,1071.36335 C1405.84985,1067.79622 1401.89899,1058.92452 1401.03817,1045.93299 C1400.63689,1039.8769 1400.94999,1033.2512 1401.80042,1026.40332 C1402.19701,1023.20988 1402.68736,1020.1567 1403.22681,1017.32954 L1403.37512,1016.56416 L1403.5507,1015.6878 C1403.63732,1015.26332 1403.72206,1014.85961 1403.80437,1014.47776 L1403.87557,1014.47088 L1404.0043,1014.44963 C1405.20752,1014.21492 1405.99333,1013.04584 1405.75944,1011.83841 C1405.52556,1010.63098 1404.36056,1009.84242 1403.15734,1010.07712 Z" id="Path" fill="#000000"></path>
                        <path d="M1555,944 C1558.86599,944 1562,947.134007 1562,951 C1562,954.592014 1559.29446,957.552116 1555.81005,957.953634 C1555.76088,980.743124 1557.09884,1060.58799 1578.79131,1070.27079 C1576.05621,1064.34106 1574.02103,1048.17636 1572.55363,1021.1674 C1572.52872,1020.71157 1572.50418,1020.25597 1572.48001,1019.80077 L1572.40862,1018.43657 C1571.52637,1001.33549 1571.16151,985.05268 1571.04518,978.72544 C1570.56333,978.903863 1570.04289,979 1569.5,979 C1567.01472,979 1565,976.985281 1565,974.5 C1565,972.014719 1567.01472,970 1569.5,970 C1571.98528,970 1574,972.014719 1574,974.5 C1574,975.704705 1573.5266,976.798842 1572.75569,977.606536 C1573.14443,1002.51307 1575.23873,1061.85753 1580.77809,1070.37338 L1580.94541,1070.33503 L1580.94541,1070.33503 C1581.17439,1070.28777 1581.41253,1070.33499 1581.60697,1070.46621 C1581.64758,1070.49362 1581.68558,1070.52421 1581.72069,1070.55758 L1581.94516,1070.51729 L1581.94516,1070.51729 C1582.2573,1070.45835 1582.57729,1070.5698 1582.78459,1070.80967 C1582.82,1070.85064 1582.8512,1070.89429 1582.87807,1070.94 C1583.70374,1070.60728 1584.42236,1070.02287 1584.92794,1069.25316 C1597.357,1052.73067 1579.18566,949.989304 1579.0214,948.96888 C1578.9802,948.510564 1579.28888,948.096116 1579.73239,948.014266 C1580.1759,947.932415 1580.60711,948.210316 1580.7256,948.654365 C1581.48531,952.917783 1599.20494,1053.20594 1586.31731,1070.31552 C1586.21163,1070.47053 1586.09967,1070.61991 1585.98189,1070.76336 C1586.44187,1070.65323 1586.89638,1070.52264 1587.3444,1070.37336 C1588.45787,1069.86769 1589.47795,1069.14967 1590.34116,1068.2423 C1605.03068,1053.96771 1601.09274,994.536308 1599.52899,976.540415 L1599.47926,975.983851 C1599.3209,975.994559 1599.16108,976 1599,976 C1595.13401,976 1592,972.865993 1592,969 C1592,965.134007 1595.13401,962 1599,962 C1602.86599,962 1606,965.134007 1606,969 C1606,972.087548 1604.00103,974.708213 1601.22669,975.638408 C1601.86762,982.817286 1603.01008,997.722549 1603,1013.58461 C1603,1039.04759 1600.17768,1056.49133 1594.63006,1065.59742 L1594.32917,1065.90758 C1608.00107,1052.17913 1609.22949,1015.91599 1609.26019,1004.37661 L1609.2605,1003.59506 C1609.25717,1001.87251 1609.22801,1000.868 1609.22508,1000.8003 C1609.21384,1000.35498 1609.5279,999.975077 1609.95306,999.895664 L1610.06154,999.882207 C1610.54524,999.870345 1610.9488,1000.25113 1610.9677,1000.73722 C1611.12711,1009.65902 1610.69631,1018.5816 1609.67816,1027.44593 C1607.40579,1046.67675 1602.65889,1060.03461 1595.56992,1067.15506 C1593.37255,1069.48533 1590.63856,1071.19199 1587.64253,1072.14732 C1586.46173,1072.62712 1585.19899,1072.91373 1583.9027,1072.98576 C1583.62116,1072.99905 1583.33938,1073.00304 1583.05783,1072.99772 L1583.00215,1073 L1583.00215,1073 L1581.30832,1073 L1581.30832,1073 C1580.88653,1072.98587 1580.47036,1072.96672 1580.0597,1072.94255 C1576.26948,1074.02806 1572.3659,1074.69219 1568.42293,1074.9218 C1563.79652,1075.22082 1559.19341,1074.65841 1554.83864,1073.30099 C1545.44945,1071.87581 1536.94234,1068.2692 1529.41263,1062.49319 C1501.06492,1040.81807 1494.48873,994.409861 1493.2515,982.641295 C1492.71432,982.873848 1492.12189,983 1491.5,983 C1489.01472,983 1487,980.985281 1487,978.5 C1487,976.014719 1489.01472,974 1491.5,974 C1493.98528,974 1496,976.014719 1496,978.5 C1496,979.637101 1495.57824,980.675696 1494.88263,981.467887 C1495.78239,991.078831 1501.78633,1039.1524 1530.46897,1061.08837 C1535.39876,1064.86522 1540.75687,1067.68417 1546.52102,1069.5423 C1545.54309,1068.94677 1544.58977,1068.3046 1543.66471,1067.6168 C1529.5282,1057.20699 1519.56727,1036.21993 1514.05607,1005.25563 C1511.77539,992.204652 1510.44686,979.009003 1510.0801,965.771549 C1508.29132,965.177775 1507,963.489689 1507,961.5 C1507,959.014719 1509.01472,957 1511.5,957 C1513.98528,957 1516,959.014719 1516,961.5 C1516,963.867611 1514.17155,965.808164 1511.84968,965.986615 C1512.35949,982.619922 1516.17397,1045.17342 1544.72618,1066.20045 C1548.00448,1068.61619 1551.51598,1070.4082 1555.24875,1071.57499 C1559.27278,1072.1772 1563.46608,1072.36706 1567.82208,1072.14475 C1563.1814,1071.0067 1558.84125,1068.75426 1555.20594,1065.52592 C1544.02409,1055.77484 1536.75271,1036.85536 1533.59614,1009.294 C1532.16883,996.527723 1531.6978,983.673258 1532.18696,970.837266 C1532.19781,970.601859 1532.30324,970.380693 1532.4795,970.223559 C1532.65576,970.066425 1532.88805,969.98653 1533.12407,970.00186 C1533.35965,970.014538 1533.58049,970.120125 1533.7378,970.295309 C1533.89512,970.470492 1533.97598,970.700862 1533.96253,970.935549 L1533.96047,970.977269 L1533.96047,970.977269 L1533.95093,971.182569 C1533.74453,975.79234 1531.21787,1042.27216 1556.38261,1064.1991 C1560.09368,1067.43398 1564.26053,1069.55043 1568.84931,1070.53898 C1551.6563,1063.30957 1549.05238,1040.49865 1544.89455,1004.11523 C1544.30206,998.964118 1543.69563,993.602753 1543.00555,987.996098 C1542.95195,987.512047 1543.29229,987.073425 1543.7723,987.007925 C1544.0048,986.976274 1544.24017,987.040234 1544.42516,987.185332 C1544.61014,987.33043 1544.72911,987.544404 1544.75514,987.77884 C1545.45219,993.455579 1546.05165,998.78891 1546.64414,1003.94703 C1551.34044,1045.08663 1553.86366,1067.16325 1576.05942,1070.73602 C1555.03292,1056.64368 1553.88028,980.387931 1554.008,957.927634 C1550.61181,957.448472 1548,954.529246 1548,951 C1548,947.134007 1551.13401,944 1555,944 Z" id="Combined-Shape" fill="#FFFFFF"></path>
                        <path d="M675.72017,990.403524 C674.152338,990.709346 673.128412,992.232695 673.433168,993.806017 C673.581886,994.573787 674.019531,995.211579 674.610895,995.627876 L674.332339,996.949074 C674.265696,997.271827 674.198163,997.604079 674.129886,997.945548 L674.026932,998.46463 C673.239135,1002.46873 672.522327,1006.83734 671.952348,1011.42697 C670.829564,1020.46794 670.415748,1029.22495 670.948084,1037.25898 C671.77284,1049.70621 674.771615,1059.48557 680.270334,1065.9049 C672.611346,1060.74392 667.447857,1052.69467 664.442108,1042.27313 C661.850406,1033.28719 661.07791,1023.23482 661.594523,1013.08605 C661.720661,1010.60809 661.917705,1008.2958 662.159386,1006.19594 L662.241563,1005.50391 L662.386795,1004.3786 L662.386795,1004.3786 L662.492626,1003.6379 C663.436122,1003.00866 663.960945,1001.85147 663.731297,1000.66589 C663.426541,999.092571 661.908509,998.06506 660.340676,998.370883 C658.772844,998.676706 657.748918,1000.20005 658.053674,1001.77338 C658.288944,1002.98798 659.247301,1003.87728 660.393437,1004.07896 L660.291315,1004.85706 C660.274711,1004.9879 660.258074,1005.12132 660.241426,1005.25728 C659.956603,1007.58334 659.724663,1010.17965 659.581967,1012.98288 C659.054864,1023.33775 659.843761,1033.60354 662.506374,1042.83535 C666.714964,1057.42737 675.086555,1067.65458 688.335757,1072.0679 C692.398473,1073.95863 697.212266,1074.81069 702.826795,1074.51806 L702.925365,1074.52371 L702.699894,1074.44013 C703.922535,1074.90973 705.123327,1075.07959 706.297759,1074.96598 C707.664767,1074.97486 708.992457,1074.75301 710.282068,1074.31428 C710.944601,1074.23941 711.601722,1074.14909 712.25401,1074.04383 C726.523538,1072.28889 739.571635,1065.64184 751.130292,1055.79432 C754.719173,1052.73674 757.880992,1049.59412 760.588812,1046.53863 C761.174069,1045.87823 761.712214,1045.25072 762.202442,1044.66114 C762.657357,1044.81229 763.155772,1044.8516 763.659324,1044.75338 C765.227156,1044.44756 766.251082,1042.92421 765.946326,1041.35088 C765.64157,1039.77756 764.123538,1038.75005 762.555705,1039.05587 C760.987873,1039.3617 759.963947,1040.88505 760.268703,1042.45837 C760.334951,1042.80038 760.458532,1043.1166 760.627494,1043.39893 C760.158355,1043.9623 759.643137,1044.56267 759.082967,1045.19477 C756.434992,1048.18273 753.339489,1051.25943 749.826067,1054.25273 C743.541096,1059.60728 736.814768,1063.98707 729.694865,1067.11068 C735.744476,1063.12274 741.236171,1057.667 746.176645,1051.05114 C749.291719,1046.87969 751.943596,1042.54646 754.140232,1038.30119 C754.813517,1036.99999 755.401462,1035.78779 755.904623,1034.68551 L756.115074,1034.2199 C756.30735,1033.79016 756.472245,1033.40906 756.609858,1033.0805 L756.779385,1032.66688 C756.983776,1032.14749 756.729885,1031.56016 756.212303,1031.35506 C755.694722,1031.14995 755.109448,1031.40473 754.905057,1031.92412 L754.752096,1032.29695 L754.486348,1032.91749 L754.276698,1033.39158 L754.276698,1033.39158 C753.744577,1034.58087 753.103113,1035.91725 752.351777,1037.3693 C750.203256,1041.52158 747.60831,1045.76178 744.564019,1049.83844 C736.975355,1060.00054 728.096639,1067.30179 717.903301,1070.60111 C726.59996,1066.17285 733.224088,1058.24187 738.029048,1047.79912 C740.251976,1042.96797 741.912542,1037.93814 743.094272,1033.00175 C743.448942,1031.52021 743.738061,1030.13717 743.968025,1028.87568 C745.250062,1028.37972 746.033078,1027.01776 745.76158,1025.61613 C745.456824,1024.0428 743.938791,1023.01529 742.370959,1023.32111 C740.803127,1023.62694 739.779201,1025.15029 740.083957,1026.72361 C740.283367,1027.75308 741.002234,1028.54886 741.914615,1028.89033 C741.70445,1030.0121 741.445585,1031.23133 741.134839,1032.52939 C739.982147,1037.34448 738.362408,1042.25065 736.199483,1046.95139 C731.905077,1056.28454 726.149058,1063.48531 718.72499,1067.83974 C721.771462,1064.07 724.548651,1058.91904 727.072576,1052.66147 C728.8106,1048.35239 730.295659,1043.81448 731.530735,1039.32584 L731.843283,1038.17037 L732.132612,1037.06234 C732.225187,1036.70127 732.313895,1036.34866 732.39874,1036.00505 L732.704746,1034.73436 L733.014459,1033.35766 C733.128381,1032.81106 732.779173,1032.27528 732.234482,1032.16096 C731.689792,1032.04664 731.155881,1032.39707 731.041959,1032.94367 L730.855368,1033.7864 C730.802842,1034.01633 730.744819,1034.26565 730.681296,1034.5334 L730.442486,1035.51959 C730.192193,1036.53322 729.90745,1037.62752 729.588244,1038.7876 C728.372383,1043.20641 726.91079,1047.67262 725.204605,1051.90276 L724.821059,1052.84 C721.583068,1060.63768 717.96676,1066.46206 714.008514,1069.77788 C718.199621,1064.30536 721.849747,1054.7988 725.025597,1042.38871 C726.704268,1035.82905 728.140405,1028.87645 729.335684,1021.97146 L729.733992,1019.61657 L729.97735,1018.1187 L729.97735,1018.1187 L730.215941,1016.59864 C730.382632,1016.58372 730.550166,1016.56006 730.71804,1016.52731 C733.356921,1016.01257 735.080331,1013.44856 734.567384,1010.80044 C734.054438,1008.15232 731.499377,1006.42288 728.860497,1006.93762 C726.221616,1007.45236 724.498206,1010.01637 725.011153,1012.66449 C725.355599,1014.44272 726.620876,1015.8067 728.21402,1016.35507 L727.989612,1017.78514 C727.795123,1019.00342 727.58195,1020.28678 727.350237,1021.62536 C726.163434,1028.48139 724.737748,1035.38339 723.07375,1041.88571 L722.722428,1043.2389 L722.367239,1044.5677 C719.272231,1055.97713 715.743756,1064.59367 711.841443,1069.25646 C711.053959,1070.1974 710.266087,1070.9607 709.474599,1071.54504 C708.99366,1071.65859 708.507406,1071.76348 708.015814,1071.85878 C709.82053,1069.47256 711.423269,1065.54278 712.909668,1060.24372 L713.244115,1059.01998 C715.014594,1052.37358 716.573563,1043.8204 717.935718,1033.81132 C719.079348,1025.40795 720.020412,1016.46345 720.772272,1007.55635 L720.99767,1004.81422 L721.135338,1003.06007 C721.223779,1001.91131 721.305563,1000.80469 721.380793,999.744843 L721.573598,996.909249 L721.648966,995.699611 C721.681393,995.142134 721.257333,994.663831 720.701802,994.631291 C720.146271,994.59875 719.669637,995.024295 719.63721,995.581771 L719.512586,997.541519 L719.425685,998.818209 C719.300226,1000.62472 719.15482,1002.57789 718.98892,1004.65281 L718.764283,1007.38567 C718.015115,1016.26088 717.077526,1025.17235 715.939071,1033.53768 L715.683433,1035.38229 C714.350913,1044.82348 712.83657,1052.8721 711.135113,1059.09889 L710.969871,1059.69579 C708.857302,1067.22717 706.531151,1071.58046 704.314359,1072.38374 L703.922238,1072.41814 L703.922238,1072.41814 L703.270624,1072.46638 L703.185116,1072.26971 L703.185116,1072.26971 C703.029998,1071.90738 702.907662,1071.32795 702.8333,1070.55601 C702.698733,1069.1591 702.725158,1067.20486 702.905055,1064.74685 L702.979695,1063.80158 C703.404347,1058.7732 704.391024,1052.00056 705.826582,1043.90281 L705.966905,1043.11504 C706.270028,1041.42124 706.590345,1039.68228 706.926324,1037.90371 C707.900753,1032.7454 708.969194,1027.4466 710.070601,1022.22843 L710.62377,1019.62708 L711.323251,1016.39223 C711.379205,1016.13595 711.434536,1015.88313 711.489217,1015.63388 L711.937962,1013.62037 C713.191683,1013.1083 713.951509,1011.76315 713.683462,1010.37934 C713.378706,1008.80602 711.860674,1007.7785 710.292841,1008.08433 C708.725009,1008.39015 707.701083,1009.9135 708.005839,1011.48682 C708.207038,1012.52552 708.937055,1013.32633 709.861096,1013.66262 L709.382814,1015.83101 C709.149941,1016.89675 708.906176,1018.02295 708.653594,1019.2021 C707.354567,1025.26642 706.08659,1031.4913 704.946404,1037.52707 L704.45261,1040.17398 L704.214881,1041.47396 L704.214881,1041.47396 L703.661151,1044.57404 L703.203094,1047.21793 C701.257893,1058.62803 700.353616,1066.49749 700.846566,1070.75716 C696.422828,1065.93428 695.522307,1053.51555 697.614233,1035.72446 C698.196653,1030.77118 698.997203,1025.52546 699.977826,1020.08147 C701.120434,1013.7382 702.445079,1007.45692 703.836422,1001.52037 L704.156937,1000.16416 C704.274093,999.67259 704.389437,999.193193 704.502751,998.726503 C705.011996,998.796704 705.540945,998.784195 706.073307,998.680352 C708.712187,998.165609 710.435597,995.601602 709.922651,992.953481 C709.409704,990.305359 706.854644,988.575915 704.215763,989.090657 C701.576883,989.6054 699.853473,992.169407 700.366419,994.817528 C700.636802,996.2134 701.474593,997.354015 702.592977,998.045236 L702.022329,1000.43012 L702.022329,1000.43012 L701.874765,1001.05739 C700.475869,1007.02617 699.144112,1013.34118 697.994783,1019.72176 C697.089515,1024.74741 696.336228,1029.60791 695.764376,1034.23222 L695.612936,1035.48749 L695.451801,1036.89853 C693.694703,1052.76473 694.29474,1064.34756 698.020376,1070.36672 C692.901108,1067.46016 690.50822,1062.75477 689.908149,1055.35472 C689.579562,1051.3026 689.764702,1046.42874 690.436614,1039.66243 L690.643123,1037.67588 L691.075327,1033.93193 C691.862069,1027.28307 693.186845,1016.60209 693.37472,1014.99775 C693.439667,1014.44315 693.044287,1013.94071 692.491613,1013.87554 C691.93894,1013.81036 691.438259,1014.20713 691.373312,1014.76174 L688.999324,1034.32828 C688.808858,1035.94675 688.65622,1037.28074 688.568588,1038.11756 L688.43037,1039.47186 L688.300497,1040.82159 C687.725238,1047.00547 687.582065,1051.60281 687.899608,1055.51873 C688.423767,1061.98263 690.298144,1066.66877 693.965391,1069.9452 C686.449097,1065.52723 683.04259,1055.6334 683.011544,1041.44661 C682.997426,1034.9953 683.701497,1027.96549 684.951906,1020.6692 C685.696417,1016.32488 686.588282,1012.15431 687.542606,1008.30799 L687.789754,1007.32499 C687.992905,1006.52773 688.188698,1005.78587 688.374538,1005.10398 L688.694742,1003.95378 L688.851703,1003.41308 C689.012119,1002.87836 688.710198,1002.31439 688.177345,1002.15341 C687.644491,1001.99243 687.082485,1002.29541 686.922069,1002.83013 L686.82052,1003.17718 C686.739538,1003.45772 686.646566,1003.78666 686.54293,1004.16169 L686.316503,1004.99257 C686.085403,1005.85217 685.840783,1006.79707 685.587127,1007.81941 C684.621437,1011.71154 683.719316,1015.93006 682.965881,1020.32645 C681.69724,1027.72913 680.981968,1034.87077 680.996369,1041.45105 C681.027263,1055.56858 684.366821,1065.86069 691.738446,1070.96089 C690.913336,1070.74926 690.107337,1070.51595 689.319472,1070.26134 C679.228593,1065.61326 674.080499,1054.05316 672.958824,1037.12481 C672.435947,1029.23354 672.843925,1020.60005 673.952059,1011.67705 C674.468825,1007.51591 675.107771,1003.53752 675.810698,999.853642 L676.003948,998.856332 L676.232729,997.71441 C676.345596,997.161295 676.456018,996.635255 676.563268,996.137681 L676.65605,996.128728 L676.823789,996.101028 C678.391621,995.795205 679.415547,994.271857 679.110791,992.698534 C678.806035,991.125212 677.288003,990.097701 675.72017,990.403524 Z" id="Path-Copy-2" fill="#000000"></path>
                    </g>
                </g>
            </g>
        </g>
    </g>
</svg>