<?xml version="1.0" encoding="UTF-8"?>
<svg width="42px" height="42px" viewBox="0 0 42 42" version="1.1" xmlns="http://www.w3.org/2000/svg" xmlns:xlink="http://www.w3.org/1999/xlink">
    <title>Group 14</title>
    <g id="Page-1" stroke="none" stroke-width="1" fill="none" fill-rule="evenodd">
        <g id="Dateam---Home---V2" transform="translate(-952.000000, -3706.000000)">
            <g id="Group-12" transform="translate(0.000000, 3621.000000)">
                <g transform="translate(-721.000000, 7.000000)" id="Group-17">
                    <g transform="translate(1550.000000, 0.000000)">
                        <g id="Group-2" transform="translate(123.000000, 78.000000)">
                            <g id="Group-14" transform="translate(-0.000000, 0.000000)">
                                <circle id="Oval" fill-opacity="0.198617788" fill="#A7A8C9" cx="20.7529408" cy="20.7529408" r="20.7529408"></circle>
                                <g id="icons8-facebook-f" transform="translate(13.835294, 9.223529)" fill="#163253" fill-rule="nonzero">
                                    <path d="M10.8411057,8.0705881 L8.0705881,8.0705881 L8.0705881,5.76470578 C8.0705881,4.57487051 8.16743516,3.82545876 9.87263513,3.82545876 L10.8733881,3.82545876 C11.5098116,3.82545876 12.0263292,3.30894112 12.0263292,2.6725176 L12.0263292,1.22672939 C12.0263292,0.623741166 11.5639998,0.108376469 10.9621645,0.0680235283 C10.2657881,0.0207529408 9.56825866,-0.00115294116 8.86957632,-4.31993314e-05 C5.74164696,-4.31993314e-05 3.45882347,1.9104235 3.45882347,5.4176705 L3.45882347,8.0705881 L1.15294116,8.0705881 C0.516517638,8.0705881 0,8.58710574 0,9.22352925 L0,11.5294116 C0,12.1658351 0.516517638,12.6823527 1.15294116,12.6823527 L3.45882347,12.6811998 L3.45882347,21.905882 C3.45882347,22.5423055 3.97534111,23.0588231 4.61176463,23.0588231 L6.91764694,23.0588231 C7.55407046,23.0588231 8.0705881,22.5423055 8.0705881,21.905882 L8.0705881,12.6788939 L10.5770822,12.677741 C11.1627763,12.677741 11.6550822,12.2384704 11.7219527,11.6562351 L11.9859763,9.35496455 C12.0655292,8.67127044 11.5305645,8.0705881 10.8411057,8.0705881 Z" id="Path"></path>
                                </g>
                            </g>
                        </g>
                    </g>
                </g>
            </g>
        </g>
    </g>
</svg>