<?xml version="1.0" encoding="UTF-8"?>
<svg width="20px" height="20px" viewBox="0 0 20 20" version="1.1" xmlns="http://www.w3.org/2000/svg" xmlns:xlink="http://www.w3.org/1999/xlink">
    <title>icons8-linkedin (1)</title>
    <g id="Page-1" stroke="none" stroke-width="1" fill="none" fill-rule="evenodd">
        <g id="Dateam---Qui-sommes-nous-?" transform="translate(-406.000000, -2512.000000)" fill="#FFFFFF" fill-rule="nonzero">
            <g id="icons8-linkedin-(1)" transform="translate(406.000000, 2512.000000)">
                <path d="M17.7777778,0 L2.22222222,0 C0.994444444,0 0,0.994444444 0,2.22222222 L0,17.7777778 C0,19.0055556 0.994444444,20 2.22222222,20 L17.7777778,20 C19.0055556,20 20,19.0055556 20,17.7777778 L20,2.22222222 C20,0.994444444 19.0055556,0 17.7777778,0 Z M5.26444444,15.5555556 L5.26444444,15.5555556 C4.49,15.5555556 3.86222222,14.9277778 3.86222222,14.1533333 L3.86222222,9.17888889 C3.86333333,8.40555556 4.49111111,7.77777778 5.26444444,7.77777778 L5.26444444,7.77777778 C6.03888889,7.77777778 6.66666667,8.40555556 6.66666667,9.18 L6.66666667,14.1544444 C6.66666667,14.9277778 6.03888889,15.5555556 5.26444444,15.5555556 Z M5.21555556,6.35222222 C4.35888889,6.35222222 3.78666667,5.78111111 3.78666667,5.01888889 C3.78666667,4.25666667 4.35777778,3.68555556 5.31,3.68555556 C6.16666667,3.68555556 6.73888889,4.25666667 6.73888889,5.01888889 C6.73888889,5.78111111 6.16777778,6.35222222 5.21555556,6.35222222 Z M15.31,15.5555556 L15.31,15.5555556 C14.5611111,15.5555556 13.9533333,14.9477778 13.9533333,14.1988889 L13.9533333,11.3044444 C13.9533333,10.1288889 13.23,10 12.9588889,10 C12.6877778,10 11.7833333,10.0388889 11.7833333,11.3044444 L11.7833333,14.1988889 C11.7833333,14.9477778 11.1755556,15.5555556 10.4266667,15.5555556 L10.3366667,15.5555556 C9.58777778,15.5555556 8.98,14.9477778 8.98,14.1988889 L8.98,9.18 C8.98,8.40555556 9.60777778,7.77777778 10.3822222,7.77777778 L10.3822222,7.77777778 C11.1566667,7.77777778 11.7844444,8.40555556 11.7844444,9.18 C11.7844444,9.18 12.0977778,7.77777778 14.2266667,7.77777778 C15.5811111,7.77777778 16.6666667,8.86333333 16.6666667,11.3044444 L16.6666667,14.1988889 C16.6666667,14.9477778 16.0588889,15.5555556 15.31,15.5555556 Z" id="Shape"></path>
            </g>
        </g>
    </g>
</svg>