<?xml version="1.0" encoding="UTF-8"?>
<svg width="43px" height="42px" viewBox="0 0 43 42" version="1.1" xmlns="http://www.w3.org/2000/svg" xmlns:xlink="http://www.w3.org/1999/xlink">
    <title>Group 10</title>
    <g id="Page-1" stroke="none" stroke-width="1" fill="none" fill-rule="evenodd">
        <g id="Dateam---Home---V2" transform="translate(-1081.000000, -3706.000000)">
            <g id="Group-12" transform="translate(0.000000, 3621.000000)">
                <g transform="translate(-721.000000, 7.000000)" id="Group-17">
                    <g transform="translate(1550.000000, 0.000000)">
                        <g id="Group-2" transform="translate(123.000000, 78.000000)">
                            <g id="Group-4" transform="translate(-0.000000, 0.000000)">
                                <g id="Group-10" transform="translate(129.294118, 0.000000)">
                                    <circle id="Oval-Copy-2" fill-opacity="0.198617788" fill="#A7A8C9" cx="20.7529408" cy="20.7529408" r="20.7529408"></circle>
                                    <g id="icons8-linkedin-(1)" transform="translate(10.376470, 10.376470)" fill="#163253" fill-rule="nonzero">
                                        <path d="M18.4470585,0 L2.30588231,0 C1.03188234,0 0,1.03188234 0,2.30588231 L0,18.4470585 C0,19.7210585 1.03188234,20.7529408 2.30588231,20.7529408 L18.4470585,20.7529408 C19.7210585,20.7529408 20.7529408,19.7210585 20.7529408,18.4470585 L20.7529408,2.30588231 C20.7529408,1.03188234 19.7210585,0 18.4470585,0 Z M5.4626352,16.1411762 L5.4626352,16.1411762 C4.65903521,16.1411762 4.00762346,15.4897644 4.00762346,14.6861645 L4.00762346,9.5244469 C4.0087764,8.72199985 4.66018816,8.0705881 5.4626352,8.0705881 L5.4626352,8.0705881 C6.26623519,8.0705881 6.91764694,8.72199985 6.91764694,9.52559984 L6.91764694,14.6873174 C6.91764694,15.4897644 6.26623519,16.1411762 5.4626352,16.1411762 Z M5.41190579,6.59136459 C4.52298816,6.59136459 3.92922346,5.99875284 3.92922346,5.20783521 C3.92922346,4.41691757 4.52183522,3.82430582 5.50990579,3.82430582 C6.39882342,3.82430582 6.99258812,4.41691757 6.99258812,5.20783521 C6.99258812,5.99875284 6.39997636,6.59136459 5.41190579,6.59136459 Z M15.8863762,16.1411762 L15.8863762,16.1411762 C15.1092939,16.1411762 14.478635,15.5105174 14.478635,14.733435 L14.478635,11.7300233 C14.478635,10.5102116 13.7280704,10.3764704 13.4467527,10.3764704 C13.1654351,10.3764704 12.226941,10.4168234 12.226941,11.7300233 L12.226941,14.733435 C12.226941,15.5105174 11.5962822,16.1411762 10.8191998,16.1411762 L10.7258116,16.1411762 C9.94872924,16.1411762 9.31807043,15.5105174 9.31807043,14.733435 L9.31807043,9.52559984 C9.31807043,8.72199985 9.96948218,8.0705881 10.7730822,8.0705881 L10.7730822,8.0705881 C11.5766822,8.0705881 12.2280939,8.72199985 12.2280939,9.52559984 C12.2280939,9.52559984 12.5532233,8.0705881 14.7622586,8.0705881 C16.1676938,8.0705881 17.2941174,9.19701161 17.2941174,11.7300233 L17.2941174,14.733435 C17.2941174,15.5105174 16.6634585,16.1411762 15.8863762,16.1411762 Z" id="Shape"></path>
                                    </g>
                                </g>
                            </g>
                        </g>
                    </g>
                </g>
            </g>
        </g>
    </g>
</svg>