<?xml version="1.0" encoding="UTF-8"?>
<svg width="43px" height="42px" viewBox="0 0 43 42" version="1.1" xmlns="http://www.w3.org/2000/svg" xmlns:xlink="http://www.w3.org/1999/xlink">
    <title>Group 12</title>
    <g id="Page-1" stroke="none" stroke-width="1" fill="none" fill-rule="evenodd">
        <g id="Dateam---Home---V2" transform="translate(-1017.000000, -3706.000000)">
            <g id="Group-12" transform="translate(0.000000, 3621.000000)">
                <g transform="translate(-721.000000, 7.000000)" id="Group-17">
                    <g transform="translate(1550.000000, 0.000000)">
                        <g id="Group-2" transform="translate(123.000000, 78.000000)">
                            <g id="Group-4" transform="translate(-0.000000, 0.000000)">
                                <g id="Group-12" transform="translate(65.058824, 0.000000)">
                                    <circle id="Oval-Copy" fill-opacity="0.198617788" fill="#A7A8C9" cx="20.7529408" cy="20.7529408" r="20.7529408"></circle>
                                    <g id="icons8-twitter-squared" transform="translate(9.223529, 12.682353)" fill="#163253" fill-rule="nonzero">
                                        <path d="M22.6368467,0.0357411759 C21.6971996,0.479623521 20.0980702,1.31204704 19.2944703,1.47115292 C19.2633408,1.4792235 19.2379761,1.48959997 19.2079997,1.49767056 C18.2706585,0.573011755 16.9862821,-5.12610787e-16 15.5647056,-5.12610787e-16 C12.6996468,-5.12610787e-16 10.3764704,2.32317643 10.3764704,5.18823521 C10.3764704,5.3392705 10.3637881,5.61712932 10.3764704,5.76470578 C6.66630577,5.76470578 3.95689405,3.82891758 1.92887056,1.34087057 C1.65792938,1.00651763 1.36969409,1.18061174 1.30974115,1.41811762 C1.17484704,1.9553882 1.12872939,2.85352936 1.12872939,3.49456465 C1.12872939,5.10983521 2.39119996,6.69628224 4.35696463,7.67974105 C3.99494111,7.77312928 3.59602347,7.83999987 3.18096465,7.83999987 C2.6921176,7.83999987 2.12948232,7.7120234 1.63717644,7.45376458 C1.45501174,7.35807046 1.06185881,7.38458811 1.17830586,7.85037634 C1.64524703,9.71698807 3.77588229,11.0278822 5.67938814,11.4095057 C5.2470352,11.6643057 4.32468228,11.6124233 3.90039993,11.6124233 C3.74359994,11.6124233 3.19825877,11.5755292 2.84545878,11.5317175 C2.52378819,11.4925175 2.02917644,11.5755292 2.44308231,12.2027292 C3.33199994,13.5482115 5.34272932,14.3933174 7.073294,14.4255998 C5.47992932,15.675388 2.8742823,16.1319527 0.378164699,16.1319527 C-0.126823527,16.1204233 -0.101458822,16.6957409 0.305529407,16.909035 C2.14677643,17.8751997 5.1628705,18.4470585 7.31771752,18.4470585 C15.8840703,18.4470585 20.7529408,11.9179527 20.7529408,5.76355284 C20.7529408,5.6643999 20.7506349,5.4568705 20.7471761,5.24818815 C20.7471761,5.22743521 20.7529408,5.20783521 20.7529408,5.18708226 C20.7529408,5.15595285 20.7437173,5.12597638 20.7437173,5.09484697 C20.7402585,4.93804697 20.7367996,4.79162345 20.7333408,4.71552933 C21.4124232,4.22552934 22.4523761,3.37465877 22.9781173,2.72324701 C23.1568231,2.50188231 23.0127055,2.23324702 22.7694349,2.31741173 C22.1433879,2.5353176 21.0607761,2.95729407 20.3828467,3.03799995 C21.7398585,2.13985879 22.4108702,1.35816468 22.9873408,0.489999992 C23.1844937,0.193694114 22.9377643,-0.107223528 22.6368467,0.0357411759 Z" id="Path"></path>
                                    </g>
                                </g>
                            </g>
                        </g>
                    </g>
                </g>
            </g>
        </g>
    </g>
</svg>