<?xml version="1.0" encoding="UTF-8"?>
<svg width="1440px" height="1015px" viewBox="0 0 1440 1015" version="1.1" xmlns="http://www.w3.org/2000/svg" xmlns:xlink="http://www.w3.org/1999/xlink">
    <!-- Generator: Sketch 63.1 (92452) - https://sketch.com -->
    <title>Group 2</title>
    <desc>Created with Sketch.</desc>
    <defs>
        <rect id="path-1" x="0" y="0" width="1440" height="1015"></rect>
        <linearGradient x1="52.869694%" y1="49.477946%" x2="41.3891009%" y2="54.5639047%" id="linearGradient-3">
            <stop stop-color="#CACBDF" offset="15%"></stop>
            <stop stop-color="#A7A8C9" offset="100%"></stop>
        </linearGradient>
        <linearGradient x1="0%" y1="50%" x2="100%" y2="50%" id="linearGradient-4">
            <stop stop-color="#A5AED5" offset="0%"></stop>
            <stop stop-color="#6978B9" offset="100%"></stop>
        </linearGradient>
        <linearGradient x1="0%" y1="50%" x2="100%" y2="50%" id="linearGradient-5">
            <stop stop-color="#F6E0D9" offset="0%"></stop>
            <stop stop-color="#E9B2A0" offset="100%"></stop>
        </linearGradient>
        <linearGradient x1="0%" y1="50%" x2="100.006483%" y2="50%" id="linearGradient-6">
            <stop stop-color="#CACBDF" offset="15%"></stop>
            <stop stop-color="#A7A8C9" offset="100%"></stop>
        </linearGradient>
        <linearGradient x1="0%" y1="50%" x2="100%" y2="50%" id="linearGradient-7">
            <stop stop-color="#163253" offset="0%"></stop>
            <stop stop-color="#738498" offset="100%"></stop>
        </linearGradient>
        <radialGradient cx="36.6085193%" cy="-8.05134189%" fx="36.6085193%" fy="-8.05134189%" r="108.518086%" gradientTransform="translate(0.366085,-0.080513),scale(0.417201,1.000000),translate(-0.366085,0.080513)" id="radialGradient-8">
            <stop stop-color="#000000" offset="0%"></stop>
            <stop stop-color="#000000" stop-opacity="0" offset="100%"></stop>
        </radialGradient>
        <linearGradient x1="0%" y1="50%" x2="99.9883721%" y2="50%" id="linearGradient-9">
            <stop stop-color="#A5AED5" offset="0%"></stop>
            <stop stop-color="#6978B9" offset="100%"></stop>
        </linearGradient>
        <linearGradient x1="0%" y1="50%" x2="100%" y2="50%" id="linearGradient-10">
            <stop stop-color="#163253" offset="0%"></stop>
            <stop stop-color="#738498" offset="100%"></stop>
        </linearGradient>
        <linearGradient x1="0%" y1="50%" x2="100%" y2="50%" id="linearGradient-11">
            <stop stop-color="#163253" offset="0%"></stop>
            <stop stop-color="#738498" offset="100%"></stop>
        </linearGradient>
        <linearGradient x1="0%" y1="50%" x2="100%" y2="50%" id="linearGradient-12">
            <stop stop-color="#CACBDF" offset="15%"></stop>
            <stop stop-color="#A7A8C9" offset="100%"></stop>
        </linearGradient>
        <linearGradient x1="0%" y1="50.0194477%" x2="100%" y2="50.0194477%" id="linearGradient-13">
            <stop stop-color="#A5AED5" offset="0%"></stop>
            <stop stop-color="#6978B9" offset="100%"></stop>
        </linearGradient>
        <linearGradient x1="0%" y1="50.0194477%" x2="100.005095%" y2="50.0194477%" id="linearGradient-14">
            <stop stop-color="#F6E0D9" offset="0%"></stop>
            <stop stop-color="#E9B2A0" offset="100%"></stop>
        </linearGradient>
        <linearGradient x1="0%" y1="50.0194477%" x2="100.010654%" y2="50.0194477%" id="linearGradient-15">
            <stop stop-color="#A5AED5" offset="0%"></stop>
            <stop stop-color="#6978B9" offset="100%"></stop>
        </linearGradient>
        <linearGradient x1="0%" y1="50%" x2="100%" y2="50%" id="linearGradient-16">
            <stop stop-color="#A5AED5" offset="0%"></stop>
            <stop stop-color="#6978B9" offset="100%"></stop>
        </linearGradient>
        <linearGradient x1="0%" y1="50%" x2="100%" y2="50%" id="linearGradient-17">
            <stop stop-color="#F6E0D9" offset="0%"></stop>
            <stop stop-color="#E9B2A0" offset="100%"></stop>
        </linearGradient>
        <linearGradient x1="0%" y1="50%" x2="100%" y2="50%" id="linearGradient-18">
            <stop stop-color="#CACBDF" offset="15%"></stop>
            <stop stop-color="#A7A8C9" offset="100%"></stop>
        </linearGradient>
        <linearGradient x1="0%" y1="50%" x2="100%" y2="50%" id="linearGradient-19">
            <stop stop-color="#F6E0D9" offset="0%"></stop>
            <stop stop-color="#E9B2A0" offset="100%"></stop>
        </linearGradient>
        <linearGradient x1="0%" y1="50%" x2="100%" y2="50%" id="linearGradient-20">
            <stop stop-color="#A5AED5" offset="0%"></stop>
            <stop stop-color="#6978B9" offset="100%"></stop>
        </linearGradient>
        <linearGradient x1="0%" y1="50%" x2="100%" y2="50%" id="linearGradient-21">
            <stop stop-color="#A5AED5" offset="0%"></stop>
            <stop stop-color="#6978B9" offset="100%"></stop>
        </linearGradient>
        <linearGradient x1="0%" y1="50%" x2="100.006555%" y2="50%" id="linearGradient-22">
            <stop stop-color="#163253" offset="0%"></stop>
            <stop stop-color="#738498" offset="100%"></stop>
        </linearGradient>
        <radialGradient cx="-17.4963277%" cy="-394.913295%" fx="-17.4963277%" fy="-394.913295%" r="466.566474%" gradientTransform="translate(-0.174963,-3.949133),scale(0.352946,1.000000),translate(0.174963,3.949133)" id="radialGradient-23">
            <stop stop-color="#000000" offset="0%"></stop>
            <stop stop-color="#000000" stop-opacity="0" offset="100%"></stop>
        </radialGradient>
        <linearGradient x1="0.50955414%" y1="2.50856943%" x2="55.2376286%" y2="45.0974042%" id="linearGradient-24">
            <stop stop-color="#000000" offset="0%"></stop>
            <stop stop-color="#000000" stop-opacity="0" offset="100%"></stop>
        </linearGradient>
        <linearGradient x1="0.499803998%" y1="2.49926058%" x2="55.2430419%" y2="45.0964433%" id="linearGradient-25">
            <stop stop-color="#000000" offset="0%"></stop>
            <stop stop-color="#000000" stop-opacity="0" offset="100%"></stop>
        </linearGradient>
        <linearGradient x1="0.50955414%" y1="2.50856943%" x2="55.2474277%" y2="45.0974042%" id="linearGradient-26">
            <stop stop-color="#000000" offset="0%"></stop>
            <stop stop-color="#000000" stop-opacity="0" offset="100%"></stop>
        </linearGradient>
        <linearGradient x1="0.509604077%" y1="2.50816699%" x2="55.2430419%" y2="45.0955006%" id="linearGradient-27">
            <stop stop-color="#000000" offset="0%"></stop>
            <stop stop-color="#000000" stop-opacity="0" offset="100%"></stop>
        </linearGradient>
        <linearGradient x1="50%" y1="-131.155193%" x2="50%" y2="41.7736289%" id="linearGradient-28">
            <stop stop-color="#000000" offset="0%"></stop>
            <stop stop-color="#000000" stop-opacity="0" offset="100%"></stop>
        </linearGradient>
        <linearGradient x1="50%" y1="-131.155193%" x2="50%" y2="41.7930766%" id="linearGradient-29">
            <stop stop-color="#000000" offset="0%"></stop>
            <stop stop-color="#000000" stop-opacity="0" offset="100%"></stop>
        </linearGradient>
        <linearGradient x1="50%" y1="-173.317775%" x2="50%" y2="30.5523143%" id="linearGradient-30">
            <stop stop-color="#000000" offset="0%"></stop>
            <stop stop-color="#000000" stop-opacity="0" offset="100%"></stop>
        </linearGradient>
        <linearGradient x1="49.9954975%" y1="-131.155193%" x2="49.9954975%" y2="41.7930766%" id="linearGradient-31">
            <stop stop-color="#000000" offset="0%"></stop>
            <stop stop-color="#000000" stop-opacity="0" offset="100%"></stop>
        </linearGradient>
        <linearGradient x1="49.9883721%" y1="-131.155193%" x2="49.9883721%" y2="41.7930766%" id="linearGradient-32">
            <stop stop-color="#000000" offset="0%"></stop>
            <stop stop-color="#000000" stop-opacity="0" offset="100%"></stop>
        </linearGradient>
        <linearGradient x1="50%" y1="-131.155193%" x2="50%" y2="41.7930766%" id="linearGradient-33">
            <stop stop-color="#000000" offset="0%"></stop>
            <stop stop-color="#000000" stop-opacity="0" offset="100%"></stop>
        </linearGradient>
        <linearGradient x1="50.0036114%" y1="-131.155193%" x2="50.0036114%" y2="41.7736289%" id="linearGradient-34">
            <stop stop-color="#000000" offset="0%"></stop>
            <stop stop-color="#000000" stop-opacity="0" offset="100%"></stop>
        </linearGradient>
        <linearGradient x1="49.9936314%" y1="-131.155193%" x2="49.9936314%" y2="41.7736289%" id="linearGradient-35">
            <stop stop-color="#000000" offset="0%"></stop>
            <stop stop-color="#000000" stop-opacity="0" offset="100%"></stop>
        </linearGradient>
        <linearGradient x1="50%" y1="-131.155193%" x2="50%" y2="41.7736289%" id="linearGradient-36">
            <stop stop-color="#000000" offset="0%"></stop>
            <stop stop-color="#000000" stop-opacity="0" offset="100%"></stop>
        </linearGradient>
        <linearGradient x1="50.0084048%" y1="-131.155193%" x2="50.0084048%" y2="41.7736289%" id="linearGradient-37">
            <stop stop-color="#000000" offset="0%"></stop>
            <stop stop-color="#000000" stop-opacity="0" offset="100%"></stop>
        </linearGradient>
        <linearGradient x1="50%" y1="-131.155193%" x2="50%" y2="41.7930766%" id="linearGradient-38">
            <stop stop-color="#000000" offset="0%"></stop>
            <stop stop-color="#000000" stop-opacity="0" offset="100%"></stop>
        </linearGradient>
        <linearGradient x1="50.0032776%" y1="-131.155193%" x2="50.0032776%" y2="41.7736289%" id="linearGradient-39">
            <stop stop-color="#000000" offset="0%"></stop>
            <stop stop-color="#000000" stop-opacity="0" offset="100%"></stop>
        </linearGradient>
        <linearGradient x1="49.9997288%" y1="47.9617389%" x2="50%" y2="55.3632702%" id="linearGradient-40">
            <stop stop-color="#CACBDF" offset="0%"></stop>
            <stop stop-color="#A7A8C9" offset="100%"></stop>
        </linearGradient>
        <linearGradient x1="34.2944622%" y1="49.7794314%" x2="111.892971%" y2="46.1821574%" id="linearGradient-41">
            <stop stop-color="#F6E0D9" offset="0%"></stop>
            <stop stop-color="#E9B2A0" offset="100%"></stop>
        </linearGradient>
        <linearGradient x1="51.7274797%" y1="49.9980827%" x2="88.4789615%" y2="49.9980827%" id="linearGradient-42">
            <stop stop-color="#F6E0D9" offset="0%"></stop>
            <stop stop-color="#E9B2A0" offset="100%"></stop>
        </linearGradient>
        <linearGradient x1="48.1770523%" y1="39.3720958%" x2="58.5011319%" y2="99.5770285%" id="linearGradient-43">
            <stop stop-color="#F6E0D9" offset="0%"></stop>
            <stop stop-color="#E9B2A0" offset="100%"></stop>
        </linearGradient>
        <linearGradient x1="0%" y1="49.9926429%" x2="100%" y2="49.9926429%" id="linearGradient-44">
            <stop stop-color="#CACBDF" offset="15%"></stop>
            <stop stop-color="#A7A8C9" offset="100%"></stop>
        </linearGradient>
        <linearGradient x1="0%" y1="49.9489121%" x2="100%" y2="49.9489121%" id="linearGradient-45">
            <stop stop-color="#A5AED5" offset="0%"></stop>
            <stop stop-color="#6978B9" offset="100%"></stop>
        </linearGradient>
        <linearGradient x1="0%" y1="50.0139297%" x2="100%" y2="50.0139297%" id="linearGradient-46">
            <stop stop-color="#CACBDF" offset="15%"></stop>
            <stop stop-color="#A7A8C9" offset="100%"></stop>
        </linearGradient>
        <linearGradient x1="0%" y1="50.0139297%" x2="100%" y2="50.0139297%" id="linearGradient-47">
            <stop stop-color="#CACBDF" offset="15%"></stop>
            <stop stop-color="#A7A8C9" offset="100%"></stop>
        </linearGradient>
        <linearGradient x1="3.96314406%" y1="50.0066819%" x2="100.018578%" y2="50.0066819%" id="linearGradient-48">
            <stop stop-color="#CACBDF" offset="15%"></stop>
            <stop stop-color="#A7A8C9" offset="100%"></stop>
        </linearGradient>
    </defs>
    <g id="Page-1" stroke="none" stroke-width="1" fill="none" fill-rule="evenodd">
        <g id="Dateam---Contactez-nous" transform="translate(0.000000, -792.000000)">
            <g id="Group-2" transform="translate(0.000000, 792.000000)">
                <mask id="mask-2" fill="white">
                    <use xlink:href="#path-1"></use>
                </mask>
                <use id="Mask" fill="#FFFFFF" xlink:href="#path-1"></use>
                <g id="Group-12" mask="url(#mask-2)">
                    <g transform="translate(-1063.000000, 86.000000)">
                        <g id="dateam-illustration-5" stroke-width="1" fill="none" fill-rule="evenodd">
                            <g id="Calque_3" transform="translate(0.000000, 72.000000)" fill-rule="nonzero">
                                <polygon id="Path" fill="url(#linearGradient-3)" opacity="0.3" points="374 610.81 773.23 424.01 883.12 456.98 1062.59 369.07 1301.09 422.74 1568.41 438.66 1725.42 438.66 2046.25 541.22 2568 857 1892 857 869.497163 855 4.54747351e-13 855"></polygon>
                                <rect id="Rectangle" fill="url(#linearGradient-4)" x="1371.37" y="190.14" width="154.26" height="51.42"></rect>
                                <rect id="Rectangle" fill="url(#linearGradient-5)" x="1502.08" y="241.56" width="126.83" height="51.42"></rect>
                                <rect id="Rectangle" fill="url(#linearGradient-6)" x="1337.21" y="241.56" width="154.26" height="51.42"></rect>
                                <rect id="Rectangle" fill="url(#linearGradient-7)" x="1427.32" y="138.72" width="123.25" height="51.42"></rect>
                                <rect id="Rectangle" fill="url(#radialGradient-8)" style="mix-blend-mode: multiply;" x="1427.32" y="138.72" width="123.25" height="51.42"></rect>
                                <rect id="Rectangle" fill="url(#linearGradient-9)" x="1394.71" y="395.82" width="86" height="51.42"></rect>
                                <rect id="Rectangle" fill="url(#linearGradient-10)" x="1271.42" y="395.82" width="111.05" height="51.42"></rect>
                                <rect id="Rectangle" fill="url(#linearGradient-4)" x="1104.92" y="395.82" width="154.26" height="51.42"></rect>
                                <rect id="Rectangle" fill="url(#linearGradient-11)" x="1410.35" y="292.98" width="170.04" height="51.42"></rect>
                                <rect id="Rectangle" fill="url(#linearGradient-12)" x="1245.33" y="292.98" width="154.26" height="51.42"></rect>
                                <rect id="Rectangle" fill="url(#linearGradient-13)" x="1170.95" y="447.24" width="154.26" height="51.42"></rect>
                                <rect id="Rectangle" fill="url(#linearGradient-14)" x="963.36" y="447.24" width="196.28" height="51.42"></rect>
                                <rect id="Rectangle" fill="url(#linearGradient-15)" x="1336.51" y="447.24" width="93.86" height="51.42"></rect>
                                <rect id="Rectangle" fill="url(#linearGradient-16)" x="1344.06" y="344.4" width="186.5" height="51.42"></rect>
                                <rect id="Rectangle" fill="url(#linearGradient-17)" x="1177.65" y="344.4" width="154.26" height="51.42"></rect>
                                <rect id="Rectangle" fill="url(#linearGradient-18)" x="1271.42" y="550.26" width="59.49" height="51.42"></rect>
                                <rect id="Rectangle" fill="url(#linearGradient-19)" x="1180.67" y="550.26" width="78.51" height="51.42"></rect>
                                <rect id="Rectangle" fill="url(#linearGradient-20)" x="1222.52" y="601.68" width="77.32" height="51.42"></rect>
                                <rect id="Rectangle" fill="url(#linearGradient-21)" x="1241.45" y="498.84" width="138.45" height="51.42"></rect>
                                <rect id="Rectangle" fill="url(#linearGradient-22)" x="1076.75" y="498.84" width="152.55" height="51.42"></rect>
                                <polygon id="Path" fill="url(#radialGradient-23)" style="mix-blend-mode: multiply;" points="1624.62 284.81 1502.08 284.81 1502.08 241.56 1593.83 241.56"></polygon>
                                <polygon id="Path" fill="url(#linearGradient-24)" opacity="0.7" style="mix-blend-mode: multiply;" points="1465.32 233.39 1529.37 233.39 1529.37 190.14 1427.32 190.14"></polygon>
                                <polygon id="Path" fill="url(#linearGradient-25)" opacity="0.7" style="mix-blend-mode: multiply;" points="1409.36 284.81 1473.41 284.81 1473.41 241.56 1371.37 241.56"></polygon>
                                <polygon id="Path" fill="url(#linearGradient-26)" opacity="0.7" style="mix-blend-mode: multiply;" points="1375.21 336.23 1439.26 336.23 1439.26 292.98 1337.21 292.98"></polygon>
                                <polygon id="Path" fill="url(#linearGradient-24)" opacity="0.7" style="mix-blend-mode: multiply;" points="1283.33 387.65 1347.38 387.65 1347.38 344.4 1245.33 344.4"></polygon>
                                <polygon id="Path" fill="url(#linearGradient-24)" opacity="0.7" style="mix-blend-mode: multiply;" points="1215.64 439.07 1279.7 439.07 1279.7 395.82 1177.65 395.82"></polygon>
                                <polygon id="Path" fill="url(#linearGradient-27)" opacity="0.7" style="mix-blend-mode: multiply;" points="1142.91 490.49 1206.96 490.49 1206.96 447.25 1104.92 447.25"></polygon>
                                <rect id="Rectangle" fill="url(#linearGradient-28)" style="mix-blend-mode: multiply;" x="1410.35" y="292.98" width="170.04" height="51.42"></rect>
                                <rect id="Rectangle" fill="url(#linearGradient-29)" style="mix-blend-mode: multiply;" x="1344.06" y="344.4" width="186.5" height="51.42"></rect>
                                <rect id="Rectangle" fill="url(#linearGradient-30)" style="mix-blend-mode: multiply;" x="1344.06" y="344.65" width="186.5" height="51.42"></rect>
                                <rect id="Rectangle" fill="url(#linearGradient-31)" style="mix-blend-mode: multiply;" x="1271.42" y="395.82" width="111.05" height="51.42"></rect>
                                <rect id="Rectangle" fill="url(#linearGradient-32)" style="mix-blend-mode: multiply;" x="1394.71" y="395.82" width="86" height="51.42"></rect>
                                <rect id="Rectangle" fill="url(#linearGradient-33)" style="mix-blend-mode: multiply;" x="1170.95" y="447.24" width="154.26" height="51.42"></rect>
                                <rect id="Rectangle" fill="url(#linearGradient-34)" style="mix-blend-mode: multiply;" x="1241.45" y="498.84" width="138.45" height="51.42"></rect>
                                <rect id="Rectangle" fill="url(#linearGradient-35)" style="mix-blend-mode: multiply;" x="1180.67" y="550.26" width="78.51" height="51.42"></rect>
                                <rect id="Rectangle" fill="url(#linearGradient-36)" style="mix-blend-mode: multiply;" x="1222.52" y="601.68" width="77.32" height="51.42"></rect>
                                <rect id="Rectangle" fill="url(#linearGradient-37)" style="mix-blend-mode: multiply;" x="1271.42" y="550.26" width="59.49" height="51.42"></rect>
                                <rect id="Rectangle" fill="url(#linearGradient-38)" style="mix-blend-mode: multiply;" x="1336.51" y="447.24" width="93.86" height="51.42"></rect>
                                <rect id="Rectangle" fill="url(#linearGradient-39)" style="mix-blend-mode: multiply;" x="1076.75" y="498.84" width="152.55" height="51.42"></rect>
                                <polygon id="Path" fill="url(#linearGradient-40)" points="973.16 498.53 1281.14 651.47 1638.33 283.63 1945.73 541.91 2145.67339 857 395 857 479.99 812.93"></polygon>
                                <polygon id="Path-Copy-4" fill="#000000" points="1065.48561 673 1090.00393 622 1114.51439 673"></polygon>
                                <polygon id="Path-Copy-5" fill="#000000" points="1052.80576 723 1090.00391 646 1127.19424 723"></polygon>
                                <polygon id="Path-Copy-6" fill="#000000" points="1041.81655 782 1090 681 1138.18345 782"></polygon>
                                <polygon id="Path-Copy-7" fill="#000000" points="1024.06475 857 1090.00392 719 1155.93525 857"></polygon>
                                <polygon id="Path" fill="url(#linearGradient-41)" points="1126.9 574.88 973.16 498.53 751.3 639.97 974.65 543.77"></polygon>
                                <polygon id="Path" fill="url(#linearGradient-42)" points="1638.33 283.63 1385.09 544.42 1644.28 381.65 1828.8 443.67"></polygon>
                                <g id="Group-19" transform="translate(1809.620000, 14.000000)" fill="#000000">
                                    <polygon id="Path" points="260.46 464.75 310.7 360 360.94 464.75"></polygon>
                                    <polygon id="Path" points="234.13 569.45 310.7 409.81 387.27 569.45"></polygon>
                                    <polygon id="Path" points="212.07 688.72 310.7 483.09 409.33 688.72"></polygon>
                                    <polygon id="Path" points="175.23 842.96 310.7 560.52 446.17 842.96"></polygon>
                                    <polygon id="Path" points="464.9 608.02 496.09 543 527.27 608.02"></polygon>
                                    <polygon id="Path" points="448.56 673.01 496.09 573.92 543.61 673.01"></polygon>
                                    <polygon id="Path" points="434.87 747.04 496.09 619.4 557.31 747.04"></polygon>
                                    <polygon id="Path" points="411.99 842.79 496.09 667.46 580.18 842.79"></polygon>
                                    <path d="M397.78,488.34 C402.90399,488.758904 407.948817,489.862039 412.78,491.62 C415.264081,492.50191 417.634144,493.67687 419.84,495.12 C420.993677,495.868557 422.05443,496.751398 423,497.75 C424.011915,498.805286 424.812936,500.044153 425.36,501.4 L422.5,501.65 C422.802231,500.208678 423.220253,498.794089 423.75,497.42 C424,496.73 424.29,496.08 424.56,495.42 L425.47,493.42 C426.789139,490.850233 428.414276,488.449463 430.31,486.27 C431.254191,485.193579 432.25564,484.168763 433.31,483.2 C434.413099,482.283867 435.56837,481.432439 436.77,480.65 C439.159514,479.122059 441.765359,477.962408 444.5,477.21 C442.074691,478.532193 439.789675,480.09686 437.68,481.88 C436.62239,482.746063 435.620405,483.67791 434.68,484.67 C433.81,485.67 432.88,486.67 432.11,487.79 C430.505368,489.943756 429.124873,492.25575 427.99,494.69 C426.850809,497.087605 425.965979,499.597978 425.35,502.18 L425.35,502.27 C425.162027,503.065148 424.365251,503.557538 423.57,503.37 C423.090588,503.224576 422.715424,502.849412 422.57,502.37 C421.88,500.37 420.13,498.75 418.24,497.37 C417.268864,496.636357 416.249943,495.968212 415.19,495.37 C414.12,494.78 413.03,494.19 411.9,493.66 C407.309363,491.592779 402.593411,489.815948 397.78,488.34 L397.78,488.34 Z" id="Path"></path>
                                    <path d="M130.38,106.83 C135.50399,107.248904 140.548817,108.352039 145.38,110.11 C147.864081,110.99191 150.234144,112.16687 152.44,113.61 C153.593677,114.358557 154.65443,115.241398 155.6,116.24 C156.611915,117.295286 157.412936,118.534153 157.96,119.89 L155.1,120.14 C155.402231,118.698678 155.820253,117.284089 156.35,115.91 C156.6,115.22 156.89,114.57 157.16,113.91 L158.07,111.91 C159.389139,109.340233 161.014276,106.939463 162.91,104.76 C163.854191,103.683579 164.85564,102.658763 165.91,101.69 C167.013099,100.773867 168.16837,99.9224394 169.37,99.14 C171.759514,97.6120594 174.365359,96.4524081 177.1,95.7 C174.674691,97.0221932 172.389675,98.5868597 170.28,100.37 C169.22239,101.236063 168.220405,102.16791 167.28,103.16 C166.41,104.16 165.48,105.16 164.71,106.28 C163.105368,108.433756 161.724873,110.74575 160.59,113.18 C159.450809,115.577605 158.565979,118.087978 157.95,120.67 L157.95,120.76 C157.762027,121.555148 156.965251,122.047538 156.17,121.86 C155.690588,121.714576 155.315424,121.339412 155.17,120.86 C154.48,118.86 152.73,117.24 150.84,115.86 C149.868864,115.126357 148.849943,114.458212 147.79,113.86 C146.72,113.27 145.63,112.68 144.5,112.15 C139.909363,110.082779 135.193411,108.305948 130.38,106.83 L130.38,106.83 Z" id="Path-Copy-3"></path>
                                    <path d="M0.38,538.77 C6.10332776,539.388157 11.7814838,540.370144 17.38,541.71 C23.0030751,543.026668 28.532024,544.717089 33.93,546.77 C36.6540707,547.789548 39.3242239,548.947727 41.93,550.24 C44.5846662,551.528047 47.1414966,553.008669 49.58,554.67 C52.1011758,556.347741 54.4287078,558.299648 56.52,560.49 C58.740467,562.788675 60.4779809,565.508854 61.63,568.49 L56.86,568.89 C57.21,567.17 57.6,565.67 58.08,564.1 C58.56,562.53 59.08,561.02 59.61,559.51 C60.7184772,556.488502 62.0006139,553.533578 63.45,550.66 C66.3358123,544.917899 69.9050242,539.545613 74.08,534.66 C76.1807109,532.237892 78.4211982,529.940641 80.79,527.78 C83.1968067,525.675182 85.7316587,523.721442 88.38,521.93 C93.6697261,518.436553 99.4449913,515.74098 105.52,513.93 C99.9553222,516.701295 94.7135764,520.078415 89.89,524 C85.1607242,527.898105 80.8989802,532.33099 77.19,537.21 C71.7063839,544.516632 67.3542599,552.607335 64.28,561.21 C63.76,562.64 63.28,564.08 62.86,565.53 C62.44,566.98 62.02,568.53 61.75,569.82 L61.75,569.88 C61.5271511,570.96717 60.6091634,571.773944 59.5023768,571.855325 C58.3955903,571.936706 57.3694703,571.272881 56.99,570.23 C56.0521222,567.865146 54.6782927,565.697549 52.94,563.84 C51.1181586,561.878356 49.1085655,560.099866 46.94,558.53 C44.7029574,556.909421 42.3648831,555.433094 39.94,554.11 C37.52,552.75 35.03,551.47 32.47,550.31 C22.0648997,545.696304 11.3403718,541.839618 0.38,538.77 L0.38,538.77 Z" id="Path"></path>
                                    <path d="M403.43,388.93 C407.366934,389.191237 411.207329,390.263687 414.71,392.08 C416.539597,393.014182 418.204749,394.240246 419.64,395.71 C421.124489,397.278241 422.21451,399.177207 422.82,401.25 C422.970052,401.76089 422.836149,402.313023 422.468731,402.698417 C422.101313,403.08381 421.5562,403.243913 421.038731,403.118417 C420.521261,402.99292 420.110051,402.60089 419.96,402.09 L419.96,402.03 L419.96,402.03 C419.464666,399.93155 419.272713,397.772927 419.39,395.62 C419.505872,393.470238 419.989549,391.356267 420.82,389.37 C421.05,388.88 421.27,388.37 421.53,387.91 C421.79,387.45 422.11,387 422.41,386.55 C422.738873,386.12271 423.092829,385.715326 423.47,385.33 L424.01,384.74 L424.63,384.24 C426.241318,382.920646 428.132781,381.986886 430.16,381.51 C428.471802,382.523121 426.958873,383.803033 425.68,385.3 C424.469436,386.73239 423.570359,388.401132 423.04,390.2 C422.514631,391.989222 422.251889,393.845258 422.26,395.71 C422.251767,396.651923 422.298513,397.593524 422.4,398.53 C422.492986,399.445183 422.643281,400.353633 422.85,401.25 L419.96,402.01 C419.493448,400.388783 418.681527,398.887753 417.58,397.61 C416.406031,396.261324 415.061386,395.071313 413.58,394.07 C412.03824,393.018083 410.420454,392.082174 408.74,391.27 C406.99,390.44 405.24,389.68 403.43,388.93 Z" id="Path"></path>
                                    <path d="M136.03,7.42 C139.966934,7.68123664 143.807329,8.75368719 147.31,10.57 C149.139597,11.5041815 150.804749,12.7302465 152.24,14.2 C153.724489,15.7682409 154.81451,17.6672072 155.42,19.74 C155.570052,20.2508898 155.436149,20.8030232 155.068731,21.1884166 C154.701313,21.5738101 154.1562,21.7339132 153.638731,21.6084167 C153.121261,21.4829202 152.710051,21.0908899 152.56,20.58 L152.56,20.52 L152.56,20.52 C152.064666,18.4215496 151.872713,16.2629268 151.99,14.11 C152.105872,11.9602375 152.589549,9.84626684 153.42,7.86 C153.65,7.37 153.87,6.86 154.13,6.4 C154.39,5.94 154.71,5.49 155.01,5.04 C155.338873,4.61270985 155.692829,4.20532616 156.07,3.82 L156.61,3.23 L157.23,2.73 C158.841318,1.41064624 160.732781,0.476886036 162.76,1.72306613e-13 C161.071802,1.0131214 159.558873,2.2930326 158.28,3.79 C157.069436,5.22239001 156.170359,6.8911324 155.64,8.69 C155.114631,10.479222 154.851889,12.3352581 154.86,14.2 C154.851767,15.1419231 154.898513,16.083524 155,17.02 C155.092986,17.935183 155.243281,18.843633 155.45,19.74 L152.56,20.5 C152.093448,18.8787829 151.281527,17.3777532 150.18,16.1 C149.006031,14.7513239 147.661386,13.5613128 146.18,12.56 C144.63824,11.5080834 143.020454,10.5721738 141.34,9.76 C139.59,8.93 137.84,8.17 136.03,7.42 Z" id="Path-Copy-4"></path>
                                    <path d="M486.04,422.57 C488.083648,423.568538 490.034636,424.746493 491.87,426.09 C493.731282,427.435058 495.465218,428.948068 497.05,430.61 C498.700181,432.310885 500.091688,434.244843 501.18,436.35 C502.372236,438.617817 502.823397,441.202377 502.47,443.74 L500.28,442.19 C501.399073,441.632879 502.571732,441.190619 503.78,440.87 C504.927306,440.540288 506.092545,440.276523 507.27,440.08 C509.582241,439.68516 511.924307,439.491103 514.27,439.5 L516.02,439.5 L517.77,439.61 C518.93,439.67 520.09,439.82 521.24,439.97 C522.39,440.12 523.53,440.34 524.66,440.55 C525.79,440.76 526.91,441.09 528.03,441.38 C526.87,441.38 525.72,441.38 524.58,441.32 C523.44,441.26 522.29,441.32 521.15,441.32 C518.88,441.37 516.62,441.47 514.38,441.7 C512.163767,441.915601 509.960629,442.24941 507.78,442.7 C506.7,442.96 505.64,443.25 504.6,443.58 C503.605053,443.887776 502.635479,444.272262 501.7,444.73 L501.7,444.73 C500.965003,445.093691 500.074172,444.799717 499.7,444.07 C499.553766,443.79419 499.501122,443.478328 499.55,443.17 C499.769545,441.226373 499.422258,439.260729 498.55,437.51 C497.648316,435.592325 496.520289,433.789497 495.19,432.14 C494.54,431.27 493.83,430.44 493.09,429.62 C492.35,428.8 491.62,427.98 490.84,427.19 C489.31,425.66 487.69,424.12 486.04,422.57 Z" id="Path"></path>
                                    <path d="M218.64,41.06 C220.683648,42.0585378 222.634636,43.2364928 224.47,44.58 C226.331282,45.925058 228.065218,47.4380676 229.65,49.1 C231.300181,50.8008853 232.691688,52.7348434 233.78,54.84 C234.972236,57.1078167 235.423397,59.6923772 235.07,62.23 L232.88,60.68 C233.999073,60.122879 235.171732,59.6806188 236.38,59.36 C237.527306,59.0302878 238.692545,58.766523 239.87,58.57 C242.182241,58.1751601 244.524307,57.9811032 246.87,57.99 L248.62,57.99 L250.37,58.1 C251.53,58.16 252.69,58.31 253.84,58.46 C254.99,58.61 256.13,58.83 257.26,59.04 C258.39,59.25 259.51,59.58 260.63,59.87 C259.47,59.87 258.32,59.87 257.18,59.81 C256.04,59.75 254.89,59.81 253.75,59.81 C251.48,59.86 249.22,59.96 246.98,60.19 C244.763767,60.4056013 242.560629,60.73941 240.38,61.19 C239.3,61.45 238.24,61.74 237.2,62.07 C236.205053,62.3777756 235.235479,62.7622621 234.3,63.22 L234.3,63.22 C233.565003,63.583691 232.674172,63.2897169 232.3,62.56 C232.153766,62.2841902 232.101122,61.9683284 232.15,61.66 C232.369545,59.716373 232.022258,57.7507288 231.15,56 C230.248316,54.0823254 229.120289,52.279497 227.79,50.63 C227.14,49.76 226.43,48.93 225.69,48.11 C224.95,47.29 224.22,46.47 223.44,45.68 C221.91,44.15 220.29,42.61 218.64,41.06 Z" id="Path-Copy-5"></path>
                                </g>
                                <g id="Group-18" transform="translate(1093.000000, 0.000000)">
                                    <circle id="Oval" fill="url(#linearGradient-43)" cx="102.612998" cy="58.750999" r="58.750999"></circle>
                                    <path d="M-6.16751084e-13,50.1619991 L69.7689988,50.1619991 C69.7689988,50.1619991 46.5639992,35.0699994 44.1349992,37.1839994 C42.5654266,38.6887931 41.4415141,40.5975066 40.8869993,42.6999993 C40.8869993,42.6999993 16.0649997,28.0979995 9.24699984,33.4529994 C2.42899996,38.8079993 -6.16751084e-13,50.1619991 -6.16751084e-13,50.1619991 Z" id="Path" fill="url(#linearGradient-44)"></path>
                                    <path d="M123.024998,97.2369983 L217.118996,97.2369983 C217.118996,97.2369983 185.828997,76.8809987 182.545997,79.7369986 C179.262997,82.5929986 178.170997,87.1919985 178.170997,87.1919985 C178.170997,87.1919985 144.689998,67.4939989 135.470998,74.7179987 C126.251998,81.9419986 123.024998,97.2369983 123.024998,97.2369983 Z" id="Path" fill="url(#linearGradient-45)"></path>
                                    <circle id="Oval" fill="#A7A8C9" cx="189.006997" cy="117.851998" r="1.49799997"></circle>
                                    <circle id="Oval" fill="#A7A8C9" cx="186.402997" cy="151.850997" r="1.49799997"></circle>
                                    <circle id="Oval" fill="#A7A8C9" cx="160.943997" cy="125.852998" r="1.49799997"></circle>
                                    <circle id="Oval" fill="#A7A8C9" cx="199.814997" cy="129.520998" r="1.49799997"></circle>
                                    <circle id="Oval" fill="#A7A8C9" cx="149.540997" cy="111.971998" r="1.49799997"></circle>
                                    <circle id="Oval" fill="#A7A8C9" cx="145.774998" cy="141.021998" r="1.49799997"></circle>
                                </g>
                                <path d="M1635,176 L1810,176 C1810,176 1751.80476,138.050645 1745.69993,143.356658 C1739.5951,148.66267 1737.55494,157.229099 1737.55494,157.229099 C1737.55494,157.229099 1675.28721,120.502399 1658.19211,133.967288 C1641.09702,147.432177 1635,176 1635,176 Z" id="Path" fill="url(#linearGradient-46)" opacity="0.3"></path>
                                <path d="M2185,280.242857 L2323,280.242857 C2323,280.242857 2277.1089,250.31708 2272.2948,254.50125 C2267.4807,258.68542 2265.8719,265.440661 2265.8719,265.440661 C2265.8719,265.440661 2216.76934,236.479035 2203.28864,247.097062 C2189.80793,257.715088 2185,280.242857 2185,280.242857 Z" id="Path-Copy" fill="url(#linearGradient-47)" opacity="0.3"></path>
                            </g>
                            <g id="Calque_2-2" transform="translate(1411.000000, 67.000000)" fill-rule="nonzero">
                                <path d="M89.72,53.32 C89.84,50.97 89.96,48.75 90.06,46.69 C90.3017725,42.8833796 90.1375131,39.0618354 89.57,35.29 C98.04,32.42 98.49,23.75 98.02,18.92 C97.9878587,18.5194611 97.6884809,18.1915664 97.2925106,18.1232144 C96.8965403,18.0548624 96.5045614,18.2634157 96.34,18.63 C94.5376935,22.55089 90.9426523,25.3515912 86.7,26.14 L86.6,25.96 C86.48,25.7 86.36,25.45 86.22,25.2 C83.7489445,20.5983251 83.6669065,15.0831362 86,10.41 C86.0552284,10.3409644 86.0440355,10.2402285 85.9749999,10.1850001 C85.9059644,10.1297716 85.8052285,10.1409645 85.75,10.21 C84.47,11.37 81.84,13.44 79.99,12.74 C75.22,10.94 82.56,4.5 82.56,4.5 C73.62,4.5 67.48,11.63 67.48,11.63 C71.33,7.06 69.57,0.63 69.57,0.63 C59.28,11.97 47.23,13.8 47.23,13.8 C48.4908939,12.4051107 48.9944697,10.4840623 48.58,8.65 C38.24,15.43 34.25,22.07 32.7,26.09 C28.4991996,25.2809639 24.9488652,22.4906171 23.17,18.6 C22.9992233,18.2387914 22.6086636,18.0356582 22.2148741,18.1032315 C21.8210845,18.1708049 21.5205878,18.4925217 21.48,18.89 C21.02,23.72 21.48,32.39 29.93,35.26 C29.3677463,39.0289831 29.2035094,42.8466548 29.44,46.65 C29.5466667,48.65 29.6566667,50.7566667 29.77,52.97 C22.87,57.97 7.29,71.63 1.23,97.03 L1.59,96.73 C1.91205618,96.531915 2.31829485,96.5324091 2.63986825,96.7312769 C2.96144165,96.9301446 3.14335561,97.2933765 3.11,97.67 C1.65611723,103.823841 0.92782481,110.126759 0.939849848,116.45 L1.62,115.77 C1.91303953,115.543316 2.30739172,115.497221 2.64481051,115.650212 C2.98222931,115.803204 3.20741314,116.130206 3.23,116.5 C3.03,119.5 2.96,124.42 4.23,127.76 L6.3,126.28 C6.3,126.28 11.3,139.03 19.5,138.77 C27.7,138.51 26.95,130.1 26.95,130.1 C26.95,130.1 29.39,129.49 28.95,125.23 C28.7605723,123.469023 28.3506973,121.738813 27.73,120.08 L30.17,120.35 C30.17,120.35 24.73,108.89 32.05,98.6 C33.05,118.1 33.85,135.72 34.13,141.6 C34.1834692,142.753712 35.1350507,143.661238 36.29,143.66 L55.07,143.72 C56.2700863,143.720013 57.244495,142.750074 57.25,141.55 L57.25,131 C57.1950136,130.1914 57.5952143,129.41955 58.2877488,128.998536 C58.9802834,128.577522 59.8497166,128.577522 60.5422512,128.998536 C61.2347857,129.41955 61.6349864,130.1914 61.58,131 L61.58,141.62 C61.58,142.19552 61.8086243,142.747468 62.2155783,143.154422 C62.6225322,143.561376 63.1744802,143.79 63.75,143.79 L83.22,143.73 C84.3729161,143.726169 85.3215633,142.821441 85.38,141.67 C85.66,135.81 86.51,118.18 87.46,98.67 C93.46,106.92 89.46,120.57 89.46,120.57 L91.9,120.03 C89.06,128.56 92.71,130.32 92.71,130.32 C92.71,130.32 92.17,139.26 100.19,139.65 C108.21,140.04 113,126.31 113,126.31 L115.08,127.79 C117.08,121.12 117.21,110.16 117.17,105.79 C117.16438,105.486472 117.344713,105.2103 117.624876,105.093382 C117.905039,104.976464 118.228191,105.042519 118.44,105.26 L119.44,106.26 C117.9,77.47 98,59.58 89.72,53.32 Z" id="Path" fill="#000000"></path>
                                <ellipse id="Oval" fill="#FFFFFF" cx="48.92" cy="41.99" rx="3.66" ry="5.82"></ellipse>
                                <ellipse id="Oval" fill="#FFFFFF" cx="70.59" cy="41.99" rx="3.66" ry="5.82"></ellipse>
                            </g>
                            <g id="Drapeau" transform="translate(1519.000000, 0.000000)" fill-rule="nonzero">
                                <path d="M23.17,42.3099999 L176.31,42.3099999 C177.781813,42.3099999 179.147974,43.0744761 179.917184,44.3292874 C180.686393,45.5840987 180.748057,47.1485373 180.08,48.46 L175.89,56.67 C168.658945,70.8474449 168.562521,87.6103069 175.63,101.87 L180.18,111.03 C180.829804,112.339713 180.757199,113.892129 179.987993,115.135477 C179.218786,116.378824 177.862047,117.136801 176.4,117.14 L24.53,117.14" id="Path" fill="url(#linearGradient-48)" opacity="0.3"></path>
                                <path d="M24,31.0696988 L24,31.0696988 C24.7054759,31.0696988 25.3820573,31.3502492 25.880904,31.849096 C26.3797508,32.3479427 26.66,33.0245241 26.66,33.73 L26.66,210.87 L21.3,210.87 L21.3,33.73 C21.2999194,33.0175387 21.5856528,32.3348241 22.0931845,31.8348114 C22.6007162,31.3347987 23.2876192,31.0592863 24,31.0696988 L24,31.0696988 Z" id="Path" fill="#A7A8C9"></path>
                                <rect id="Rectangle" fill="#6978B9" x="35.28" y="82.96" width="62.74" height="25.44"></rect>
                                <rect id="Rectangle" fill="#6978B9" x="35.25" y="51.05" width="53.06" height="25.44"></rect>
                                <path d="M39.53,63.69 C39.53,57.76 42.84,54.26 47.62,54.26 C52.4,54.26 55.71,57.77 55.71,63.69 C55.71,69.61 52.4,73.28 47.62,73.28 C42.84,73.28 39.53,69.63 39.53,63.69 Z M52.36,63.69 C52.36,59.58 50.5,57.08 47.62,57.08 C44.74,57.08 42.87,59.58 42.87,63.69 C42.87,67.8 44.73,70.45 47.62,70.45 C50.51,70.45 52.36,67.81 52.36,63.69 Z" id="Shape" fill="#FFFFFF"></path>
                                <path d="M59,67.8 L59,59.16 L62.23,59.16 L62.23,67.39 C62.23,69.65 62.88,70.5 64.38,70.5 C65.59,70.5 66.38,69.94 67.38,68.6 L67.38,59.16 L70.61,59.16 L70.61,72.94 L68,72.94 L67.75,70.94 L67.66,70.94 C66.6415355,72.3864703 64.998492,73.26548 63.23,73.31 C60.25,73.28 59,71.28 59,67.8 Z" id="Path" fill="#FFFFFF"></path>
                                <path d="M74.72,59.16 L77.36,59.16 L77.61,61.62 L77.7,61.62 C78.392657,60.0370738 79.8979919,58.9618346 81.62,58.82 C82.1544789,58.7942304 82.6878454,58.8899629 83.18,59.1 L82.62,61.91 C82.1611521,61.7625713 81.6819479,61.6883284 81.2,61.69 C80.1,61.69 78.78,62.44 77.95,64.53 L77.95,72.94 L74.72,72.94 L74.72,59.16 Z" id="Path" fill="#FFFFFF"></path>
                                <path d="M95.75,68.27 L95.75,61.71 L93.75,61.71 L93.75,59.29 L95.88,59.14 L96.26,55.38 L99,55.38 L99,59.14 L102.52,59.14 L102.52,61.71 L99,61.71 L99,68.27 C99,69.89 99.63,70.69 101,70.69 C101.491708,70.6677476 101.975705,70.5594406 102.43,70.37 L102.98,72.75 C102.077259,73.0715239 101.128153,73.2437816 100.17,73.26 C96.93,73.26 95.75,71.25 95.75,68.27 Z" id="Path" fill="#163253"></path>
                                <path d="M104,66 C104,61.52 107.11,58.76 110.35,58.76 C114.08,58.76 116.040025,61.46 116.040025,65.3 C116.041265,65.8298191 115.994406,66.3586581 115.9,66.88 L107.15,66.88 C107.173404,67.9286662 107.616109,68.9242085 108.37911,69.6439851 C109.142111,70.3637616 110.161751,70.7477228 111.21,70.71 C112.350559,70.6908462 113.461481,70.3436831 114.41,69.71 L115.51,71.71 C114.120173,72.6668883 112.47725,73.1890034 110.79,73.21 C107,73.26 104,70.59 104,66 Z M113.25,64.68 C113.25,62.56 112.25,61.27 110.42,61.27 C108.81,61.27 107.42,62.47 107.12,64.68 L113.25,64.68 Z" id="Shape" fill="#163253"></path>
                                <path d="M118.09,69.22 C118.09,66.22 120.54,64.73 126.19,64.12 C126.19,62.64 125.56,61.41 123.69,61.41 C122.300607,61.4965851 120.961788,61.9636151 119.82,62.76 L118.63,60.61 C120.310302,59.4892851 122.271202,58.8622129 124.29,58.8 C127.73,58.8 129.43,60.92 129.43,64.8 L129.43,72.96 L126.78,72.96 L126.53,71.43 L126.44,71.43 C125.289431,72.5488839 123.772552,73.2131842 122.17,73.3 C121.069343,73.3647427 119.993535,72.9557202 119.213907,72.1760927 C118.43428,71.3964653 118.025257,70.3206572 118.09,69.22 L118.09,69.22 Z M126.19,69.22 L126.19,66.12 C122.46,66.59 121.19,67.57 121.19,68.96 C121.19,70.18 122.02,70.71 123.19,70.71 C124.34759,70.6373621 125.427941,70.1043891 126.19,69.23 L126.19,69.22 Z" id="Shape" fill="#163253"></path>
                                <path d="M133.31,59.14 L136,59.14 L136.25,61.02 L136.33,61.02 C137.374245,59.7239447 138.909929,58.9198836 140.57,58.8 C142.250809,58.6640509 143.811875,59.6787434 144.37,61.27 C145.69,59.87 147.05,58.8 148.8,58.8 C151.71,58.8 153.05,60.8 153.05,64.28 L153.05,72.92 L149.82,72.92 L149.82,64.69 C149.82,62.43 149.15,61.57 147.7,61.57 C146.545561,61.7264494 145.505168,62.3477948 144.82,63.29 L144.82,72.92 L141.59,72.92 L141.59,64.69 C141.59,62.43 140.91,61.57 139.47,61.57 C138.314267,61.7305229 137.272236,62.3506941 136.58,63.29 L136.58,72.92 L133.35,72.92 L133.31,59.14 Z" id="Path" fill="#163253"></path>
                                <path d="M44.45,97.87 L38.93,86.34 L42.41,86.34 L44.41,91.03 C44.95,92.4 45.47,93.67 46.05,95.03 L46.16,95.03 C46.74,93.63 47.32,92.36 47.85,91.03 L49.85,86.34 L53.23,86.34 L47.7,97.87 L47.7,104.69 L44.45,104.69 L44.45,97.87 Z" id="Path" fill="#FFFFFF"></path>
                                <path d="M52.9,97.81 C52.9,93.22 56.02,90.57 59.46,90.57 C62.9,90.57 66,93.22 66,97.81 C66,102.4 62.89,105 59.46,105 C56.03,105 52.9,102.38 52.9,97.81 Z M62.69,97.81 C62.69,95.05 61.48,93.21 59.46,93.21 C57.44,93.21 56.23,95.05 56.23,97.81 C56.23,100.57 57.44,102.39 59.46,102.39 C61.48,102.39 62.69,100.57 62.69,97.81 Z" id="Shape" fill="#FFFFFF"></path>
                                <path d="M69.06,99.55 L69.06,90.91 L72.29,90.91 L72.29,99.14 C72.29,101.4 72.94,102.26 74.43,102.26 C75.64,102.26 76.43,101.69 77.43,100.35 L77.43,90.91 L80.67,90.91 L80.67,104.69 L78.07,104.69 L77.82,102.69 L77.73,102.69 C76.6976748,104.112545 75.0573554,104.967881 73.3,105 C70.35,105 69.06,103 69.06,99.55 Z" id="Path" fill="#FFFFFF"></path>
                                <path d="M84.81,90.91 L87.46,90.91 L87.71,93.37 L87.8,93.37 C88.4909777,91.7900459 89.9916943,90.7153639 91.71,90.57 C92.2446148,90.5421004 92.7784587,90.6379186 93.27,90.85 L92.71,93.66 C92.2547739,93.5117999 91.7787358,93.4375245 91.3,93.44 C90.2,93.44 88.87,94.19 88.04,96.29 L88.04,104.69 L84.81,104.69 L84.81,90.91 Z" id="Path" fill="#FFFFFF"></path>
                                <path d="M105.47,100 L105.47,93.48 L103.47,93.48 L103.47,91.06 L105.6,90.91 L105.99,87.15 L108.67,87.15 L108.67,90.91 L112.18,90.91 L112.18,93.48 L108.7,93.48 L108.7,100 C108.7,101.62 109.33,102.42 110.7,102.42 C111.194796,102.39668 111.681896,102.288435 112.14,102.1 L112.69,104.48 C111.784041,104.80242 110.831499,104.974689 109.87,104.990037 C106.64,105 105.47,103 105.47,100 Z" id="Path" fill="#163253"></path>
                                <path d="M113.75,97.81 C113.75,93.33 116.86,90.57 120.11,90.57 C123.83,90.57 125.79,93.27 125.79,97.12 C125.795923,97.6466971 125.749022,98.172661 125.65,98.69 L116.91,98.69 C116.933404,99.7386662 117.376109,100.734208 118.13911,101.453985 C118.902111,102.173762 119.921751,102.557723 120.97,102.52 C122.110559,102.500846 123.221481,102.153683 124.17,101.52 L125.27,103.52 C123.875752,104.475503 122.230089,104.997383 120.54,105.02 C116.74,105 113.75,102.36 113.75,97.81 Z M123,96.49 C123,94.37 122.06,93.08 120.17,93.08 C118.57,93.08 117.17,94.28 116.87,96.49 L123,96.49 Z" id="Shape" fill="#163253"></path>
                                <path d="M127.81,101 C127.81,98.05 130.25,96.51 135.91,95.9 C135.91,94.42 135.27,93.19 133.41,93.19 C132.020607,93.2765851 130.681788,93.7436151 129.54,94.54 L128.35,92.39 C130.024957,91.2645949 131.983086,90.6338345 134,90.57 C137.45,90.57 139.14,92.69 139.14,96.57 L139.14,104.73 L136.49,104.73 L136.25,103.2 L136.16,103.2 C135.005851,104.319562 133.485629,104.983771 131.88,105.07 C130.782867,105.131505 129.711525,104.722491 128.934517,103.945483 C128.157509,103.168475 127.748495,102.097133 127.81,101 L127.81,101 Z M135.91,101 L135.91,97.9 C132.17,98.37 130.91,99.35 130.91,100.74 C130.91,101.96 131.74,102.49 132.91,102.49 C134.068801,102.413697 135.148981,101.877207 135.91,101 Z" id="Shape" fill="#163253"></path>
                                <path d="M143,90.91 L145.65,90.91 L145.9,92.79 L146,92.79 C147.036385,91.489667 148.57111,90.6842088 150.23,90.57 C151.889469,90.442673 153.430656,91.4360637 154,93 C155.32,91.6 156.69,90.53 158.44,90.53 C161.34,90.53 162.69,92.53 162.69,96.01 L162.69,104.65 L159.5,104.65 L159.5,96.46 C159.5,94.2 158.82,93.35 157.38,93.35 C156.223559,93.501392 155.179372,94.1192328 154.49,95.06 L154.49,104.69 L151.26,104.69 L151.26,96.46 C151.26,94.2 150.59,93.35 149.14,93.35 C147.987953,93.5062132 146.948637,94.1233072 146.26,95.06 L146.26,104.69 L143,104.69 L143,90.91 Z" id="Path" fill="#163253"></path>
                                <path d="M-4.68958856e-13,5.21 L10.15,9 C10.32,8.76 10.49,8.52 10.68,8.28 L10.68,8.28 C16.16,0.84 29.2,0 29.2,0 C28.3522288,1.76823526 26.8439818,3.13283966 25,3.8 C27.9309765,4.14966235 30.8784686,4.34326886 33.83,4.38 C32.7400345,5.94251991 31.1599659,7.09677937 29.34,7.66 C30.7742115,9.27532744 31.754212,11.2422299 32.18,13.36 L32.18,13.28 L42.64,13.21 C42.64,13.21 38.43,19 31.76,19.66 C30.3378212,23.8025992 26.7960783,26.8591194 22.49,27.66 L22.84,30.18 L25.09,30.06 C25.2223581,30.0489115 25.3533942,30.0931627 25.4519312,30.182225 C25.5504682,30.2712873 25.6076965,30.3971982 25.61,30.53 C25.6181997,30.662667 25.5732369,30.7931389 25.4850461,30.8925881 C25.3968553,30.9920373 25.2726956,31.0522779 25.14,31.06 L22.43,31.2 L22.43,31.2 C22.1806157,31.1981963 21.9691136,31.0163045 21.93,30.77 L21.52,27.77 C20.4840467,27.8729447 19.4392906,27.8460699 18.41,27.69 C17.1207065,27.4892784 15.8716823,27.0841895 14.71,26.49 L13.1,29.14 C13.0060325,29.2870998 12.8445298,29.3772409 12.67,29.38 C12.5926033,29.3801637 12.5165972,29.3594347 12.45,29.32 L10,28.19 C9.75783682,28.0576277 9.66126514,27.7591334 9.78,27.51 C9.90478782,27.2648435 10.2041732,27.1665378 10.45,27.29 L12.45,28.29 L13.81,26.06 C10.1494683,23.7720597 7.97629257,19.7149577 8.1,15.4 C-0.32,10.41 -4.68958856e-13,5.21 -4.68958856e-13,5.21 Z" id="Path" fill="#000000"></path>
                                <ellipse id="Oval" fill="#FFFFFF" transform="translate(25.624455, 13.307966) rotate(-82.150000) translate(-25.624455, -13.307966) " cx="25.6244548" cy="13.3079656" rx="2.74" ry="1.69"></ellipse>
                                <ellipse id="Oval" fill="#FFFFFF" transform="translate(16.725251, 11.716129) rotate(-82.150000) translate(-16.725251, -11.716129) " cx="16.7252512" cy="11.7161294" rx="2.74" ry="1.69"></ellipse>
                            </g>
                        </g>
                        <path d="M1774.5992,864.077123 C1773.39598,864.311824 1772.61018,865.480905 1772.84406,866.688339 C1772.95819,867.277557 1773.29406,867.767026 1773.7479,868.086509 L1773.53412,869.100452 C1773.48298,869.348147 1773.43115,869.60313 1773.37875,869.865188 L1773.29974,870.263553 C1772.69515,873.336469 1772.14504,876.68912 1771.70762,880.211395 C1770.84594,887.149815 1770.52836,893.870311 1770.9369,900.035958 C1771.56985,909.588486 1773.87124,917.093577 1778.09119,922.020039 C1772.21336,918.059284 1768.25068,911.881953 1765.94394,903.884034 C1763.95496,896.987842 1763.36212,889.273234 1763.75859,881.484639 C1763.85539,879.582951 1764.00661,877.808406 1764.19209,876.196881 L1764.25515,875.665793 L1764.36661,874.802178 L1764.36661,874.802178 L1764.44783,874.233737 C1765.17191,873.750835 1765.57468,872.862754 1765.39844,871.952895 C1765.16455,870.745462 1763.99955,869.956907 1762.79633,870.191608 C1761.59311,870.426309 1760.80731,871.59539 1761.04119,872.802824 C1761.22175,873.734958 1761.95723,874.41745 1762.83682,874.572229 L1762.75845,875.169374 C1762.74571,875.269786 1762.73294,875.372176 1762.72016,875.476516 C1762.50158,877.261634 1762.32358,879.254148 1762.21407,881.405466 C1761.80955,889.352225 1762.41498,897.230622 1764.45838,904.315502 C1767.68823,915.51403 1774.11294,923.362817 1784.28093,926.749783 C1787.39883,928.200807 1791.09313,928.854714 1795.40196,928.630139 L1795.47761,928.634479 L1795.30457,928.570332 C1796.24288,928.93072 1797.16441,929.061083 1798.06572,928.97389 C1799.11482,928.980705 1800.13375,928.810449 1801.12345,928.473751 C1801.6319,928.416293 1802.13621,928.346973 1802.6368,928.266197 C1813.58783,926.919382 1823.60149,921.818158 1832.47208,914.260758 C1835.22634,911.914239 1837.65285,909.502467 1839.73095,907.157554 C1840.1801,906.650733 1840.59309,906.169157 1840.96932,905.71669 C1841.31844,905.832684 1841.70094,905.862857 1842.08739,905.787476 C1843.29061,905.552775 1844.07641,904.383694 1843.84253,903.176261 C1843.60865,901.968827 1842.44365,901.180272 1841.24043,901.414973 C1840.0372,901.649674 1839.2514,902.818756 1839.48528,904.026189 C1839.53613,904.288662 1839.63097,904.531341 1839.76063,904.748018 C1839.4006,905.180368 1839.0052,905.641122 1838.5753,906.126218 C1836.54313,908.419307 1834.16752,910.780494 1831.47117,913.077676 C1826.64782,917.186981 1821.48575,920.548216 1816.02164,922.945407 C1820.66437,919.884897 1824.87892,915.697932 1828.67045,910.620639 C1831.06109,907.419298 1833.09625,904.093797 1834.78204,900.835799 C1835.29875,899.837199 1835.74996,898.906906 1836.13611,898.060974 L1836.29761,897.703644 C1836.44518,897.373847 1836.57172,897.081374 1836.67733,896.829221 L1836.80743,896.511793 C1836.96429,896.113189 1836.76945,895.662452 1836.37223,895.505044 C1835.97502,895.347637 1835.52586,895.543166 1835.369,895.94177 L1835.25161,896.227893 L1835.04766,896.704119 L1834.88677,897.06796 L1834.88677,897.06796 C1834.4784,897.980666 1833.98611,899.00626 1833.4095,900.120624 C1831.76064,903.307259 1829.76917,906.561368 1827.43285,909.689965 C1821.60899,917.488785 1814.79509,923.092073 1806.9723,925.624104 C1813.64648,922.225677 1818.73011,916.139113 1822.41764,908.124908 C1824.12361,904.41728 1825.398,900.55718 1826.30491,896.768788 C1826.5771,895.631788 1826.79898,894.570385 1826.97546,893.602266 C1827.95935,893.221649 1828.56027,892.176417 1828.35191,891.100747 C1828.11803,889.893314 1826.95303,889.104759 1825.74981,889.33946 C1824.54659,889.574161 1823.76078,890.743243 1823.99466,891.950676 C1824.1477,892.740733 1824.69939,893.351449 1825.39959,893.613511 C1825.2383,894.474404 1825.03963,895.410089 1824.80116,896.406277 C1823.91653,900.101581 1822.67348,903.866775 1821.01356,907.474322 C1817.71785,914.636974 1813.30044,920.163145 1807.6029,923.504916 C1809.94089,920.611864 1812.07222,916.658796 1814.00919,911.85648 C1815.34302,908.549511 1816.48272,905.066923 1817.43056,901.622159 L1817.67043,900.735396 L1817.89247,899.885052 C1817.96352,899.607953 1818.03159,899.337342 1818.09671,899.07364 L1818.33155,898.098462 L1818.56924,897.041927 C1818.65666,896.622445 1818.38867,896.211264 1817.97065,896.12353 C1817.55263,896.035795 1817.14289,896.30473 1817.05546,896.724212 L1816.91226,897.370956 C1816.87195,897.547416 1816.82742,897.738753 1816.77867,897.944239 L1816.5954,898.701083 C1816.40331,899.478984 1816.18479,900.318791 1815.93982,901.209092 C1815.00671,904.600265 1813.88503,908.027822 1812.57563,911.274212 L1812.28128,911.993487 C1809.79631,917.977753 1807.021,922.44763 1803.98328,924.992323 C1807.19971,920.792486 1810.00097,913.496757 1812.43825,903.972729 C1813.72653,898.938575 1814.82868,893.60286 1815.74599,888.303676 L1816.05167,886.496434 L1816.23843,885.346909 L1816.23843,885.346909 L1816.42154,884.180355 C1816.54946,884.168903 1816.67803,884.150743 1816.80687,884.125612 C1818.83206,883.730577 1820.15467,881.762851 1819.76102,879.730572 C1819.36736,877.698293 1817.4065,876.371044 1815.38131,876.766079 C1813.35612,877.161114 1812.03351,879.128841 1812.42716,881.16112 C1812.69151,882.525807 1813.66253,883.572582 1814.88518,883.993425 L1814.71296,885.090921 C1814.5637,886.025881 1814.4001,887.010782 1814.22228,888.038065 C1813.31147,893.299668 1812.21734,898.596556 1810.94032,903.586707 L1810.6707,904.625204 L1810.39811,905.644981 C1808.02287,914.401051 1805.31498,921.013745 1802.32018,924.592164 C1801.71583,925.314287 1801.11118,925.900075 1800.50376,926.34852 C1800.13467,926.43566 1799.7615,926.516157 1799.38423,926.589295 C1800.76924,924.758015 1801.99925,921.742135 1803.13998,917.675413 L1803.39665,916.736261 C1804.75539,911.635541 1805.9518,905.071468 1806.99718,897.390082 C1807.87485,890.940987 1808.59706,884.076604 1809.17407,877.240923 L1809.34705,875.136498 L1809.4527,873.790285 C1809.52057,872.908681 1809.58334,872.059414 1809.64107,871.246043 L1809.78904,869.069889 L1809.84688,868.141562 C1809.87177,867.713731 1809.54633,867.346661 1809.11999,867.321688 C1808.69365,867.296715 1808.32786,867.623296 1808.30298,868.051126 L1808.20733,869.555119 L1808.14064,870.534904 C1808.04436,871.921299 1807.93277,873.420244 1807.80545,875.012618 L1807.63305,877.109932 C1807.05811,883.921142 1806.33857,890.760179 1805.46487,897.180084 L1805.26868,898.595708 C1804.24605,905.841276 1803.08388,912.018123 1801.77811,916.796826 L1801.6513,917.254906 C1800.03002,923.034806 1798.24484,926.3757 1796.54358,926.99217 L1796.24265,927.018575 L1796.24265,927.018575 L1795.74257,927.055595 L1795.67695,926.904662 L1795.67695,926.904662 C1795.55791,926.626597 1795.46402,926.181915 1795.40695,925.589496 C1795.30368,924.517449 1795.32396,923.017681 1795.46202,921.131301 L1795.5193,920.405866 C1795.8452,916.546874 1796.60241,911.349268 1797.70412,905.134717 L1797.81181,904.530145 C1798.04444,903.230253 1798.29026,901.895702 1798.54811,900.530757 C1799.29593,896.572049 1800.11589,892.505528 1800.96116,888.500885 L1801.38568,886.504506 L1801.92249,884.021944 C1801.96544,883.825265 1802.0079,883.631243 1802.04986,883.439957 L1802.39425,881.894699 C1803.35641,881.50172 1803.93953,880.469394 1803.73382,879.407399 C1803.49994,878.199965 1802.33494,877.41141 1801.13172,877.646112 C1799.9285,877.880813 1799.14269,879.049894 1799.37657,880.257327 C1799.53098,881.054471 1800.09123,881.669042 1800.80038,881.92713 L1800.43332,883.591239 C1800.25461,884.409136 1800.06753,885.273427 1799.87369,886.178352 C1798.87676,890.832371 1797.90366,895.609599 1797.02864,900.241708 L1796.64968,902.273057 L1796.46723,903.270711 L1796.46723,903.270711 L1796.04228,905.649844 L1795.69075,907.678877 C1794.19792,916.435464 1793.50394,922.474822 1793.88225,925.743866 C1790.48729,922.042585 1789.79619,912.511931 1791.40162,898.858304 C1791.84859,895.056951 1792.46297,891.031168 1793.21554,886.853217 C1794.09243,881.98513 1795.10901,877.164614 1796.17679,872.608653 L1796.42277,871.567845 C1796.51268,871.190592 1796.6012,870.822683 1796.68816,870.464525 C1797.07897,870.5184 1797.48491,870.508801 1797.89347,870.429107 C1799.91866,870.034072 1801.24127,868.066345 1800.84762,866.034066 C1800.45396,864.001788 1798.4931,862.674539 1796.46791,863.069574 C1794.44272,863.464609 1793.12011,865.432336 1793.51376,867.464615 C1793.72127,868.535865 1794.36422,869.41122 1795.22252,869.941693 L1794.78458,871.771955 L1794.78458,871.771955 L1794.67133,872.253345 C1793.59776,876.83404 1792.57571,881.680437 1791.69367,886.577161 C1790.99893,890.434061 1790.42083,894.164211 1789.98196,897.7131 L1789.86574,898.676444 L1789.74208,899.759337 C1788.39361,911.935724 1788.8541,920.824875 1791.71331,925.444228 C1787.78457,923.213613 1785.94817,919.602495 1785.48765,913.923388 C1785.23548,910.81362 1785.37756,907.073217 1785.89322,901.880471 L1786.0517,900.355909 L1786.38339,897.482647 C1786.98717,892.380034 1788.00386,884.182996 1788.14804,882.951765 C1788.19788,882.526135 1787.89445,882.140546 1787.47031,882.090528 C1787.04616,882.040511 1786.66192,882.345005 1786.61208,882.770635 L1784.79018,897.786821 C1784.64401,899.0289 1784.52687,900.052662 1784.45961,900.694871 L1784.35354,901.734216 L1784.25387,902.770056 C1783.81239,907.515827 1783.70252,911.044018 1783.94621,914.04926 C1784.34847,919.009928 1785.78695,922.606267 1788.60135,925.120737 C1782.83303,921.730201 1780.21873,914.137257 1780.19491,903.24972 C1780.18407,898.298718 1780.7244,892.903748 1781.68402,887.304266 C1782.25539,883.970256 1782.93984,880.769589 1783.67223,877.81776 L1783.8619,877.063363 C1784.01781,876.451515 1784.16807,875.882179 1784.31069,875.358868 L1784.55643,874.476156 L1784.67689,874.061201 C1784.8,873.650835 1784.56829,873.218018 1784.15936,873.094477 C1783.75042,872.970936 1783.31912,873.203454 1783.19601,873.61382 L1783.11807,873.880164 C1783.05592,874.095457 1782.98457,874.347902 1782.90504,874.635713 L1782.73127,875.273364 C1782.55391,875.933059 1782.36618,876.658214 1782.17152,877.4428 C1781.4304,880.429787 1780.73808,883.667258 1780.15986,887.041229 C1779.18625,892.722357 1778.63732,898.20315 1778.64838,903.253128 C1778.67209,914.087515 1781.235,921.986111 1786.8923,925.900214 C1786.25907,925.737805 1785.64051,925.558751 1785.03587,925.363353 C1777.29171,921.796223 1773.34085,912.924522 1772.48003,899.932993 C1772.07875,893.8769 1772.39185,887.251205 1773.24228,880.403319 C1773.63887,877.209881 1774.12922,874.156705 1774.66867,871.329539 L1774.81698,870.564162 L1774.99256,869.687803 C1775.07918,869.263319 1775.16392,868.859614 1775.24623,868.477755 L1775.31743,868.470885 L1775.44616,868.449626 C1776.64938,868.214925 1777.43519,867.045844 1777.2013,865.83841 C1776.96742,864.630977 1775.80242,863.842421 1774.5992,864.077123 Z" id="Path" fill="#000000" fill-rule="nonzero"></path>
                        <path d="M1921,798 C1924.86599,798 1928,801.134007 1928,805 C1928,808.592014 1925.29446,811.552116 1921.81005,811.953634 C1921.76088,834.743124 1923.09884,914.587991 1944.79131,924.270786 C1942.05621,918.34106 1940.02103,902.176363 1938.55363,875.167404 C1937.56584,857.0935 1937.16768,839.388788 1937.04518,832.72544 C1936.56333,832.903863 1936.04289,833 1935.5,833 C1933.01472,833 1931,830.985281 1931,828.5 C1931,826.014719 1933.01472,824 1935.5,824 C1937.98528,824 1940,826.014719 1940,828.5 C1940,829.704705 1939.5266,830.798842 1938.75569,831.606536 C1939.14443,856.513069 1941.23873,915.857529 1946.77809,924.373381 L1946.94541,924.335031 L1946.94541,924.335031 C1947.17439,924.287767 1947.41253,924.334988 1947.60697,924.466211 C1947.64758,924.493615 1947.68558,924.524209 1947.72069,924.55758 L1947.94516,924.517289 L1947.94516,924.517289 C1948.2573,924.458349 1948.57729,924.569804 1948.78459,924.80967 C1948.82,924.850637 1948.8512,924.894287 1948.87807,924.939997 C1949.70374,924.607285 1950.42236,924.022871 1950.92794,923.253159 C1963.357,906.73067 1945.18566,803.989304 1945.0214,802.96888 C1944.9802,802.510564 1945.28888,802.096116 1945.73239,802.014266 C1946.1759,801.932415 1946.60711,802.210316 1946.7256,802.654365 C1947.48531,806.917783 1965.20494,907.205936 1952.31731,924.315519 C1952.21163,924.470535 1952.09967,924.619907 1951.98189,924.763355 C1952.44187,924.653233 1952.89638,924.522645 1953.3444,924.373364 C1954.45787,923.867693 1955.47795,923.149672 1956.34116,922.242305 C1971.03068,907.967709 1967.09274,848.536308 1965.52899,830.540415 L1965.47926,829.983851 C1965.3209,829.994559 1965.16108,830 1965,830 C1961.13401,830 1958,826.865993 1958,823 C1958,819.134007 1961.13401,816 1965,816 C1968.86599,816 1972,819.134007 1972,823 C1972,826.087548 1970.00103,828.708213 1967.22669,829.638408 C1967.86762,836.817286 1969.01008,851.722549 1969,867.584607 C1969,893.047594 1966.17768,910.491327 1960.63006,919.597419 L1960.32917,919.907581 C1976.60524,903.564181 1975.246,855.283871 1975.22508,854.800297 C1975.21384,854.354985 1975.5279,853.975077 1975.95306,853.895664 L1976.06154,853.882207 C1976.54524,853.870345 1976.9488,854.251129 1976.9677,854.737222 C1977.12711,863.65902 1976.69631,872.581602 1975.67816,881.445926 C1973.40579,900.676754 1968.65889,914.03461 1961.56992,921.155062 C1959.37255,923.485334 1956.63856,925.191986 1953.64253,926.147318 C1952.46173,926.627118 1951.19899,926.913729 1949.9027,926.98576 C1949.62116,926.999054 1949.33938,927.003035 1949.05783,926.997723 L1949.00215,927 L1949.00215,927 L1947.30832,927 L1947.30832,927 C1946.88653,926.985867 1946.47036,926.966715 1946.0597,926.942554 C1942.26948,928.028062 1938.3659,928.692189 1934.42293,928.921804 C1929.79652,929.220819 1925.19341,928.658413 1920.83864,927.300987 C1911.44945,925.875807 1902.94234,922.269199 1895.41263,916.493194 C1867.06492,894.818073 1860.48873,848.409861 1859.2515,836.641295 C1858.71432,836.873848 1858.12189,837 1857.5,837 C1855.01472,837 1853,834.985281 1853,832.5 C1853,830.014719 1855.01472,828 1857.5,828 C1859.98528,828 1862,830.014719 1862,832.5 C1862,833.637101 1861.57824,834.675696 1860.88263,835.467887 C1861.78239,845.078831 1867.78633,893.152397 1896.46897,915.088372 C1901.39876,918.865217 1906.75687,921.684174 1912.52102,923.542302 C1911.54309,922.946771 1910.58977,922.3046 1909.66471,921.616799 C1895.5282,911.206992 1885.56727,890.219927 1880.05607,859.255635 C1877.77539,846.204652 1876.44686,833.009003 1876.0801,819.771549 C1874.29132,819.177775 1873,817.489689 1873,815.5 C1873,813.014719 1875.01472,811 1877.5,811 C1879.98528,811 1882,813.014719 1882,815.5 C1882,817.867611 1880.17155,819.808164 1877.84968,819.986615 C1878.35949,836.619922 1882.17397,899.17342 1910.72618,920.200451 C1914.00448,922.616194 1917.51598,924.408201 1921.24875,925.574992 C1925.27278,926.177196 1929.46608,926.367059 1933.82208,926.144754 C1929.1814,925.006696 1924.84125,922.754259 1921.20594,919.525917 C1910.02409,909.774839 1902.75271,890.855362 1899.59614,863.294 C1898.16883,850.527723 1897.6978,837.673258 1898.18696,824.837266 C1898.19781,824.601859 1898.30324,824.380693 1898.4795,824.223559 C1898.65576,824.066425 1898.88805,823.98653 1899.12407,824.00186 C1899.35965,824.014538 1899.58049,824.120125 1899.7378,824.295309 C1899.89512,824.470492 1899.97598,824.700862 1899.96253,824.935549 C1899.9273,825.63757 1896.43958,895.594006 1922.38261,918.199096 C1926.09368,921.433979 1930.26053,923.550434 1934.84931,924.538978 C1917.6563,917.309573 1915.05238,894.498651 1910.89455,858.115232 C1910.30206,852.964118 1909.69563,847.602753 1909.00555,841.996098 C1908.95195,841.512047 1909.29229,841.073425 1909.7723,841.007925 C1910.0048,840.976274 1910.24017,841.040234 1910.42516,841.185332 C1910.61014,841.33043 1910.72911,841.544404 1910.75514,841.77884 C1911.45219,847.455579 1912.05165,852.78891 1912.64414,857.947032 C1917.34044,899.086632 1919.86366,921.163251 1942.05942,924.736017 C1921.03292,910.643679 1919.88028,834.387931 1920.008,811.927634 C1916.61181,811.448472 1914,808.529246 1914,805 C1914,801.134007 1917.13401,798 1921,798 Z" id="Combined-Shape" fill="#FFFFFF" fill-rule="nonzero"></path>
                        <path d="M1169.72017,844.403524 C1168.15234,844.709346 1167.12841,846.232695 1167.43317,847.806017 C1167.58189,848.573787 1168.01953,849.211579 1168.61089,849.627876 L1168.33234,850.949074 C1168.2657,851.271827 1168.19816,851.604079 1168.12989,851.945548 L1168.02693,852.46463 C1167.23913,856.468732 1166.52233,860.837338 1165.95235,865.426969 C1164.82956,874.467941 1164.41575,883.22495 1164.94808,891.258975 C1165.77284,903.706209 1168.77162,913.48557 1174.27033,919.904899 C1166.61135,914.743916 1161.44786,906.694666 1158.44211,896.273135 C1155.85041,887.287188 1155.07791,877.234821 1155.59452,867.086045 C1155.72066,864.608087 1155.91771,862.295801 1156.15939,860.195936 L1156.24156,859.503912 L1156.3868,858.378595 L1156.3868,858.378595 L1156.49263,857.6379 C1157.43612,857.008664 1157.96095,855.851467 1157.7313,854.665894 C1157.42654,853.092571 1155.90851,852.06506 1154.34068,852.370883 C1152.77284,852.676706 1151.74892,854.200054 1152.05367,855.773376 C1152.28894,856.987975 1153.2473,857.877283 1154.39344,858.078965 L1154.29132,858.857063 C1154.27471,858.987903 1154.25807,859.121321 1154.24143,859.257279 C1153.9566,861.583341 1153.72466,864.179647 1153.58197,866.98288 C1153.05486,877.337747 1153.84376,887.603538 1156.50637,896.835351 C1160.71496,911.427373 1169.08655,921.654579 1182.33576,926.067899 C1186.39847,927.958627 1191.21227,928.810688 1196.82679,928.51806 L1196.92537,928.523715 L1196.69989,928.44013 C1197.92254,928.909726 1199.12333,929.079594 1200.29776,928.965978 C1201.66477,928.974859 1202.99246,928.753009 1204.28207,928.314282 C1204.9446,928.239413 1205.60172,928.149087 1206.25401,928.043832 C1220.52354,926.288892 1233.57164,919.641842 1245.13029,909.794321 C1248.71917,906.736735 1251.88099,903.594124 1254.58881,900.53863 C1255.17407,899.878228 1255.71221,899.250719 1256.20244,898.661141 C1256.65736,898.812285 1257.15577,898.851602 1257.65932,898.753378 C1259.22716,898.447556 1260.25108,896.924207 1259.94633,895.350885 C1259.64157,893.777563 1258.12354,892.750051 1256.55571,893.055874 C1254.98787,893.361697 1253.96395,894.885045 1254.2687,896.458368 C1254.33495,896.800378 1254.45853,897.116596 1254.62749,897.398933 C1254.15835,897.962297 1253.64314,898.562675 1253.08297,899.194768 C1250.43499,902.182733 1247.33949,905.259432 1243.82607,908.25273 C1237.5411,913.607278 1230.81477,917.987069 1223.69487,921.110682 C1229.74448,917.122744 1235.23617,911.667002 1240.17665,905.051136 C1243.29172,900.879692 1245.9436,896.546463 1248.14023,892.301193 C1248.81352,890.999986 1249.40146,889.787786 1249.90462,888.685512 L1250.11507,888.219899 C1250.30735,887.790165 1250.47225,887.409063 1250.60986,887.0805 L1250.77938,886.666882 C1250.98378,886.147488 1250.72988,885.560165 1250.2123,885.355058 C1249.69472,885.149951 1249.10945,885.404731 1248.90506,885.924125 L1248.7521,886.296952 L1248.48635,886.917488 L1248.2767,887.391584 L1248.2767,887.391584 C1247.74458,888.580868 1247.10311,889.917248 1246.35178,891.369298 C1244.20326,895.52158 1241.60831,899.761782 1238.56402,903.83844 C1230.97535,914.000538 1222.09664,921.301793 1211.9033,924.601105 C1220.59996,920.172852 1227.22409,912.241875 1232.02905,901.799122 C1234.25198,896.96797 1235.91254,891.938144 1237.09427,887.001754 C1237.44894,885.520208 1237.73806,884.137168 1237.96802,882.87568 C1239.25006,882.379724 1240.03308,881.017756 1239.76158,879.616125 C1239.45682,878.042803 1237.93879,877.015292 1236.37096,877.321115 C1234.80313,877.626937 1233.7792,879.150286 1234.08396,880.723608 C1234.28337,881.753076 1235.00223,882.548858 1235.91462,882.890332 C1235.70445,884.012102 1235.44558,885.231328 1235.13484,886.529391 C1233.98215,891.344485 1232.36241,896.250646 1230.19948,900.95139 C1225.90508,910.284542 1220.14906,917.48531 1212.72499,921.839739 C1215.77146,918.070005 1218.54865,912.919037 1221.07258,906.661474 C1222.8106,902.352393 1224.29566,897.814476 1225.53073,893.325843 L1225.84328,892.170365 L1226.13261,891.06234 C1226.22519,890.701272 1226.3139,890.348658 1226.39874,890.005045 L1226.70475,888.73436 L1227.01446,887.357662 C1227.12838,886.811064 1226.77917,886.275284 1226.23448,886.160963 C1225.68979,886.046642 1225.15588,886.397072 1225.04196,886.94367 L1224.85537,887.786397 C1224.80284,888.016329 1224.74482,888.265648 1224.6813,888.533403 L1224.44249,889.519593 C1224.19219,890.533222 1223.90745,891.627516 1223.58824,892.787605 C1222.37238,897.206406 1220.91079,901.672617 1219.2046,905.902761 L1218.82106,906.839998 C1215.58307,914.637678 1211.96676,920.462063 1208.00851,923.777876 C1212.19962,918.305361 1215.84975,908.798804 1219.0256,896.388707 C1220.70427,889.829052 1222.1404,882.876454 1223.33568,875.971457 L1223.73399,873.616565 L1223.97735,872.118699 L1223.97735,872.118699 L1224.21594,870.598645 C1224.38263,870.583722 1224.55017,870.560059 1224.71804,870.527313 C1227.35692,870.01257 1229.08033,867.448563 1228.56738,864.800442 C1228.05444,862.152321 1225.49938,860.422876 1222.8605,860.937618 C1220.22162,861.452361 1218.49821,864.016368 1219.01115,866.66449 C1219.3556,868.442718 1220.62088,869.806697 1222.21402,870.355068 L1221.98961,871.78514 C1221.79512,873.003421 1221.58195,874.286777 1221.35024,875.625358 C1220.16343,882.481386 1218.73775,889.383391 1217.07375,895.885709 L1216.72243,897.238902 L1216.36724,898.567703 C1213.27223,909.977127 1209.74376,918.593668 1205.84144,923.256456 C1205.05396,924.197404 1204.26609,924.960704 1203.4746,925.545042 C1202.99366,925.658587 1202.50741,925.763477 1202.01581,925.858778 C1203.82053,923.472565 1205.42327,919.542782 1206.90967,914.24372 L1207.24411,913.019977 C1209.01459,906.373584 1210.57356,897.820398 1211.93572,887.811319 C1213.07935,879.407952 1214.02041,870.463453 1214.77227,861.556355 L1214.99767,858.814225 L1215.13534,857.060068 C1215.22378,855.911312 1215.30556,854.804691 1215.38079,853.744843 L1215.5736,850.909249 L1215.64897,849.699611 C1215.68139,849.142134 1215.25733,848.663831 1214.7018,848.631291 C1214.14627,848.59875 1213.66964,849.024295 1213.63721,849.581771 L1213.51259,851.541519 L1213.42568,852.818209 C1213.30023,854.624723 1213.15482,856.577894 1212.98892,858.652806 L1212.76428,861.385669 C1212.01511,870.260882 1211.07753,879.172354 1209.93907,887.537685 L1209.68343,889.382287 C1208.35091,898.82348 1206.83657,906.8721 1205.13511,913.098895 L1204.96987,913.695786 C1202.8573,921.227171 1200.53115,925.580457 1198.31436,926.383736 L1197.92224,926.418143 L1197.92224,926.418143 L1197.27062,926.466381 L1197.18512,926.269711 L1197.18512,926.269711 C1197.03,925.907384 1196.90766,925.327949 1196.8333,924.556011 C1196.69873,923.159101 1196.72516,921.204858 1196.90505,918.746847 L1196.9797,917.801583 C1197.40435,912.773199 1198.39102,906.000562 1199.82658,897.902814 L1199.9669,897.115038 C1200.27003,895.421239 1200.59034,893.682278 1200.92632,891.903713 C1201.90075,886.745398 1202.96919,881.446597 1204.0706,876.228426 L1204.62377,873.627083 L1205.32325,870.39223 C1205.3792,870.135951 1205.43454,869.883135 1205.48922,869.633884 L1205.93796,867.620366 C1207.19168,867.108301 1207.95151,865.76315 1207.68346,864.379338 C1207.37871,862.806016 1205.86067,861.778504 1204.29284,862.084327 C1202.72501,862.39015 1201.70108,863.913498 1202.00584,865.486821 C1202.20704,866.525523 1202.93705,867.326328 1203.8611,867.662624 L1203.38281,869.831008 C1203.14994,870.896753 1202.90618,872.02295 1202.65359,873.202095 C1201.35457,879.266423 1200.08659,885.491296 1198.9464,891.527073 L1198.45261,894.173983 L1198.21488,895.473956 L1198.21488,895.473956 L1197.66115,898.574039 L1197.20309,901.21793 C1195.25789,912.628029 1194.35362,920.497495 1194.84657,924.757158 C1190.42283,919.934277 1189.52231,907.515547 1191.61423,889.724457 C1192.19665,884.771178 1192.9972,879.525461 1193.97783,874.081465 C1195.12043,867.738199 1196.44508,861.456922 1197.83642,855.520366 L1198.15694,854.164162 C1198.27409,853.67259 1198.38944,853.193193 1198.50275,852.726503 C1199.012,852.796704 1199.54095,852.784195 1200.07331,852.680352 C1202.71219,852.165609 1204.4356,849.601602 1203.92265,846.953481 C1203.4097,844.305359 1200.85464,842.575915 1198.21576,843.090657 C1195.57688,843.6054 1193.85347,846.169407 1194.36642,848.817528 C1194.6368,850.2134 1195.47459,851.354015 1196.59298,852.045236 L1196.02233,854.430124 L1196.02233,854.430124 L1195.87477,855.05739 C1194.47587,861.026173 1193.14411,867.341176 1191.99478,873.721755 C1191.08951,878.747413 1190.33623,883.607911 1189.76438,888.232222 L1189.61294,889.487488 L1189.4518,890.89853 C1187.6947,906.764731 1188.29474,918.347564 1192.02038,924.366721 C1186.90111,921.460162 1184.50822,916.754767 1183.90815,909.354718 C1183.57956,905.302596 1183.7647,900.428738 1184.43661,893.662432 L1184.64312,891.675881 L1185.07533,887.931934 C1185.86207,881.283074 1187.18685,870.602086 1187.37472,868.997754 C1187.43967,868.443146 1187.04429,867.940712 1186.49161,867.875537 C1185.93894,867.810362 1185.43826,868.207127 1185.37331,868.761736 L1182.99932,888.328281 C1182.80886,889.946749 1182.65622,891.280742 1182.56859,892.117559 L1182.43037,893.471857 L1182.3005,894.821588 C1181.72524,901.005471 1181.58207,905.602811 1181.89961,909.518733 C1182.42377,915.982634 1184.29814,920.668772 1187.96539,923.945203 C1180.4491,919.527231 1177.04259,909.633396 1177.01154,895.446605 C1176.99743,888.995299 1177.7015,881.965489 1178.95191,874.669195 C1179.69642,870.324879 1180.58828,866.154313 1181.54261,862.30799 L1181.78975,861.324988 C1181.99291,860.527732 1182.1887,859.78587 1182.37454,859.10398 L1182.69474,857.953779 L1182.8517,857.41308 C1183.01212,856.878361 1182.7102,856.314387 1182.17734,856.153409 C1181.64449,855.992432 1181.08249,856.295409 1180.92207,856.830129 L1180.82052,857.177183 C1180.73954,857.457716 1180.64657,857.786661 1180.54293,858.161687 L1180.3165,858.992565 C1180.0854,859.852168 1179.84078,860.797067 1179.58713,861.819406 C1178.62144,865.711541 1177.71932,869.930064 1176.96588,874.32645 C1175.69724,881.729132 1174.98197,888.870771 1174.99637,895.451046 C1175.02726,909.56858 1178.36682,919.860691 1185.73845,924.960885 C1184.91334,924.749261 1184.10734,924.515948 1183.31947,924.261338 C1173.22859,919.613261 1168.0805,908.053165 1166.95882,891.124808 C1166.43595,883.233537 1166.84392,874.600055 1167.95206,865.677052 C1168.46883,861.515906 1169.10777,857.537524 1169.8107,853.853642 L1170.00395,852.856332 L1170.23273,851.71441 C1170.3456,851.161295 1170.45602,850.635255 1170.56327,850.137681 L1170.65605,850.128728 L1170.82379,850.101028 C1172.39162,849.795205 1173.41555,848.271857 1173.11079,846.698534 C1172.80604,845.125212 1171.288,844.097701 1169.72017,844.403524 Z" id="Path-Copy-2" fill="#000000" fill-rule="nonzero"></path>
                    </g>
                </g>
            </g>
        </g>
    </g>
</svg>