<?xml version="1.0" encoding="UTF-8"?>
<svg width="1280px" height="1130px" viewBox="0 0 1280 1130" version="1.1" xmlns="http://www.w3.org/2000/svg" xmlns:xlink="http://www.w3.org/1999/xlink">
    <!-- Generator: Sketch 63.1 (92452) - https://sketch.com -->
    <title>Group 12 Copy</title>
    <desc>Created with Sketch.</desc>
    <defs>
        <rect id="path-1" x="0" y="0" width="1440" height="1130"></rect>
        <linearGradient x1="52.869694%" y1="48.9878663%" x2="41.3891009%" y2="58.8482825%" id="linearGradient-3">
            <stop stop-color="#CACBDF" offset="15%"></stop>
            <stop stop-color="#A7A8C9" offset="100%"></stop>
        </linearGradient>
        <linearGradient x1="0%" y1="50%" x2="100%" y2="50%" id="linearGradient-4">
            <stop stop-color="#A5AED5" offset="0%"></stop>
            <stop stop-color="#6978B9" offset="100%"></stop>
        </linearGradient>
        <linearGradient x1="0%" y1="50%" x2="100%" y2="50%" id="linearGradient-5">
            <stop stop-color="#F6E0D9" offset="0%"></stop>
            <stop stop-color="#E9B2A0" offset="100%"></stop>
        </linearGradient>
        <linearGradient x1="0%" y1="50%" x2="100.006483%" y2="50%" id="linearGradient-6">
            <stop stop-color="#CACBDF" offset="15%"></stop>
            <stop stop-color="#A7A8C9" offset="100%"></stop>
        </linearGradient>
        <linearGradient x1="0%" y1="50%" x2="100%" y2="50%" id="linearGradient-7">
            <stop stop-color="#163253" offset="0%"></stop>
            <stop stop-color="#738498" offset="100%"></stop>
        </linearGradient>
        <radialGradient cx="36.6085193%" cy="-8.05134189%" fx="36.6085193%" fy="-8.05134189%" r="108.518086%" gradientTransform="translate(0.366085,-0.080513),scale(0.417201,1.000000),translate(-0.366085,0.080513)" id="radialGradient-8">
            <stop stop-color="#000000" offset="0%"></stop>
            <stop stop-color="#000000" stop-opacity="0" offset="100%"></stop>
        </radialGradient>
        <linearGradient x1="0%" y1="50%" x2="99.9883721%" y2="50%" id="linearGradient-9">
            <stop stop-color="#A5AED5" offset="0%"></stop>
            <stop stop-color="#6978B9" offset="100%"></stop>
        </linearGradient>
        <linearGradient x1="0%" y1="50%" x2="100%" y2="50%" id="linearGradient-10">
            <stop stop-color="#163253" offset="0%"></stop>
            <stop stop-color="#738498" offset="100%"></stop>
        </linearGradient>
        <linearGradient x1="0%" y1="50%" x2="100%" y2="50%" id="linearGradient-11">
            <stop stop-color="#163253" offset="0%"></stop>
            <stop stop-color="#738498" offset="100%"></stop>
        </linearGradient>
        <linearGradient x1="0%" y1="50%" x2="100%" y2="50%" id="linearGradient-12">
            <stop stop-color="#CACBDF" offset="15%"></stop>
            <stop stop-color="#A7A8C9" offset="100%"></stop>
        </linearGradient>
        <linearGradient x1="0%" y1="50.0194477%" x2="100%" y2="50.0194477%" id="linearGradient-13">
            <stop stop-color="#A5AED5" offset="0%"></stop>
            <stop stop-color="#6978B9" offset="100%"></stop>
        </linearGradient>
        <linearGradient x1="0%" y1="50.0194477%" x2="100.005095%" y2="50.0194477%" id="linearGradient-14">
            <stop stop-color="#F6E0D9" offset="0%"></stop>
            <stop stop-color="#E9B2A0" offset="100%"></stop>
        </linearGradient>
        <linearGradient x1="0%" y1="50.0194477%" x2="100.010654%" y2="50.0194477%" id="linearGradient-15">
            <stop stop-color="#A5AED5" offset="0%"></stop>
            <stop stop-color="#6978B9" offset="100%"></stop>
        </linearGradient>
        <linearGradient x1="0%" y1="50%" x2="100%" y2="50%" id="linearGradient-16">
            <stop stop-color="#A5AED5" offset="0%"></stop>
            <stop stop-color="#6978B9" offset="100%"></stop>
        </linearGradient>
        <linearGradient x1="0%" y1="50%" x2="100%" y2="50%" id="linearGradient-17">
            <stop stop-color="#F6E0D9" offset="0%"></stop>
            <stop stop-color="#E9B2A0" offset="100%"></stop>
        </linearGradient>
        <linearGradient x1="0%" y1="50%" x2="100%" y2="50%" id="linearGradient-18">
            <stop stop-color="#CACBDF" offset="15%"></stop>
            <stop stop-color="#A7A8C9" offset="100%"></stop>
        </linearGradient>
        <linearGradient x1="0%" y1="50%" x2="100%" y2="50%" id="linearGradient-19">
            <stop stop-color="#F6E0D9" offset="0%"></stop>
            <stop stop-color="#E9B2A0" offset="100%"></stop>
        </linearGradient>
        <linearGradient x1="0%" y1="50%" x2="100%" y2="50%" id="linearGradient-20">
            <stop stop-color="#A5AED5" offset="0%"></stop>
            <stop stop-color="#6978B9" offset="100%"></stop>
        </linearGradient>
        <linearGradient x1="0%" y1="50%" x2="100%" y2="50%" id="linearGradient-21">
            <stop stop-color="#A5AED5" offset="0%"></stop>
            <stop stop-color="#6978B9" offset="100%"></stop>
        </linearGradient>
        <linearGradient x1="0%" y1="50%" x2="100.006555%" y2="50%" id="linearGradient-22">
            <stop stop-color="#163253" offset="0%"></stop>
            <stop stop-color="#738498" offset="100%"></stop>
        </linearGradient>
        <radialGradient cx="-17.4963277%" cy="-394.913295%" fx="-17.4963277%" fy="-394.913295%" r="466.566474%" gradientTransform="translate(-0.174963,-3.949133),scale(0.352946,1.000000),translate(0.174963,3.949133)" id="radialGradient-23">
            <stop stop-color="#000000" offset="0%"></stop>
            <stop stop-color="#000000" stop-opacity="0" offset="100%"></stop>
        </radialGradient>
        <linearGradient x1="0.50955414%" y1="2.50856943%" x2="55.2376286%" y2="45.0974042%" id="linearGradient-24">
            <stop stop-color="#000000" offset="0%"></stop>
            <stop stop-color="#000000" stop-opacity="0" offset="100%"></stop>
        </linearGradient>
        <linearGradient x1="0.499803998%" y1="2.49926058%" x2="55.2430419%" y2="45.0964433%" id="linearGradient-25">
            <stop stop-color="#000000" offset="0%"></stop>
            <stop stop-color="#000000" stop-opacity="0" offset="100%"></stop>
        </linearGradient>
        <linearGradient x1="0.50955414%" y1="2.50856943%" x2="55.2474277%" y2="45.0974042%" id="linearGradient-26">
            <stop stop-color="#000000" offset="0%"></stop>
            <stop stop-color="#000000" stop-opacity="0" offset="100%"></stop>
        </linearGradient>
        <linearGradient x1="0.509604077%" y1="2.50816699%" x2="55.2430419%" y2="45.0955006%" id="linearGradient-27">
            <stop stop-color="#000000" offset="0%"></stop>
            <stop stop-color="#000000" stop-opacity="0" offset="100%"></stop>
        </linearGradient>
        <linearGradient x1="50%" y1="-131.155193%" x2="50%" y2="41.7736289%" id="linearGradient-28">
            <stop stop-color="#000000" offset="0%"></stop>
            <stop stop-color="#000000" stop-opacity="0" offset="100%"></stop>
        </linearGradient>
        <linearGradient x1="50%" y1="-131.155193%" x2="50%" y2="41.7930766%" id="linearGradient-29">
            <stop stop-color="#000000" offset="0%"></stop>
            <stop stop-color="#000000" stop-opacity="0" offset="100%"></stop>
        </linearGradient>
        <linearGradient x1="50%" y1="-173.317775%" x2="50%" y2="30.5523143%" id="linearGradient-30">
            <stop stop-color="#000000" offset="0%"></stop>
            <stop stop-color="#000000" stop-opacity="0" offset="100%"></stop>
        </linearGradient>
        <linearGradient x1="49.9954975%" y1="-131.155193%" x2="49.9954975%" y2="41.7930766%" id="linearGradient-31">
            <stop stop-color="#000000" offset="0%"></stop>
            <stop stop-color="#000000" stop-opacity="0" offset="100%"></stop>
        </linearGradient>
        <linearGradient x1="49.9883721%" y1="-131.155193%" x2="49.9883721%" y2="41.7930766%" id="linearGradient-32">
            <stop stop-color="#000000" offset="0%"></stop>
            <stop stop-color="#000000" stop-opacity="0" offset="100%"></stop>
        </linearGradient>
        <linearGradient x1="50%" y1="-131.155193%" x2="50%" y2="41.7930766%" id="linearGradient-33">
            <stop stop-color="#000000" offset="0%"></stop>
            <stop stop-color="#000000" stop-opacity="0" offset="100%"></stop>
        </linearGradient>
        <linearGradient x1="50.0036114%" y1="-131.155193%" x2="50.0036114%" y2="41.7736289%" id="linearGradient-34">
            <stop stop-color="#000000" offset="0%"></stop>
            <stop stop-color="#000000" stop-opacity="0" offset="100%"></stop>
        </linearGradient>
        <linearGradient x1="49.9936314%" y1="-131.155193%" x2="49.9936314%" y2="41.7736289%" id="linearGradient-35">
            <stop stop-color="#000000" offset="0%"></stop>
            <stop stop-color="#000000" stop-opacity="0" offset="100%"></stop>
        </linearGradient>
        <linearGradient x1="50%" y1="-131.155193%" x2="50%" y2="41.7736289%" id="linearGradient-36">
            <stop stop-color="#000000" offset="0%"></stop>
            <stop stop-color="#000000" stop-opacity="0" offset="100%"></stop>
        </linearGradient>
        <linearGradient x1="50.0084048%" y1="-131.155193%" x2="50.0084048%" y2="41.7736289%" id="linearGradient-37">
            <stop stop-color="#000000" offset="0%"></stop>
            <stop stop-color="#000000" stop-opacity="0" offset="100%"></stop>
        </linearGradient>
        <linearGradient x1="50%" y1="-131.155193%" x2="50%" y2="41.7930766%" id="linearGradient-38">
            <stop stop-color="#000000" offset="0%"></stop>
            <stop stop-color="#000000" stop-opacity="0" offset="100%"></stop>
        </linearGradient>
        <linearGradient x1="50.0032776%" y1="-131.155193%" x2="50.0032776%" y2="41.7736289%" id="linearGradient-39">
            <stop stop-color="#000000" offset="0%"></stop>
            <stop stop-color="#000000" stop-opacity="0" offset="100%"></stop>
        </linearGradient>
        <linearGradient x1="49.9997288%" y1="26.5874335%" x2="49.9997288%" y2="55.9909685%" id="linearGradient-40">
            <stop stop-color="#CACBDF" offset="15%"></stop>
            <stop stop-color="#A7A8C9" offset="100%"></stop>
        </linearGradient>
        <linearGradient x1="51.7274797%" y1="49.9980827%" x2="88.4789615%" y2="49.9980827%" id="linearGradient-41">
            <stop stop-color="#F6E0D9" offset="0%"></stop>
            <stop stop-color="#E9B2A0" offset="100%"></stop>
        </linearGradient>
        <linearGradient x1="48.1770523%" y1="39.3720958%" x2="58.5011319%" y2="99.5770285%" id="linearGradient-42">
            <stop stop-color="#F6E0D9" offset="0%"></stop>
            <stop stop-color="#E9B2A0" offset="100%"></stop>
        </linearGradient>
        <linearGradient x1="0%" y1="49.9489121%" x2="100%" y2="49.9489121%" id="linearGradient-43">
            <stop stop-color="#A5AED5" offset="0%"></stop>
            <stop stop-color="#6978B9" offset="100%"></stop>
        </linearGradient>
        <linearGradient x1="0%" y1="50.0139297%" x2="100%" y2="50.0139297%" id="linearGradient-44">
            <stop stop-color="#CACBDF" offset="15%"></stop>
            <stop stop-color="#A7A8C9" offset="100%"></stop>
        </linearGradient>
        <linearGradient x1="0%" y1="50.0139297%" x2="100%" y2="50.0139297%" id="linearGradient-45">
            <stop stop-color="#CACBDF" offset="15%"></stop>
            <stop stop-color="#A7A8C9" offset="100%"></stop>
        </linearGradient>
        <linearGradient x1="3.96314406%" y1="50.0066819%" x2="100.018578%" y2="50.0066819%" id="linearGradient-46">
            <stop stop-color="#CACBDF" offset="15%"></stop>
            <stop stop-color="#A7A8C9" offset="100%"></stop>
        </linearGradient>
    </defs>
    <g id="Page-1" stroke="none" stroke-width="1" fill="none" fill-rule="evenodd">
        <g id="Artboard" transform="translate(0.000000, -56.000000)">
            <g id="Group-12-Copy" transform="translate(-80.000000, 56.000000)">
                <mask id="mask-2" fill="white">
                    <use xlink:href="#path-1"></use>
                </mask>
                <use id="Mask" fill="#FFFFFF" xlink:href="#path-1"></use>
                <g id="Group-12" mask="url(#mask-2)">
                    <g transform="translate(-689.000000, 55.000000)">
                        <g id="dateam-illustration-5" stroke-width="1" fill="none" fill-rule="evenodd">
                            <g id="Calque_3" fill-rule="nonzero">
                                <polygon id="Path" fill="url(#linearGradient-3)" opacity="0.3" points="4.54747351e-13 764.81 399.23 578.01 509.12 610.98 688.59 523.07 927.09 576.74 1194.41 592.66 1351.42 592.66 1672.25 695.22 2201.28 1105.44 1532.31 1090.79 477.66 1057.83"></polygon>
                                <rect id="Rectangle" fill="url(#linearGradient-4)" x="997.37" y="344.14" width="154.26" height="51.42"></rect>
                                <rect id="Rectangle" fill="url(#linearGradient-5)" x="1128.08" y="395.56" width="126.83" height="51.42"></rect>
                                <rect id="Rectangle" fill="url(#linearGradient-6)" x="963.21" y="395.56" width="154.26" height="51.42"></rect>
                                <rect id="Rectangle" fill="url(#linearGradient-7)" x="1053.32" y="292.72" width="123.25" height="51.42"></rect>
                                <rect id="Rectangle" fill="url(#radialGradient-8)" style="mix-blend-mode: multiply;" x="1053.32" y="292.72" width="123.25" height="51.42"></rect>
                                <rect id="Rectangle" fill="url(#linearGradient-9)" x="1020.71" y="549.82" width="86" height="51.42"></rect>
                                <rect id="Rectangle" fill="url(#linearGradient-10)" x="897.42" y="549.82" width="111.05" height="51.42"></rect>
                                <rect id="Rectangle" fill="url(#linearGradient-4)" x="730.92" y="549.82" width="154.26" height="51.42"></rect>
                                <rect id="Rectangle" fill="url(#linearGradient-11)" x="1036.35" y="446.98" width="170.04" height="51.42"></rect>
                                <rect id="Rectangle" fill="url(#linearGradient-12)" x="871.33" y="446.98" width="154.26" height="51.42"></rect>
                                <rect id="Rectangle" fill="url(#linearGradient-13)" x="796.95" y="601.24" width="154.26" height="51.42"></rect>
                                <rect id="Rectangle" fill="url(#linearGradient-14)" x="589.36" y="601.24" width="196.28" height="51.42"></rect>
                                <rect id="Rectangle" fill="url(#linearGradient-15)" x="962.51" y="601.24" width="93.86" height="51.42"></rect>
                                <rect id="Rectangle" fill="url(#linearGradient-16)" x="970.06" y="498.4" width="186.5" height="51.42"></rect>
                                <rect id="Rectangle" fill="url(#linearGradient-17)" x="803.65" y="498.4" width="154.26" height="51.42"></rect>
                                <rect id="Rectangle" fill="url(#linearGradient-18)" x="897.42" y="704.26" width="59.49" height="51.42"></rect>
                                <rect id="Rectangle" fill="url(#linearGradient-19)" x="806.67" y="704.26" width="78.51" height="51.42"></rect>
                                <rect id="Rectangle" fill="url(#linearGradient-20)" x="848.52" y="755.68" width="77.32" height="51.42"></rect>
                                <rect id="Rectangle" fill="url(#linearGradient-21)" x="867.45" y="652.84" width="138.45" height="51.42"></rect>
                                <rect id="Rectangle" fill="url(#linearGradient-22)" x="702.75" y="652.84" width="152.55" height="51.42"></rect>
                                <polygon id="Path" fill="url(#radialGradient-23)" style="mix-blend-mode: multiply;" points="1250.62 438.81 1128.08 438.81 1128.08 395.56 1219.83 395.56"></polygon>
                                <polygon id="Path" fill="url(#linearGradient-24)" opacity="0.7" style="mix-blend-mode: multiply;" points="1091.32 387.39 1155.37 387.39 1155.37 344.14 1053.32 344.14"></polygon>
                                <polygon id="Path" fill="url(#linearGradient-25)" opacity="0.7" style="mix-blend-mode: multiply;" points="1035.36 438.81 1099.41 438.81 1099.41 395.56 997.37 395.56"></polygon>
                                <polygon id="Path" fill="url(#linearGradient-26)" opacity="0.7" style="mix-blend-mode: multiply;" points="1001.21 490.23 1065.26 490.23 1065.26 446.98 963.21 446.98"></polygon>
                                <polygon id="Path" fill="url(#linearGradient-24)" opacity="0.7" style="mix-blend-mode: multiply;" points="909.33 541.65 973.38 541.65 973.38 498.4 871.33 498.4"></polygon>
                                <polygon id="Path" fill="url(#linearGradient-24)" opacity="0.7" style="mix-blend-mode: multiply;" points="841.64 593.07 905.7 593.07 905.7 549.82 803.65 549.82"></polygon>
                                <polygon id="Path" fill="url(#linearGradient-27)" opacity="0.7" style="mix-blend-mode: multiply;" points="768.91 644.49 832.96 644.49 832.96 601.25 730.92 601.25"></polygon>
                                <rect id="Rectangle" fill="url(#linearGradient-28)" style="mix-blend-mode: multiply;" x="1036.35" y="446.98" width="170.04" height="51.42"></rect>
                                <rect id="Rectangle" fill="url(#linearGradient-29)" style="mix-blend-mode: multiply;" x="970.06" y="498.4" width="186.5" height="51.42"></rect>
                                <rect id="Rectangle" fill="url(#linearGradient-30)" style="mix-blend-mode: multiply;" x="970.06" y="498.65" width="186.5" height="51.42"></rect>
                                <rect id="Rectangle" fill="url(#linearGradient-31)" style="mix-blend-mode: multiply;" x="897.42" y="549.82" width="111.05" height="51.42"></rect>
                                <rect id="Rectangle" fill="url(#linearGradient-32)" style="mix-blend-mode: multiply;" x="1020.71" y="549.82" width="86" height="51.42"></rect>
                                <rect id="Rectangle" fill="url(#linearGradient-33)" style="mix-blend-mode: multiply;" x="796.95" y="601.24" width="154.26" height="51.42"></rect>
                                <rect id="Rectangle" fill="url(#linearGradient-34)" style="mix-blend-mode: multiply;" x="867.45" y="652.84" width="138.45" height="51.42"></rect>
                                <rect id="Rectangle" fill="url(#linearGradient-35)" style="mix-blend-mode: multiply;" x="806.67" y="704.26" width="78.51" height="51.42"></rect>
                                <rect id="Rectangle" fill="url(#linearGradient-36)" style="mix-blend-mode: multiply;" x="848.52" y="755.68" width="77.32" height="51.42"></rect>
                                <rect id="Rectangle" fill="url(#linearGradient-37)" style="mix-blend-mode: multiply;" x="897.42" y="704.26" width="59.49" height="51.42"></rect>
                                <rect id="Rectangle" fill="url(#linearGradient-38)" style="mix-blend-mode: multiply;" x="962.51" y="601.24" width="93.86" height="51.42"></rect>
                                <rect id="Rectangle" fill="url(#linearGradient-39)" style="mix-blend-mode: multiply;" x="702.75" y="652.84" width="152.55" height="51.42"></rect>
                                <polygon id="Path" fill="url(#linearGradient-40)" points="105.99 966.93 599.16 652.53 907.14 805.47 1264.33 437.63 1571.73 695.91 1862.17 1159.55 18.34 1159.55"></polygon>
                                <polygon id="Path" fill="url(#linearGradient-41)" points="1264.33 437.63 1011.09 698.42 1270.28 535.65 1454.8 597.67"></polygon>
                                <g id="Group-19" transform="translate(701.620000, 687.070000)" fill="#000000">
                                    <polygon id="Path" points="979.38 97.93 1025.88 0.93 1072.38 97.93"></polygon>
                                    <polygon id="Path" points="954.38 195.93 1025.38 47.93 1096.38 195.93"></polygon>
                                    <polygon id="Path" points="934.38 306.93 1025.88 115.93 1117.38 306.93"></polygon>
                                    <polygon id="Path" points="899.38 449.93 1025.38 186.93 1151.38 449.93"></polygon>
                                    <polygon id="Path" points="1169.38 197.93 1198.38465 137.93 1227.38 197.93"></polygon>
                                    <g id="Group" transform="translate(0.380000, 137.930000)">
                                        <polygon id="Path-Copy-4" points="49 60 78.0046497 0 107 60"></polygon>
                                        <polygon id="Path-Copy-5" points="34 120 78.0046291 28 122 120"></polygon>
                                        <polygon id="Path-Copy-6" points="21 189 78 70 135 189"></polygon>
                                        <polygon id="Path-Copy-7" points="0 278 78.0046376 115 156 278"></polygon>
                                    </g>
                                    <polygon id="Path" points="1154.38 257.93 1198.38463 165.93 1242.38 257.93"></polygon>
                                    <polygon id="Path" points="1141.38 326.93 1198.38 207.93 1255.38 326.93"></polygon>
                                    <polygon id="Path" points="1120.38 415.93 1198.38464 252.93 1276.38 415.93"></polygon>
                                    <path d="M1107.38,106.12548 C1112.096,106.509211 1116.73914,107.519723 1121.18565,109.130078 C1123.47194,109.937939 1125.65329,111.014245 1127.68351,112.336203 C1128.74533,113.021908 1129.72162,113.830623 1130.5919,114.745378 C1131.52324,115.712057 1132.26049,116.846904 1132.76399,118.088909 L1130.13171,118.317918 C1130.40988,116.997615 1130.79462,115.701801 1131.28218,114.443086 C1131.51228,113.811021 1131.77919,113.215598 1132.02769,112.611014 L1132.86523,110.778942 C1134.07934,108.424943 1135.57507,106.225752 1137.31985,104.229285 C1138.18887,103.243245 1139.11058,102.304477 1140.08098,101.417055 C1141.09625,100.577845 1142.15954,99.7979062 1143.26549,99.0811636 C1145.46474,97.6815151 1147.8631,96.6192328 1150.38,95.93 C1148.1478,97.1411765 1146.04473,98.5744672 1144.10303,100.207888 C1143.12963,101.001233 1142.20743,101.854838 1141.3419,102.763628 C1140.54117,103.679664 1139.68522,104.5957 1138.97653,105.62166 C1137.49967,107.594578 1136.22909,109.712447 1135.18458,111.942308 C1134.1361,114.138601 1133.32172,116.438192 1132.75479,118.803417 L1132.75479,118.88586 C1132.58178,119.614245 1131.84845,120.065291 1131.11652,119.8935 C1130.67528,119.760287 1130.32998,119.416623 1130.19614,118.977464 C1129.56108,117.145392 1127.95042,115.661414 1126.21091,114.397284 C1125.3171,113.725241 1124.37931,113.113196 1123.40376,112.565212 C1122.41896,112.024751 1121.41574,111.48429 1120.37572,110.998791 C1116.1506,109.105142 1111.81015,107.477501 1107.38,106.12548 L1107.38,106.12548 Z" id="Path"></path>
                                    <path d="M774.38,152.084022 C779.71466,152.660223 785.007215,153.575559 790.225539,154.824474 C795.466754,156.051775 800.620235,157.627462 805.651638,159.541034 C808.190718,160.491382 810.679543,161.570951 813.108362,162.775513 C815.582751,163.976136 817.965949,165.356263 820.238855,166.904833 C822.588819,168.4687 824.75829,170.288125 826.707563,172.32981 C828.77724,174.472466 830.39676,177.008016 831.470546,179.786822 L827.024474,180.159672 C827.350706,178.556415 827.714221,177.158225 828.161625,175.694786 C828.609028,174.231348 829.093715,172.823837 829.587723,171.416326 C830.620924,168.599908 831.815992,165.845544 833.166951,163.167006 C835.856789,157.814641 839.183618,152.806992 843.075073,148.252982 C845.033126,145.995271 847.121463,143.853943 849.329401,141.839952 C851.572763,139.877995 853.935474,138.056863 856.403968,136.387012 C861.334472,133.130677 866.717542,130.618062 872.38,128.93 C867.193216,131.513198 862.307435,134.661101 857.811425,138.316514 C853.403311,141.950041 849.43098,146.08205 845.973875,150.629905 C840.862648,157.44061 836.806074,164.982169 833.940586,173.000941 C833.455899,174.333882 833.008495,175.676144 832.617017,177.027727 C832.225539,178.379311 831.834061,179.824107 831.582397,181.02655 L831.582397,181.082477 C831.374681,182.095857 830.519034,182.847872 829.487409,182.92373 C828.455783,182.999588 827.499347,182.380819 827.145646,181.408722 C826.271459,179.204379 824.990925,177.183904 823.370679,175.452433 C821.672558,173.623933 819.799435,171.966155 817.778136,170.502842 C815.69301,168.992257 813.513713,167.616134 811.253502,166.382843 C808.997843,165.115151 806.676937,163.922029 804.290786,162.840762 C794.59229,158.540213 784.596059,154.945294 774.38,152.084022 L774.38,152.084022 Z" id="Path"></path>
                                    <path d="M1111.38,13.7843647 C1115.06213,14.025687 1118.65397,15.0163833 1121.92994,16.6942365 C1123.64113,17.5572043 1125.19851,18.6898049 1126.54087,20.0475173 C1127.92928,21.4962094 1128.94875,23.2504153 1129.51505,25.1651966 C1129.65539,25.6371407 1129.53016,26.1471843 1129.18652,26.5031987 C1128.84288,26.8592132 1128.33305,27.0071115 1127.84907,26.8911817 C1127.36509,26.7752519 1126.9805,26.4131066 1126.84016,25.9411624 L1126.84016,25.8857363 L1126.84016,25.8857363 C1126.37688,23.9472533 1126.19735,21.9531848 1126.30705,19.9643781 C1126.41542,17.9784946 1126.86779,16.0256744 1127.6445,14.190823 C1127.85961,13.7381762 1128.06537,13.2670541 1128.30854,12.8421205 C1128.55172,12.4171868 1128.85101,12.0014909 1129.13159,11.5857949 C1129.43918,11.1910776 1129.77023,10.8147492 1130.12299,10.4587969 L1130.62804,9.91377331 L1131.20791,9.45188889 C1132.71494,8.23311102 1134.48398,7.37053245 1136.38,6.93 C1134.80106,7.86588997 1133.38605,9.04823204 1132.18995,10.4310839 C1131.05774,11.7542811 1130.21685,13.2958133 1129.72082,14.9575511 C1129.22945,16.6103786 1128.98371,18.3249269 1128.9913,20.0475173 C1128.9836,20.9176365 1129.02732,21.7874581 1129.12224,22.6525454 C1129.20921,23.497963 1129.34977,24.3371607 1129.54311,25.1651966 L1126.84016,25.8672609 C1126.4038,24.3696311 1125.64443,22.9830266 1124.61419,21.8026781 C1123.51621,20.5568132 1122.25859,19.457518 1120.87308,18.5325365 C1119.4311,17.5608087 1117.91802,16.6962446 1116.34633,15.9459837 C1114.70959,15.1792556 1113.07285,14.4771913 1111.38,13.7843647 Z" id="Path"></path>
                                    <path d="M1188.38,44.93 C1190.27812,45.8696573 1192.09019,46.9781521 1193.79486,48.2424371 C1195.52361,49.5081814 1197.13407,50.9319737 1198.60601,52.4959074 C1200.13868,54.0964969 1201.4311,55.9164158 1202.44192,57.8974382 C1203.54926,60.0315292 1203.96829,62.4636865 1203.64006,64.851674 L1201.60601,63.3930724 C1202.64539,62.868803 1203.73455,62.4526215 1204.85678,62.1509085 C1205.92239,61.8406383 1207.00466,61.5924269 1208.09827,61.4074923 C1210.24586,61.0359348 1212.42115,60.8533208 1214.59981,60.861693 L1216.2252,60.861693 L1217.85059,60.9652066 C1218.92799,61.0216686 1220.00539,61.1628236 1221.0735,61.3039786 C1222.14161,61.4451336 1223.20043,61.6521609 1224.24997,61.8497779 C1225.2995,62.0473949 1226.33975,62.3579358 1227.38,62.6308355 C1226.3026,62.6308355 1225.23449,62.6308355 1224.17567,62.5743735 C1223.11684,62.5179115 1222.04873,62.5743735 1220.98991,62.5743735 C1218.88155,62.6214252 1216.78248,62.7155285 1214.70198,62.9319661 C1212.64356,63.1348541 1210.5973,63.4489792 1208.57195,63.8729994 C1207.56885,64.117668 1206.58433,64.3905677 1205.61839,64.7011086 C1204.69429,64.9907357 1203.79376,65.3525503 1202.92489,65.7832969 L1202.92489,65.7832969 C1202.24223,66.1255422 1201.41484,65.8489028 1201.06731,65.1622149 C1200.93149,64.9026688 1200.88259,64.6054322 1200.92799,64.315285 C1201.1319,62.4862674 1200.80934,60.6365308 1199.9992,58.9890368 C1199.16172,57.1844412 1198.11401,55.4879197 1196.87845,53.9356882 C1196.27474,53.1169893 1195.61529,52.3359317 1194.92799,51.5642844 C1194.24068,50.7926372 1193.56266,50.0209899 1192.8382,49.2775736 C1191.41715,47.8377928 1189.91251,46.3886015 1188.38,44.93 Z" id="Path"></path>
                                </g>
                                <g id="Group-18" transform="translate(642.000000, 0.000000)">
                                    <circle id="Oval" fill="url(#linearGradient-42)" cx="146.59" cy="83.93" r="83.93"></circle>
                                    <path d="M175.75,138.91 L310.17,138.91 C310.17,138.91 265.47,109.83 260.78,113.91 C256.09,117.99 254.53,124.56 254.53,124.56 C254.53,124.56 206.7,96.42 193.53,106.74 C180.36,117.06 175.75,138.91 175.75,138.91 Z" id="Path" fill="url(#linearGradient-43)"></path>
                                    <circle id="Oval" fill="#A7A8C9" cx="270.01" cy="168.36" r="2.14"></circle>
                                    <circle id="Oval" fill="#A7A8C9" cx="266.29" cy="216.93" r="2.14"></circle>
                                    <circle id="Oval" fill="#A7A8C9" cx="229.92" cy="179.79" r="2.14"></circle>
                                    <circle id="Oval" fill="#A7A8C9" cx="285.45" cy="185.03" r="2.14"></circle>
                                    <circle id="Oval" fill="#A7A8C9" cx="213.63" cy="159.96" r="2.14"></circle>
                                    <circle id="Oval" fill="#A7A8C9" cx="208.25" cy="201.46" r="2.14"></circle>
                                </g>
                                <path d="M1230,341.891684 L1403,341.891684 C1403,341.891684 1345.46985,304.475836 1339.43479,309.707255 C1333.39972,314.938673 1331.38288,323.384671 1331.38288,323.384671 C1331.38288,323.384671 1269.82678,287.174291 1252.92706,300.449885 C1236.02734,313.725479 1230,341.891684 1230,341.891684 Z" id="Path" fill="url(#linearGradient-44)" opacity="0.3"></path>
                                <path d="M584,395.415996 L807.88,395.415996 C807.88,395.415996 733.43,346.995996 725.62,353.765996 C717.81,360.535996 715.2,371.465996 715.2,371.465996 C715.2,371.465996 635.54,324.605996 613.67,341.785996 C591.8,358.965996 584,395.415996 584,395.415996 Z" id="Path-Copy-3" fill="url(#linearGradient-45)" opacity="0.3"></path>
                            </g>
                            <g id="Calque_2-2" transform="translate(1037.000000, 149.000000)" fill-rule="nonzero">
                                <path d="M89.72,53.32 C89.84,50.97 89.96,48.75 90.06,46.69 C90.3017725,42.8833796 90.1375131,39.0618354 89.57,35.29 C98.04,32.42 98.49,23.75 98.02,18.92 C97.9878587,18.5194611 97.6884809,18.1915664 97.2925106,18.1232144 C96.8965403,18.0548624 96.5045614,18.2634157 96.34,18.63 C94.5376935,22.55089 90.9426523,25.3515912 86.7,26.14 L86.6,25.96 C86.48,25.7 86.36,25.45 86.22,25.2 C83.7489445,20.5983251 83.6669065,15.0831362 86,10.41 C86.0552284,10.3409644 86.0440355,10.2402285 85.9749999,10.1850001 C85.9059644,10.1297716 85.8052285,10.1409645 85.75,10.21 C84.47,11.37 81.84,13.44 79.99,12.74 C75.22,10.94 82.56,4.5 82.56,4.5 C73.62,4.5 67.48,11.63 67.48,11.63 C71.33,7.06 69.57,0.63 69.57,0.63 C59.28,11.97 47.23,13.8 47.23,13.8 C48.4908939,12.4051107 48.9944697,10.4840623 48.58,8.65 C38.24,15.43 34.25,22.07 32.7,26.09 C28.4991996,25.2809639 24.9488652,22.4906171 23.17,18.6 C22.9992233,18.2387914 22.6086636,18.0356582 22.2148741,18.1032315 C21.8210845,18.1708049 21.5205878,18.4925217 21.48,18.89 C21.02,23.72 21.48,32.39 29.93,35.26 C29.3677463,39.0289831 29.2035094,42.8466548 29.44,46.65 C29.5466667,48.65 29.6566667,50.7566667 29.77,52.97 C22.87,57.97 7.29,71.63 1.23,97.03 L1.59,96.73 C1.91205618,96.531915 2.31829485,96.5324091 2.63986825,96.7312769 C2.96144165,96.9301446 3.14335561,97.2933765 3.11,97.67 C1.65611723,103.823841 0.92782481,110.126759 0.939849848,116.45 L1.62,115.77 C1.91303953,115.543316 2.30739172,115.497221 2.64481051,115.650212 C2.98222931,115.803204 3.20741314,116.130206 3.23,116.5 C3.03,119.5 2.96,124.42 4.23,127.76 L6.3,126.28 C6.3,126.28 11.3,139.03 19.5,138.77 C27.7,138.51 26.95,130.1 26.95,130.1 C26.95,130.1 29.39,129.49 28.95,125.23 C28.7605723,123.469023 28.3506973,121.738813 27.73,120.08 L30.17,120.35 C30.17,120.35 24.73,108.89 32.05,98.6 C33.05,118.1 33.85,135.72 34.13,141.6 C34.1834692,142.753712 35.1350507,143.661238 36.29,143.66 L55.07,143.72 C56.2700863,143.720013 57.244495,142.750074 57.25,141.55 L57.25,131 C57.1950136,130.1914 57.5952143,129.41955 58.2877488,128.998536 C58.9802834,128.577522 59.8497166,128.577522 60.5422512,128.998536 C61.2347857,129.41955 61.6349864,130.1914 61.58,131 L61.58,141.62 C61.58,142.19552 61.8086243,142.747468 62.2155783,143.154422 C62.6225322,143.561376 63.1744802,143.79 63.75,143.79 L83.22,143.73 C84.3729161,143.726169 85.3215633,142.821441 85.38,141.67 C85.66,135.81 86.51,118.18 87.46,98.67 C93.46,106.92 89.46,120.57 89.46,120.57 L91.9,120.03 C89.06,128.56 92.71,130.32 92.71,130.32 C92.71,130.32 92.17,139.26 100.19,139.65 C108.21,140.04 113,126.31 113,126.31 L115.08,127.79 C117.08,121.12 117.21,110.16 117.17,105.79 C117.16438,105.486472 117.344713,105.2103 117.624876,105.093382 C117.905039,104.976464 118.228191,105.042519 118.44,105.26 L119.44,106.26 C117.9,77.47 98,59.58 89.72,53.32 Z" id="Path" fill="#000000"></path>
                                <ellipse id="Oval" fill="#FFFFFF" cx="48.92" cy="41.99" rx="3.66" ry="5.82"></ellipse>
                                <ellipse id="Oval" fill="#FFFFFF" cx="70.59" cy="41.99" rx="3.66" ry="5.82"></ellipse>
                            </g>
                            <g id="Drapeau" transform="translate(1145.000000, 82.000000)" fill-rule="nonzero">
                                <path d="M23.17,42.3099999 L176.31,42.3099999 C177.781813,42.3099999 179.147974,43.0744761 179.917184,44.3292874 C180.686393,45.5840987 180.748057,47.1485373 180.08,48.46 L175.89,56.67 C168.658945,70.8474449 168.562521,87.6103069 175.63,101.87 L180.18,111.03 C180.829804,112.339713 180.757199,113.892129 179.987993,115.135477 C179.218786,116.378824 177.862047,117.136801 176.4,117.14 L24.53,117.14" id="Path" fill="url(#linearGradient-46)" opacity="0.3"></path>
                                <path d="M24,31.0696988 L24,31.0696988 C24.7054759,31.0696988 25.3820573,31.3502492 25.880904,31.849096 C26.3797508,32.3479427 26.66,33.0245241 26.66,33.73 L26.66,210.87 L21.3,210.87 L21.3,33.73 C21.2999194,33.0175387 21.5856528,32.3348241 22.0931845,31.8348114 C22.6007162,31.3347987 23.2876192,31.0592863 24,31.0696988 L24,31.0696988 Z" id="Path" fill="#A7A8C9"></path>
                                <rect id="Rectangle" fill="#6978B9" x="35.28" y="82.96" width="62.74" height="25.44"></rect>
                                <rect id="Rectangle" fill="#6978B9" x="35.25" y="51.05" width="53.06" height="25.44"></rect>
                                <path d="M39.53,63.69 C39.53,57.76 42.84,54.26 47.62,54.26 C52.4,54.26 55.71,57.77 55.71,63.69 C55.71,69.61 52.4,73.28 47.62,73.28 C42.84,73.28 39.53,69.63 39.53,63.69 Z M52.36,63.69 C52.36,59.58 50.5,57.08 47.62,57.08 C44.74,57.08 42.87,59.58 42.87,63.69 C42.87,67.8 44.73,70.45 47.62,70.45 C50.51,70.45 52.36,67.81 52.36,63.69 Z" id="Shape" fill="#FFFFFF"></path>
                                <path d="M59,67.8 L59,59.16 L62.23,59.16 L62.23,67.39 C62.23,69.65 62.88,70.5 64.38,70.5 C65.59,70.5 66.38,69.94 67.38,68.6 L67.38,59.16 L70.61,59.16 L70.61,72.94 L68,72.94 L67.75,70.94 L67.66,70.94 C66.6415355,72.3864703 64.998492,73.26548 63.23,73.31 C60.25,73.28 59,71.28 59,67.8 Z" id="Path" fill="#FFFFFF"></path>
                                <path d="M74.72,59.16 L77.36,59.16 L77.61,61.62 L77.7,61.62 C78.392657,60.0370738 79.8979919,58.9618346 81.62,58.82 C82.1544789,58.7942304 82.6878454,58.8899629 83.18,59.1 L82.62,61.91 C82.1611521,61.7625713 81.6819479,61.6883284 81.2,61.69 C80.1,61.69 78.78,62.44 77.95,64.53 L77.95,72.94 L74.72,72.94 L74.72,59.16 Z" id="Path" fill="#FFFFFF"></path>
                                <path d="M95.75,68.27 L95.75,61.71 L93.75,61.71 L93.75,59.29 L95.88,59.14 L96.26,55.38 L99,55.38 L99,59.14 L102.52,59.14 L102.52,61.71 L99,61.71 L99,68.27 C99,69.89 99.63,70.69 101,70.69 C101.491708,70.6677476 101.975705,70.5594406 102.43,70.37 L102.98,72.75 C102.077259,73.0715239 101.128153,73.2437816 100.17,73.26 C96.93,73.26 95.75,71.25 95.75,68.27 Z" id="Path" fill="#163253"></path>
                                <path d="M104,66 C104,61.52 107.11,58.76 110.35,58.76 C114.08,58.76 116.040025,61.46 116.040025,65.3 C116.041265,65.8298191 115.994406,66.3586581 115.9,66.88 L107.15,66.88 C107.173404,67.9286662 107.616109,68.9242085 108.37911,69.6439851 C109.142111,70.3637616 110.161751,70.7477228 111.21,70.71 C112.350559,70.6908462 113.461481,70.3436831 114.41,69.71 L115.51,71.71 C114.120173,72.6668883 112.47725,73.1890034 110.79,73.21 C107,73.26 104,70.59 104,66 Z M113.25,64.68 C113.25,62.56 112.25,61.27 110.42,61.27 C108.81,61.27 107.42,62.47 107.12,64.68 L113.25,64.68 Z" id="Shape" fill="#163253"></path>
                                <path d="M118.09,69.22 C118.09,66.22 120.54,64.73 126.19,64.12 C126.19,62.64 125.56,61.41 123.69,61.41 C122.300607,61.4965851 120.961788,61.9636151 119.82,62.76 L118.63,60.61 C120.310302,59.4892851 122.271202,58.8622129 124.29,58.8 C127.73,58.8 129.43,60.92 129.43,64.8 L129.43,72.96 L126.78,72.96 L126.53,71.43 L126.44,71.43 C125.289431,72.5488839 123.772552,73.2131842 122.17,73.3 C121.069343,73.3647427 119.993535,72.9557202 119.213907,72.1760927 C118.43428,71.3964653 118.025257,70.3206572 118.09,69.22 L118.09,69.22 Z M126.19,69.22 L126.19,66.12 C122.46,66.59 121.19,67.57 121.19,68.96 C121.19,70.18 122.02,70.71 123.19,70.71 C124.34759,70.6373621 125.427941,70.1043891 126.19,69.23 L126.19,69.22 Z" id="Shape" fill="#163253"></path>
                                <path d="M133.31,59.14 L136,59.14 L136.25,61.02 L136.33,61.02 C137.374245,59.7239447 138.909929,58.9198836 140.57,58.8 C142.250809,58.6640509 143.811875,59.6787434 144.37,61.27 C145.69,59.87 147.05,58.8 148.8,58.8 C151.71,58.8 153.05,60.8 153.05,64.28 L153.05,72.92 L149.82,72.92 L149.82,64.69 C149.82,62.43 149.15,61.57 147.7,61.57 C146.545561,61.7264494 145.505168,62.3477948 144.82,63.29 L144.82,72.92 L141.59,72.92 L141.59,64.69 C141.59,62.43 140.91,61.57 139.47,61.57 C138.314267,61.7305229 137.272236,62.3506941 136.58,63.29 L136.58,72.92 L133.35,72.92 L133.31,59.14 Z" id="Path" fill="#163253"></path>
                                <path d="M44.45,97.87 L38.93,86.34 L42.41,86.34 L44.41,91.03 C44.95,92.4 45.47,93.67 46.05,95.03 L46.16,95.03 C46.74,93.63 47.32,92.36 47.85,91.03 L49.85,86.34 L53.23,86.34 L47.7,97.87 L47.7,104.69 L44.45,104.69 L44.45,97.87 Z" id="Path" fill="#FFFFFF"></path>
                                <path d="M52.9,97.81 C52.9,93.22 56.02,90.57 59.46,90.57 C62.9,90.57 66,93.22 66,97.81 C66,102.4 62.89,105 59.46,105 C56.03,105 52.9,102.38 52.9,97.81 Z M62.69,97.81 C62.69,95.05 61.48,93.21 59.46,93.21 C57.44,93.21 56.23,95.05 56.23,97.81 C56.23,100.57 57.44,102.39 59.46,102.39 C61.48,102.39 62.69,100.57 62.69,97.81 Z" id="Shape" fill="#FFFFFF"></path>
                                <path d="M69.06,99.55 L69.06,90.91 L72.29,90.91 L72.29,99.14 C72.29,101.4 72.94,102.26 74.43,102.26 C75.64,102.26 76.43,101.69 77.43,100.35 L77.43,90.91 L80.67,90.91 L80.67,104.69 L78.07,104.69 L77.82,102.69 L77.73,102.69 C76.6976748,104.112545 75.0573554,104.967881 73.3,105 C70.35,105 69.06,103 69.06,99.55 Z" id="Path" fill="#FFFFFF"></path>
                                <path d="M84.81,90.91 L87.46,90.91 L87.71,93.37 L87.8,93.37 C88.4909777,91.7900459 89.9916943,90.7153639 91.71,90.57 C92.2446148,90.5421004 92.7784587,90.6379186 93.27,90.85 L92.71,93.66 C92.2547739,93.5117999 91.7787358,93.4375245 91.3,93.44 C90.2,93.44 88.87,94.19 88.04,96.29 L88.04,104.69 L84.81,104.69 L84.81,90.91 Z" id="Path" fill="#FFFFFF"></path>
                                <path d="M105.47,100 L105.47,93.48 L103.47,93.48 L103.47,91.06 L105.6,90.91 L105.99,87.15 L108.67,87.15 L108.67,90.91 L112.18,90.91 L112.18,93.48 L108.7,93.48 L108.7,100 C108.7,101.62 109.33,102.42 110.7,102.42 C111.194796,102.39668 111.681896,102.288435 112.14,102.1 L112.69,104.48 C111.784041,104.80242 110.831499,104.974689 109.87,104.990037 C106.64,105 105.47,103 105.47,100 Z" id="Path" fill="#163253"></path>
                                <path d="M113.75,97.81 C113.75,93.33 116.86,90.57 120.11,90.57 C123.83,90.57 125.79,93.27 125.79,97.12 C125.795923,97.6466971 125.749022,98.172661 125.65,98.69 L116.91,98.69 C116.933404,99.7386662 117.376109,100.734208 118.13911,101.453985 C118.902111,102.173762 119.921751,102.557723 120.97,102.52 C122.110559,102.500846 123.221481,102.153683 124.17,101.52 L125.27,103.52 C123.875752,104.475503 122.230089,104.997383 120.54,105.02 C116.74,105 113.75,102.36 113.75,97.81 Z M123,96.49 C123,94.37 122.06,93.08 120.17,93.08 C118.57,93.08 117.17,94.28 116.87,96.49 L123,96.49 Z" id="Shape" fill="#163253"></path>
                                <path d="M127.81,101 C127.81,98.05 130.25,96.51 135.91,95.9 C135.91,94.42 135.27,93.19 133.41,93.19 C132.020607,93.2765851 130.681788,93.7436151 129.54,94.54 L128.35,92.39 C130.024957,91.2645949 131.983086,90.6338345 134,90.57 C137.45,90.57 139.14,92.69 139.14,96.57 L139.14,104.73 L136.49,104.73 L136.25,103.2 L136.16,103.2 C135.005851,104.319562 133.485629,104.983771 131.88,105.07 C130.782867,105.131505 129.711525,104.722491 128.934517,103.945483 C128.157509,103.168475 127.748495,102.097133 127.81,101 L127.81,101 Z M135.91,101 L135.91,97.9 C132.17,98.37 130.91,99.35 130.91,100.74 C130.91,101.96 131.74,102.49 132.91,102.49 C134.068801,102.413697 135.148981,101.877207 135.91,101 Z" id="Shape" fill="#163253"></path>
                                <path d="M143,90.91 L145.65,90.91 L145.9,92.79 L146,92.79 C147.036385,91.489667 148.57111,90.6842088 150.23,90.57 C151.889469,90.442673 153.430656,91.4360637 154,93 C155.32,91.6 156.69,90.53 158.44,90.53 C161.34,90.53 162.69,92.53 162.69,96.01 L162.69,104.65 L159.5,104.65 L159.5,96.46 C159.5,94.2 158.82,93.35 157.38,93.35 C156.223559,93.501392 155.179372,94.1192328 154.49,95.06 L154.49,104.69 L151.26,104.69 L151.26,96.46 C151.26,94.2 150.59,93.35 149.14,93.35 C147.987953,93.5062132 146.948637,94.1233072 146.26,95.06 L146.26,104.69 L143,104.69 L143,90.91 Z" id="Path" fill="#163253"></path>
                                <path d="M-6.50521303e-19,5.21 L10.15,9 C10.32,8.76 10.49,8.52 10.68,8.28 L10.68,8.28 C16.16,0.84 29.2,0 29.2,0 C28.3522288,1.76823526 26.8439818,3.13283966 25,3.8 C27.9309765,4.14966235 30.8784686,4.34326886 33.83,4.38 C32.7400345,5.94251991 31.1599659,7.09677937 29.34,7.66 C30.7742115,9.27532744 31.754212,11.2422299 32.18,13.36 L32.18,13.28 L42.64,13.21 C42.64,13.21 38.43,19 31.76,19.66 C30.3378212,23.8025992 26.7960783,26.8591194 22.49,27.66 L22.84,30.18 L25.09,30.06 C25.2223581,30.0489115 25.3533942,30.0931627 25.4519312,30.182225 C25.5504682,30.2712873 25.6076965,30.3971982 25.61,30.53 C25.6181997,30.662667 25.5732369,30.7931389 25.4850461,30.8925881 C25.3968553,30.9920373 25.2726956,31.0522779 25.14,31.06 L22.43,31.2 L22.43,31.2 C22.1806157,31.1981963 21.9691136,31.0163045 21.93,30.77 L21.52,27.77 C20.4840467,27.8729447 19.4392906,27.8460699 18.41,27.69 C17.1207065,27.4892784 15.8716823,27.0841895 14.71,26.49 L13.1,29.14 C13.0060325,29.2870998 12.8445298,29.3772409 12.67,29.38 C12.5926033,29.3801637 12.5165972,29.3594347 12.45,29.32 L10,28.19 C9.75783682,28.0576277 9.66126514,27.7591334 9.78,27.51 C9.90478782,27.2648435 10.2041732,27.1665378 10.45,27.29 L12.45,28.29 L13.81,26.06 C10.1494683,23.7720597 7.97629257,19.7149577 8.1,15.4 C-0.32,10.41 -6.50521303e-19,5.21 -6.50521303e-19,5.21 Z" id="Path" fill="#000000"></path>
                                <ellipse id="Oval" fill="#FFFFFF" transform="translate(25.624455, 13.307966) rotate(-82.150000) translate(-25.624455, -13.307966) " cx="25.6244548" cy="13.3079656" rx="2.74" ry="1.69"></ellipse>
                                <ellipse id="Oval" fill="#FFFFFF" transform="translate(16.725251, 11.716129) rotate(-82.150000) translate(-16.725251, -11.716129) " cx="16.7252512" cy="11.7161294" rx="2.74" ry="1.69"></ellipse>
                            </g>
                        </g>
                        <path d="M1403.15734,1010.07712 C1401.95412,1010.31182 1401.16832,1011.48091 1401.4022,1012.68834 C1401.51633,1013.27756 1401.8522,1013.76703 1402.30604,1014.08651 L1402.09226,1015.10045 C1402.04112,1015.34815 1401.98929,1015.60313 1401.93689,1015.86519 L1401.85788,1016.26355 C1401.25329,1019.33647 1400.70318,1022.68912 1400.26576,1026.21139 C1399.40408,1033.14981 1399.0865,1039.87031 1399.49504,1046.03596 C1400.12799,1055.58849 1402.42938,1063.09358 1406.64933,1068.02004 C1400.7715,1064.05928 1396.80882,1057.88195 1394.50208,1049.88403 C1392.5131,1042.98784 1391.92026,1035.27323 1392.31673,1027.48464 C1392.41353,1025.58295 1392.56475,1023.80841 1392.75023,1022.19688 L1392.81329,1021.66579 L1392.92475,1020.80218 L1392.92475,1020.80218 L1393.00597,1020.23374 C1393.73005,1019.75084 1394.13282,1018.86275 1393.95658,1017.9529 C1393.72269,1016.74546 1392.55769,1015.95691 1391.35447,1016.19161 C1390.15125,1016.42631 1389.36545,1017.59539 1389.59933,1018.80282 C1389.77989,1019.73496 1390.51537,1020.41745 1391.39496,1020.57223 L1391.31659,1021.16937 C1391.30385,1021.26979 1391.29108,1021.37218 1391.2783,1021.47652 C1391.05972,1023.26163 1390.88172,1025.25415 1390.77221,1027.40547 C1390.36769,1035.35222 1390.97312,1043.23062 1393.01652,1050.3155 C1396.24637,1061.51403 1402.67108,1069.36282 1412.83907,1072.74978 C1415.95697,1074.20081 1419.65127,1074.85471 1423.9601,1074.63014 L1424.03575,1074.63448 L1423.86271,1074.57033 C1424.80102,1074.93072 1425.72255,1075.06108 1426.62386,1074.97389 C1427.67296,1074.98071 1428.69189,1074.81045 1429.68159,1074.47375 C1430.19004,1074.41629 1430.69434,1074.34697 1431.19494,1074.2662 C1442.14597,1072.91938 1452.15963,1067.81816 1461.03022,1060.26076 C1463.78448,1057.91424 1466.21099,1055.50247 1468.28909,1053.15755 C1468.73824,1052.65073 1469.15123,1052.16916 1469.52746,1051.71669 C1469.87658,1051.83268 1470.25908,1051.86286 1470.64553,1051.78748 C1471.84875,1051.55278 1472.63455,1050.38369 1472.40067,1049.17626 C1472.16679,1047.96883 1471.00178,1047.18027 1469.79856,1047.41497 C1468.59534,1047.64967 1467.80954,1048.81876 1468.04342,1050.02619 C1468.09426,1050.28866 1468.18911,1050.53134 1468.31877,1050.74802 C1467.95874,1051.18037 1467.56334,1051.64112 1467.13344,1052.12622 C1465.10127,1054.41931 1462.72565,1056.78049 1460.02931,1059.07768 C1455.20596,1063.18698 1450.04389,1066.54822 1444.57978,1068.94541 C1449.2225,1065.8849 1453.43706,1061.69793 1457.22859,1056.62064 C1459.61923,1053.4193 1461.65439,1050.0938 1463.34018,1046.8358 C1463.85689,1045.8372 1464.3081,1044.90691 1464.69425,1044.06097 L1464.85575,1043.70364 C1465.00332,1043.37385 1465.12986,1043.08137 1465.23547,1042.82922 L1465.36557,1042.51179 C1465.52243,1042.11319 1465.32759,1041.66245 1464.93037,1041.50504 C1464.53316,1041.34764 1464.08399,1041.54317 1463.92714,1041.94177 L1463.80975,1042.22789 L1463.6058,1042.70412 L1463.44491,1043.06796 L1463.44491,1043.06796 C1463.03654,1043.98067 1462.54425,1045.00626 1461.96764,1046.12062 C1460.31878,1049.30726 1458.32731,1052.56137 1455.99099,1055.68997 C1450.16713,1063.48878 1443.35323,1069.09207 1435.53044,1071.6241 C1442.20462,1068.22568 1447.28825,1062.13911 1450.97578,1054.12491 C1452.68175,1050.41728 1453.95614,1046.55718 1454.86305,1042.76879 C1455.13523,1041.63179 1455.35712,1040.57038 1455.5336,1039.60227 C1456.51749,1039.22165 1457.11841,1038.17642 1456.91005,1037.10075 C1456.67617,1035.89331 1455.51117,1035.10476 1454.30795,1035.33946 C1453.10473,1035.57416 1452.31892,1036.74324 1452.5528,1037.95068 C1452.70584,1038.74073 1453.25753,1039.35145 1453.95773,1039.61351 C1453.79644,1040.4744 1453.59777,1041.41009 1453.3593,1042.40628 C1452.47467,1046.10158 1451.23162,1049.86678 1449.5717,1053.47432 C1446.27599,1060.63697 1441.85858,1066.16314 1436.16104,1069.50492 C1438.49903,1066.61186 1440.63036,1062.6588 1442.56733,1057.85648 C1443.90116,1054.54951 1445.04085,1051.06692 1445.9887,1047.62216 L1446.22857,1046.7354 L1446.45061,1045.88505 C1446.52166,1045.60795 1446.58973,1045.33734 1446.65485,1045.07364 L1446.88969,1044.09846 L1447.12738,1043.04193 C1447.2148,1042.62244 1446.94681,1042.21126 1446.52879,1042.12353 C1446.11077,1042.0358 1445.70102,1042.30473 1445.6136,1042.72421 L1445.4704,1043.37096 C1445.43009,1043.54742 1445.38556,1043.73875 1445.33681,1043.94424 L1445.15354,1044.70108 C1444.96145,1045.47898 1444.74293,1046.31879 1444.49796,1047.20909 C1443.56485,1050.60026 1442.44316,1054.02782 1441.13377,1057.27421 L1440.83942,1057.99349 C1438.35445,1063.97775 1435.57914,1068.44763 1432.54142,1070.99232 C1435.75785,1066.79249 1438.55911,1059.49676 1440.99639,1049.97273 C1442.28467,1044.93857 1443.38682,1039.60286 1444.30413,1034.30368 L1444.60981,1032.49643 L1444.79657,1031.34691 L1444.79657,1031.34691 L1444.97968,1030.18036 C1445.1076,1030.1689 1445.23617,1030.15074 1445.36501,1030.12561 C1447.39019,1029.73058 1448.71281,1027.76285 1448.31916,1025.73057 C1447.9255,1023.69829 1445.96464,1022.37104 1443.93945,1022.76608 C1441.91426,1023.16111 1440.59165,1025.12884 1440.9853,1027.16112 C1441.24965,1028.52581 1442.22067,1029.57258 1443.44332,1029.99342 L1443.2711,1031.09092 C1443.12184,1032.02588 1442.95824,1033.01078 1442.78041,1034.03807 C1441.86961,1039.29967 1440.77548,1044.59656 1439.49846,1049.58671 L1439.22884,1050.6252 L1438.95625,1051.64498 C1436.58101,1060.40105 1433.87312,1067.01375 1430.87832,1070.59216 C1430.27397,1071.31429 1429.66932,1071.90007 1429.0619,1072.34852 C1428.69281,1072.43566 1428.31964,1072.51616 1427.94237,1072.58929 C1429.32738,1070.75801 1430.55739,1067.74214 1431.69812,1063.67541 L1431.95479,1062.73626 C1433.31353,1057.63554 1434.50994,1051.07147 1435.55532,1043.39008 C1436.43299,1036.94099 1437.1552,1030.0766 1437.73221,1023.24092 L1437.90519,1021.1365 L1438.01084,1019.79028 C1438.07871,1018.90868 1438.14148,1018.05941 1438.19921,1017.24604 L1438.34718,1015.06989 L1438.40502,1014.14156 C1438.42991,1013.71373 1438.10446,1013.34666 1437.67813,1013.32169 C1437.25179,1013.29672 1436.886,1013.6233 1436.86111,1014.05113 L1436.76547,1015.55512 L1436.69878,1016.5349 C1436.6025,1017.9213 1436.49091,1019.42024 1436.36359,1021.01262 L1436.19119,1023.10993 C1435.61625,1029.92114 1434.89671,1036.76018 1434.02301,1043.18008 L1433.82682,1044.59571 C1432.80419,1051.84128 1431.64202,1058.01812 1430.33625,1062.79683 L1430.20944,1063.25491 C1428.58816,1069.03481 1426.80298,1072.3757 1425.10172,1072.99217 L1424.80079,1073.01858 L1424.80079,1073.01858 L1424.30071,1073.05559 L1424.23509,1072.90466 L1424.23509,1072.90466 C1424.11604,1072.6266 1424.02216,1072.18191 1423.96509,1071.5895 C1423.86182,1070.51745 1423.8821,1069.01768 1424.02016,1067.1313 L1424.07744,1066.40587 C1424.40334,1062.54687 1425.16055,1057.34927 1426.26226,1051.13472 L1426.36995,1050.53015 C1426.60258,1049.23025 1426.8484,1047.8957 1427.10625,1046.53076 C1427.85407,1042.57205 1428.67403,1038.50553 1429.5193,1034.50089 L1429.94382,1032.50451 L1430.48063,1030.02194 C1430.52358,1029.82526 1430.56604,1029.63124 1430.608,1029.43996 L1430.95239,1027.8947 C1431.91455,1027.50172 1432.49767,1026.46939 1432.29196,1025.4074 C1432.05808,1024.19997 1430.89308,1023.41141 1429.68986,1023.64611 C1428.48663,1023.88081 1427.70083,1025.04989 1427.93471,1026.25733 C1428.08912,1027.05447 1428.64937,1027.66904 1429.35852,1027.92713 L1428.99146,1029.59124 C1428.81275,1030.40914 1428.62567,1031.27343 1428.43183,1032.17835 C1427.4349,1036.83237 1426.4618,1041.6096 1425.58678,1046.24171 L1425.20782,1048.27306 L1425.02537,1049.27071 L1425.02537,1049.27071 L1424.60042,1051.64984 L1424.24889,1053.67888 C1422.75606,1062.43546 1422.06208,1068.47482 1422.44039,1071.74387 C1419.04543,1068.04258 1418.35433,1058.51193 1419.95976,1044.8583 C1420.40673,1041.05695 1421.02111,1037.03117 1421.77368,1032.85322 C1422.65057,1027.98513 1423.66715,1023.16461 1424.73493,1018.60865 L1424.9809,1017.56785 C1425.07082,1017.19059 1425.15934,1016.82268 1425.2463,1016.46453 C1425.63711,1016.5184 1426.04305,1016.5088 1426.45161,1016.42911 C1428.47679,1016.03407 1429.79941,1014.06635 1429.40576,1012.03407 C1429.0121,1010.00179 1427.05124,1008.67454 1425.02605,1009.06957 C1423.00086,1009.46461 1421.67825,1011.43234 1422.0719,1013.46461 C1422.27941,1014.53587 1422.92236,1015.41122 1423.78066,1015.94169 L1423.34272,1017.77196 L1423.34272,1017.77196 L1423.22947,1018.25335 C1422.1559,1022.83404 1421.13385,1027.68044 1420.25181,1032.57716 C1419.55707,1036.43406 1418.97897,1040.16421 1418.5401,1043.7131 L1418.42388,1044.67644 L1418.30022,1045.75934 C1416.95175,1057.93572 1417.41224,1066.82487 1420.27145,1071.44423 C1416.34271,1069.21361 1414.50631,1065.6025 1414.04579,1059.92339 C1413.79362,1056.81362 1413.9357,1053.07322 1414.45135,1047.88047 L1414.60984,1046.35591 L1414.94153,1043.48265 C1415.54531,1038.38003 1416.562,1030.183 1416.70618,1028.95176 C1416.75602,1028.52613 1416.45259,1028.14055 1416.02845,1028.09053 C1415.6043,1028.04051 1415.22006,1028.345 1415.17022,1028.77063 L1413.34832,1043.78682 C1413.20215,1045.0289 1413.08501,1046.05266 1413.01775,1046.69487 L1412.91168,1047.73422 L1412.81201,1048.77006 C1412.37053,1053.51583 1412.26065,1057.04402 1412.50435,1060.04926 C1412.90661,1065.00993 1414.34509,1068.60627 1417.15949,1071.12074 C1411.39117,1067.7302 1408.77687,1060.13726 1408.75305,1049.24972 C1408.74221,1044.29872 1409.28254,1038.90375 1410.24216,1033.30427 C1410.81353,1029.97026 1411.49798,1026.76959 1412.23037,1023.81776 L1412.42004,1023.06336 C1412.57595,1022.45152 1412.72621,1021.88218 1412.86883,1021.35887 L1413.11457,1020.47616 L1413.23503,1020.0612 C1413.35814,1019.65084 1413.12643,1019.21802 1412.7175,1019.09448 C1412.30856,1018.97094 1411.87726,1019.20345 1411.75415,1019.61382 L1411.67621,1019.88016 C1411.61406,1020.09546 1411.54271,1020.3479 1411.46318,1020.63571 L1411.28941,1021.27336 C1411.11205,1021.93306 1410.92432,1022.65821 1410.72966,1023.4428 C1409.98854,1026.42979 1409.29622,1029.66726 1408.718,1033.04123 C1407.74439,1038.72236 1407.19546,1044.20315 1407.20652,1049.25313 C1407.23023,1060.08751 1409.79314,1067.98611 1415.45044,1071.90021 C1414.81721,1071.7378 1414.19865,1071.55875 1413.59401,1071.36335 C1405.84985,1067.79622 1401.89899,1058.92452 1401.03817,1045.93299 C1400.63689,1039.8769 1400.94999,1033.2512 1401.80042,1026.40332 C1402.19701,1023.20988 1402.68736,1020.1567 1403.22681,1017.32954 L1403.37512,1016.56416 L1403.5507,1015.6878 C1403.63732,1015.26332 1403.72206,1014.85961 1403.80437,1014.47776 L1403.87557,1014.47088 L1404.0043,1014.44963 C1405.20752,1014.21492 1405.99333,1013.04584 1405.75944,1011.83841 C1405.52556,1010.63098 1404.36056,1009.84242 1403.15734,1010.07712 Z" id="Path" fill="#000000" fill-rule="nonzero"></path>
                        <path d="M881.599201,1010.07712 C880.39598,1010.31182 879.610177,1011.48091 879.844059,1012.68834 C879.958192,1013.27756 880.294059,1013.76703 880.747896,1014.08651 L880.53412,1015.10045 C880.482976,1015.34815 880.431148,1015.60313 880.37875,1015.86519 L880.299739,1016.26355 C879.69515,1019.33647 879.145041,1022.68912 878.707616,1026.21139 C877.845944,1033.14981 877.528365,1039.87031 877.936901,1046.03596 C878.569854,1055.58849 880.87124,1063.09358 885.091187,1068.02004 C879.213358,1064.05928 875.250681,1057.88195 872.943943,1049.88403 C870.954963,1042.98784 870.362117,1035.27323 870.758587,1027.48464 C870.855391,1025.58295 871.006611,1023.80841 871.192087,1022.19688 L871.255153,1021.66579 L871.36661,1020.80218 L871.36661,1020.80218 L871.447829,1020.23374 C872.171908,1019.75084 872.574679,1018.86275 872.398437,1017.9529 C872.164555,1016.74546 870.999553,1015.95691 869.796333,1016.19161 C868.593113,1016.42631 867.807309,1017.59539 868.041192,1018.80282 C868.221748,1019.73496 868.957231,1020.41745 869.836824,1020.57223 L869.758451,1021.16937 C869.745708,1021.26979 869.732941,1021.37218 869.720164,1021.47652 C869.501579,1023.26163 869.323578,1025.25415 869.214068,1027.40547 C868.809546,1035.35222 869.414979,1043.23062 871.45838,1050.3155 C874.688228,1061.51403 881.112937,1069.36282 891.28093,1072.74978 C894.398828,1074.20081 898.093135,1074.85471 902.401959,1074.63014 L902.477606,1074.63448 L902.30457,1074.57033 C903.242876,1074.93072 904.164414,1075.06108 905.065722,1074.97389 C906.114821,1074.98071 907.133746,1074.81045 908.123447,1074.47375 C908.631903,1074.41629 909.136205,1074.34697 909.636799,1074.2662 C920.587831,1072.91938 930.601488,1067.81816 939.472085,1060.26076 C942.226342,1057.91424 944.652854,1055.50247 946.730948,1053.15755 C947.1801,1052.65073 947.593095,1052.16916 947.969316,1051.71669 C948.318437,1051.83268 948.700941,1051.86286 949.087388,1051.78748 C950.290608,1051.55278 951.076412,1050.38369 950.842529,1049.17626 C950.608647,1047.96883 949.443645,1047.18027 948.240425,1047.41497 C947.037205,1047.64967 946.251401,1048.81876 946.485284,1050.02619 C946.536125,1050.28866 946.630966,1050.53134 946.760635,1050.74802 C946.400598,1051.18037 946.005198,1051.64112 945.5753,1052.12622 C943.543134,1054.41931 941.167515,1056.78049 938.471168,1059.07768 C933.647818,1063.18698 928.485752,1066.54822 923.021641,1068.94541 C927.664365,1065.8849 931.878922,1061.69793 935.670449,1056.62064 C938.061087,1053.4193 940.096248,1050.0938 941.782038,1046.8358 C942.298746,1045.8372 942.749959,1044.90691 943.136106,1044.06097 L943.297615,1043.70364 C943.445176,1043.37385 943.571723,1043.08137 943.677333,1042.82922 L943.807435,1042.51179 C943.964293,1042.11319 943.769446,1041.66245 943.372233,1041.50504 C942.975019,1041.34764 942.525855,1041.54317 942.368997,1041.94177 L942.251608,1042.22789 L942.047662,1042.70412 L941.886769,1043.06796 L941.886769,1043.06796 C941.478396,1043.98067 940.98611,1045.00626 940.409503,1046.12062 C938.760638,1049.30726 936.769168,1052.56137 934.432852,1055.68997 C928.608993,1063.48878 921.795095,1069.09207 913.972301,1071.6241 C920.646481,1068.22568 925.730114,1062.13911 929.417641,1054.12491 C931.12361,1050.41728 932.397998,1046.55718 933.304907,1042.76879 C933.577095,1041.63179 933.798977,1040.57038 933.975461,1039.60227 C934.95935,1039.22165 935.560269,1038.17642 935.35191,1037.10075 C935.118028,1035.89331 933.953026,1035.10476 932.749806,1035.33946 C931.546586,1035.57416 930.760782,1036.74324 930.994664,1037.95068 C931.1477,1038.74073 931.699389,1039.35145 932.399589,1039.61351 C932.238299,1040.4744 932.039635,1041.41009 931.801156,1042.40628 C930.916531,1046.10158 929.673476,1049.86678 928.013557,1053.47432 C924.717849,1060.63697 920.30044,1066.16314 914.602899,1069.50492 C916.940889,1066.61186 919.07222,1062.6588 921.009186,1057.85648 C922.343018,1054.54951 923.482715,1051.06692 924.430564,1047.62216 L924.670427,1046.7354 L924.89247,1045.88505 C924.963516,1045.60795 925.031594,1045.33734 925.096707,1045.07364 L925.33155,1044.09846 L925.569236,1043.04193 C925.656664,1042.62244 925.388668,1042.21126 924.970649,1042.12353 C924.552631,1042.0358 924.142885,1042.30473 924.055457,1042.72421 L923.912259,1043.37096 C923.871949,1043.54742 923.827419,1043.73875 923.778669,1043.94424 L923.595396,1044.70108 C923.403311,1045.47898 923.184787,1046.31879 922.939815,1047.20909 C922.006713,1050.60026 920.885025,1054.02782 919.575627,1057.27421 L919.281278,1057.99349 C916.796308,1063.97775 914.021002,1068.44763 910.983278,1070.99232 C914.199709,1066.79249 917.000969,1059.49676 919.438248,1049.97273 C920.726531,1044.93857 921.828683,1039.60286 922.74599,1034.30368 L923.051668,1032.49643 L923.238432,1031.34691 L923.238432,1031.34691 L923.421536,1030.18036 C923.549462,1030.1689 923.678035,1030.15074 923.806868,1030.12561 C925.832055,1029.73058 927.154673,1027.76285 926.761016,1025.73057 C926.367359,1023.69829 924.406499,1022.37104 922.381312,1022.76608 C920.356124,1023.16111 919.033507,1025.12884 919.427164,1027.16112 C919.691506,1028.52581 920.662533,1029.57258 921.885178,1029.99342 L921.712958,1031.09092 C921.563699,1032.02588 921.400101,1033.01078 921.222275,1034.03807 C920.311473,1039.29967 919.217342,1044.59656 917.94032,1049.58671 L917.670701,1050.6252 L917.398114,1051.64498 C915.022875,1060.40105 912.314976,1067.01375 909.320177,1070.59216 C908.715829,1071.31429 908.111183,1071.90007 907.503762,1072.34852 C907.13467,1072.43566 906.761498,1072.51616 906.384229,1072.58929 C907.769244,1070.75801 908.999253,1067.74214 910.139977,1063.67541 L910.396646,1062.73626 C911.755386,1057.63554 912.951804,1051.07147 913.997179,1043.39008 C914.874849,1036.94099 915.59706,1030.0766 916.174069,1023.24092 L916.347049,1021.1365 L916.452701,1019.79028 C916.520575,1018.90868 916.583339,1018.05941 916.641074,1017.24604 L916.78904,1015.06989 L916.846881,1014.14156 C916.871767,1013.71373 916.546325,1013.34666 916.119988,1013.32169 C915.69365,1013.29672 915.327861,1013.6233 915.302975,1014.05113 L915.207334,1015.55512 L915.140642,1016.5349 C915.044359,1017.9213 914.932769,1019.42024 914.80545,1021.01262 L914.633054,1023.10993 C914.058111,1029.92114 913.338566,1036.76018 912.464869,1043.18008 L912.268681,1044.59571 C911.24605,1051.84128 910.083879,1058.01812 908.77811,1062.79683 L908.651297,1063.25491 C907.030022,1069.03481 905.244837,1072.3757 903.543578,1072.99217 L903.242648,1073.01858 L903.242648,1073.01858 L902.742572,1073.05559 L902.676949,1072.90466 L902.676949,1072.90466 C902.557905,1072.6266 902.46402,1072.18191 902.406951,1071.5895 C902.303679,1070.51745 902.323959,1069.01768 902.462019,1067.1313 L902.519301,1066.40587 C902.845197,1062.54687 903.602413,1057.34927 904.704121,1051.13472 L904.81181,1050.53015 C905.04444,1049.23025 905.290265,1047.8957 905.548109,1046.53076 C906.295927,1042.57205 907.115893,1038.50553 907.961159,1034.50089 L908.385684,1032.50451 L908.922495,1030.02194 C908.965436,1029.82526 909.0079,1029.63124 909.049864,1029.43996 L909.39425,1027.8947 C910.356408,1027.50172 910.93953,1026.46939 910.73382,1025.4074 C910.499937,1024.19997 909.334936,1023.41141 908.131716,1023.64611 C906.928495,1023.88081 906.142692,1025.04989 906.376574,1026.25733 C906.530982,1027.05447 907.091228,1027.66904 907.800376,1027.92713 L907.433322,1029.59124 C907.254606,1030.40914 907.06753,1031.27343 906.873688,1032.17835 C905.876761,1036.83237 904.903662,1041.6096 904.028636,1046.24171 L903.649677,1048.27306 L903.467235,1049.27071 L903.467235,1049.27071 L903.042279,1051.64984 L902.690747,1053.67888 C901.197918,1062.43546 900.503938,1068.47482 900.882248,1071.74387 C897.487286,1068.04258 896.796189,1058.51193 898.40162,1044.8583 C898.848594,1041.05695 899.46297,1037.03117 900.215541,1032.85322 C901.092426,1027.98513 902.109014,1023.16461 903.176789,1018.60865 L903.422765,1017.56785 C903.512676,1017.19059 903.601196,1016.82268 903.688158,1016.46453 C904.078973,1016.5184 904.484912,1016.5088 904.893468,1016.42911 C906.918655,1016.03407 908.241272,1014.06635 907.847616,1012.03407 C907.453959,1010.00179 905.493099,1008.67454 903.467911,1009.06957 C901.442724,1009.46461 900.120107,1011.43234 900.513763,1013.46461 C900.721267,1014.53587 901.364223,1015.41122 902.222517,1015.94169 L901.784578,1017.77196 L901.784578,1017.77196 L901.671332,1018.25335 C900.59776,1022.83404 899.575714,1027.68044 898.693671,1032.57716 C897.99893,1036.43406 897.420826,1040.16421 896.981963,1043.7131 L896.865742,1044.67644 L896.74208,1045.75934 C895.393609,1057.93572 895.854102,1066.82487 898.713312,1071.44423 C894.784571,1069.21361 892.948169,1065.6025 892.487649,1059.92339 C892.235478,1056.81362 892.377562,1053.07322 892.893215,1047.88047 L893.051699,1046.35591 L893.383391,1043.48265 C893.987169,1038.38003 895.003858,1030.183 895.148041,1028.95176 C895.197884,1028.52613 894.894453,1028.14055 894.470308,1028.09053 C894.046163,1028.04051 893.66192,1028.345 893.612077,1028.77063 L891.790179,1043.78682 C891.644007,1045.0289 891.526867,1046.05266 891.459614,1046.69487 L891.353539,1047.73422 L891.25387,1048.77006 C890.812392,1053.51583 890.702515,1057.04402 890.946211,1060.04926 C891.348472,1065.00993 892.786948,1068.60627 895.601347,1071.12074 C889.833028,1067.7302 887.218732,1060.13726 887.194906,1049.24972 C887.184071,1044.29872 887.724405,1038.90375 888.684021,1033.30427 C889.25539,1029.97026 889.939845,1026.76959 890.672233,1023.81776 L890.861904,1023.06336 C891.017811,1022.45152 891.16807,1021.88218 891.310692,1021.35887 L891.55643,1020.47616 L891.676888,1020.0612 C891.799998,1019.65084 891.568292,1019.21802 891.159358,1019.09448 C890.750423,1018.97094 890.319116,1019.20345 890.196007,1019.61382 L890.118073,1019.88016 C890.055925,1020.09546 889.984574,1020.3479 889.90504,1020.63571 L889.73127,1021.27336 C889.553914,1021.93306 889.366182,1022.65821 889.171516,1023.4428 C888.430405,1026.42979 887.73808,1029.66726 887.159862,1033.04123 C886.186254,1038.72236 885.637325,1044.20315 885.648376,1049.25313 C885.672086,1060.08751 888.235002,1067.98611 893.892296,1071.90021 C893.259072,1071.7378 892.640514,1071.55875 892.035874,1071.36335 C884.291711,1067.79622 880.340848,1058.92452 879.480027,1045.93299 C879.07875,1039.8769 879.391849,1033.2512 880.242278,1026.40332 C880.638866,1023.20988 881.12922,1020.1567 881.668675,1017.32954 L881.816983,1016.56416 L881.992559,1015.6878 C882.079178,1015.26332 882.163921,1014.85961 882.246229,1014.47776 L882.317434,1014.47088 L882.446163,1014.44963 C883.649383,1014.21492 884.435187,1013.04584 884.201305,1011.83841 C883.967422,1010.63098 882.802421,1009.84242 881.599201,1010.07712 Z" id="Path-Copy" fill="#000000" fill-rule="nonzero"></path>
                        <path d="M1555,944 C1558.86599,944 1562,947.134007 1562,951 C1562,954.592014 1559.29446,957.552116 1555.81005,957.953634 C1555.76088,980.743124 1557.09884,1060.58799 1578.79131,1070.27079 C1576.05621,1064.34106 1574.02103,1048.17636 1572.55363,1021.1674 C1571.56584,1003.0935 1571.16768,985.388788 1571.04518,978.72544 C1570.56333,978.903863 1570.04289,979 1569.5,979 C1567.01472,979 1565,976.985281 1565,974.5 C1565,972.014719 1567.01472,970 1569.5,970 C1571.98528,970 1574,972.014719 1574,974.5 C1574,975.704705 1573.5266,976.798842 1572.75569,977.606536 C1573.14443,1002.51307 1575.23873,1061.85753 1580.77809,1070.37338 L1580.94541,1070.33503 L1580.94541,1070.33503 C1581.17439,1070.28777 1581.41253,1070.33499 1581.60697,1070.46621 C1581.64758,1070.49362 1581.68558,1070.52421 1581.72069,1070.55758 L1581.94516,1070.51729 L1581.94516,1070.51729 C1582.2573,1070.45835 1582.57729,1070.5698 1582.78459,1070.80967 C1582.82,1070.85064 1582.8512,1070.89429 1582.87807,1070.94 C1583.70374,1070.60728 1584.42236,1070.02287 1584.92794,1069.25316 C1597.357,1052.73067 1579.18566,949.989304 1579.0214,948.96888 C1578.9802,948.510564 1579.28888,948.096116 1579.73239,948.014266 C1580.1759,947.932415 1580.60711,948.210316 1580.7256,948.654365 C1581.48531,952.917783 1599.20494,1053.20594 1586.31731,1070.31552 C1586.21163,1070.47053 1586.09967,1070.61991 1585.98189,1070.76336 C1586.44187,1070.65323 1586.89638,1070.52264 1587.3444,1070.37336 C1588.45787,1069.86769 1589.47795,1069.14967 1590.34116,1068.2423 C1605.03068,1053.96771 1601.09274,994.536308 1599.52899,976.540415 L1599.47926,975.983851 C1599.3209,975.994559 1599.16108,976 1599,976 C1595.13401,976 1592,972.865993 1592,969 C1592,965.134007 1595.13401,962 1599,962 C1602.86599,962 1606,965.134007 1606,969 C1606,972.087548 1604.00103,974.708213 1601.22669,975.638408 C1601.86762,982.817286 1603.01008,997.722549 1603,1013.58461 C1603,1039.04759 1600.17768,1056.49133 1594.63006,1065.59742 L1594.32917,1065.90758 C1610.60524,1049.56418 1609.246,1001.28387 1609.22508,1000.8003 C1609.21384,1000.35498 1609.5279,999.975077 1609.95306,999.895664 L1610.06154,999.882207 C1610.54524,999.870345 1610.9488,1000.25113 1610.9677,1000.73722 C1611.12711,1009.65902 1610.69631,1018.5816 1609.67816,1027.44593 C1607.40579,1046.67675 1602.65889,1060.03461 1595.56992,1067.15506 C1593.37255,1069.48533 1590.63856,1071.19199 1587.64253,1072.14732 C1586.46173,1072.62712 1585.19899,1072.91373 1583.9027,1072.98576 C1583.62116,1072.99905 1583.33938,1073.00304 1583.05783,1072.99772 L1583.00215,1073 L1583.00215,1073 L1581.30832,1073 L1581.30832,1073 C1580.88653,1072.98587 1580.47036,1072.96672 1580.0597,1072.94255 C1576.26948,1074.02806 1572.3659,1074.69219 1568.42293,1074.9218 C1563.79652,1075.22082 1559.19341,1074.65841 1554.83864,1073.30099 C1545.44945,1071.87581 1536.94234,1068.2692 1529.41263,1062.49319 C1501.06492,1040.81807 1494.48873,994.409861 1493.2515,982.641295 C1492.71432,982.873848 1492.12189,983 1491.5,983 C1489.01472,983 1487,980.985281 1487,978.5 C1487,976.014719 1489.01472,974 1491.5,974 C1493.98528,974 1496,976.014719 1496,978.5 C1496,979.637101 1495.57824,980.675696 1494.88263,981.467887 C1495.78239,991.078831 1501.78633,1039.1524 1530.46897,1061.08837 C1535.39876,1064.86522 1540.75687,1067.68417 1546.52102,1069.5423 C1545.54309,1068.94677 1544.58977,1068.3046 1543.66471,1067.6168 C1529.5282,1057.20699 1519.56727,1036.21993 1514.05607,1005.25563 C1511.77539,992.204652 1510.44686,979.009003 1510.0801,965.771549 C1508.29132,965.177775 1507,963.489689 1507,961.5 C1507,959.014719 1509.01472,957 1511.5,957 C1513.98528,957 1516,959.014719 1516,961.5 C1516,963.867611 1514.17155,965.808164 1511.84968,965.986615 C1512.35949,982.619922 1516.17397,1045.17342 1544.72618,1066.20045 C1548.00448,1068.61619 1551.51598,1070.4082 1555.24875,1071.57499 C1559.27278,1072.1772 1563.46608,1072.36706 1567.82208,1072.14475 C1563.1814,1071.0067 1558.84125,1068.75426 1555.20594,1065.52592 C1544.02409,1055.77484 1536.75271,1036.85536 1533.59614,1009.294 C1532.16883,996.527723 1531.6978,983.673258 1532.18696,970.837266 C1532.19781,970.601859 1532.30324,970.380693 1532.4795,970.223559 C1532.65576,970.066425 1532.88805,969.98653 1533.12407,970.00186 C1533.35965,970.014538 1533.58049,970.120125 1533.7378,970.295309 C1533.89512,970.470492 1533.97598,970.700862 1533.96253,970.935549 C1533.9273,971.63757 1530.43958,1041.59401 1556.38261,1064.1991 C1560.09368,1067.43398 1564.26053,1069.55043 1568.84931,1070.53898 C1551.6563,1063.30957 1549.05238,1040.49865 1544.89455,1004.11523 C1544.30206,998.964118 1543.69563,993.602753 1543.00555,987.996098 C1542.95195,987.512047 1543.29229,987.073425 1543.7723,987.007925 C1544.0048,986.976274 1544.24017,987.040234 1544.42516,987.185332 C1544.61014,987.33043 1544.72911,987.544404 1544.75514,987.77884 C1545.45219,993.455579 1546.05165,998.78891 1546.64414,1003.94703 C1551.34044,1045.08663 1553.86366,1067.16325 1576.05942,1070.73602 C1555.03292,1056.64368 1553.88028,980.387931 1554.008,957.927634 C1550.61181,957.448472 1548,954.529246 1548,951 C1548,947.134007 1551.13401,944 1555,944 Z" id="Combined-Shape" fill="#FFFFFF" fill-rule="nonzero"></path>
                    </g>
                </g>
            </g>
        </g>
    </g>
</svg>