<?xml version="1.0" encoding="UTF-8"?>
<svg width="375px" height="1082px" viewBox="0 0 375 1082" version="1.1" xmlns="http://www.w3.org/2000/svg" xmlns:xlink="http://www.w3.org/1999/xlink">
    <!-- Generator: Sketch 63.1 (92452) - https://sketch.com -->
    <title>Group 12 Copy</title>
    <desc>Created with Sketch.</desc>
    <defs>
        <rect id="path-1" x="0" y="0" width="375" height="1130"></rect>
        <linearGradient x1="52.869694%" y1="48.9878663%" x2="41.3891009%" y2="58.8482825%" id="linearGradient-3">
            <stop stop-color="#CACBDF" offset="15%"></stop>
            <stop stop-color="#A7A8C9" offset="100%"></stop>
        </linearGradient>
        <linearGradient x1="0%" y1="50%" x2="100%" y2="50%" id="linearGradient-4">
            <stop stop-color="#A5AED5" offset="0%"></stop>
            <stop stop-color="#6978B9" offset="100%"></stop>
        </linearGradient>
        <linearGradient x1="0%" y1="50%" x2="100%" y2="50%" id="linearGradient-5">
            <stop stop-color="#F6E0D9" offset="0%"></stop>
            <stop stop-color="#E9B2A0" offset="100%"></stop>
        </linearGradient>
        <linearGradient x1="0%" y1="50%" x2="100.006483%" y2="50%" id="linearGradient-6">
            <stop stop-color="#CACBDF" offset="15%"></stop>
            <stop stop-color="#A7A8C9" offset="100%"></stop>
        </linearGradient>
        <linearGradient x1="0%" y1="50%" x2="100%" y2="50%" id="linearGradient-7">
            <stop stop-color="#163253" offset="0%"></stop>
            <stop stop-color="#738498" offset="100%"></stop>
        </linearGradient>
        <radialGradient cx="36.6085193%" cy="-8.05134189%" fx="36.6085193%" fy="-8.05134189%" r="108.518086%" gradientTransform="translate(0.366085,-0.080513),scale(0.417201,1.000000),translate(-0.366085,0.080513)" id="radialGradient-8">
            <stop stop-color="#000000" offset="0%"></stop>
            <stop stop-color="#000000" stop-opacity="0" offset="100%"></stop>
        </radialGradient>
        <linearGradient x1="0%" y1="50%" x2="99.9883721%" y2="50%" id="linearGradient-9">
            <stop stop-color="#A5AED5" offset="0%"></stop>
            <stop stop-color="#6978B9" offset="100%"></stop>
        </linearGradient>
        <linearGradient x1="0%" y1="50%" x2="100%" y2="50%" id="linearGradient-10">
            <stop stop-color="#163253" offset="0%"></stop>
            <stop stop-color="#738498" offset="100%"></stop>
        </linearGradient>
        <linearGradient x1="0%" y1="50%" x2="100%" y2="50%" id="linearGradient-11">
            <stop stop-color="#163253" offset="0%"></stop>
            <stop stop-color="#738498" offset="100%"></stop>
        </linearGradient>
        <linearGradient x1="0%" y1="50%" x2="100%" y2="50%" id="linearGradient-12">
            <stop stop-color="#CACBDF" offset="15%"></stop>
            <stop stop-color="#A7A8C9" offset="100%"></stop>
        </linearGradient>
        <linearGradient x1="0%" y1="50.0194477%" x2="100.010654%" y2="50.0194477%" id="linearGradient-13">
            <stop stop-color="#A5AED5" offset="0%"></stop>
            <stop stop-color="#6978B9" offset="100%"></stop>
        </linearGradient>
        <linearGradient x1="0%" y1="50%" x2="100%" y2="50%" id="linearGradient-14">
            <stop stop-color="#A5AED5" offset="0%"></stop>
            <stop stop-color="#6978B9" offset="100%"></stop>
        </linearGradient>
        <linearGradient x1="0%" y1="50%" x2="100%" y2="50%" id="linearGradient-15">
            <stop stop-color="#A5AED5" offset="0%"></stop>
            <stop stop-color="#6978B9" offset="100%"></stop>
        </linearGradient>
        <radialGradient cx="-17.4963277%" cy="-394.913295%" fx="-17.4963277%" fy="-394.913295%" r="466.566474%" gradientTransform="translate(-0.174963,-3.949133),scale(0.352946,1.000000),translate(0.174963,3.949133)" id="radialGradient-16">
            <stop stop-color="#000000" offset="0%"></stop>
            <stop stop-color="#000000" stop-opacity="0" offset="100%"></stop>
        </radialGradient>
        <linearGradient x1="0.50955414%" y1="2.50856943%" x2="55.2376286%" y2="45.0974042%" id="linearGradient-17">
            <stop stop-color="#000000" offset="0%"></stop>
            <stop stop-color="#000000" stop-opacity="0" offset="100%"></stop>
        </linearGradient>
        <linearGradient x1="0.499803998%" y1="2.49926058%" x2="55.2430419%" y2="45.0964433%" id="linearGradient-18">
            <stop stop-color="#000000" offset="0%"></stop>
            <stop stop-color="#000000" stop-opacity="0" offset="100%"></stop>
        </linearGradient>
        <linearGradient x1="0.50955414%" y1="2.50856943%" x2="55.2474277%" y2="45.0974042%" id="linearGradient-19">
            <stop stop-color="#000000" offset="0%"></stop>
            <stop stop-color="#000000" stop-opacity="0" offset="100%"></stop>
        </linearGradient>
        <linearGradient x1="50%" y1="-131.155193%" x2="50%" y2="41.7736289%" id="linearGradient-20">
            <stop stop-color="#000000" offset="0%"></stop>
            <stop stop-color="#000000" stop-opacity="0" offset="100%"></stop>
        </linearGradient>
        <linearGradient x1="50%" y1="-131.155193%" x2="50%" y2="41.7930766%" id="linearGradient-21">
            <stop stop-color="#000000" offset="0%"></stop>
            <stop stop-color="#000000" stop-opacity="0" offset="100%"></stop>
        </linearGradient>
        <linearGradient x1="50%" y1="-173.317775%" x2="50%" y2="30.5523143%" id="linearGradient-22">
            <stop stop-color="#000000" offset="0%"></stop>
            <stop stop-color="#000000" stop-opacity="0" offset="100%"></stop>
        </linearGradient>
        <linearGradient x1="49.9954975%" y1="-131.155193%" x2="49.9954975%" y2="41.7930766%" id="linearGradient-23">
            <stop stop-color="#000000" offset="0%"></stop>
            <stop stop-color="#000000" stop-opacity="0" offset="100%"></stop>
        </linearGradient>
        <linearGradient x1="49.9883721%" y1="-131.155193%" x2="49.9883721%" y2="41.7930766%" id="linearGradient-24">
            <stop stop-color="#000000" offset="0%"></stop>
            <stop stop-color="#000000" stop-opacity="0" offset="100%"></stop>
        </linearGradient>
        <linearGradient x1="50.0036114%" y1="-131.155193%" x2="50.0036114%" y2="41.7736289%" id="linearGradient-25">
            <stop stop-color="#000000" offset="0%"></stop>
            <stop stop-color="#000000" stop-opacity="0" offset="100%"></stop>
        </linearGradient>
        <linearGradient x1="50%" y1="-131.155193%" x2="50%" y2="41.7930766%" id="linearGradient-26">
            <stop stop-color="#000000" offset="0%"></stop>
            <stop stop-color="#000000" stop-opacity="0" offset="100%"></stop>
        </linearGradient>
        <linearGradient x1="49.9997288%" y1="26.5874335%" x2="49.9997288%" y2="55.9909685%" id="linearGradient-27">
            <stop stop-color="#CACBDF" offset="15%"></stop>
            <stop stop-color="#A7A8C9" offset="100%"></stop>
        </linearGradient>
        <linearGradient x1="51.7274797%" y1="49.9980827%" x2="88.4789615%" y2="49.9980827%" id="linearGradient-28">
            <stop stop-color="#F6E0D9" offset="0%"></stop>
            <stop stop-color="#E9B2A0" offset="100%"></stop>
        </linearGradient>
        <linearGradient x1="48.1770523%" y1="39.3720958%" x2="58.5011319%" y2="99.5770285%" id="linearGradient-29">
            <stop stop-color="#F6E0D9" offset="0%"></stop>
            <stop stop-color="#E9B2A0" offset="100%"></stop>
        </linearGradient>
        <linearGradient x1="0%" y1="49.9926429%" x2="100%" y2="49.9926429%" id="linearGradient-30">
            <stop stop-color="#CACBDF" offset="15%"></stop>
            <stop stop-color="#A7A8C9" offset="100%"></stop>
        </linearGradient>
        <linearGradient x1="0%" y1="49.9489121%" x2="100%" y2="49.9489121%" id="linearGradient-31">
            <stop stop-color="#A5AED5" offset="0%"></stop>
            <stop stop-color="#6978B9" offset="100%"></stop>
        </linearGradient>
        <linearGradient x1="0%" y1="50.0139297%" x2="100%" y2="50.0139297%" id="linearGradient-32">
            <stop stop-color="#CACBDF" offset="15%"></stop>
            <stop stop-color="#A7A8C9" offset="100%"></stop>
        </linearGradient>
        <linearGradient x1="3.96314406%" y1="50.0066819%" x2="100.018578%" y2="50.0066819%" id="linearGradient-33">
            <stop stop-color="#CACBDF" offset="15%"></stop>
            <stop stop-color="#A7A8C9" offset="100%"></stop>
        </linearGradient>
    </defs>
    <g id="Page-1" stroke="none" stroke-width="1" fill="none" fill-rule="evenodd">
        <g id="Group-12-Copy" transform="translate(0.000000, -48.000000)">
            <mask id="mask-2" fill="white">
                <use xlink:href="#path-1"></use>
            </mask>
            <g id="Mask"></g>
            <g id="Group-12" mask="url(#mask-2)">
                <g transform="translate(-972.000000, 48.000000)">
                    <g id="dateam-illustration-5" stroke-width="1" fill="none" fill-rule="evenodd">
                        <g id="Calque_3" fill-rule="nonzero">
                            <polygon id="Path" fill="url(#linearGradient-3)" opacity="0.3" points="4.54747351e-13 771.81 399.23 585.01 509.12 617.98 688.59 530.07 927.09 583.74 1194.41 599.66 1351.42 599.66 1672.25 702.22 2201.28 1112.44 1532.31 1097.79 477.66 1064.83"></polygon>
                            <rect id="Rectangle" fill="url(#linearGradient-4)" x="997.37" y="351.14" width="154.26" height="51.42"></rect>
                            <rect id="Rectangle" fill="url(#linearGradient-5)" x="1128.08" y="402.56" width="126.83" height="51.42"></rect>
                            <rect id="Rectangle" fill="url(#linearGradient-6)" x="963.21" y="402.56" width="154.26" height="51.42"></rect>
                            <rect id="Rectangle" fill="url(#linearGradient-7)" x="1053.32" y="299.72" width="123.25" height="51.42"></rect>
                            <rect id="Rectangle" fill="url(#radialGradient-8)" style="mix-blend-mode: multiply;" x="1053.32" y="299.72" width="123.25" height="51.42"></rect>
                            <rect id="Rectangle" fill="url(#linearGradient-9)" x="1020.71" y="556.82" width="86" height="51.42"></rect>
                            <rect id="Rectangle" fill="url(#linearGradient-10)" x="897.42" y="556.82" width="111.05" height="51.42"></rect>
                            <rect id="Rectangle" fill="url(#linearGradient-11)" x="1036.35" y="453.98" width="170.04" height="51.42"></rect>
                            <rect id="Rectangle" fill="url(#linearGradient-12)" x="871.33" y="453.98" width="154.26" height="51.42"></rect>
                            <rect id="Rectangle" fill="url(#linearGradient-13)" x="962.51" y="608.24" width="93.86" height="51.42"></rect>
                            <rect id="Rectangle" fill="url(#linearGradient-14)" x="970.06" y="505.4" width="186.5" height="51.42"></rect>
                            <rect id="Rectangle" fill="url(#linearGradient-15)" x="867.45" y="659.84" width="138.45" height="51.42"></rect>
                            <polygon id="Path" fill="url(#radialGradient-16)" style="mix-blend-mode: multiply;" points="1250.62 445.81 1128.08 445.81 1128.08 402.56 1219.83 402.56"></polygon>
                            <polygon id="Path" fill="url(#linearGradient-17)" opacity="0.7" style="mix-blend-mode: multiply;" points="1091.32 394.39 1155.37 394.39 1155.37 351.14 1053.32 351.14"></polygon>
                            <polygon id="Path" fill="url(#linearGradient-18)" opacity="0.7" style="mix-blend-mode: multiply;" points="1035.36 445.81 1099.41 445.81 1099.41 402.56 997.37 402.56"></polygon>
                            <polygon id="Path" fill="url(#linearGradient-19)" opacity="0.7" style="mix-blend-mode: multiply;" points="1001.21 497.23 1065.26 497.23 1065.26 453.98 963.21 453.98"></polygon>
                            <polygon id="Path" fill="url(#linearGradient-17)" opacity="0.7" style="mix-blend-mode: multiply;" points="909.33 548.65 973.38 548.65 973.38 505.4 871.33 505.4"></polygon>
                            <rect id="Rectangle" fill="url(#linearGradient-20)" style="mix-blend-mode: multiply;" x="1036.35" y="453.98" width="170.04" height="51.42"></rect>
                            <rect id="Rectangle" fill="url(#linearGradient-21)" style="mix-blend-mode: multiply;" x="970.06" y="505.4" width="186.5" height="51.42"></rect>
                            <rect id="Rectangle" fill="url(#linearGradient-22)" style="mix-blend-mode: multiply;" x="970.06" y="505.65" width="186.5" height="51.42"></rect>
                            <rect id="Rectangle" fill="url(#linearGradient-23)" style="mix-blend-mode: multiply;" x="897.42" y="556.82" width="111.05" height="51.42"></rect>
                            <rect id="Rectangle" fill="url(#linearGradient-24)" style="mix-blend-mode: multiply;" x="1020.71" y="556.82" width="86" height="51.42"></rect>
                            <rect id="Rectangle" fill="url(#linearGradient-25)" style="mix-blend-mode: multiply;" x="867.45" y="659.84" width="138.45" height="51.42"></rect>
                            <rect id="Rectangle" fill="url(#linearGradient-26)" style="mix-blend-mode: multiply;" x="962.51" y="608.24" width="93.86" height="51.42"></rect>
                            <polygon id="Path" fill="url(#linearGradient-27)" points="105.99 973.93 599.16 659.53 907.14 812.47 1264.33 444.63 1571.73 702.91 1862.17 1166.55 18.34 1166.55"></polygon>
                            <polygon id="Path" fill="url(#linearGradient-28)" points="1264.33 444.63 1011.09 705.42 1270.28 542.65 1454.8 604.67"></polygon>
                            <g id="Group-19" transform="translate(1208.000000, 900.070000) scale(-1, 1) translate(-1208.000000, -900.070000) translate(1003.000000, 656.070000)" fill="#000000">
                                <polygon id="Path" points="68 187.93 108 104.93 148 187.93"></polygon>
                                <polygon id="Path" points="47 270.93 108 144.93 169 270.93"></polygon>
                                <polygon id="Path" points="30 365.93 108.5 202.93 187 365.93"></polygon>
                                <polygon id="Path" points="0 487.93 107.5 263.93 215 487.93"></polygon>
                                <polygon id="Path" points="231 271.93 256.004008 220.93 281 271.93"></polygon>
                                <polygon id="Path" points="218 323.93 255.503945 244.93 293 323.93"></polygon>
                                <polygon id="Path" points="207 382.93 256 281.93 305 382.93"></polygon>
                                <polygon id="Path" points="189 458.93 255.503954 319.93 322 458.93"></polygon>
                                <path d="M308,195.426233 C312.057955,195.746009 316.053215,196.588102 319.879281,197.930065 C321.846554,198.603282 323.72353,199.500204 325.470462,200.601836 C326.384119,201.173257 327.224185,201.847186 327.973031,202.609482 C328.774419,203.415048 329.408789,204.360754 329.842038,205.395757 L327.577055,205.586598 C327.816407,204.486346 328.147461,203.406501 328.566995,202.357572 C328.764983,201.830851 328.994649,201.334665 329.208476,200.830845 L329.929152,199.304119 C330.973848,197.342453 332.260878,195.509794 333.7622,193.846071 C334.509954,193.024371 335.303054,192.242064 336.138057,191.502546 C337.011658,190.803204 337.926577,190.153255 338.878211,189.55597 C340.770591,188.389596 342.834295,187.504361 345,186.93 C343.079272,187.939314 341.269648,189.133723 339.598887,190.494906 C338.761311,191.156028 337.967786,191.867365 337.223031,192.62469 C336.534033,193.388053 335.797517,194.151417 335.187714,195.006383 C333.916922,196.650482 332.823637,198.415373 331.924872,200.27359 C331.022687,202.103834 330.321944,204.02016 329.834118,205.991181 L329.834118,206.059884 C329.685252,206.666871 329.054244,207.042743 328.424443,206.899583 C328.044772,206.788572 327.74766,206.502186 327.632491,206.13622 C327.086045,204.609493 325.700128,203.372845 324.203339,202.319404 C323.434246,201.759368 322.627309,201.24933 321.787885,200.792677 C320.940497,200.342293 320.077269,199.891908 319.182363,199.487326 C315.546799,197.909285 311.811991,196.552917 308,195.426233 L308,195.426233 Z" id="Path"></path>
                                <path d="M108,20.6537966 C112.627001,21.144634 117.217483,21.9243647 121.74358,22.9882557 C126.289532,24.0337341 130.759388,25.375986 135.123359,27.0060661 C137.325623,27.8156215 139.484297,28.7352546 141.590926,29.761363 C143.73708,30.7841159 145.804139,31.9597796 147.775537,33.2789322 C149.813772,34.6111152 151.695455,36.1609953 153.386152,37.9002082 C155.181279,39.7254338 156.585965,41.885347 157.51731,44.2524777 L153.661023,44.5700911 C153.943979,43.2043532 154.259273,42.0133027 154.647327,40.7666698 C155.035381,39.5200369 155.455773,38.3210461 155.88425,37.1220552 C156.780393,34.7228843 157.816932,32.3765747 158.988682,30.0948571 C161.321705,25.5354352 164.20722,21.2696599 167.582461,17.3903182 C169.280773,15.467083 171.092085,13.6429885 173.007133,11.9273665 C174.952906,10.2560701 177.002197,8.70473504 179.143238,7.28226945 C183.419695,4.50835449 188.088684,2.36797873 193,0.93 C188.501259,3.13050188 184.263591,5.81204865 180.363991,8.92591917 C176.540627,12.0211459 173.095238,15.5410058 170.096728,19.4151041 C165.663521,25.216816 162.145065,31.6411068 159.659692,38.4719125 C159.2393,39.6073806 158.851246,40.7507891 158.511699,41.902138 C158.172151,43.0534868 157.832604,44.284239 157.614324,45.3085425 L157.614324,45.3561845 C157.434162,46.2194337 156.692019,46.8600395 155.797242,46.924659 C154.902465,46.9892786 154.072903,46.4621792 153.766121,45.6340963 C153.007898,43.7563227 151.897231,42.0351772 150.491916,40.560221 C149.019055,39.0026093 147.394408,37.5904284 145.64124,36.3439022 C143.832712,35.0571078 141.942506,33.8848546 139.982119,32.8342733 C138.02568,31.7543875 136.01265,30.7380244 133.943028,29.8169453 C125.531068,26.1535151 116.860867,23.0911766 108,20.6537966 L108,20.6537966 Z" id="Path"></path>
                                <path d="M312,114.75621 C315.09299,114.961334 318.110135,115.803426 320.861953,117.229601 C322.299347,117.963124 323.607547,118.925834 324.735129,120.07989 C325.901395,121.311278 326.757752,122.802353 327.233446,124.429917 C327.351331,124.83107 327.246133,125.264607 326.957477,125.567219 C326.668821,125.869831 326.240561,125.995545 325.83402,125.897004 C325.427478,125.798464 325.104418,125.490641 324.986532,125.089488 L324.986532,125.042376 L324.986532,125.042376 C324.597381,123.394665 324.446576,121.699707 324.538721,120.009221 C324.629754,118.32122 325.009747,116.661323 325.662177,115.1017 C325.842873,114.71695 326.015713,114.316496 326.219978,113.955302 C326.424242,113.594109 326.675645,113.240767 326.911336,112.887426 C327.169709,112.551916 327.447789,112.232037 327.744108,111.929477 L328.16835,111.466207 L328.655443,111.073606 C329.921349,110.037644 331.407347,109.304453 333,108.93 C331.673694,109.725506 330.485085,110.730497 329.480359,111.905921 C328.529299,113.030639 327.822953,114.340941 327.406285,115.753418 C326.993537,117.158322 326.787118,118.615688 326.79349,120.07989 C326.787022,120.819491 326.823748,121.558839 326.903479,122.294164 C326.976532,123.012769 327.094609,123.726087 327.257015,124.429917 L324.986532,125.026672 C324.619993,123.753686 323.98212,122.575073 323.116723,121.571776 C322.194413,120.512791 321.138013,119.57839 319.974186,118.792156 C318.762927,117.966187 317.491939,117.231308 316.171717,116.593586 C314.796857,115.941867 313.421998,115.345113 312,114.75621 Z" id="Path"></path>
                                <path d="M377,141.93 C378.606106,142.735421 380.13939,143.685559 381.581805,144.769232 C383.04459,145.854155 384.407292,147.074549 385.652774,148.415063 C386.949654,149.786997 388.043241,151.346928 388.898547,153.044947 C389.835527,154.874168 390.190096,156.958874 389.91236,159.005721 L388.191236,157.755491 C389.070717,157.306117 389.992312,156.94939 390.941891,156.690779 C391.84356,156.424833 392.759324,156.21208 393.684687,156.053565 C395.50188,155.735087 397.342513,155.578561 399.185997,155.585737 L400.561324,155.585737 L401.936652,155.674463 C402.848297,155.722859 403.759943,155.843849 404.663729,155.964839 C405.567516,156.085829 406.463444,156.263281 407.351512,156.432667 C408.239581,156.602053 409.11979,156.868231 410,157.102145 C409.088354,157.102145 408.184568,157.102145 407.28864,157.053749 C406.392713,157.005353 405.488926,157.053749 404.592998,157.053749 C402.809002,157.094079 401.032865,157.174739 399.272446,157.360257 C397.530705,157.534161 395.799256,157.803411 394.085497,158.166857 C393.236723,158.376573 392.403668,158.610487 391.58633,158.876665 C390.8044,159.124916 390.04241,159.435043 389.307216,159.804254 L389.307216,159.804254 C388.729581,160.097608 388.029476,159.860488 387.735413,159.271899 C387.620488,159.04943 387.579115,158.794656 387.617528,158.545959 C387.790069,156.978229 387.517136,155.392741 386.831627,153.980603 C386.122992,152.433807 385.236474,150.979645 384.190998,149.649161 C383.680162,148.947419 383.122172,148.277941 382.540605,147.61653 C381.959038,146.955118 381.38533,146.293706 380.772327,145.656492 C379.569898,144.422394 378.296737,143.18023 377,141.93 Z" id="Path"></path>
                            </g>
                            <g id="Group-18" transform="translate(1010.000000, 0.000000)">
                                <circle id="Oval" fill="url(#linearGradient-29)" cx="56.5" cy="32.9437299" r="32.5"></circle>
                                <path d="M0,28.4437299 L38,28.4437299 C38,28.4437299 25.3612923,20.007434 24.0383265,21.1891415 C23.1834517,22.030308 22.5713076,23.0972622 22.2692887,24.2725372 C22.2692887,24.2725372 8.74987459,16.110147 5.03642019,19.1035451 C1.32296579,22.0969433 0,28.4437299 0,28.4437299 Z" id="Path" fill="url(#linearGradient-30)"></path>
                                <path d="M68,54.4437299 L120,54.4437299 C120,54.4437299 102.70793,43.4684902 100.893617,45.008345 C99.0793037,46.5481998 98.4758221,49.027819 98.4758221,49.027819 C98.4758221,49.027819 79.9729207,38.4073497 74.8781431,42.3022766 C69.7833656,46.1972035 68,54.4437299 68,54.4437299 Z" id="Path" fill="url(#linearGradient-31)"></path>
                                <circle id="Oval" fill="#A7A8C9" cx="104" cy="66.4437299" r="1"></circle>
                                <circle id="Oval" fill="#A7A8C9" cx="103" cy="84.4437299" r="1"></circle>
                                <circle id="Oval" fill="#A7A8C9" cx="89" cy="70.4437299" r="1"></circle>
                                <circle id="Oval" fill="#A7A8C9" cx="110" cy="72.4437299" r="1"></circle>
                                <circle id="Oval" fill="#A7A8C9" cx="82" cy="62.4437299" r="1"></circle>
                                <circle id="Oval" fill="#A7A8C9" cx="80" cy="78.4437299" r="1"></circle>
                            </g>
                            <path d="M1230,339.915626 L1333,339.915626 C1333,339.915626 1298.74795,317.639139 1295.15482,320.753798 C1291.56168,323.868458 1290.36091,328.897 1290.36091,328.897 C1290.36091,328.897 1253.7119,307.338218 1243.65021,315.242185 C1233.58853,323.146151 1230,339.915626 1230,339.915626 Z" id="Path" fill="url(#linearGradient-32)" opacity="0.3"></path>
                        </g>
                        <g id="Calque_2-2" transform="translate(1037.000000, 156.000000)" fill-rule="nonzero">
                            <path d="M89.72,53.32 C89.84,50.97 89.96,48.75 90.06,46.69 C90.3017725,42.8833796 90.1375131,39.0618354 89.57,35.29 C98.04,32.42 98.49,23.75 98.02,18.92 C97.9878587,18.5194611 97.6884809,18.1915664 97.2925106,18.1232144 C96.8965403,18.0548624 96.5045614,18.2634157 96.34,18.63 C94.5376935,22.55089 90.9426523,25.3515912 86.7,26.14 L86.6,25.96 C86.48,25.7 86.36,25.45 86.22,25.2 C83.7489445,20.5983251 83.6669065,15.0831362 86,10.41 C86.0552284,10.3409644 86.0440355,10.2402285 85.9749999,10.1850001 C85.9059644,10.1297716 85.8052285,10.1409645 85.75,10.21 C84.47,11.37 81.84,13.44 79.99,12.74 C75.22,10.94 82.56,4.5 82.56,4.5 C73.62,4.5 67.48,11.63 67.48,11.63 C71.33,7.06 69.57,0.63 69.57,0.63 C59.28,11.97 47.23,13.8 47.23,13.8 C48.4908939,12.4051107 48.9944697,10.4840623 48.58,8.65 C38.24,15.43 34.25,22.07 32.7,26.09 C28.4991996,25.2809639 24.9488652,22.4906171 23.17,18.6 C22.9992233,18.2387914 22.6086636,18.0356582 22.2148741,18.1032315 C21.8210845,18.1708049 21.5205878,18.4925217 21.48,18.89 C21.02,23.72 21.48,32.39 29.93,35.26 C29.3677463,39.0289831 29.2035094,42.8466548 29.44,46.65 C29.5466667,48.65 29.6566667,50.7566667 29.77,52.97 C22.87,57.97 7.29,71.63 1.23,97.03 L1.59,96.73 C1.91205618,96.531915 2.31829485,96.5324091 2.63986825,96.7312769 C2.96144165,96.9301446 3.14335561,97.2933765 3.11,97.67 C1.65611723,103.823841 0.92782481,110.126759 0.939849848,116.45 L1.62,115.77 C1.91303953,115.543316 2.30739172,115.497221 2.64481051,115.650212 C2.98222931,115.803204 3.20741314,116.130206 3.23,116.5 C3.03,119.5 2.96,124.42 4.23,127.76 L6.3,126.28 C6.3,126.28 11.3,139.03 19.5,138.77 C27.7,138.51 26.95,130.1 26.95,130.1 C26.95,130.1 29.39,129.49 28.95,125.23 C28.7605723,123.469023 28.3506973,121.738813 27.73,120.08 L30.17,120.35 C30.17,120.35 24.73,108.89 32.05,98.6 C33.05,118.1 33.85,135.72 34.13,141.6 C34.1834692,142.753712 35.1350507,143.661238 36.29,143.66 L55.07,143.72 C56.2700863,143.720013 57.244495,142.750074 57.25,141.55 L57.25,131 C57.1950136,130.1914 57.5952143,129.41955 58.2877488,128.998536 C58.9802834,128.577522 59.8497166,128.577522 60.5422512,128.998536 C61.2347857,129.41955 61.6349864,130.1914 61.58,131 L61.58,141.62 C61.58,142.19552 61.8086243,142.747468 62.2155783,143.154422 C62.6225322,143.561376 63.1744802,143.79 63.75,143.79 L83.22,143.73 C84.3729161,143.726169 85.3215633,142.821441 85.38,141.67 C85.66,135.81 86.51,118.18 87.46,98.67 C93.46,106.92 89.46,120.57 89.46,120.57 L91.9,120.03 C89.06,128.56 92.71,130.32 92.71,130.32 C92.71,130.32 92.17,139.26 100.19,139.65 C108.21,140.04 113,126.31 113,126.31 L115.08,127.79 C117.08,121.12 117.21,110.16 117.17,105.79 C117.16438,105.486472 117.344713,105.2103 117.624876,105.093382 C117.905039,104.976464 118.228191,105.042519 118.44,105.26 L119.44,106.26 C117.9,77.47 98,59.58 89.72,53.32 Z" id="Path" fill="#000000"></path>
                            <ellipse id="Oval" fill="#FFFFFF" cx="48.92" cy="41.99" rx="3.66" ry="5.82"></ellipse>
                            <ellipse id="Oval" fill="#FFFFFF" cx="70.59" cy="41.99" rx="3.66" ry="5.82"></ellipse>
                        </g>
                        <g id="Drapeau" transform="translate(1145.000000, 89.000000)" fill-rule="nonzero">
                            <path d="M23.17,42.3099999 L176.31,42.3099999 C177.781813,42.3099999 179.147974,43.0744761 179.917184,44.3292874 C180.686393,45.5840987 180.748057,47.1485373 180.08,48.46 L175.89,56.67 C168.658945,70.8474449 168.562521,87.6103069 175.63,101.87 L180.18,111.03 C180.829804,112.339713 180.757199,113.892129 179.987993,115.135477 C179.218786,116.378824 177.862047,117.136801 176.4,117.14 L24.53,117.14" id="Path" fill="url(#linearGradient-33)" opacity="0.3"></path>
                            <path d="M24,31.0696988 L24,31.0696988 C24.7054759,31.0696988 25.3820573,31.3502492 25.880904,31.849096 C26.3797508,32.3479427 26.66,33.0245241 26.66,33.73 L26.66,210.87 L21.3,210.87 L21.3,33.73 C21.2999194,33.0175387 21.5856528,32.3348241 22.0931845,31.8348114 C22.6007162,31.3347987 23.2876192,31.0592863 24,31.0696988 L24,31.0696988 Z" id="Path" fill="#A7A8C9"></path>
                            <rect id="Rectangle" fill="#6978B9" x="35.28" y="82.96" width="62.74" height="25.44"></rect>
                            <rect id="Rectangle" fill="#6978B9" x="35.25" y="51.05" width="53.06" height="25.44"></rect>
                            <path d="M39.53,63.69 C39.53,57.76 42.84,54.26 47.62,54.26 C52.4,54.26 55.71,57.77 55.71,63.69 C55.71,69.61 52.4,73.28 47.62,73.28 C42.84,73.28 39.53,69.63 39.53,63.69 Z M52.36,63.69 C52.36,59.58 50.5,57.08 47.62,57.08 C44.74,57.08 42.87,59.58 42.87,63.69 C42.87,67.8 44.73,70.45 47.62,70.45 C50.51,70.45 52.36,67.81 52.36,63.69 Z" id="Shape" fill="#FFFFFF"></path>
                            <path d="M59,67.8 L59,59.16 L62.23,59.16 L62.23,67.39 C62.23,69.65 62.88,70.5 64.38,70.5 C65.59,70.5 66.38,69.94 67.38,68.6 L67.38,59.16 L70.61,59.16 L70.61,72.94 L68,72.94 L67.75,70.94 L67.66,70.94 C66.6415355,72.3864703 64.998492,73.26548 63.23,73.31 C60.25,73.28 59,71.28 59,67.8 Z" id="Path" fill="#FFFFFF"></path>
                            <path d="M74.72,59.16 L77.36,59.16 L77.61,61.62 L77.7,61.62 C78.392657,60.0370738 79.8979919,58.9618346 81.62,58.82 C82.1544789,58.7942304 82.6878454,58.8899629 83.18,59.1 L82.62,61.91 C82.1611521,61.7625713 81.6819479,61.6883284 81.2,61.69 C80.1,61.69 78.78,62.44 77.95,64.53 L77.95,72.94 L74.72,72.94 L74.72,59.16 Z" id="Path" fill="#FFFFFF"></path>
                            <path d="M95.75,68.27 L95.75,61.71 L93.75,61.71 L93.75,59.29 L95.88,59.14 L96.26,55.38 L99,55.38 L99,59.14 L102.52,59.14 L102.52,61.71 L99,61.71 L99,68.27 C99,69.89 99.63,70.69 101,70.69 C101.491708,70.6677476 101.975705,70.5594406 102.43,70.37 L102.98,72.75 C102.077259,73.0715239 101.128153,73.2437816 100.17,73.26 C96.93,73.26 95.75,71.25 95.75,68.27 Z" id="Path" fill="#163253"></path>
                            <path d="M104,66 C104,61.52 107.11,58.76 110.35,58.76 C114.08,58.76 116.040025,61.46 116.040025,65.3 C116.041265,65.8298191 115.994406,66.3586581 115.9,66.88 L107.15,66.88 C107.173404,67.9286662 107.616109,68.9242085 108.37911,69.6439851 C109.142111,70.3637616 110.161751,70.7477228 111.21,70.71 C112.350559,70.6908462 113.461481,70.3436831 114.41,69.71 L115.51,71.71 C114.120173,72.6668883 112.47725,73.1890034 110.79,73.21 C107,73.26 104,70.59 104,66 Z M113.25,64.68 C113.25,62.56 112.25,61.27 110.42,61.27 C108.81,61.27 107.42,62.47 107.12,64.68 L113.25,64.68 Z" id="Shape" fill="#163253"></path>
                            <path d="M118.09,69.22 C118.09,66.22 120.54,64.73 126.19,64.12 C126.19,62.64 125.56,61.41 123.69,61.41 C122.300607,61.4965851 120.961788,61.9636151 119.82,62.76 L118.63,60.61 C120.310302,59.4892851 122.271202,58.8622129 124.29,58.8 C127.73,58.8 129.43,60.92 129.43,64.8 L129.43,72.96 L126.78,72.96 L126.53,71.43 L126.44,71.43 C125.289431,72.5488839 123.772552,73.2131842 122.17,73.3 C121.069343,73.3647427 119.993535,72.9557202 119.213907,72.1760927 C118.43428,71.3964653 118.025257,70.3206572 118.09,69.22 L118.09,69.22 Z M126.19,69.22 L126.19,66.12 C122.46,66.59 121.19,67.57 121.19,68.96 C121.19,70.18 122.02,70.71 123.19,70.71 C124.34759,70.6373621 125.427941,70.1043891 126.19,69.23 L126.19,69.22 Z" id="Shape" fill="#163253"></path>
                            <path d="M133.31,59.14 L136,59.14 L136.25,61.02 L136.33,61.02 C137.374245,59.7239447 138.909929,58.9198836 140.57,58.8 C142.250809,58.6640509 143.811875,59.6787434 144.37,61.27 C145.69,59.87 147.05,58.8 148.8,58.8 C151.71,58.8 153.05,60.8 153.05,64.28 L153.05,72.92 L149.82,72.92 L149.82,64.69 C149.82,62.43 149.15,61.57 147.7,61.57 C146.545561,61.7264494 145.505168,62.3477948 144.82,63.29 L144.82,72.92 L141.59,72.92 L141.59,64.69 C141.59,62.43 140.91,61.57 139.47,61.57 C138.314267,61.7305229 137.272236,62.3506941 136.58,63.29 L136.58,72.92 L133.35,72.92 L133.31,59.14 Z" id="Path" fill="#163253"></path>
                            <path d="M44.45,97.87 L38.93,86.34 L42.41,86.34 L44.41,91.03 C44.95,92.4 45.47,93.67 46.05,95.03 L46.16,95.03 C46.74,93.63 47.32,92.36 47.85,91.03 L49.85,86.34 L53.23,86.34 L47.7,97.87 L47.7,104.69 L44.45,104.69 L44.45,97.87 Z" id="Path" fill="#FFFFFF"></path>
                            <path d="M52.9,97.81 C52.9,93.22 56.02,90.57 59.46,90.57 C62.9,90.57 66,93.22 66,97.81 C66,102.4 62.89,105 59.46,105 C56.03,105 52.9,102.38 52.9,97.81 Z M62.69,97.81 C62.69,95.05 61.48,93.21 59.46,93.21 C57.44,93.21 56.23,95.05 56.23,97.81 C56.23,100.57 57.44,102.39 59.46,102.39 C61.48,102.39 62.69,100.57 62.69,97.81 Z" id="Shape" fill="#FFFFFF"></path>
                            <path d="M69.06,99.55 L69.06,90.91 L72.29,90.91 L72.29,99.14 C72.29,101.4 72.94,102.26 74.43,102.26 C75.64,102.26 76.43,101.69 77.43,100.35 L77.43,90.91 L80.67,90.91 L80.67,104.69 L78.07,104.69 L77.82,102.69 L77.73,102.69 C76.6976748,104.112545 75.0573554,104.967881 73.3,105 C70.35,105 69.06,103 69.06,99.55 Z" id="Path" fill="#FFFFFF"></path>
                            <path d="M84.81,90.91 L87.46,90.91 L87.71,93.37 L87.8,93.37 C88.4909777,91.7900459 89.9916943,90.7153639 91.71,90.57 C92.2446148,90.5421004 92.7784587,90.6379186 93.27,90.85 L92.71,93.66 C92.2547739,93.5117999 91.7787358,93.4375245 91.3,93.44 C90.2,93.44 88.87,94.19 88.04,96.29 L88.04,104.69 L84.81,104.69 L84.81,90.91 Z" id="Path" fill="#FFFFFF"></path>
                            <path d="M105.47,100 L105.47,93.48 L103.47,93.48 L103.47,91.06 L105.6,90.91 L105.99,87.15 L108.67,87.15 L108.67,90.91 L112.18,90.91 L112.18,93.48 L108.7,93.48 L108.7,100 C108.7,101.62 109.33,102.42 110.7,102.42 C111.194796,102.39668 111.681896,102.288435 112.14,102.1 L112.69,104.48 C111.784041,104.80242 110.831499,104.974689 109.87,104.990037 C106.64,105 105.47,103 105.47,100 Z" id="Path" fill="#163253"></path>
                            <path d="M113.75,97.81 C113.75,93.33 116.86,90.57 120.11,90.57 C123.83,90.57 125.79,93.27 125.79,97.12 C125.795923,97.6466971 125.749022,98.172661 125.65,98.69 L116.91,98.69 C116.933404,99.7386662 117.376109,100.734208 118.13911,101.453985 C118.902111,102.173762 119.921751,102.557723 120.97,102.52 C122.110559,102.500846 123.221481,102.153683 124.17,101.52 L125.27,103.52 C123.875752,104.475503 122.230089,104.997383 120.54,105.02 C116.74,105 113.75,102.36 113.75,97.81 Z M123,96.49 C123,94.37 122.06,93.08 120.17,93.08 C118.57,93.08 117.17,94.28 116.87,96.49 L123,96.49 Z" id="Shape" fill="#163253"></path>
                            <path d="M127.81,101 C127.81,98.05 130.25,96.51 135.91,95.9 C135.91,94.42 135.27,93.19 133.41,93.19 C132.020607,93.2765851 130.681788,93.7436151 129.54,94.54 L128.35,92.39 C130.024957,91.2645949 131.983086,90.6338345 134,90.57 C137.45,90.57 139.14,92.69 139.14,96.57 L139.14,104.73 L136.49,104.73 L136.25,103.2 L136.16,103.2 C135.005851,104.319562 133.485629,104.983771 131.88,105.07 C130.782867,105.131505 129.711525,104.722491 128.934517,103.945483 C128.157509,103.168475 127.748495,102.097133 127.81,101 L127.81,101 Z M135.91,101 L135.91,97.9 C132.17,98.37 130.91,99.35 130.91,100.74 C130.91,101.96 131.74,102.49 132.91,102.49 C134.068801,102.413697 135.148981,101.877207 135.91,101 Z" id="Shape" fill="#163253"></path>
                            <path d="M143,90.91 L145.65,90.91 L145.9,92.79 L146,92.79 C147.036385,91.489667 148.57111,90.6842088 150.23,90.57 C151.889469,90.442673 153.430656,91.4360637 154,93 C155.32,91.6 156.69,90.53 158.44,90.53 C161.34,90.53 162.69,92.53 162.69,96.01 L162.69,104.65 L159.5,104.65 L159.5,96.46 C159.5,94.2 158.82,93.35 157.38,93.35 C156.223559,93.501392 155.179372,94.1192328 154.49,95.06 L154.49,104.69 L151.26,104.69 L151.26,96.46 C151.26,94.2 150.59,93.35 149.14,93.35 C147.987953,93.5062132 146.948637,94.1233072 146.26,95.06 L146.26,104.69 L143,104.69 L143,90.91 Z" id="Path" fill="#163253"></path>
                            <path d="M-6.50521303e-19,5.21 L10.15,9 C10.32,8.76 10.49,8.52 10.68,8.28 L10.68,8.28 C16.16,0.84 29.2,0 29.2,0 C28.3522288,1.76823526 26.8439818,3.13283966 25,3.8 C27.9309765,4.14966235 30.8784686,4.34326886 33.83,4.38 C32.7400345,5.94251991 31.1599659,7.09677937 29.34,7.66 C30.7742115,9.27532744 31.754212,11.2422299 32.18,13.36 L32.18,13.28 L42.64,13.21 C42.64,13.21 38.43,19 31.76,19.66 C30.3378212,23.8025992 26.7960783,26.8591194 22.49,27.66 L22.84,30.18 L25.09,30.06 C25.2223581,30.0489115 25.3533942,30.0931627 25.4519312,30.182225 C25.5504682,30.2712873 25.6076965,30.3971982 25.61,30.53 C25.6181997,30.662667 25.5732369,30.7931389 25.4850461,30.8925881 C25.3968553,30.9920373 25.2726956,31.0522779 25.14,31.06 L22.43,31.2 L22.43,31.2 C22.1806157,31.1981963 21.9691136,31.0163045 21.93,30.77 L21.52,27.77 C20.4840467,27.8729447 19.4392906,27.8460699 18.41,27.69 C17.1207065,27.4892784 15.8716823,27.0841895 14.71,26.49 L13.1,29.14 C13.0060325,29.2870998 12.8445298,29.3772409 12.67,29.38 C12.5926033,29.3801637 12.5165972,29.3594347 12.45,29.32 L10,28.19 C9.75783682,28.0576277 9.66126514,27.7591334 9.78,27.51 C9.90478782,27.2648435 10.2041732,27.1665378 10.45,27.29 L12.45,28.29 L13.81,26.06 C10.1494683,23.7720597 7.97629257,19.7149577 8.1,15.4 C-0.32,10.41 -6.50521303e-19,5.21 -6.50521303e-19,5.21 Z" id="Path" fill="#000000"></path>
                            <ellipse id="Oval" fill="#FFFFFF" transform="translate(25.624455, 13.307966) rotate(-82.150000) translate(-25.624455, -13.307966) " cx="25.6244548" cy="13.3079656" rx="2.74" ry="1.69"></ellipse>
                            <ellipse id="Oval" fill="#FFFFFF" transform="translate(16.725251, 11.716129) rotate(-82.150000) translate(-16.725251, -11.716129) " cx="16.7252512" cy="11.7161294" rx="2.74" ry="1.69"></ellipse>
                        </g>
                    </g>
                    <path d="M1040.5,991 C1042.98528,991 1045,993.014719 1045,995.5 C1045,997.727355 1043.38176,999.576751 1041.25685,999.936627 C1041.22425,1015.50243 1042.09871,1068.50791 1055.72727,1078.22046 C1054.11835,1073.49903 1052.90249,1062.51697 1052.00986,1044.92451 C1051.32044,1031.41733 1051.07291,1018.20641 1051.01459,1014.48718 C1050.59476,1014.80949 1050.06963,1015 1049.5,1015 C1048.11929,1015 1047,1013.88071 1047,1012.5 C1047,1011.11929 1048.11929,1010 1049.5,1010 C1050.88071,1010 1052,1011.11929 1052,1012.5 C1052,1012.68956 1051.9789,1012.87419 1051.93893,1013.05167 C1052.0428,1013.15143 1052.11235,1013.29417 1052.12553,1013.45613 C1052.32813,1029.65612 1053.61202,1071.14499 1057.1057,1078.69637 C1057.49096,1078.61928 1057.87737,1078.53859 1058.26534,1078.45381 C1058.42485,1078.42098 1058.59075,1078.45378 1058.7262,1078.54495 C1058.86166,1078.63611 1058.95546,1078.77809 1058.98679,1078.93937 C1059.01996,1079.09713 1058.99007,1079.26158 1058.90389,1079.39704 C1058.91775,1079.41544 1058.9295,1079.43639 1058.94005,1079.45818 C1059.38475,1079.21896 1059.77027,1078.85337 1060.05316,1078.3922 C1068.13205,1066.89255 1056.32068,995.384556 1056.21391,994.67434 C1056.18713,994.355352 1056.38777,994.066897 1056.67605,994.009929 C1056.96433,993.952961 1057.24462,994.14638 1057.32164,994.455438 C1057.81545,997.422777 1069.33321,1067.22333 1060.95625,1079.1316 C1060.836,1079.32047 1060.70324,1079.49731 1060.55957,1079.66106 C1061.85709,1079.47939 1063.11146,1079.07928 1064.27153,1078.48137 C1064.60895,1078.23592 1064.92547,1077.95681 1065.21631,1077.64621 C1075.19399,1067.7961 1072.78615,1027.44319 1071.66229,1013.84528 C1071.29219,1013.94722 1070.90226,1014 1070.5,1014 C1068.01472,1014 1066,1011.98528 1066,1009.5 C1066,1007.01472 1068.01472,1005 1070.5,1005 C1072.98528,1005 1075,1007.01472 1075,1009.5 C1075,1011.12255 1074.14126,1012.54454 1072.85347,1013.33626 C1073.30643,1018.69064 1074.00658,1028.60581 1074,1039.11702 C1074,1055.73776 1072.32083,1067.51146 1069.01595,1074.2599 C1078.63901,1061.48971 1077.78698,1030.94928 1077.77322,1030.62811 C1077.76564,1030.3252 1077.9718,1030.06566 1078.25449,1030.00152 L1078.35136,1029.98759 C1078.68568,1029.97931 1078.96461,1030.24497 1078.97768,1030.58411 C1079.08785,1036.80862 1078.7901,1043.03368 1078.08638,1049.21809 C1076.51577,1062.63494 1073.23482,1071.95438 1068.33509,1076.92214 C1067.33216,1077.99573 1066.16748,1078.8796 1064.89571,1079.54808 C1063.68172,1080.40076 1062.24759,1080.90535 1060.74882,1080.98996 C1060.49496,1081.00214 1060.24082,1081.00323 1059.98711,1080.99327 L1059.96483,1081.07741 L1059.96483,1081.07741 C1059.89082,1081.28628 1059.7095,1081.44033 1059.48917,1081.48153 C1058.23629,1081.72196 1056.96851,1081.87935 1055.69432,1081.95264 C1054.23714,1082.05023 1052.78555,1081.9962 1051.36147,1081.79794 C1050.76675,1081.8619 1050.16977,1081.91104 1049.57148,1081.94581 C1045.75574,1082.19191 1041.96283,1081.59597 1038.45455,1080.23509 C1032.55371,1079.09567 1027.1739,1076.68382 1022.3661,1073.0058 C1002.48639,1057.84674 997.976584,1025.27444 997.158432,1017.36919 C996.718006,1017.7619 996.136808,1018 995.5,1018 C994.119288,1018 993,1016.88071 993,1015.5 C993,1014.11929 994.119288,1013 995.5,1013 C996.751151,1013 997.787638,1013.91908 997.971142,1015.11893 C998.102038,1015.21497 998.194951,1015.36438 998.216842,1015.53945 C998.216842,1015.93276 1000.95353,1055.13709 1023.10198,1072.02982 C1026.28571,1074.46234 1029.72589,1076.32292 1033.41013,1077.60993 C1033.06088,1077.37721 1032.71685,1077.13478 1032.37827,1076.88357 C1022.56125,1069.66976 1015.64394,1055.12609 1011.81672,1033.66838 C1010.18801,1024.36787 1009.25854,1014.96135 1009.03557,1005.52633 C1008.40846,1005.07276 1008,1004.33408 1008,1003.5 C1008,1002.11929 1009.11929,1001 1010.5,1001 C1011.88071,1001 1013,1002.11929 1013,1003.5 C1013,1004.88071 1011.88071,1006 1010.5,1006 C1010.42282,1006 1010.34645,1005.9965 1010.27105,1005.98966 C1010.56784,1016.76491 1013.01036,1061.12705 1033.1154,1075.90207 C1034.90523,1077.2182 1036.79516,1078.26717 1038.78116,1079.04847 C1040.71435,1079.41604 1042.70583,1079.64444 1044.75402,1079.73234 C1043.18841,1078.94091 1041.71706,1077.95067 1040.38067,1076.7754 C1032.48759,1069.95911 1027.35485,1056.73385 1025.12669,1037.46765 C1024.11918,1028.54365 1023.78669,1019.55801 1024.13197,1010.58527 C1024.13963,1010.42072 1024.21405,1010.26612 1024.33847,1010.15627 C1024.46289,1010.04643 1024.62686,1009.99058 1024.79346,1010.0013 C1024.95976,1010.01016 1025.11564,1010.08397 1025.22669,1010.20643 C1025.33773,1010.32889 1025.39481,1010.48992 1025.38532,1010.65398 C1025.36045,1011.14471 1022.89853,1060.0463 1041.21125,1075.84791 C1043.29279,1077.64474 1045.57746,1078.94793 1048.05329,1079.75415 C1048.92061,1079.72878 1049.79761,1079.67992 1050.68399,1079.60722 C1038.06356,1074.95133 1036.24799,1058.89637 1033.30947,1032.94086 C1032.89995,1029.34706 1032.4808,1025.60657 1032.00384,1021.69495 C1031.96679,1021.35724 1032.20203,1021.05123 1032.5338,1021.00553 C1032.6945,1020.98345 1032.85718,1021.02807 1032.98503,1021.1293 C1033.11289,1021.23053 1033.19512,1021.37982 1033.21311,1021.54338 C1033.6949,1025.50389 1034.10923,1029.22482 1034.51874,1032.82351 C1037.69627,1060.92031 1039.43449,1076.27235 1053.89738,1079.24556 C1054.22251,1079.19873 1054.54914,1079.14925 1054.87695,1079.09671 C1040.72642,1068.42851 1039.92066,1015.74894 1040.00509,999.968206 C1037.75226,999.726252 1036,997.817758 1036,995.5 C1036,993.014719 1038.01472,991 1040.5,991 Z" id="Combined-Shape" fill="#FFFFFF" fill-rule="nonzero"></path>
                </g>
            </g>
        </g>
    </g>
</svg>