<?xml version="1.0" encoding="utf-8"?>
<!-- Generator: Adobe Illustrator 23.0.1, SVG Export Plug-In . SVG Version: 6.00 Build 0)  -->
<svg version="1.1" id="Calque_1" xmlns="http://www.w3.org/2000/svg" xmlns:xlink="http://www.w3.org/1999/xlink" x="0px" y="0px"
	 viewBox="0 0 287.6 245.6" style="enable-background:new 0 0 287.6 245.6;" xml:space="preserve">
<style type="text/css">
	.st0{opacity:0.3;fill:#FFFFFF;enable-background:new    ;}
	.st1{fill:#FFFFFF;}
</style>
<title>logo-viticoncept</title>
<g>
	<path class="st0" d="M78,182.6c1.3,0.1,2.6-0.1,3.7,0.3c1.1,0.4,2,1.1,2.6,2c4.3,9.4,14.1,14.3,19.5,22.8c0.6,1.2,0.7,2.5,0.3,3.7
		c-0.3,1.2-1.4,2.3-2,3.4c-3.1,5.1-8.8,9-9.6,15.2c-0.2,2.1,0.6,4.3,1.2,6.5c0.9,3.8,2.8,8.4,7.2,8.3c0.8-2,1.2-4.4,2.6-5.9
		c5.1-5.8,10-11.8,14.5-18.1c0.9-1.2,3.4-1.2,5.1-1.8c1.6,2.3,3,4.8,4.3,7.3c2.1,4.2,4.4,11.2,10.2,12c0.2-2.3,0-4.8,0.6-6.9
		c0.8-2.7,2.6-5.1,3.8-7.6c1.8,0,3.6-0.2,5.4-0.2c2.3-0.1,5.3-1.1,6.7,0c9.3,6.7,20.2,11.3,31,14.4c2.8,0.8,6,0.1,9,0.5
		c2.3,0.4,4.6,1.3,6.9,2c-2.5-6-3.2-12.6-2.1-19.1c0.3-1.2,2.1-2.1,3.1-3.1l5.7,2.8c2.1-4.6,2.4-9.4,4.9-13.2
		c3.1-4.9,3.8-10.8,5.4-16c0.5-1.8,3.6-2.6,4.7-4.5c1.6-2.9,1.6-6.8,2.6-10c0.7-2.2,1.3-4.7,2.7-6.5c0.7-1,2.3-1.3,3.4-1.9
		c-1.7-6.8-6.5-12.3-7.3-18.7c3,0,6.1,0.2,9.1,0c1.6-0.2,3.1-0.4,4.7-0.8c-7.2-7.8-11.1-14.8-11.3-22c-0.1-4.2-0.1-8.8-2.5-12.4
		c1-0.8,2.4-1.4,3.1-2.5c1.3-1.9,2-4.3,3-6.4c2.8-5.9-0.5-13.1-4.1-18.2c-2.1-3-4.7-5.8-6-9.1c-0.8-2.3-1.2-5.7-0.2-7.6
		c2.5-4.4,6.6-7.3,10.6-10.6c2.9-2.4,6.3-5,9.9-6c1.9-0.5,4.3,0.9,6.5,1.4c0.5,4.2-0.8,8.5-0.6,12.7c0.1,2,2.2,4.3,4.4,3.7
		c2.5-11.1,6-21.6,9-32.5c1.2-4.2,7.4-6.9,11.4-10.3c6.9-5.7,14.3-12,15.8-21.3c0.3-1.6,0-3.2-0.8-4.6c-1-1.3-3-1.8-4.6-2.7
		c-8.4,7.1-17.2,14.3-27.3,19c-13.7-4.7-27.3-5.4-41.6-2.6c-8.4,1.7-15.8,4-20.9,0.9c-2.4-1.5-5.5-3-8-4.4l1.2-4.8
		c-2.2-0.4-4.5-0.8-6.7-1.1c-6.9-0.9-13.8,1.4-19.7,4.7c-3.3,1.9-7.3,2.3-10.5,3.4c-4.1,1.4-6.7,4.2-11.8,3.7
		c-1.6-0.2-3.7,0.9-5.2,2.1c-2.7,2.2-4.5,5.9-7.4,7.7c-0.9,0.5-2.8-1.1-4-0.8c-1.7,0.6-3.3,1.7-4.4,3.2c-0.8,1-0.8,2.6-1.2,3.9
		c-1.8,5.4-1.8,11.2-0.1,16.6c4.1,12.7-12.4,21.7-15.3,21.8c-3.5,0.1-3.5-2.6-3.5-2.6c-1.7-5.3-3.6-11.7-9.7-11.9
		c-3.6-0.2-7.4-1.3-10.7-0.5c-1.6,0.4-2.4,3.2-4,4.1c-2.2,1.3-5.3,1.1-7.3,2.6c-1.7,1.3-2.6,3.7-3.8,5.6c-3.8,5.5-2.1,13.2-6.1,18.9
		h4.1c-0.2,1.4-0.4,2.9-0.8,4.3c-0.6,1.3-1.2,2.5-2,3.6c-3.4,6-7.9,12-8,19.2c1.6-0.4,3.2-1.2,4.7-1.1c1.2,0.1,2.4,1.2,3.6,1.8
		c-4.1,8.2-1.1,17.6-1.2,29.5c0,0.8,2.3,1.4,2.8,2.5c1.1,2.3,1.2,5.1,1.7,7.7l4.7,0.1c0,0,1.5,1.2,1.3,4.5c-0.3,3.3-4.2,13.9,4,19.2
		C68.4,182,71.7,184.4,78,182.6z M209.1,50.4c0.7-0.9,1.2-2.4,2.2-2.8c1.4-0.6,3.2-0.2,4.8-0.2c-3.5-3.9-3.6-10-7.9-13.4
		c-1.2-1-2.5-1.8-3.7-2.7l2.1-7.7c8-1.3,16.2-3.3,24.3-2.4c3.2,0.4,6.5,0.8,9.7,1.2c-0.8,1.7-1.3,1.6-2.3,3.2
		c-1.1,1.5-2.3,2.9-3.5,4.3l4.3,0.1c-0.3,1.5-0.2,3.3-1,4.5c-5.2,7.9-12.7,13.7-19.9,19.7c-1,0.9-2.6,1.1-3.9,1.7L209.1,50.4z"/>
	<path class="st1" d="M20.1,164l2.6-66.4c0.1-3.9,0.2-5.9,0.2-6.1c0.1-1.7-0.4-3.4-1.5-4.7c-1-1-2.9-1.6-5.7-1.8l0.7-2.2h33.4
		L49.1,85c-2.8,0-5,0.9-6.5,2.6s-2.3,5.3-2.5,10.7l-1.9,41.4l31-36c4-4.7,6.5-7.9,7.4-9.7c0.8-1.4,1.3-3,1.4-4.7c0-1-0.5-2-1.3-2.6
		c-0.9-0.8-2.5-1.3-4.9-1.7l0.8-2.2h21.9V85c-1.6,0.3-3.2,1-4.6,2c-2.9,2.5-5.6,5.2-8,8.2L22.6,164H20.1z"/>
	<path class="st1" d="M98,84.9l0.6-2.2h38.8l-0.8,2.2c-3.5,0-6.2,0.8-8.1,2.3c-1.9,1.6-3.5,4.8-4.9,9.8l-14.5,50.9
		c-0.8,2.3-1.3,4.7-1.6,7.2c-0.1,1.3,0.6,2.5,1.6,3.3c1.4,1,4.1,1.6,8,1.6l-0.6,2.2H77.2l0.6-2.2c4,0,6.8-0.8,8.7-2.3s3.5-4.8,5-9.9
		L106.2,97c0.8-2.3,1.2-4.7,1.3-7.1c0.1-1.3-0.6-2.6-1.6-3.4C104.7,85.7,102.1,85.1,98,84.9z"/>
	<path class="st1" d="M146.1,82.7H210l-6,21.4h-2.1c0.1-1.1,0.1-2.1,0.1-3c0-4.1-1.2-7.2-3.6-9.5s-6.4-3.5-12.1-3.8l-17.7,59.8
		c-0.8,2.4-1.3,4.9-1.5,7.4c0,1.4,0.6,2.7,1.8,3.5c1.2,0.9,3.7,1.4,7.4,1.4l-0.5,2.2h-39.4l0.7-2.2c4,0,6.9-0.8,8.8-2.3
		s3.5-4.9,5-10.1l17.7-59.8c-6.1,0.2-11.2,1.5-15.3,4s-7.9,6.6-11.3,12.3h-2.3L146.1,82.7z"/>
	<path class="st1" d="M216.8,84.9l0.6-2.2h38.8l-0.8,2.2c-3.5,0-6.2,0.8-8.1,2.3s-3.5,4.8-4.9,9.8L228,147.8
		c-0.8,2.3-1.3,4.7-1.6,7.2c-0.1,1.3,0.6,2.5,1.6,3.3c1.4,1,4.1,1.6,8,1.6l-0.6,2.2H196l0.6-2.2c3.9,0,6.8-0.8,8.7-2.3
		s3.5-4.8,5-9.9L225,97c0.8-2.3,1.2-4.7,1.4-7.1c0.1-1.3-0.6-2.6-1.6-3.4C223.5,85.7,220.9,85.1,216.8,84.9z"/>
	<path class="st1" d="M37.3,169.5l-2.7,11.8h-1.1c-0.1-3.2-0.9-5.6-2.4-7.2c-1.5-1.6-3.5-2.4-5.7-2.3c-2.8,0.1-5.5,1.3-7.5,3.2
		c-2.5,2.2-4.6,5.4-6.4,9.9c-1.4,3.4-2.1,7-2.1,10.6c0,3.1,0.8,5.5,2.3,7.2c1.7,1.7,4,2.6,6.3,2.5c2.1,0,4.1-0.5,5.9-1.4
		c2.1-1.2,3.9-2.8,5.4-4.6h1.3c-1.7,2.9-4.1,5.3-6.9,7.1c-2.6,1.4-5.5,2.2-8.5,2.1c-4,0.2-7.9-1.3-10.8-4.1
		c-2.8-2.8-4.3-6.7-4.1-10.6c0-4.1,1.1-8.2,3.2-11.7c2.3-3.8,5.5-6.9,9.4-9c3.7-2.2,7.9-3.4,12.2-3.4c1.9,0.1,3.9,0.4,5.7,1
		c0.8,0.3,1.6,0.4,2.4,0.5c1.1-0.1,2.1-0.6,2.8-1.5L37.3,169.5z"/>
	<path class="st1" d="M49.8,208.3c-2.5,0.1-5.1-0.5-7.2-1.8c-1.8-1.2-3.3-3-4.1-5c-0.9-1.9-1.4-4-1.4-6.2c0.1-4.3,1.3-8.5,3.5-12.2
		c2.2-4,5.5-7.4,9.4-9.9c3.4-2.3,7.5-3.6,11.6-3.7c2.2,0,4.4,0.6,6.4,1.7c2,1.1,3.6,2.7,4.7,4.7c1.1,1.9,1.7,4,1.7,6.1
		c-0.1,4.9-1.6,9.8-4.4,13.9c-2.9,4.7-6.2,8-9.9,10.1C56.8,207.6,53.3,208.4,49.8,208.3z M60.6,171.7c-1.3,0-2.5,0.2-3.7,0.8
		c-1.2,0.7-2.3,1.6-3.2,2.6c-1.3,1.6-2.5,3.4-3.3,5.2c-1.4,3-2.4,6.1-3.2,9.3c-0.9,3.2-1.4,6.5-1.5,9.8c-0.1,1.8,0.4,3.6,1.5,5.1
		c0.9,1.1,2.3,1.7,3.7,1.7c1.9,0,3.7-0.7,5.1-2c2.8-2.7,5.1-6.5,6.8-11.6c1.6-4.4,2.5-9,2.6-13.7c0-2.5-0.5-4.3-1.4-5.4
		C63.2,172.3,62,171.7,60.6,171.7z"/>
	<path class="st1" d="M93.6,170.3l11.6,24.7l5.2-17.9c0.3-0.9,0.4-1.7,0.4-2.6c0-0.8-0.3-1.6-0.9-2.2c-0.9-0.7-1.9-1-3-1l0.3-1H119
		l-0.3,1c-1.3,0-2.6,0.5-3.7,1.3c-1,0.8-1.8,2.2-2.5,4.5l-9,30.7h-1l-14.9-31.6l-7.2,24.6c-0.2,0.7-0.3,1.5-0.3,2.3
		c0,0.9,0.3,1.8,1,2.4c0.9,0.7,2,1,3.1,0.9l-0.2,1H71.9l0.2-1c0.7,0,1.5-0.1,2.2-0.3c0.9-0.4,1.7-0.9,2.3-1.7
		c0.8-1.1,1.4-2.3,1.8-3.6l7.8-26.9c-0.7-0.8-1.5-1.5-2.4-2.1c-1-0.4-2-0.5-3-0.5l0.3-1L93.6,170.3z"/>
	<path class="st1" d="M154,169.5l-2.7,11.8h-1.1c-0.1-3.2-0.9-5.6-2.4-7.2c-1.5-1.6-3.5-2.4-5.7-2.4c-2.8,0.1-5.5,1.3-7.5,3.2
		c-2.5,2.2-4.6,5.4-6.3,9.9c-1.4,3.4-2.1,7-2.1,10.6c0,3.1,0.8,5.5,2.3,7.2c1.7,1.7,4,2.6,6.3,2.5c2.1,0,4.1-0.5,5.9-1.4
		c2.1-1.2,3.9-2.8,5.4-4.6h1.3c-1.7,2.9-4.1,5.3-6.9,7.1c-2.6,1.4-5.5,2.2-8.5,2.1c-4,0.2-7.9-1.3-10.8-4.1
		c-2.8-2.8-4.2-6.7-4.1-10.6c0-4.1,1.1-8.2,3.2-11.7c2.3-3.8,5.5-6.9,9.4-9c3.7-2.2,7.9-3.4,12.1-3.4c1.9,0.1,3.9,0.4,5.7,1
		c0.8,0.3,1.6,0.4,2.4,0.5c1.1-0.1,2.1-0.6,2.8-1.5L154,169.5z"/>
	<path class="st1" d="M171.7,172.4l-4.1,14.4h1.3c3.3,0,5.7-0.4,7.3-1.3c1.7-1.1,3.1-2.7,3.9-4.6h1l-4.2,14.4h-1
		c0.1-0.8,0.2-1.6,0.2-2.4c0-0.9-0.3-1.8-0.9-2.5c-0.6-0.7-1.4-1.1-2.3-1.4c-1.3-0.2-2.6-0.3-3.9-0.3h-2.1l-3.6,12.4
		c-0.3,0.8-0.4,1.6-0.5,2.4c0,0.4,0.2,0.8,0.6,1c1,0.5,2.2,0.6,3.3,0.6c3,0,6.1-0.7,8.8-2c2.9-1.4,5.4-3.5,7.4-6h1.1l-3.9,10.2
		h-31.7l0.3-1c1.4,0.1,2.9-0.3,4.1-1.1c0.9-0.7,1.6-2.2,2.3-4.6l7-23.9c0.3-1,0.5-2.1,0.6-3.1c0-0.6-0.2-1.2-0.7-1.6
		c-1-0.5-2.2-0.8-3.4-0.8l0.3-1h29.6l-2.4,9.3h-1c0-1.3-0.3-2.7-0.9-3.9c-0.7-1.1-1.8-2-3-2.6c-2-0.6-4.1-0.9-6.2-0.8h-3.3V172.4z"
		/>
	<path class="st1" d="M203.4,190.4l-3,10.3c-0.3,1-0.5,2-0.6,3.1c0,0.7,0.3,1.4,0.8,1.9c0.6,0.4,1.8,0.7,3.7,0.7l-0.4,1h-18.1l0.3-1
		c1.1,0,2.2-0.1,3.3-0.4c0.7-0.3,1.2-0.8,1.6-1.4c0.6-1.2,1.1-2.5,1.4-3.9l6.9-23.5c0.4-1.1,0.6-2.2,0.7-3.4c0-0.7-0.3-1.3-0.9-1.7
		c-1-0.6-2.1-0.8-3.3-0.8l0.3-1h14.7c4,0,6.9,0.5,8.7,1.5c2.6,1.4,4.2,4.2,4.1,7.2c0,3.2-1.6,6.2-4.1,8.2c-2.7,2.4-6.4,3.5-11,3.5
		C206.8,190.8,205.1,190.6,203.4,190.4z M204,188.3c1,0.1,2,0.2,2.9,0.2c2.5,0,4.7-1.3,5.9-3.4c1.4-2.1,2.1-4.6,2.2-7.2
		c0.1-1.5-0.4-2.9-1.4-4c-1-1-2.4-1.5-3.9-1.4c-0.3,0-0.8,0-1.3,0.1L204,188.3z"/>
	<path class="st1" d="M230.2,170.3H260l-2.8,10h-1c0-0.5,0.1-1,0.1-1.4c0.1-1.6-0.5-3.3-1.7-4.4c-1.1-1-3-1.6-5.6-1.8l-8.3,27.9
		c-0.4,1.1-0.6,2.3-0.7,3.4c0,0.7,0.3,1.3,0.8,1.7c1.1,0.5,2.3,0.8,3.4,0.7l-0.2,1h-18.4l0.3-1c1.4,0.1,2.9-0.3,4.1-1.1
		c0.9-0.7,1.6-2.2,2.4-4.7l8.3-27.9c-2.5,0-4.9,0.6-7.1,1.8c-2.2,1.5-4,3.4-5.2,5.7h-1.1L230.2,170.3z"/>
</g>
</svg>
