<?xml version="1.0" encoding="UTF-8"?>
<svg width="171px" height="51px" viewBox="0 0 171 51" version="1.1" xmlns="http://www.w3.org/2000/svg" xmlns:xlink="http://www.w3.org/1999/xlink">
    <title>DATEAM-LOGO-BASELNE-RVB_201002</title>
    <g id="Page-1" stroke="none" stroke-width="1" fill="none" fill-rule="evenodd">
        <g id="Dateam---Home---V2" transform="translate(-32.000000, -16.000000)" fill-rule="nonzero">
            <g id="Group" transform="translate(32.000000, 16.000000)">
                <g fill="#FFFFFF">
                    <path d="M24.2772109,31.4880952 C23.8520408,31.2244898 23.7670068,30.4251701 23.7670068,29.8044218 L23.7670068,0.323129252 L18.0612245,0.323129252 L18.0612245,12.1683673 C17.585034,11.8197279 17.0408163,11.4710884 16.4370748,11.1309524 C15.1615646,10.4166667 13.6309524,10.0510204 11.8792517,10.0510204 C10.297619,10.0510204 8.78401361,10.4081633 7.38095238,11.1139456 C5.98639456,11.8112245 4.75340136,12.7806122 3.70748299,13.9880952 C2.67006803,15.1870748 1.83673469,16.6411565 1.2329932,18.2908163 C0.629251701,19.9404762 0.323129252,21.7517007 0.323129252,23.6734694 C0.323129252,25.6887755 0.620748299,27.5255102 1.20748299,29.1496599 C1.80272109,30.7823129 2.62755102,32.1938776 3.67346939,33.3503401 C4.71938776,34.5153061 5.96938776,35.4251701 7.38945578,36.0629252 C8.80952381,36.6921769 10.3316327,37.0153061 11.9302721,37.0153061 C13.9370748,37.0153061 15.6377551,36.5731293 16.9727891,35.6972789 C17.8401361,35.127551 18.5969388,34.4982993 19.2346939,33.8265306 C20.0340136,35.3146259 21.6496599,36.6836735 24.8894558,36.6836735 L25.4591837,36.6836735 L26.7517007,31.9132653 L25.7738095,31.9132653 C25.2295918,31.9132653 24.7363946,31.7772109 24.2772109,31.4880952 Z M18.0612245,17.7636054 L18.0612245,29.2942177 C17.4404762,30 16.6836735,30.5867347 15.8163265,31.037415 C14.0306122,31.9727891 11.9217687,32.0068027 10.2210884,31.1734694 C9.3962585,30.7738095 8.67346939,30.2040816 8.07823129,29.4897959 C7.46598639,28.7670068 6.98979592,27.8996599 6.64965986,26.8962585 C6.30102041,25.8843537 6.13095238,24.7534014 6.13095238,23.537415 C6.13095238,22.3384354 6.29251701,21.207483 6.61564626,20.1785714 C6.93027211,19.1666667 7.38945578,18.2823129 7.97619048,17.5510204 C8.56292517,16.8282313 9.27721088,16.2414966 10.1020408,15.8248299 C10.9098639,15.4166667 11.8282313,15.2040816 12.8316327,15.2040816 C13.9965986,15.2040816 15.0510204,15.4931973 15.9778912,16.0544218 C16.8282313,16.5816327 17.5340136,17.1598639 18.0612245,17.7636054 Z" id="Shape"></path>
                    <path d="M52.6870748,31.4880952 C52.2619048,31.2244898 52.1768707,30.4251701 52.1768707,29.8044218 L52.1768707,10.6207483 L46.8452381,10.6207483 L46.8452381,11.8537415 C46.25,11.4710884 45.6037415,11.1394558 44.914966,10.8418367 C43.6904762,10.3231293 42.3044218,10.0595238 40.8078231,10.0595238 C39.0221088,10.0595238 37.3469388,10.4166667 35.8418367,11.1139456 C34.3367347,11.8112245 33.0187075,12.7891156 31.9387755,14.0136054 C30.8673469,15.2380952 30.0255102,16.6921769 29.4302721,18.3503401 C28.8435374,20 28.5459184,21.7942177 28.5459184,23.6819728 C28.5459184,25.6972789 28.8520408,27.542517 29.4557823,29.1581633 C30.0595238,30.7823129 30.9013605,32.1938776 31.9387755,33.3503401 C32.9846939,34.5153061 34.2346939,35.4251701 35.6547619,36.0629252 C37.0748299,36.6921769 38.6139456,37.0153061 40.2380952,37.0153061 C41.2329932,37.0153061 42.1683673,36.8962585 43.0102041,36.6581633 C43.8520408,36.420068 44.6173469,36.0969388 45.297619,35.6887755 C45.9693878,35.2891156 46.5816327,34.8129252 47.1003401,34.2857143 C47.2789116,34.1071429 47.4489796,33.9285714 47.6105442,33.75 C48.3928571,35.2806122 50.0085034,36.6836735 53.2823129,36.6836735 L53.8520408,36.6836735 L55.1445578,31.9132653 L54.1666667,31.9132653 C53.6394558,31.9132653 53.1462585,31.7772109 52.6870748,31.4880952 Z M46.4710884,16.8197279 L46.4710884,29.2091837 C45.8503401,29.9404762 45.085034,30.5442177 44.2006803,31.0119048 C43.2568027,31.5136054 42.2363946,31.7687075 41.1819728,31.7687075 C40.2040816,31.7687075 39.2942177,31.5731293 38.4863946,31.1819728 C37.6615646,30.7908163 36.9387755,30.2295918 36.3180272,29.5153061 C35.6972789,28.8010204 35.212585,27.9166667 34.872449,26.9132653 C34.5238095,25.8928571 34.3537415,24.7534014 34.3537415,23.5289116 C34.3537415,22.2704082 34.5323129,21.1054422 34.872449,20.0680272 C35.212585,19.0391156 35.6972789,18.1547619 36.3010204,17.4319728 C36.8962585,16.7261905 37.627551,16.164966 38.4608844,15.7823129 C39.2942177,15.3911565 40.2295918,15.1955782 41.2329932,15.1955782 C42.2619048,15.1955782 43.2568027,15.3656463 44.1921769,15.6887755 C45,15.9863946 45.7653061,16.3605442 46.4710884,16.8197279 Z" id="Shape"></path>
                    <path d="M73.1547619,30.6037415 C72.5680272,30.9268707 71.9387755,31.207483 71.292517,31.4455782 C70.6887755,31.6666667 70.0340136,31.7772109 69.3452381,31.7772109 C68.9030612,31.7772109 68.4778912,31.7006803 68.0697279,31.5646259 C67.7040816,31.4370748 67.3979592,31.2329932 67.1343537,30.9438776 C66.8622449,30.6547619 66.6411565,30.2380952 66.4795918,29.7193878 C66.3010204,29.1751701 66.207483,28.4778912 66.207483,27.6615646 L66.207483,16.6496599 L72.9506803,16.6496599 L72.9506803,11.505102 L66.207483,11.505102 L66.207483,3.82653061 L61.5646259,3.82653061 L60.6717687,11.505102 L56.292517,11.505102 L56.292517,16.6496599 L60.5017007,16.6496599 L60.5017007,27.3214286 C60.5017007,30.3996599 61.25,32.8061224 62.7295918,34.4642857 C64.2261905,36.1479592 66.2840136,37.0068027 68.835034,37.0068027 C70.0680272,37.0068027 71.2670068,36.8112245 72.3979592,36.4285714 C73.5034014,36.0544218 74.4047619,35.6632653 75.0680272,35.2636054 L75.5867347,34.9489796 L73.9285714,30.170068 L73.1547619,30.6037415 Z" id="Path"></path>
                    <path d="M96.9557823,13.6394558 C96.0119048,12.5255102 94.8214286,11.6411565 93.4183673,11.0119048 C92.0153061,10.3741497 90.3656463,10.0595238 88.5204082,10.0595238 C86.7602041,10.0595238 85.1445578,10.4081633 83.707483,11.0884354 C82.2789116,11.7687075 81.0289116,12.7295918 80,13.9455782 C78.9795918,15.1530612 78.1717687,16.5986395 77.6190476,18.2397959 C77.0663265,19.872449 76.7857143,21.6496599 76.7857143,23.537415 C76.7857143,25.6377551 77.0663265,27.5340136 77.6190476,29.1836735 C78.1802721,30.8503401 78.9965986,32.2789116 80.042517,33.4268707 C81.0969388,34.5833333 82.3894558,35.4761905 83.8945578,36.0969388 C85.3826531,36.7091837 87.0663265,37.0153061 88.9030612,37.0153061 C90.6972789,37.0153061 92.3469388,36.8537415 93.792517,36.5306122 C95.2465986,36.207483 96.5731293,35.7653061 97.7380952,35.212585 L98.3078231,34.9489796 L96.9302721,29.8979592 L96.1309524,30.2636054 C95.1360544,30.7142857 94.0901361,31.0884354 93.0187075,31.3690476 C91.9642857,31.6496599 90.7482993,31.7857143 89.4217687,31.7857143 C87.457483,31.7857143 85.9268707,31.2244898 84.744898,30.0765306 C83.7244898,29.0816327 83.0442177,27.7210884 82.712585,26.0204082 L99.5578231,26.0204082 L99.6173469,25.3401361 C99.7108844,24.2942177 99.7619048,23.1972789 99.7619048,22.0918367 C99.7619048,20.4931973 99.5323129,18.9540816 99.0731293,17.5085034 C98.5969388,16.037415 97.8911565,14.744898 96.9557823,13.6394558 Z M94.3537415,21.1054422 L82.6360544,21.1054422 C82.9336735,19.2517007 83.5459184,17.8231293 84.4642857,16.8367347 C85.4931973,15.7397959 86.7942177,15.2040816 88.4353741,15.2040816 C90.3231293,15.2040816 91.7517007,15.7568027 92.797619,16.8877551 C93.7244898,17.8826531 94.2431973,19.2942177 94.3537415,21.1054422 Z" id="Shape"></path>
                    <path d="M127.032313,31.4880952 C126.607143,31.2244898 126.522109,30.4251701 126.522109,29.8044218 L126.522109,10.6207483 L121.190476,10.6207483 L121.190476,11.8537415 C120.595238,11.4710884 119.94898,11.1394558 119.260204,10.8418367 C118.035714,10.3231293 116.64966,10.0595238 115.153061,10.0595238 C113.367347,10.0595238 111.692177,10.4166667 110.187075,11.1139456 C108.681973,11.8112245 107.363946,12.7891156 106.284014,14.0136054 C105.212585,15.2380952 104.370748,16.6921769 103.77551,18.3503401 C103.188776,20 102.891156,21.7942177 102.891156,23.6819728 C102.891156,25.6972789 103.197279,27.542517 103.80102,29.1581633 C104.404762,30.7823129 105.246599,32.1938776 106.284014,33.3503401 C107.329932,34.5153061 108.579932,35.4251701 110,36.0629252 C111.420068,36.6921769 112.959184,37.0153061 114.591837,37.0153061 C115.586735,37.0153061 116.522109,36.8962585 117.363946,36.6581633 C118.205782,36.420068 118.971088,36.0969388 119.651361,35.6887755 C120.323129,35.2891156 120.935374,34.8129252 121.454082,34.2857143 C121.632653,34.1071429 121.802721,33.9285714 121.964286,33.75 C122.746599,35.2806122 124.362245,36.6836735 127.636054,36.6836735 L128.205782,36.6836735 L129.498299,31.9132653 L128.520408,31.9132653 C127.984694,31.9132653 127.5,31.7772109 127.032313,31.4880952 Z M120.816327,16.8197279 L120.816327,29.2176871 C120.195578,29.9489796 119.430272,30.5527211 118.545918,31.0204082 C117.602041,31.5221088 116.581633,31.7772109 115.527211,31.7772109 C114.54932,31.7772109 113.639456,31.5816327 112.831633,31.1904762 C112.006803,30.7993197 111.284014,30.2380952 110.663265,29.5323129 C110.042517,28.8095238 109.557823,27.9336735 109.217687,26.9217687 C108.869048,25.8928571 108.69898,24.7534014 108.69898,23.537415 C108.69898,22.2789116 108.877551,21.122449 109.217687,20.0765306 C109.557823,19.047619 110.042517,18.1632653 110.646259,17.4404762 C111.241497,16.7346939 111.964286,16.1734694 112.797619,15.7908163 C113.630952,15.3996599 114.566327,15.2040816 115.569728,15.2040816 C116.598639,15.2040816 117.593537,15.3741497 118.528912,15.6972789 C119.345238,15.9863946 120.119048,16.3605442 120.816327,16.8197279 Z" id="Shape"></path>
                    <path d="M169.94898,15.952381 C169.591837,14.7534014 169.056122,13.707483 168.333333,12.8316327 C167.610544,11.9472789 166.692177,11.2585034 165.603741,10.7738095 C164.532313,10.297619 163.265306,10.0510204 161.862245,10.0510204 C159.736395,10.0510204 157.92517,10.6037415 156.471088,11.7006803 C155.433673,12.4829932 154.489796,13.4013605 153.664966,14.4387755 C153.086735,13.2908163 152.304422,12.329932 151.309524,11.5816327 C149.965986,10.5612245 148.222789,10.0510204 146.130952,10.0510204 C144.243197,10.0510204 142.55102,10.5442177 141.105442,11.5136054 C140.323129,12.0408163 139.608844,12.6360544 138.971088,13.3078231 L138.971088,10.6122449 L133.401361,10.6122449 L133.401361,36.4455782 L139.107143,36.4455782 L139.107143,19.8214286 C139.498299,19.2261905 139.923469,18.6564626 140.382653,18.1207483 C140.87585,17.542517 141.411565,17.0238095 141.981293,16.5901361 C142.534014,16.164966 143.112245,15.8333333 143.69898,15.5867347 C144.260204,15.3571429 144.846939,15.2465986 145.433673,15.2465986 C146.564626,15.2465986 147.431973,15.6632653 148.061224,16.5136054 C148.741497,17.4234694 149.081633,18.6479592 149.081633,20.1615646 L149.081633,36.4455782 L154.787415,36.4455782 L154.787415,19.9659864 C155.178571,19.3707483 155.603741,18.7840136 156.062925,18.2312925 C156.556122,17.6360544 157.091837,17.1003401 157.644558,16.6496599 C158.180272,16.2159864 158.75,15.8673469 159.336735,15.6122449 C159.897959,15.3741497 160.493197,15.255102 161.105442,15.255102 C162.236395,15.255102 163.103741,15.6717687 163.732993,16.5221088 C164.413265,17.4319728 164.753401,18.6564626 164.753401,20.170068 L164.753401,36.4540816 L170.459487,36.4540816 L170.459487,19.8384354 C170.467687,18.4268707 170.297619,17.1173469 169.94898,15.952381 Z" id="Path"></path>
                </g>
                <rect id="Rectangle" fill="#6978B9" x="1.35204082" y="43.6989796" width="52.5170068" height="6.34353741"></rect>
            </g>
        </g>
    </g>
</svg>