<?xml version="1.0" encoding="UTF-8"?>
<svg width="3800px" height="631px" viewBox="0 0 3800 631" version="1.1" xmlns="http://www.w3.org/2000/svg" xmlns:xlink="http://www.w3.org/1999/xlink">
    <title>shape-accueil</title>
    <defs>
        <linearGradient x1="0%" y1="51.0853838%" x2="266.474685%" y2="44.413267%" id="linearGradient-1">
            <stop stop-color="#163253" offset="0%"></stop>
            <stop stop-color="#718297" offset="100%"></stop>
            <stop stop-color="#738498" offset="100%"></stop>
        </linearGradient>
    </defs>
    <g id="Page-1" stroke="none" stroke-width="1" fill="none" fill-rule="evenodd">
        <g id="Dateam---Home---V2-Copy" fill="url(#linearGradient-1)" fill-rule="nonzero">
            <path d="M1180,516.254357 C1207.64178,546.188715 1258.47109,631 1423.10424,631 C1587.7374,631 1717.42135,469.956027 1864,413.797072 C2010.57865,357.638117 2325.21396,402.828875 2373.63727,469.768389 C2422.06057,536.707904 2543.25826,522.571209 2623.96787,469.76864 C2704.67748,416.96607 2828.60237,230.481965 2984.80574,180.143827 C3141.00912,129.80569 3240.20125,145.270197 3400.95139,175.378675 C3508.99108,195.614495 3800,190.054176 3800,-4.8316906e-12 L2620,-4.8316906e-12 L1180,-4.8316906e-12 L-0.0269900461,-4.8316906e-12 C-0.962895014,14.9799752 149.191012,264.5 317.186812,284.126476 C485.182613,303.752951 526.607378,239.498528 705.203044,246.674007 C1043.98448,260.285305 1152.35822,486.319999 1180,516.254357 Z" id="shape-accueil"></path>
        </g>
    </g>
</svg>